<svg width="111" height="111" viewBox="0 0 111 111" fill="none" xmlns="http://www.w3.org/2000/svg">
  <circle cx="55.5" cy="55.5" r="55.5" fill="#FFFBF1"/>
  <g clip-path="url(#attend-workshops)">
    <path
      d="M54.9337 33.9684C53.9372 33.9684 53.1285 33.1438 53.1285 32.1278V27.3252C53.1285 26.3092 53.9372 25.4846 54.9337 25.4846C55.9301 25.4846 56.7388 26.3092 56.7388 27.3252V32.1278C56.7388 33.1438 55.9301 33.9684 54.9337 33.9684Z"
      fill="#F9CB40"/>
    <path
      d="M70.7494 40.6483C70.2872 40.6483 69.8251 40.4691 69.4737 40.1084C68.7685 39.3893 68.7685 38.2236 69.4737 37.5046L72.8048 34.1081C73.51 33.3891 74.6533 33.3891 75.3585 34.1081C76.0638 34.8272 76.0638 35.9929 75.3585 36.7119L72.0274 40.1084C71.6736 40.4667 71.2115 40.6483 70.7494 40.6483Z"
      fill="#F9CB40"/>
    <path
      d="M82.0112 56.7741H77.3009C76.3044 56.7741 75.4957 55.9496 75.4957 54.9336C75.4957 53.9176 76.3044 53.093 77.3009 53.093H82.0112C83.0076 53.093 83.8164 53.9176 83.8164 54.9336C83.8164 55.9496 83.0076 56.7741 82.0112 56.7741Z"
      fill="#F9CB40"/>
    <path
      d="M74.0805 76.2964C73.6184 76.2964 73.1562 76.1173 72.8048 75.7566L69.4737 72.3601C68.7685 71.6411 68.7685 70.4754 69.4737 69.7563C70.1789 69.0373 71.3222 69.0373 72.0274 69.7563L75.3585 73.1528C76.0638 73.8718 76.0638 75.0375 75.3585 75.7566C75.0047 76.1173 74.5426 76.2964 74.0805 76.2964Z"
      fill="#F9CB40"/>
    <path
      d="M35.7869 76.2964C35.3248 76.2964 34.8626 76.1173 34.5112 75.7566C33.806 75.0375 33.806 73.8718 34.5112 73.1528L37.8424 69.7563C38.5476 69.0373 39.6909 69.0373 40.3961 69.7563C41.1013 70.4754 41.1013 71.6411 40.3961 72.3601L37.065 75.7566C36.7111 76.1173 36.249 76.2964 35.7869 76.2964Z"
      fill="#F9CB40"/>
    <path
      d="M32.5665 56.7741H27.8562C26.8597 56.7741 26.051 55.9496 26.051 54.9336C26.051 53.9176 26.8597 53.093 27.8562 53.093H32.5665C33.5629 53.093 34.3716 53.9176 34.3716 54.9336C34.3716 55.9496 33.5629 56.7741 32.5665 56.7741Z"
      fill="#F9CB40"/>
    <path
      d="M39.118 40.6483C38.6559 40.6483 38.1938 40.4691 37.8424 40.1084L34.5112 36.7119C33.806 35.9929 33.806 34.8272 34.5112 34.1081C35.2165 33.3891 36.3597 33.3891 37.065 34.1081L40.3961 37.5046C41.1013 38.2236 41.1013 39.3893 40.3961 40.1084C40.0399 40.4667 39.5801 40.6483 39.118 40.6483Z"
      fill="#F9CB40"/>
    <path
      d="M62.1543 77.0203V80.0879C62.1543 82.4438 60.2529 84.3825 57.9423 84.3825H51.9251C49.9033 84.3825 47.713 82.8119 47.713 79.3762V77.0203H62.1543Z"
      fill="#F9CB40"/>
    <path
      d="M65.548 41.5835C61.6008 38.3196 56.4019 37.0435 51.3233 38.1478C44.9451 39.4976 39.7703 44.7984 38.4465 51.3017C37.0986 57.9768 39.5537 64.6028 44.8007 68.6521C46.2207 69.7319 47.2076 71.4006 47.5445 73.3394V73.3639C47.5927 73.3394 47.6649 73.3394 47.713 73.3394H62.1543C62.2025 73.3394 62.2265 73.3394 62.2747 73.3639V73.3394C62.6116 71.4743 63.6947 69.7564 65.3555 68.4312C69.4231 65.1427 71.7819 60.2346 71.7819 54.9338C71.7819 49.7311 69.5194 44.872 65.548 41.5835ZM63.9595 56.1608C62.9727 56.1608 62.1543 55.3264 62.1543 54.3202C62.1543 50.59 59.1939 47.5715 55.5354 47.5715C54.5486 47.5715 53.7302 46.7371 53.7302 45.7309C53.7302 44.7248 54.5486 43.8904 55.5354 43.8904C61.1675 43.8904 65.7647 48.5777 65.7647 54.3202C65.7647 55.3264 64.9463 56.1608 63.9595 56.1608Z"
      fill="#F9CB40"/>
    <path d="M47.5446 73.3391H47.713C47.6649 73.3391 47.5927 73.3391 47.5446 73.3637V73.3391Z" fill="#F9CB40"/>
    <path d="M62.2747 73.3391V73.3637C62.2266 73.3391 62.2025 73.3391 62.1544 73.3391H62.2747Z" fill="#F9CB40"/>
  </g>
  <defs>
    <clipPath id="attend-workshops">
      <rect width="57.7653" height="58.898" fill="white" transform="translate(26.051 25.4846)"/>
    </clipPath>
  </defs>
</svg>

