<svg width="111" height="111" viewBox="0 0 111 111" fill="none" xmlns="http://www.w3.org/2000/svg">
  <circle cx="55.5" cy="55.5" r="55.5" fill="#FFF5EE"/>
  <g clip-path="url(#clip0)">
    <path
      d="M40.0408 49.1958C41.1043 49.1958 41.9663 48.3168 41.9663 47.2325C41.9663 46.1483 41.1043 45.2693 40.0408 45.2693C38.9774 45.2693 38.1154 46.1483 38.1154 47.2325C38.1154 48.3168 38.9774 49.1958 40.0408 49.1958Z"
      fill="#FF7A1A"/>
    <path
      d="M42.8338 55.0852H37.2481C36.6647 55.0852 36.1901 55.5328 36.1901 56.0825V60.2249C37.3857 60.703 38.6816 60.9748 40.0409 60.9748C41.4003 60.9748 42.6961 60.7029 43.8918 60.2249V56.0825C43.8918 55.5329 43.4171 55.0852 42.8338 55.0852Z"
      fill="#FF7A1A"/>
    <path
      d="M63.1462 36.4348C64.2096 36.4348 65.0717 35.5558 65.0717 34.4715C65.0717 33.3873 64.2096 32.5083 63.1462 32.5083C62.0828 32.5083 61.2207 33.3873 61.2207 34.4715C61.2207 35.5558 62.0828 36.4348 63.1462 36.4348Z"
      fill="#FF7A1A"/>
    <path
      d="M65.9391 42.3245H60.3534C59.77 42.3245 59.2954 42.772 59.2954 43.3218V47.4642C60.4911 47.9422 61.7869 48.2141 63.1463 48.2141C64.5056 48.2141 65.8015 47.9421 66.9971 47.4642V43.3218C66.9971 42.772 66.5225 42.3245 65.9391 42.3245Z"
      fill="#FF7A1A"/>
    <path
      d="M75.6616 61.9565C76.725 61.9565 77.5871 61.0775 77.5871 59.9933C77.5871 58.909 76.725 58.03 75.6616 58.03C74.5982 58.03 73.7361 58.909 73.7361 59.9933C73.7361 61.0775 74.5982 61.9565 75.6616 61.9565Z"
      fill="#FF7A1A"/>
    <path
      d="M78.4545 67.8459H72.8688C72.2854 67.8459 71.8108 68.2935 71.8108 68.8433V72.9857C73.0064 73.4637 74.3023 73.7355 75.6616 73.7355C77.021 73.7355 78.3168 73.4636 79.5125 72.9857V68.8433C79.5125 68.2946 79.0379 67.8459 78.4545 67.8459Z"
      fill="#FF7A1A"/>
    <path
      d="M75.6616 52.141C75.5326 52.141 75.4074 52.1557 75.2804 52.1606L71.1975 44.408C72.6628 42.6588 73.5821 40.4295 73.7072 37.9853L79.7637 40.9665C79.6087 41.3915 79.5125 41.846 79.5125 42.325C79.5125 44.4905 81.2396 46.2514 83.3633 46.2514C85.4871 46.2514 87.2142 44.4904 87.2142 42.325C87.2142 40.1595 85.487 38.3986 83.3633 38.3986C82.417 38.3986 81.5611 38.7618 80.8901 39.341L73.5945 35.7492C72.7049 29.9411 67.2743 25.6466 61.1291 26.8098C56.9258 27.6049 53.5448 31.0415 52.7505 35.3242C52.6484 35.8739 52.5907 36.4177 52.5685 36.9536L46.8625 41.9314C45.249 40.5414 43.2253 39.6344 41.0033 39.4293V34.3318C42.6592 33.8931 43.8915 32.3696 43.8915 30.5448C43.8915 28.3793 42.1644 26.6184 40.0407 26.6184C37.9168 26.6184 36.1898 28.3794 36.1898 30.5448C36.1898 32.3695 37.4221 33.893 39.078 34.3318V39.4293C33.6886 39.928 29.4508 44.5543 29.4508 50.1769C29.4508 53.958 31.3705 57.2856 34.2644 59.2155V56.0823C34.2644 54.4499 35.6036 53.1217 37.2479 53.1217H42.8336C44.4788 53.1217 45.8171 54.4499 45.8171 56.0823V59.2155C48.222 57.6125 49.9347 55.0369 50.4516 52.0449L54.7964 55.4982C54.5951 55.9743 54.4806 56.4974 54.4806 57.0481C54.4806 59.2136 56.2077 60.9744 58.3315 60.9744C60.4552 60.9744 62.1823 59.2134 62.1823 57.0481C62.1823 54.8826 60.4552 53.1217 58.3315 53.1217C57.4457 53.1217 56.6389 53.4407 55.9872 53.9551L50.6046 49.6773C50.4967 47.2754 49.6275 45.0726 48.2208 43.3293L52.736 39.3892C53.2741 42.3379 54.9907 44.8685 57.3685 46.4537V43.3205C57.3685 41.6881 58.7077 40.3599 60.352 40.3599H65.9377C67.583 40.3599 68.9212 41.6881 68.9212 43.3205V44.3492C68.9212 44.7605 69.1542 45.0776 69.4613 45.2415L73.2486 52.4337C68.5698 53.5517 65.0713 57.8316 65.0713 62.9378C65.0713 64.1579 65.2898 65.3221 65.6576 66.4157L61.7596 69.3968C59.9362 66.1311 56.4974 63.9195 52.555 63.9195C47.0405 63.9195 42.5023 68.2405 42.0142 73.7354H37.0141C36.5838 72.0471 35.0886 70.7906 33.2998 70.7906C31.1761 70.7904 29.449 72.5514 29.449 74.7169C29.449 76.8824 31.1761 78.6433 33.2998 78.6433C35.0886 78.6433 36.5837 77.3868 37.0141 75.6985H42.0269C42.3283 79.0673 44.1391 81.9954 46.779 83.7555V80.6223C46.779 78.9898 48.1182 77.6617 49.7625 77.6617H55.3482C56.9934 77.6617 58.3317 78.9898 58.3317 80.6223V83.7555C60.5912 82.2497 62.2413 79.885 62.8632 77.1238L69.1728 80.2306C69.0178 80.6556 68.9216 81.1101 68.9216 81.5891C68.9216 83.7546 70.6487 85.5154 72.7724 85.5154C74.8962 85.5154 76.6233 83.7544 76.6233 81.5891C76.6233 79.4237 74.8961 77.6627 72.7724 77.6627C71.8261 77.6627 70.9702 78.0259 70.2992 78.6051L63.1231 75.0723C63.1269 74.9526 63.1452 74.8378 63.1452 74.7179C63.1452 73.4969 62.9363 72.3277 62.5686 71.2323L66.4589 68.257C67.2974 69.7549 68.472 71.0339 69.8853 71.9763V68.8431C69.8853 67.2106 71.2244 65.8825 72.8688 65.8825H78.4544C80.0997 65.8825 81.4379 67.2106 81.4379 68.8431V71.9763C84.3319 70.0464 86.2516 66.7188 86.2516 62.9377C86.2516 56.9852 81.5005 52.141 75.6616 52.141ZM40.0409 51.1594C37.9171 51.1594 36.19 49.3984 36.19 47.233C36.19 45.0677 37.9172 43.3067 40.0409 43.3067C42.1646 43.3067 43.8917 45.0677 43.8917 47.233C43.8917 49.3984 42.1637 51.1594 40.0409 51.1594ZM63.1462 38.3986C61.0224 38.3986 59.2954 36.6376 59.2954 34.4723C59.2954 32.3069 61.0225 30.5459 63.1462 30.5459C65.2699 30.5459 66.9971 32.3069 66.9971 34.4723C66.9971 36.6376 65.269 38.3986 63.1462 38.3986ZM52.5562 75.6994C50.4324 75.6994 48.7054 73.9384 48.7054 71.773C48.7054 69.6075 50.4325 67.8466 52.5562 67.8466C54.68 67.8466 56.4071 69.6077 56.4071 71.773C56.4071 73.9385 54.679 75.6994 52.5562 75.6994ZM75.6616 63.9202C73.5378 63.9202 71.8107 62.1592 71.8107 59.9938C71.8107 57.8283 73.5379 56.0674 75.6616 56.0674C77.7853 56.0674 79.5125 57.8285 79.5125 59.9938C79.5125 62.1602 77.7844 63.9202 75.6616 63.9202Z"
      fill="#FF7A1A"/>
    <path
      d="M52.5562 73.7358C53.6196 73.7358 54.4817 72.8568 54.4817 71.7726C54.4817 70.6883 53.6196 69.8093 52.5562 69.8093C51.4928 69.8093 50.6307 70.6883 50.6307 71.7726C50.6307 72.8568 51.4928 73.7358 52.5562 73.7358Z"
      fill="#FF7A1A"/>
    <path
      d="M55.3491 79.6252H49.7635C49.1801 79.6252 48.7054 80.0728 48.7054 80.6226V84.765C49.9011 85.243 51.1969 85.5148 52.5563 85.5148C53.9157 85.5148 55.2115 85.2429 56.4072 84.765V80.6226C56.4072 80.0739 55.9325 79.6252 55.3491 79.6252Z"
      fill="#FF7A1A"/>
  </g>
  <defs>
    <clipPath id="clip0">
      <rect width="57.7653" height="58.898" fill="white" transform="translate(29.449 26.6174)"/>
    </clipPath>
  </defs>
</svg>

