<svg width="32" height="33" viewBox="0 0 32 33" fill="none" xmlns="http://www.w3.org/2000/svg">
  <path
    d="M29 4.32275H3C1.34312 4.32275 0 5.66588 0 7.32275V25.3228C0 26.9796 1.34312 28.3228 3 28.3228H29C30.6569 28.3228 32 26.9796 32 25.3228V7.32275C32 5.66588 30.6569 4.32275 29 4.32275ZM29 7.32275V9.87307C27.5986 11.0143 25.3645 12.7888 20.5883 16.5287C19.5357 17.3566 17.4508 19.3457 16 19.3225C14.5495 19.3459 12.4638 17.3563 11.4117 16.5287C6.63625 12.7893 4.40156 11.0144 3 9.87307V7.32275H29ZM3 25.3228V13.7226C4.43213 14.8633 6.46306 16.464 9.55863 18.888C10.9247 19.9633 13.317 22.3371 16 22.3227C18.6698 22.3371 21.0318 19.9978 22.4408 18.8885C25.5363 16.4646 27.5678 14.8634 29 13.7227V25.3228H3Z"
    fill="url(#paint0_linear)"/>
  <defs>
    <linearGradient id="paint0_linear" x1="3.84051e-07" y1="4.47954" x2="22.9806" y2="35.1822"
                    gradientUnits="userSpaceOnUse">
      <stop stop-color="#09D8C4"/>
      <stop offset="1" stop-color="#22306D"/>
    </linearGradient>
  </defs>
</svg>
