<svg width="32" height="37" viewBox="0 0 32 37" fill="none" xmlns="http://www.w3.org/2000/svg">
  <g clip-path="url(#clip0)">
    <path d="M28.5714 2.29053H3.42857C2.51926 2.29053 1.64719 2.65248 1.00421 3.29676C0.361223 3.94104 0 4.81486 0 5.72601L0 30.9196C0 31.8307 0.361223 32.7045 1.00421 33.3488C1.64719 33.9931 2.51926 34.355 3.42857 34.355H13.2321V23.4538H8.73214V18.3228H13.2321V14.4121C13.2321 9.96382 15.875 7.50674 19.9229 7.50674C21.8614 7.50674 23.8886 7.85315 23.8886 7.85315V12.2191H21.655C19.4543 12.2191 18.7679 13.5875 18.7679 14.9911V18.3228H23.6807L22.895 23.4538H18.7679V34.355H28.5714C29.4807 34.355 30.3528 33.9931 30.9958 33.3488C31.6388 32.7045 32 31.8307 32 30.9196V5.72601C32 4.81486 31.6388 3.94104 30.9958 3.29676C30.3528 2.65248 29.4807 2.29053 28.5714 2.29053Z" fill="url(#paint0_linear)"/>
  </g>
  <defs>
    <linearGradient id="paint0_linear" x1="3.84051e-07" y1="2.5" x2="32" y2="34.5" gradientUnits="userSpaceOnUse">
      <stop stop-color="#09D8C4"/>
      <stop offset="1" stop-color="#22306D"/>
    </linearGradient>
    <clipPath id="clip0">
      <rect width="32" height="36.6452" fill="white"/>
    </clipPath>
  </defs>
</svg>
