<svg width="32" height="33" viewBox="0 0 32 33" fill="none"
     xmlns="http://www.w3.org/2000/svg">
  <path
    d="M28.5714 0.290527H3.42857C2.51926 0.290527 1.64719 0.652479 1.00421 1.29676C0.361223 1.94104 0 2.81486 0 3.72601L0 28.9196C0 29.8307 0.361223 30.7045 1.00421 31.3488C1.64719 31.9931 2.51926 32.355 3.42857 32.355H13.2321V21.4538H8.73214V16.3228H13.2321V12.4121C13.2321 7.96382 15.875 5.50674 19.9229 5.50674C21.8614 5.50674 23.8886 5.85315 23.8886 5.85315V10.2191H21.655C19.4543 10.2191 18.7679 11.5875 18.7679 12.9911V16.3228H23.6807L22.895 21.4538H18.7679V32.355H28.5714C29.4807 32.355 30.3528 31.9931 30.9958 31.3488C31.6388 30.7045 32 29.8307 32 28.9196V3.72601C32 2.81486 31.6388 1.94104 30.9958 1.29676C30.3528 0.652479 29.4807 0.290527 28.5714 0.290527Z"
    fill="url(#facebook-gradient)"/>
  <defs>
    <linearGradient id="facebook-gradient" x1="3.84051e-07" y1="0.5" x2="32" y2="32.5" gradientUnits="userSpaceOnUse">
      <stop stop-color="#09D8C4"/>
      <stop offset="1" stop-color="#22306D"/>
    </linearGradient>
  </defs>
</svg>
