<?xml version="1.0" encoding="UTF-8"?>
<svg xmlns="http://www.w3.org/2000/svg" xmlns:xlink="http://www.w3.org/1999/xlink" width="799pt" height="208pt"
     viewBox="0 0 799 208" version="1.1">
  <g id="surface1">
    <path style=" stroke:none;fill-rule:nonzero;fill:rgb(0%,0%,0%);fill-opacity:1;"
          d="M 0 31.523438 C -0.0078125 30.433594 0.410156 29.382812 1.167969 28.601562 C 1.554688 28.21875 2.007812 27.917969 2.511719 27.71875 C 3.015625 27.515625 3.550781 27.417969 4.09375 27.429688 L 92.761719 27.429688 C 93.867188 27.429688 94.90625 27.820312 95.621094 28.601562 C 96.398438 29.378906 96.855469 30.484375 96.855469 31.523438 L 96.855469 55.378906 C 96.855469 56.421875 96.398438 57.523438 95.621094 58.304688 C 95.242188 58.679688 94.796875 58.976562 94.308594 59.175781 C 93.816406 59.375 93.292969 59.476562 92.761719 59.476562 L 33.390625 59.476562 L 33.390625 91 L 82.171875 91 C 82.714844 91.007812 83.246094 91.125 83.738281 91.351562 C 84.230469 91.574219 84.671875 91.898438 85.03125 92.300781 C 85.8125 93.015625 86.265625 94.054688 86.332031 95.160156 L 86.332031 118.949219 C 86.28125 120.035156 85.816406 121.058594 85.03125 121.8125 C 84.285156 122.601562 83.257812 123.066406 82.171875 123.109375 L 33.453125 123.109375 L 33.453125 176.085938 C 33.390625 177.183594 32.929688 178.226562 32.15625 179.011719 C 31.425781 179.785156 30.425781 180.25 29.363281 180.3125 L 4.027344 180.3125 C 3.488281 180.300781 2.957031 180.179688 2.464844 179.957031 C 1.972656 179.730469 1.53125 179.410156 1.167969 179.011719 C 0.421875 178.246094 0 177.21875 0 176.152344 Z M 119.136719 31.523438 C 119.136719 30.484375 119.523438 29.378906 120.304688 28.601562 C 120.679688 28.226562 121.128906 27.929688 121.617188 27.730469 C 122.109375 27.53125 122.632812 27.425781 123.164062 27.429688 L 211.898438 27.429688 C 212.4375 27.417969 212.976562 27.515625 213.476562 27.71875 C 213.980469 27.917969 214.4375 28.21875 214.820312 28.601562 C 215.578125 29.382812 216 30.433594 215.988281 31.523438 L 215.988281 55.378906 C 215.992188 56.46875 215.574219 57.519531 214.820312 58.304688 C 214.4375 58.6875 213.980469 58.988281 213.476562 59.1875 C 212.976562 59.390625 212.4375 59.488281 211.898438 59.476562 L 152.589844 59.476562 L 152.589844 86.582031 L 201.308594 86.582031 C 202.414062 86.582031 203.453125 87.035156 204.230469 87.816406 C 205.011719 88.59375 205.464844 89.636719 205.53125 90.742188 L 205.53125 114.53125 C 205.53125 115.636719 205.078125 116.675781 204.296875 117.457031 C 203.542969 118.226562 202.515625 118.671875 201.4375 118.691406 L 152.65625 118.691406 L 152.65625 148.136719 L 211.898438 148.136719 C 212.441406 148.132812 212.984375 148.242188 213.484375 148.453125 C 213.988281 148.664062 214.441406 148.976562 214.820312 149.371094 C 215.578125 150.15625 216 151.203125 215.988281 152.296875 L 215.988281 176.085938 C 215.972656 177.183594 215.53125 178.234375 214.753906 179.011719 C 214.378906 179.382812 213.933594 179.679688 213.445312 179.878906 C 212.953125 180.082031 212.425781 180.183594 211.898438 180.179688 L 123.164062 180.179688 C 122.632812 180.183594 122.109375 180.082031 121.617188 179.878906 C 121.128906 179.679688 120.679688 179.382812 120.304688 179.011719 C 119.921875 178.613281 119.621094 178.144531 119.421875 177.632812 C 119.21875 177.121094 119.125 176.570312 119.136719 176.019531 Z M 242.949219 31.523438 C 242.953125 30.699219 243.203125 29.894531 243.664062 29.210938 C 244.128906 28.53125 244.78125 28 245.546875 27.691406 C 246.023438 27.507812 246.53125 27.421875 247.039062 27.429688 L 272.570312 27.429688 C 273.609375 27.429688 274.648438 27.886719 275.425781 28.664062 C 276.140625 29.445312 276.597656 30.484375 276.660156 31.523438 L 276.660156 148.199219 L 327.589844 148.199219 C 328.679688 148.21875 329.722656 148.664062 330.488281 149.441406 C 331.253906 150.21875 331.683594 151.269531 331.683594 152.359375 L 331.683594 176.152344 C 331.683594 176.703125 331.570312 177.25 331.347656 177.753906 C 331.121094 178.257812 330.792969 178.707031 330.382812 179.074219 C 329.640625 179.8125 328.636719 180.234375 327.589844 180.246094 L 247.039062 180.246094 C 246.511719 180.25 245.984375 180.152344 245.492188 179.949219 C 245.003906 179.75 244.554688 179.453125 244.183594 179.074219 C 243.804688 178.691406 243.507812 178.230469 243.304688 177.730469 C 243.105469 177.226562 243.003906 176.691406 243.011719 176.152344 L 243.011719 31.523438 Z M 534.097656 89.832031 C 534.824219 90.8125 535.886719 91.496094 537.085938 91.746094 C 538.28125 91.996094 539.53125 91.800781 540.589844 91.195312 C 556.050781 82.03125 609.1875 51.871094 625.167969 21.90625 C 638.679688 -3.445312 610.421875 -1.300781 594.183594 1.753906 C 587.039062 3.121094 580.410156 6.242188 574.695312 10.789062 C 559.691406 22.683594 536.109375 44.785156 533.121094 86.191406 C 533.054688 87.492188 533.382812 88.789062 534.097656 89.832031 Z M 438.605469 148.527344 C 438.074219 148.28125 437.5 148.148438 436.917969 148.136719 L 385.859375 148.136719 L 385.859375 31.523438 C 385.800781 30.441406 385.339844 29.421875 384.558594 28.664062 C 383.828125 27.890625 382.828125 27.425781 381.765625 27.367188 L 356.238281 27.367188 C 355.699219 27.378906 355.167969 27.503906 354.675781 27.726562 C 354.183594 27.949219 353.742188 28.269531 353.378906 28.664062 C 352.636719 29.433594 352.21875 30.457031 352.210938 31.523438 L 352.210938 176.152344 C 352.199219 176.691406 352.300781 177.226562 352.503906 177.726562 C 352.707031 178.230469 353.007812 178.683594 353.386719 179.066406 C 353.769531 179.449219 354.226562 179.75 354.726562 179.953125 C 355.226562 180.152344 355.761719 180.253906 356.300781 180.246094 L 404.695312 180.246094 C 414.527344 168.242188 425.910156 157.597656 438.539062 148.589844 Z M 596.714844 70.332031 C 586.90625 76.46875 576.800781 82.128906 566.445312 87.296875 C 570.371094 97.007812 570.71875 107.800781 567.421875 117.742188 C 564.125 127.6875 557.402344 136.132812 548.453125 141.570312 C 542.539062 145.082031 535.851562 147.09375 528.964844 147.421875 C 526.984375 159.480469 522.894531 171.097656 516.882812 181.742188 C 528.636719 183.277344 540.589844 182.082031 551.8125 178.25 C 563.03125 174.417969 573.21875 168.050781 581.582031 159.640625 C 588.8125 152.296875 594.519531 143.59375 598.378906 134.035156 C 602.234375 124.472656 604.164062 114.246094 604.058594 103.9375 C 604.058594 92.367188 601.589844 80.859375 596.714844 70.332031 Z M 487.519531 120.511719 C 484.3125 112.585938 483.46875 103.902344 485.082031 95.503906 C 486.695312 87.109375 490.699219 79.359375 496.613281 73.191406 C 504.472656 65.039062 515.242188 60.339844 526.558594 60.125 C 528.964844 48.164062 533.382812 36.726562 539.550781 26.261719 C 525.300781 23.851562 510.660156 25.542969 497.328125 31.136719 C 487.894531 35.117188 479.347656 40.945312 472.199219 48.277344 C 465.046875 55.613281 459.433594 64.304688 455.691406 73.839844 C 451.851562 83.40625 449.910156 93.628906 449.972656 103.9375 C 449.972656 115.179688 452.3125 126.296875 456.792969 136.5 C 466.71875 130.582031 476.976562 125.242188 487.519531 120.511719 Z M 520 117.78125 C 519.269531 116.796875 518.203125 116.117188 517 115.878906 C 515.800781 115.636719 514.554688 115.851562 513.503906 116.480469 C 498.109375 125.582031 446.140625 156.261719 430.160156 186.03125 C 416.648438 211.378906 444.972656 209.234375 461.210938 206.179688 C 468.355469 204.863281 475.054688 201.78125 480.699219 197.210938 C 492.460938 188.214844 502.144531 176.789062 509.09375 163.710938 C 516.042969 150.632812 520.097656 136.207031 520.972656 121.421875 C 521.085938 120.128906 520.742188 118.84375 520 117.78125 Z M 794.128906 27.429688 L 769.054688 27.429688 C 768.175781 27.5 767.339844 27.828125 766.644531 28.371094 C 765.957031 28.914062 765.433594 29.648438 765.15625 30.484375 L 746.773438 104.457031 L 745.929688 104.457031 L 712.734375 27.753906 C 712.460938 27.011719 711.960938 26.375 711.304688 25.933594 C 710.640625 25.46875 709.84375 25.238281 709.03125 25.285156 L 705.132812 25.285156 C 704.378906 25.320312 703.660156 25.5625 703.035156 25.988281 C 702.417969 26.410156 701.929688 27.003906 701.625 27.691406 L 668.300781 104.457031 L 667.457031 104.457031 L 649.074219 30.550781 C 640.886719 39.332031 631.929688 47.359375 622.3125 54.535156 L 656.804688 179.402344 C 657.019531 180.269531 657.523438 181.042969 658.226562 181.597656 C 658.933594 182.152344 659.804688 182.453125 660.703125 182.457031 L 664.078125 182.457031 C 664.839844 182.417969 665.574219 182.179688 666.210938 181.769531 C 666.847656 181.359375 667.367188 180.789062 667.71875 180.117188 L 706.757812 90.804688 L 707.40625 90.804688 L 746.578125 180.246094 C 746.921875 180.925781 747.441406 181.507812 748.078125 181.929688 C 748.714844 182.351562 749.457031 182.597656 750.214844 182.652344 L 753.722656 182.652344 C 754.621094 182.636719 755.484375 182.332031 756.183594 181.78125 C 756.894531 181.226562 757.394531 180.460938 757.621094 179.59375 L 798.089844 32.890625 C 798.304688 32.421875 798.429688 31.914062 798.449219 31.398438 C 798.46875 30.882812 798.382812 30.367188 798.199219 29.882812 C 798.019531 29.398438 797.746094 28.957031 797.394531 28.578125 C 797.039062 28.203125 796.617188 27.902344 796.140625 27.691406 C 795.503906 27.4375 794.804688 27.367188 794.128906 27.496094 Z M 527.082031 113.75 C 532.472656 113.75 536.824219 109.332031 536.824219 103.804688 C 536.824219 98.34375 532.472656 93.859375 527.082031 93.859375 C 521.6875 93.859375 517.335938 98.34375 517.335938 103.804688 C 517.335938 109.332031 521.6875 113.75 527.082031 113.75 Z M 527.082031 113.75 "/>
  </g>
</svg>
