<svg width="111" height="111" viewBox="0 0 111 111" fill="none" xmlns="http://www.w3.org/2000/svg">
  <circle cx="55.5" cy="55.5" r="55.5" fill="#ECF2FF"/>
  <g clip-path="url(#clip0)">
    <path
      d="M56.4267 55.3143L49.8596 61.8815C49.1859 62.5551 48.0937 62.5552 47.4198 61.8815C46.7461 61.2078 46.7461 60.1154 47.4198 59.4417L53.987 52.8746C52.3906 50.9429 51.2564 48.7554 50.5857 46.4597L25.6618 72.8743C23.1011 75.6075 23.1699 79.8228 25.8181 82.471L26.8303 83.4832C29.4786 86.1317 33.6943 86.1998 36.4315 83.6354L62.8416 58.7156C60.5459 58.0449 58.3584 56.9107 56.4267 55.3143Z"
      fill="#175FFF"/>
    <path
      d="M56.4181 32.2039L77.0986 52.8832C74.5879 54.8729 71.4135 56.061 67.962 56.061C59.8317 56.061 53.2403 49.4696 53.2403 41.3393C53.2403 37.8879 54.4284 34.7146 56.4181 32.2039Z"
      fill="#175FFF"/>
    <path
      d="M82.6836 41.3393C82.6836 44.7748 81.5059 47.9353 79.5346 50.4403L58.861 29.7667C61.3659 27.7954 64.5265 26.6177 67.962 26.6177C76.0922 26.6177 82.6836 33.2091 82.6836 41.3393Z"
      fill="#175FFF"/>
  </g>
  <defs>
    <clipPath id="clip0">
      <rect width="58.898" height="58.898" fill="white" transform="translate(23.7857 26.6174)"/>
    </clipPath>
  </defs>
</svg>

