<svg width="32" height="37" viewBox="0 0 32 37" fill="none" xmlns="http://www.w3.org/2000/svg">
  <g clip-path="url(#clip0)">
    <path d="M16.0072 10.1384C11.4643 10.1384 7.80002 13.7893 7.80002 18.3156C7.80002 22.8419 11.4643 26.4928 16.0072 26.4928C20.55 26.4928 24.2143 22.8419 24.2143 18.3156C24.2143 13.7893 20.55 10.1384 16.0072 10.1384ZM16.0072 23.6318C13.0714 23.6318 10.6714 21.2477 10.6714 18.3156C10.6714 15.3835 13.0643 12.9994 16.0072 12.9994C18.95 12.9994 21.3429 15.3835 21.3429 18.3156C21.3429 21.2477 18.9429 23.6318 16.0072 23.6318ZM26.4643 9.80392C26.4643 10.8643 25.6072 11.7112 24.55 11.7112C23.4857 11.7112 22.6357 10.8572 22.6357 9.80392C22.6357 8.75063 23.4929 7.89662 24.55 7.89662C25.6072 7.89662 26.4643 8.75063 26.4643 9.80392ZM31.9 11.7397C31.7786 9.18476 31.1929 6.92162 29.3143 5.05702C27.4429 3.19242 25.1715 2.60884 22.6072 2.48074C19.9643 2.33129 12.0429 2.33129 9.40002 2.48074C6.84288 2.60173 4.57145 3.1853 2.69287 5.0499C0.814303 6.9145 0.235731 9.17764 0.107159 11.7326C-0.0428406 14.3658 -0.0428406 22.2583 0.107159 24.8915C0.228588 27.4464 0.814303 29.7096 2.69287 31.5742C4.57145 33.4388 6.83573 34.0223 9.40002 34.1504C12.0429 34.2999 19.9643 34.2999 22.6072 34.1504C25.1715 34.0295 27.4429 33.4459 29.3143 31.5742C31.1857 29.7096 31.7715 27.4464 31.9 24.8915C32.05 22.2583 32.05 14.3729 31.9 11.7397ZM28.4857 27.7169C27.9286 29.1118 26.85 30.1864 25.4429 30.7486C23.3357 31.5813 18.3357 31.3891 16.0072 31.3891C13.6786 31.3891 8.67145 31.5742 6.57145 30.7486C5.17145 30.1935 4.09288 29.1189 3.52859 27.7169C2.69287 25.6174 2.88573 20.6357 2.88573 18.3156C2.88573 15.9955 2.70002 11.0067 3.52859 8.91432C4.08573 7.51943 5.1643 6.44479 6.57145 5.88257C8.67859 5.0499 13.6786 5.24205 16.0072 5.24205C18.3357 5.24205 23.3429 5.05702 25.4429 5.88257C26.8429 6.43767 27.9215 7.51231 28.4857 8.91432C29.3215 11.0138 29.1286 15.9955 29.1286 18.3156C29.1286 20.6357 29.3215 25.6245 28.4857 27.7169Z" fill="url(#paint0_linear)"/>
  </g>
  <defs>
    <linearGradient id="paint0_linear" x1="-0.00534019" y1="2.57701" x2="31.8238" y2="34.5943" gradientUnits="userSpaceOnUse">
      <stop stop-color="#09D8C4"/>
      <stop offset="1" stop-color="#22306D"/>
    </linearGradient>
    <clipPath id="clip0">
      <rect width="32" height="36.438" fill="white" transform="translate(0 0.103516)"/>
    </clipPath>
  </defs>
</svg>
