<svg width="32" height="33" viewBox="0 0 32 33" fill="none"
     xmlns="http://www.w3.org/2000/svg">
  <path
    d="M16.0072 8.1384C11.4643 8.1384 7.80002 11.7893 7.80002 16.3156C7.80002 20.8419 11.4643 24.4928 16.0072 24.4928C20.55 24.4928 24.2143 20.8419 24.2143 16.3156C24.2143 11.7893 20.55 8.1384 16.0072 8.1384ZM16.0072 21.6318C13.0714 21.6318 10.6714 19.2477 10.6714 16.3156C10.6714 13.3835 13.0643 10.9994 16.0072 10.9994C18.95 10.9994 21.3429 13.3835 21.3429 16.3156C21.3429 19.2477 18.9429 21.6318 16.0072 21.6318ZM26.4643 7.80392C26.4643 8.86432 25.6072 9.71122 24.55 9.71122C23.4857 9.71122 22.6357 8.8572 22.6357 7.80392C22.6357 6.75063 23.4929 5.89662 24.55 5.89662C25.6072 5.89662 26.4643 6.75063 26.4643 7.80392ZM31.9 9.73968C31.7786 7.18476 31.1929 4.92162 29.3143 3.05702C27.4429 1.19242 25.1715 0.608844 22.6072 0.480742C19.9643 0.331289 12.0429 0.331289 9.40002 0.480742C6.84288 0.601727 4.57145 1.1853 2.69287 3.0499C0.814303 4.9145 0.235731 7.17764 0.107159 9.73256C-0.0428406 12.3658 -0.0428406 20.2583 0.107159 22.8915C0.228588 25.4464 0.814303 27.7096 2.69287 29.5742C4.57145 31.4388 6.83573 32.0223 9.40002 32.1504C12.0429 32.2999 19.9643 32.2999 22.6072 32.1504C25.1715 32.0295 27.4429 31.4459 29.3143 29.5742C31.1857 27.7096 31.7715 25.4464 31.9 22.8915C32.05 20.2583 32.05 12.3729 31.9 9.73968ZM28.4857 25.7169C27.9286 27.1118 26.85 28.1864 25.4429 28.7486C23.3357 29.5813 18.3357 29.3891 16.0072 29.3891C13.6786 29.3891 8.67145 29.5742 6.57145 28.7486C5.17145 28.1935 4.09288 27.1189 3.52859 25.7169C2.69287 23.6174 2.88573 18.6357 2.88573 16.3156C2.88573 13.9955 2.70002 9.00665 3.52859 6.91432C4.08573 5.51943 5.1643 4.44479 6.57145 3.88257C8.67859 3.0499 13.6786 3.24205 16.0072 3.24205C18.3357 3.24205 23.3429 3.05702 25.4429 3.88257C26.8429 4.43767 27.9215 5.51231 28.4857 6.91432C29.3215 9.01377 29.1286 13.9955 29.1286 16.3156C29.1286 18.6357 29.3215 23.6245 28.4857 25.7169Z"
    fill="url(#instagram-gradient)"/>
  <defs>
    <linearGradient id="instagram-gradient" x1="-0.00534019" y1="0.57701" x2="31.8238" y2="32.5943"
                    gradientUnits="userSpaceOnUse">
      <stop stop-color="#09D8C4"/>
      <stop offset="1" stop-color="#22306D"/>
    </linearGradient>
  </defs>
</svg>
