<svg xmlns="http://www.w3.org/2000/svg" height="800" width="1200" viewBox="-20.0325 -8.3145 173.615 49.887"><g fill="none"><path fill="#858285" d="M73.164 28.965l-1.3 4.293c9.534-9.64 24.097-19.653 37.89-24.64L112.364 0c-14.196 6.125-28.884 17.36-39.2 28.965"/><path d="M106.063 22.254l3.57-12.399h4.496l-3.567 12.399zm-90.356 0l-9.21-6.094h-.25L4.5 22.254H0L3.57 9.855h4.496l-1.53 5.254h.21l11.996-5.254h6.07l-13.46 5.727 10.675 6.672zm7.426 0l3.57-12.399H31.2l-3.57 12.399zM34.871 9.906h4.512l-.543 2 .332-.097c1.594-1.301 5.043-2.215 8.918-2.215 4.887 0 8.504 1.367 7.547 4.648l-2.25 8.055-4.555-.043 2.074-7.293c.688-2.32-1.754-3.18-4.781-3.18-3.98 0-7.563 1.328-8.41 4.196l-1.906 6.277h-4.496L34.87 9.906zm25.059 1.512c3.027-1.223 7.008-1.824 10.515-1.824 7.43 0 9.79 1.941 9.153 4.078l-1.805 6.3c-.266.86-.371 1.59-.426 2.243l-4.058.039c.054-.625.214-1.25.375-1.875h-.11c-2.547 1.59-5.629 2.187-9.449 2.187-4.672 0-8.336-1.3-7.645-3.699.903-3.18 7.434-4.273 15.079-4.273h3.504l.16-.52c.37-1.277-1.172-2.605-5.258-2.605-3.664 0-5.63.758-7.54 1.41zm12.105 4.898c-4.512 0-10.14.391-10.722 2.368-.372 1.406 1.539 2.007 4.828 2.007 5.308 0 7.754-1.93 8.23-3.597l.215-.778h-2.55zm57.735-3.8c-.79-.664-2.395-.98-4.141-.98-2.074 0-4.285.456-4.61 1.593-.71 2.488 11.711 1.07 10.426 5.484-.75 2.66-5.425 3.957-10.386 3.957-3.145 0-6.07-.472-7.786-1.683l3.856-1.614c.855.825 2.605 1.301 4.605 1.301 2.07 0 4.606-.562 4.926-1.699.785-2.715-11.672-1.156-10.387-5.586.715-2.559 5.711-3.75 10.387-3.75 2.64 0 5.18.367 6.89 1.281zm-32.797 9.738L81.82 9.867h5.907l16.257 12.387z" fill="#DE1A2F"/></g></svg>