<svg width="345" height="351" viewBox="0 0 345 351" fill="none" xmlns="http://www.w3.org/2000/svg">
  <path
    d="M193.939 92.0571L171.828 50.4881L152.613 58.5468L136.574 43.3981C132.688 39.7277 126.301 42.554 126.405 47.8982L126.818 69.3641L108.291 77.1344L120.92 102.863C127.36 115.983 138.388 126.285 151.915 131.819L123.768 140.706C128.371 154.323 138.657 165.272 151.962 170.714L161.65 174.677C169.358 177.83 178.002 177.792 185.682 174.571L195.335 170.522C197.626 169.562 200.262 170.639 201.222 172.93L205.271 182.583C208.492 190.263 214.631 196.348 222.339 199.502L232.027 203.464C245.332 208.907 260.343 208.306 273.169 201.819L259.32 175.753C272.847 181.286 287.934 181.666 301.723 176.821L328.764 167.319L320.993 148.791L336.333 133.77C340.152 130.03 337.577 123.538 332.233 123.432L310.176 122.997L302.117 103.782L257.212 117.938C266.258 95.8247 279.972 75.9258 297.417 59.6013L283.095 53.7425C276.994 51.2472 272.758 45.6009 272.07 39.046L269.254 12.2544C268.752 7.4734 263.13 5.17333 259.42 8.23186L238.635 25.3689C233.549 29.5621 226.571 30.6206 220.47 28.1253L206.148 22.2666C207.149 46.138 202.984 69.9437 193.939 92.0571Z"
    fill="#09D8C4"/>
  <path
    d="M85.548 255.953L39.1438 247.984L33.751 268.11L11.9542 271.517C6.67231 272.342 4.99711 279.122 9.28618 282.313L26.5123 295.129L21.312 314.536L49.3876 320.303C63.7039 323.244 78.6012 320.832 91.258 313.525L81.0513 341.221C94.6358 345.919 109.591 344.489 122.039 337.302L131.105 332.068C138.316 327.904 143.579 321.046 145.735 313.002L148.444 302.891C149.086 300.492 151.552 299.068 153.952 299.712L164.063 302.421C172.106 304.576 180.677 303.448 187.889 299.284L196.954 294.05C209.403 286.863 218.118 274.627 220.842 260.513L191.753 255.503C204.41 248.196 213.947 236.5 218.558 222.632L227.602 195.434L208.195 190.234L205.71 168.908C205.091 163.598 198.381 161.66 195.026 165.821L181.177 182.994L161.051 177.601L144.749 221.773C132.804 201.082 125.466 178.056 123.24 154.268L109.839 162.005C104.131 165.301 97.0729 165.192 91.4684 161.724L68.5616 147.548C64.4733 145.017 59.2134 148.055 59.3607 152.86L60.1849 179.786C60.3864 186.375 56.951 192.54 51.243 195.836L37.842 203.573C57.3292 217.394 73.6016 235.262 85.548 255.953Z"
    fill="#1E5480"/>
  <path
    d="M344.088 124.714C342.17 119.878 337.569 116.686 332.367 116.584L314.769 116.236L308.434 101.133C307.065 97.8687 303.433 96.1852 300.056 97.2486L269.971 106.733C278.218 91.0021 288.983 76.8769 302.098 64.6044C303.802 63.0094 304.577 60.6573 304.155 58.362C303.733 56.0667 302.171 54.1442 300.01 53.2603L285.689 47.4016C281.917 45.8593 279.309 42.3828 278.883 38.3302L276.068 11.5379C275.571 6.81306 272.531 2.76037 268.134 0.96184C263.734 -0.837375 258.727 -0.0768533 255.062 2.94536L234.275 20.0831C231.13 22.6757 226.835 23.3273 223.063 21.7844L208.741 15.9256C206.581 15.0418 204.12 15.3186 202.209 16.6601C200.299 18.0016 199.204 20.2229 199.302 22.5545C200.055 40.4994 197.835 58.1201 192.693 75.1202L177.88 47.27C176.216 44.1437 172.442 42.8001 169.181 44.169L154.077 50.5026L141.281 38.4165C137.499 34.8441 131.979 33.8951 127.223 36.0013C122.465 38.1068 119.455 42.8282 119.556 48.0299L119.881 64.8449L105.643 70.8161C103.902 71.5457 102.54 72.9613 101.878 74.729C101.214 76.4967 101.311 78.4589 102.143 80.1533L114.772 105.883C119.491 115.497 126.404 123.741 134.868 130.017L121.707 134.172C119.952 134.727 118.493 135.964 117.66 137.606C116.827 139.248 116.69 141.156 117.279 142.9C117.927 144.819 118.676 146.689 119.516 148.508L106.415 156.072C102.886 158.109 98.5415 158.043 95.076 155.898L72.1685 141.722C68.1289 139.223 63.0622 139.144 58.9478 141.52C54.8328 143.895 52.3676 148.321 52.5128 153.07L53.3371 179.996C53.4618 184.069 51.3467 187.865 47.8175 189.903L34.4159 197.639C32.3947 198.806 31.1066 200.922 30.9976 203.253C30.8887 205.585 31.9747 207.811 33.878 209.162C48.528 219.553 61.0999 232.097 71.393 246.571L40.3034 241.232C36.8166 240.636 33.4423 242.792 32.5262 246.211L28.2872 262.031L10.8959 264.749C5.75587 265.552 1.62781 269.335 0.379462 274.386C-0.868889 279.436 1.02077 284.707 5.19541 287.813L18.6888 297.851L14.693 312.765C14.2045 314.588 14.4895 316.532 15.4809 318.138C16.473 319.744 18.0832 320.869 19.9317 321.249L48.008 327.016C58.499 329.171 69.2491 328.753 79.3935 325.903L74.6214 338.852C73.9842 340.58 74.0698 342.491 74.8585 344.155C75.6464 345.819 77.0708 347.096 78.8111 347.697C84.8144 349.773 91.0466 350.799 97.2568 350.799C107.052 350.799 116.789 348.246 125.465 343.237L134.53 338.003C142.933 333.152 149.057 325.466 151.918 316.253L167.974 344.062C169.243 346.26 171.545 347.488 173.914 347.488C175.076 347.488 176.254 347.192 177.333 346.569C180.61 344.678 181.733 340.487 179.841 337.21L163.785 309.401C173.195 311.53 182.912 310.069 191.315 305.218L200.379 299.984C214.557 291.799 224.467 277.885 227.569 261.811C227.918 260.004 227.525 258.131 226.478 256.617C225.431 255.103 223.819 254.073 222.005 253.76L208.404 251.419C215.945 244.058 221.681 234.957 225.061 224.793L229.975 210.015C236.679 212.677 243.743 214.012 250.797 214.012C259.544 214.012 268.271 211.976 276.262 207.935C277.904 207.103 279.143 205.647 279.7 203.891C280.257 202.137 280.084 200.232 279.22 198.606L272.745 186.419C283.181 187.873 293.891 186.837 303.994 183.288L331.035 173.786C332.816 173.16 334.259 171.828 335.025 170.102C335.791 168.377 335.811 166.412 335.081 164.672L329.11 150.434L341.126 138.668C344.843 135.027 346.006 129.55 344.088 124.714ZM149.368 177.057L153.348 178.685L143.703 204.823C137.966 192.284 133.932 179.133 131.628 165.509C136.702 170.387 142.699 174.328 149.368 177.057ZM212.058 220.469C207.972 232.759 199.544 243.094 188.328 249.569C185.829 251.012 184.502 253.866 185.009 256.707C185.516 259.547 187.747 261.766 190.591 262.256L212.221 265.98C208.786 275.245 202.214 283.101 193.528 288.116L184.463 293.35C178.783 296.629 172.168 297.499 165.835 295.802L161.076 294.527L168.167 268.06C169.147 264.404 166.977 260.648 163.322 259.669C159.666 258.689 155.911 260.859 154.931 264.513L149.522 284.698L135.195 259.881C133.303 256.604 129.112 255.482 125.835 257.373C122.558 259.265 121.435 263.456 123.328 266.732L137.656 291.549L114.962 285.469C111.305 284.488 107.551 286.659 106.571 290.313C105.591 293.969 107.76 297.725 111.416 298.704L140.391 306.469L139.115 311.229C137.418 317.563 133.356 322.856 127.678 326.135L118.613 331.369C109.926 336.384 99.8371 338.147 90.0956 336.489L97.6857 315.894C98.684 313.186 97.8783 310.144 95.6721 308.285C93.4659 306.426 90.3299 306.148 87.8319 307.591C76.6159 314.066 63.4513 316.197 50.7657 313.592L29.8109 309.287L33.1291 296.901C33.8561 294.189 32.8544 291.307 30.6009 289.631L14.9445 277.984L34.8085 274.88C37.4867 274.461 39.6669 272.502 40.3685 269.883L44.1437 255.794L84.3883 262.705C87.0035 263.154 89.6503 262.05 91.1686 259.869C92.6882 257.689 92.8095 254.827 91.481 252.526C80.7186 233.885 66.8661 217.715 50.2183 204.338L54.6676 201.768C62.573 197.204 67.3108 188.7 67.0319 179.575L66.2543 154.177L87.862 167.55C95.6241 172.355 105.357 172.503 113.263 167.938L117.713 165.369C120.975 186.476 128.052 206.559 138.815 225.198C140.143 227.5 142.684 228.825 145.331 228.6C147.978 228.373 150.256 226.638 151.176 224.145L165.314 185.837L179.403 189.612C182.021 190.314 184.808 189.405 186.509 187.295L199.129 171.645L201.041 188.05C201.042 188.058 201.043 188.065 201.044 188.073L201.389 191.027C201.714 193.816 203.708 196.125 206.421 196.852L218.805 200.17L212.058 220.469ZM316.199 143.898C314.192 145.863 313.588 148.853 314.674 151.443L319.633 163.267L299.45 170.359C287.232 174.652 273.901 174.316 261.914 169.413C259.242 168.32 256.173 169.019 254.239 171.158C252.303 173.298 251.915 176.422 253.269 178.969L263.568 198.352C254.138 201.308 243.904 200.922 234.621 197.125L234.273 196.982C234.648 195.365 234.428 193.659 233.635 192.184C232.739 190.523 231.198 189.303 229.375 188.815L214.462 184.819L213.192 173.919L234.952 164.793C238.442 163.33 240.083 159.315 238.621 155.825C237.158 152.336 233.142 150.694 229.653 152.157L210.382 160.238L226.215 121.53C227.648 118.028 225.97 114.027 222.467 112.595C218.965 111.161 214.964 112.84 213.532 116.342L197.698 155.051L188.612 133.385C187.148 129.896 183.133 128.254 179.644 129.717C176.154 131.18 174.512 135.195 175.976 138.685L186.969 164.897L184.89 167.476L183.033 168.254C176.985 170.79 170.313 170.819 164.245 168.336L154.556 164.373C145.272 160.576 137.701 153.678 133.047 144.961L153.978 138.353C156.73 137.484 158.643 134.985 158.76 132.102C158.88 129.219 157.179 126.57 154.509 125.478C142.522 120.575 132.778 111.472 127.071 99.8453L117.645 80.6418L129.469 75.6834C132.059 74.5974 133.723 72.0411 133.669 69.2327L133.293 49.7229L147.909 63.5281C149.879 65.3896 152.763 65.9131 155.263 64.8655L168.715 59.2246L187.89 95.2754C189.137 97.622 191.63 99.0382 194.284 98.9005C196.937 98.7669 199.274 97.1109 200.281 94.6519C208.43 74.7296 212.735 53.8763 213.118 32.5228L217.873 34.4679C226.322 37.9245 235.947 36.4638 242.99 30.6571L262.597 14.4923L265.253 39.7635C266.208 48.8425 272.049 56.6299 280.498 60.0859L285.253 62.031C270.561 77.5319 259.017 95.424 250.868 115.346C249.862 117.805 250.368 120.625 252.167 122.579C253.967 124.535 256.735 125.274 259.269 124.474L298.213 112.197L303.854 125.649C304.902 128.149 307.326 129.796 310.038 129.849L330.139 130.246L316.199 143.898Z"
    fill="black"/>
  <path
    d="M113.845 229.761C112.043 229.761 110.276 230.488 109.001 231.769C107.727 233.043 106.994 234.804 106.994 236.613C106.994 238.415 107.727 240.176 109.001 241.457C110.276 242.731 112.044 243.464 113.845 243.464C115.655 243.464 117.415 242.731 118.689 241.457C119.97 240.176 120.703 238.415 120.703 236.613C120.703 234.811 119.97 233.043 118.689 231.769C117.422 230.488 115.654 229.761 113.845 229.761Z"
    fill="black"/>
</svg>
