<svg width="417" height="424" viewBox="0 0 417 424" fill="none" xmlns="http://www.w3.org/2000/svg">
<path d="M234.412 111.267L207.687 61.0235L184.462 70.7639L165.076 52.454C160.379 48.0177 152.659 51.4338 152.784 57.8931L153.284 83.8383L130.89 93.2301L146.155 124.328C153.939 140.186 167.268 152.637 183.618 159.325L149.597 170.067C155.161 186.526 167.594 199.759 183.675 206.337L195.385 211.127C204.702 214.938 215.15 214.892 224.433 210.999L236.1 206.105C238.869 204.944 242.055 206.247 243.216 209.015L248.109 220.683C252.002 229.965 259.422 237.321 268.739 241.132L280.45 245.921C296.531 252.499 314.674 251.773 330.178 243.932L313.439 212.427C329.789 219.115 348.024 219.575 364.69 213.718L397.374 202.234L387.982 179.84L406.524 161.684C411.14 157.163 408.028 149.317 401.568 149.189L374.908 148.663L365.167 125.438L310.891 142.548C321.824 115.821 338.4 91.7693 359.486 72.0383L342.175 64.9571C334.801 61.941 329.681 55.1164 328.849 47.1938L325.445 14.8116C324.838 9.03291 318.043 6.25289 313.56 9.94965L288.436 30.6627C282.289 35.7308 273.854 37.0103 266.481 33.9943L249.169 26.913C250.379 55.7657 245.346 84.5389 234.412 111.267Z" fill="#09D8C4"/>
<path d="M103.402 309.363L47.3132 299.731L40.7949 324.057L14.4492 328.174C8.065 329.172 6.04019 337.366 11.2244 341.224L32.0455 356.713L25.7599 380.17L59.6947 387.141C76.9988 390.695 95.0051 387.78 110.303 378.948L97.9665 412.424C114.386 418.102 132.463 416.374 147.509 407.687L158.466 401.361C167.183 396.328 173.544 388.039 176.149 378.316L179.424 366.096C180.2 363.196 183.181 361.475 186.081 362.252L198.302 365.527C208.024 368.132 218.384 366.768 227.101 361.736L238.058 355.41C253.104 346.723 263.639 331.933 266.931 314.874L231.771 308.819C247.07 299.987 258.597 285.85 264.171 269.088L275.101 236.215L251.644 229.93L248.641 204.154C247.893 197.736 239.783 195.393 235.727 200.423L218.988 221.18L194.661 214.661L174.958 268.051C160.52 243.042 151.651 215.211 148.959 186.46L132.762 195.811C125.863 199.794 117.332 199.663 110.558 195.471L82.8703 178.337C77.9288 175.278 71.5711 178.949 71.7492 184.757L72.7455 217.302C72.9889 225.266 68.8366 232.718 61.9374 236.701L45.7397 246.053C69.2938 262.758 88.9621 284.354 103.402 309.363Z" fill="#1E5480"/>
<path d="M415.897 150.739C413.579 144.893 408.018 141.035 401.73 140.911L380.459 140.491L372.803 122.237C371.149 118.291 366.759 116.256 362.677 117.541L326.313 129.004C336.281 109.991 349.292 92.9188 365.145 78.0854C367.204 76.1576 368.141 73.3146 367.631 70.5404C367.121 67.7662 365.232 65.4425 362.621 64.3742L345.311 57.2929C340.752 55.4288 337.6 51.2269 337.085 46.3285L333.682 13.9455C333.081 8.23474 329.407 3.33638 324.092 1.16255C318.774 -1.01211 312.722 -0.0928902 308.292 3.55997L283.167 24.2739C279.366 27.4075 274.175 28.195 269.615 26.3301L252.304 19.2488C249.694 18.1805 246.719 18.5151 244.41 20.1366C242.101 21.758 240.777 24.4428 240.895 27.2609C241.806 48.9503 239.122 70.2481 232.907 90.7955L215.002 57.1339C212.992 53.3551 208.43 51.7312 204.488 53.3858L186.233 61.041L170.765 46.4328C166.194 42.115 159.523 40.968 153.774 43.5137C148.023 46.0585 144.385 51.7651 144.507 58.0523L144.899 78.3761L127.69 85.5932C125.586 86.4752 123.94 88.1861 123.139 90.3227C122.337 92.4592 122.454 94.831 123.459 96.8789L138.725 127.978C144.429 139.598 152.784 149.563 163.014 157.148L147.107 162.17C144.985 162.84 143.222 164.336 142.215 166.321C141.208 168.305 141.043 170.611 141.755 172.719C142.538 175.038 143.443 177.299 144.459 179.497L128.623 188.639C124.358 191.101 119.107 191.022 114.918 188.43L87.2298 171.295C82.3471 168.274 76.223 168.179 71.25 171.051C66.2761 173.922 63.2965 179.272 63.472 185.01L64.4683 217.556C64.619 222.479 62.0625 227.067 57.7968 229.53L41.5983 238.881C39.1553 240.291 37.5984 242.848 37.4667 245.666C37.335 248.484 38.6476 251.174 40.9482 252.807C58.6556 265.367 73.8512 280.528 86.2924 298.023L48.7145 291.57C44.5001 290.849 40.4215 293.455 39.3143 297.588L34.1906 316.709L13.1698 319.994C6.95709 320.965 1.96753 325.537 0.458654 331.642C-1.05022 337.746 1.2338 344.117 6.27967 347.87L22.5891 360.003L17.7594 378.029C17.1689 380.233 17.5134 382.582 18.7118 384.523C19.9109 386.464 21.857 387.825 24.0914 388.284L58.027 395.254C70.7075 397.859 83.7011 397.354 95.9626 393.909L90.1945 409.561C89.4244 411.648 89.5279 413.958 90.4811 415.97C91.4335 417.981 93.1552 419.524 95.2587 420.251C102.515 422.76 110.048 424 117.554 424C129.393 424 141.163 420.914 151.649 414.86L162.606 408.534C172.762 402.671 180.164 393.381 183.622 382.245L203.029 415.857C204.564 418.514 207.346 419.998 210.209 419.998C211.614 419.998 213.038 419.641 214.341 418.888C218.302 416.602 219.66 411.537 217.372 407.576L197.967 373.964C209.34 376.537 221.085 374.771 231.241 368.907L242.198 362.581C259.334 352.688 271.312 335.872 275.062 316.443C275.484 314.258 275.008 311.995 273.742 310.165C272.478 308.335 270.528 307.09 268.336 306.713L251.897 303.882C261.011 294.986 267.945 283.986 272.03 271.701L277.969 253.838C286.073 257.057 294.611 258.67 303.137 258.67C313.709 258.67 324.258 256.209 333.916 251.324C335.901 250.32 337.399 248.559 338.073 246.438C338.745 244.317 338.536 242.014 337.492 240.049L329.665 225.319C342.28 227.076 355.224 225.825 367.436 221.534L400.12 210.05C402.273 209.293 404.018 207.683 404.944 205.598C405.869 203.512 405.893 201.137 405.011 199.034L397.794 181.825L412.317 167.603C416.81 163.203 418.216 156.583 415.897 150.739ZM180.541 214.003L185.351 215.971L173.693 247.564C166.759 232.407 161.883 216.512 159.098 200.046C165.231 205.942 172.48 210.706 180.541 214.003ZM256.313 266.475C251.374 281.329 241.187 293.82 227.632 301.647C224.611 303.39 223.007 306.84 223.619 310.274C224.232 313.707 226.929 316.388 230.366 316.981L256.51 321.482C252.358 332.68 244.415 342.175 233.916 348.237L222.96 354.563C216.095 358.527 208.099 359.578 200.444 357.527L194.691 355.986L203.263 323.996C204.447 319.578 201.825 315.037 197.407 313.854C192.988 312.669 188.449 315.292 187.264 319.709L180.727 344.106L163.409 314.11C161.123 310.149 156.058 308.793 152.097 311.079C148.136 313.366 146.778 318.431 149.066 322.391L166.384 352.387L138.954 345.037C134.533 343.852 129.996 346.476 128.812 350.893C127.627 355.311 130.249 359.852 134.667 361.035L169.69 370.419L168.148 376.173C166.096 383.828 161.187 390.227 154.323 394.189L143.367 400.515C132.867 406.577 120.673 408.708 108.898 406.705L118.072 381.811C119.279 378.538 118.305 374.862 115.638 372.615C112.972 370.368 109.181 370.032 106.162 371.776C92.6053 379.603 76.6933 382.178 61.3603 379.029L36.0324 373.826L40.0431 358.856C40.9217 355.577 39.711 352.094 36.9872 350.068L18.0633 335.991L42.0728 332.239C45.31 331.733 47.9452 329.365 48.7932 326.2L53.3563 309.17L102 317.524C105.161 318.066 108.36 316.732 110.195 314.096C112.032 311.461 112.178 308.002 110.573 305.221C97.5642 282.69 80.8208 263.146 60.6986 246.977L66.0765 243.871C75.6317 238.354 81.3583 228.076 81.0212 217.047L80.0813 186.349L106.198 202.512C115.58 208.32 127.344 208.499 136.901 202.982L142.279 199.877C146.222 225.388 154.776 249.661 167.785 272.191C169.39 274.972 172.461 276.574 175.661 276.301C178.86 276.028 181.614 273.93 182.726 270.918L199.814 224.616L216.843 229.179C220.008 230.027 223.376 228.928 225.433 226.378L240.686 207.462L242.998 227.29C242.999 227.3 243 227.309 243.001 227.318L243.418 230.889C243.811 234.26 246.221 237.05 249.5 237.929L264.469 241.94L256.313 266.475ZM382.188 173.925C379.763 176.3 379.033 179.914 380.345 183.045L386.338 197.335L361.944 205.907C347.176 211.096 331.063 210.691 316.574 204.765C313.345 203.443 309.635 204.288 307.297 206.874C304.958 209.46 304.489 213.236 306.125 216.314L318.573 239.742C307.175 243.315 294.806 242.848 283.585 238.259L283.164 238.087C283.618 236.132 283.352 234.069 282.393 232.287C281.311 230.279 279.448 228.805 277.245 228.215L259.219 223.385L257.684 210.21L283.985 199.181C288.204 197.412 290.188 192.559 288.42 188.341C286.652 184.124 281.798 182.139 277.58 183.907L254.288 193.675L273.425 146.89C275.157 142.657 273.129 137.821 268.895 136.09C264.662 134.357 259.826 136.386 258.095 140.619L238.957 187.405L227.974 161.218C226.205 157.002 221.353 155.017 217.135 156.785C212.916 158.554 210.932 163.406 212.701 167.624L225.988 199.306L223.476 202.423L221.232 203.363C213.922 206.428 205.857 206.464 198.522 203.463L186.811 198.673C175.59 194.083 166.439 185.746 160.814 175.21L186.113 167.223C189.438 166.173 191.751 163.152 191.893 159.667C192.037 156.183 189.982 152.982 186.754 151.662C172.266 145.735 160.488 134.733 153.59 120.68L142.197 97.4694L156.488 91.4762C159.619 90.1637 161.631 87.0739 161.566 83.6794L161.111 60.0986L178.777 76.7845C181.159 79.0345 184.644 79.6672 187.665 78.401L203.925 71.583L227.101 115.156C228.61 117.993 231.622 119.705 234.83 119.538C238.037 119.377 240.862 117.375 242.078 114.403C251.928 90.3235 257.132 65.1187 257.595 39.3093L263.343 41.6604C273.554 45.8382 285.188 44.0727 293.702 37.0543L317.4 17.5164L320.61 48.0609C321.764 59.0344 328.824 68.4469 339.037 72.624L344.784 74.975C327.026 93.7105 313.073 115.336 303.223 139.415C302.007 142.388 302.619 145.795 304.794 148.158C306.969 150.522 310.314 151.415 313.377 150.448L360.449 135.609L367.267 151.868C368.534 154.89 371.464 156.88 374.741 156.945L399.037 157.424L382.188 173.925Z" fill="black"/>
<path d="M137.605 277.706C135.427 277.706 133.29 278.584 131.75 280.132C130.21 281.673 129.323 283.801 129.323 285.987C129.323 288.165 130.209 290.293 131.75 291.842C133.29 293.382 135.427 294.268 137.605 294.268C139.792 294.268 141.919 293.382 143.46 291.842C145.008 290.293 145.893 288.165 145.893 285.987C145.893 283.809 145.008 281.673 143.46 280.132C141.927 278.584 139.791 277.706 137.605 277.706Z" fill="black"/>
</svg>
