<svg width="111" height="111" viewBox="0 0 111 111" fill="none" xmlns="http://www.w3.org/2000/svg">
  <circle cx="55.5" cy="55.5" r="55.5" fill="#EDF8F8"/>
  <g clip-path="url(#meet-recruiters)">
    <path
      d="M43.4089 41.5872C41.4833 39.6239 33.3 39.1332 30.6523 38.8877C30.4117 38.8877 30.1709 38.8877 29.9303 39.1331C29.6896 39.3786 29.449 39.8694 29.449 40.1148V62.2015C29.449 62.9377 29.9304 63.4286 30.6525 63.4286H37.8731C38.3545 63.4286 38.8358 63.1832 39.0766 62.6924C39.0766 61.9562 43.409 48.9495 43.8904 42.5689C43.8903 42.3235 43.8903 41.8327 43.4089 41.5872Z"
      fill="#0DA49A"/>
    <path
      d="M69.1626 47.4772C66.7558 46.741 64.5896 45.7594 62.664 45.0231C58.3316 43.0598 56.4061 44.0416 52.5551 47.968C50.8703 49.6859 49.6668 52.14 49.9075 53.1216C49.9075 53.367 49.9075 53.367 50.3889 53.6125C51.5924 54.1033 53.2772 54.3487 54.962 51.6492C55.2026 51.4038 55.4434 51.1583 55.9247 51.1583C56.6467 51.1583 56.8874 50.9129 57.6095 50.6675C58.0909 50.4221 58.5722 50.1766 59.2942 49.9312C59.5349 49.9312 59.5349 49.9312 59.7757 49.9312C60.0163 49.9312 60.4977 50.1766 60.7384 50.1766C61.942 51.4038 64.1082 53.1216 66.2744 55.0849C69.644 57.7844 73.0136 60.7293 74.6985 62.938H74.9392C73.2544 58.0298 70.3661 49.6859 69.1626 47.4772Z"
      fill="#0DA49A"/>
    <path
      d="M86.0108 41.342C76.6239 41.342 71.3288 43.7961 71.088 43.7961C70.8474 44.0415 70.6066 44.2869 70.366 44.5323C70.366 44.7777 70.366 45.2685 70.6066 45.5139C72.0508 47.9679 76.8646 61.4655 77.5866 64.9011C77.8273 65.392 78.3087 65.8827 78.7901 65.8827H86.0108C86.7329 65.8827 87.2143 65.3918 87.2143 64.6556V42.5689C87.2143 41.8329 86.7329 41.342 86.0108 41.342Z"
      fill="#0DA49A"/>
    <path
      d="M73.0136 65.3918C72.0509 63.1832 67.9591 59.9929 64.3488 57.048C62.4234 55.3301 60.4978 53.8576 59.0537 52.6305C58.813 52.8759 58.3316 52.8759 58.3316 53.1214C57.6095 53.3668 57.3689 53.6122 56.4061 53.6122C54.4806 56.0663 52.0737 57.0479 49.4262 56.0663C48.2227 55.8209 47.5006 54.8392 47.26 53.8576C46.7785 51.4036 48.9447 47.9678 50.6296 46.25H45.8158C44.8531 51.1582 43.1682 57.5387 41.9648 60.9745C42.9276 61.9561 43.8904 63.1832 44.6125 63.674C49.1855 67.6005 54.4807 71.5271 55.4435 72.2633C56.1655 72.7542 57.6097 73.2449 58.3317 73.2449C58.5724 73.2449 58.8131 73.2449 59.0538 73.2449L55.2027 69.3183C54.7213 68.8275 54.7213 68.0913 55.2027 67.6005C55.6841 67.1098 56.4062 67.1097 56.8875 67.6005L61.7013 72.5087C62.1827 72.9996 62.664 72.7541 63.1454 72.7541C63.8675 72.5087 64.1081 72.0179 64.3489 71.2816L58.813 65.6372C58.3316 65.1464 58.3316 64.4101 58.813 63.9194C59.2944 63.4287 60.0165 63.4285 60.4978 63.9194L66.515 70.0546C66.7556 70.2999 67.7185 70.2999 68.4405 70.0546C68.6812 69.8092 69.1626 69.5637 69.4033 69.073L62.664 62.2015C62.1826 61.7106 62.1826 60.9744 62.664 60.4836C63.1454 59.9929 63.8675 59.9928 64.3488 60.4836L71.3288 67.6005C71.8102 67.8459 72.2915 67.6005 72.7729 67.3551C73.0136 67.1097 73.495 66.3734 73.0136 65.3918Z"
      fill="#0DA49A"/>
  </g>
  <defs>
    <clipPath id="meet-recruiters">
      <rect width="57.7653" height="58.898" fill="white" transform="translate(29.449 26.6174)"/>
    </clipPath>
  </defs>
</svg>

