<svg width="32" height="33" viewBox="0 0 32 33" fill="none" xmlns="http://www.w3.org/2000/svg">
  <path
    d="M28.5714 0.296387H3.42857C1.53571 0.296387 0 1.83463 0 3.7306V28.9148C0 30.8108 1.53571 32.349 3.42857 32.349H28.5714C30.4643 32.349 32 30.8108 32 28.9148V3.7306C32 1.83463 30.4643 0.296387 28.5714 0.296387ZM25.0786 11.6579C25.0929 11.8582 25.0929 12.0657 25.0929 12.266C25.0929 18.4691 20.3786 25.6165 11.7643 25.6165C9.10714 25.6165 6.64286 24.8438 4.57143 23.5131C4.95 23.556 5.31429 23.5703 5.7 23.5703C7.89286 23.5703 9.90714 22.8262 11.5143 21.567C9.45714 21.5241 7.72857 20.1719 7.13571 18.3117C7.85714 18.419 8.50714 18.419 9.25 18.2258C7.10714 17.7894 5.5 15.9006 5.5 13.6183V13.561C6.12143 13.9116 6.85 14.1262 7.61429 14.1549C6.97173 13.7268 6.44499 13.146 6.08105 12.4643C5.71711 11.7827 5.52731 11.0214 5.52857 10.2484C5.52857 9.37558 5.75714 8.57427 6.16429 7.88027C8.47143 10.7278 11.9357 12.588 15.8214 12.7883C15.1571 9.60453 17.5357 7.02172 20.3929 7.02172C21.7429 7.02172 22.9571 7.58693 23.8143 8.50272C24.8714 8.30239 25.8857 7.90889 26.7857 7.37229C26.4357 8.45979 25.7 9.37558 24.7286 9.9551C25.6714 9.85494 26.5857 9.59022 27.4286 9.22534C26.7929 10.1626 25.9929 10.9925 25.0786 11.6579Z"
    fill="url(#twitter-gradient)"/>
  <defs>
    <linearGradient id="twitter-gradient" x1="3.84051e-07" y1="0.505781" x2="31.9881" y2="32.5058"
                    gradientUnits="userSpaceOnUse">
      <stop stop-color="#09D8C4"/>
      <stop offset="1" stop-color="#22306D"/>
    </linearGradient>
  </defs>
</svg>
