<svg width="32" height="37" viewBox="0 0 32 37" fill="none" xmlns="http://www.w3.org/2000/svg">
  <path
    d="M28.5714 2.29639H3.42857C1.53571 2.29639 0 3.83463 0 5.7306V30.9148C0 32.8108 1.53571 34.349 3.42857 34.349H28.5714C30.4643 34.349 32 32.8108 32 30.9148V5.7306C32 3.83463 30.4643 2.29639 28.5714 2.29639ZM25.0786 13.6579C25.0929 13.8582 25.0929 14.0657 25.0929 14.266C25.0929 20.4691 20.3786 27.6165 11.7643 27.6165C9.10714 27.6165 6.64286 26.8438 4.57143 25.5131C4.95 25.556 5.31429 25.5703 5.7 25.5703C7.89286 25.5703 9.90714 24.8262 11.5143 23.567C9.45714 23.5241 7.72857 22.1719 7.13571 20.3117C7.85714 20.419 8.50714 20.419 9.25 20.2258C7.10714 19.7894 5.5 17.9006 5.5 15.6183V15.561C6.12143 15.9116 6.85 16.1262 7.61429 16.1549C6.97173 15.7268 6.44499 15.146 6.08105 14.4643C5.71711 13.7827 5.52731 13.0214 5.52857 12.2484C5.52857 11.3756 5.75714 10.5743 6.16429 9.88027C8.47143 12.7278 11.9357 14.588 15.8214 14.7883C15.1571 11.6045 17.5357 9.02172 20.3929 9.02172C21.7429 9.02172 22.9571 9.58693 23.8143 10.5027C24.8714 10.3024 25.8857 9.90889 26.7857 9.37229C26.4357 10.4598 25.7 11.3756 24.7286 11.9551C25.6714 11.8549 26.5857 11.5902 27.4286 11.2253C26.7929 12.1626 25.9929 12.9925 25.0786 13.6579Z"
    fill="url(#twitter-gradient)"/>
  <defs>
    <linearGradient id="twitter-gradient" x1="3.84051e-07" y1="2.50578" x2="31.9881" y2="34.5058"
                    gradientUnits="userSpaceOnUse">
      <stop stop-color="#09D8C4"/>
      <stop offset="1" stop-color="#22306D"/>
    </linearGradient>
  </defs>
</svg>
