<svg width="418" height="261" viewBox="0 0 418 261" fill="none" xmlns="http://www.w3.org/2000/svg">
<g clip-path="url(#building_blocks_clip0)">
<path d="M102.25 164.104H67.9689C66.0072 164.104 64.417 165.695 64.417 167.658V177.034C64.417 178.997 66.0072 180.588 67.9689 180.588H102.25C104.212 180.588 105.802 178.997 105.802 177.034V167.658C105.802 165.695 104.212 164.104 102.25 164.104Z" fill="#09D8C4"/>
<path d="M143.635 164.104H109.354C107.392 164.104 105.802 165.695 105.802 167.658V177.034C105.802 178.997 107.392 180.588 109.354 180.588H143.635C145.597 180.588 147.187 178.997 147.187 177.034V167.658C147.187 165.695 145.597 164.104 143.635 164.104Z" fill="#09D8C4"/>
<path opacity="0.1" d="M143.635 164.104H109.354C107.392 164.104 105.802 165.695 105.802 167.658V177.034C105.802 178.997 107.392 180.588 109.354 180.588H143.635C145.597 180.588 147.187 178.997 147.187 177.034V167.658C147.187 165.695 145.597 164.104 143.635 164.104Z" fill="black"/>
<path d="M185.021 164.104H150.739C148.778 164.104 147.188 165.695 147.188 167.658V177.034C147.188 178.997 148.778 180.588 150.739 180.588H185.021C186.983 180.588 188.573 178.997 188.573 177.034V167.658C188.573 165.695 186.983 164.104 185.021 164.104Z" fill="#09D8C4"/>
<path d="M226.406 164.104H192.124C190.163 164.104 188.572 165.695 188.572 167.658V177.034C188.572 178.997 190.163 180.588 192.124 180.588H226.406C228.367 180.588 229.958 178.997 229.958 177.034V167.658C229.958 165.695 228.367 164.104 226.406 164.104Z" fill="#09D8C4"/>
<path opacity="0.1" d="M226.406 164.104H192.124C190.163 164.104 188.572 165.695 188.572 167.658V177.034C188.572 178.997 190.163 180.588 192.124 180.588H226.406C228.367 180.588 229.958 178.997 229.958 177.034V167.658C229.958 165.695 228.367 164.104 226.406 164.104Z" fill="black"/>
<path d="M267.791 164.104H233.51C231.548 164.104 229.958 165.695 229.958 167.658V177.034C229.958 178.997 231.548 180.588 233.51 180.588H267.791C269.753 180.588 271.343 178.997 271.343 177.034V167.658C271.343 165.695 269.753 164.104 267.791 164.104Z" fill="#09D8C4"/>
<path d="M309.177 164.104H274.896C272.934 164.104 271.344 165.695 271.344 167.658V177.034C271.344 178.997 272.934 180.588 274.896 180.588H309.177C311.139 180.588 312.729 178.997 312.729 177.034V167.658C312.729 165.695 311.139 164.104 309.177 164.104Z" fill="#09D8C4"/>
<path opacity="0.1" d="M309.177 164.104H274.896C272.934 164.104 271.344 165.695 271.344 167.658V177.034C271.344 178.997 272.934 180.588 274.896 180.588H309.177C311.139 180.588 312.729 178.997 312.729 177.034V167.658C312.729 165.695 311.139 164.104 309.177 164.104Z" fill="black"/>
<path d="M274.895 164.104H309.177C311.138 164.104 312.729 162.513 312.729 160.55V151.174C312.729 149.211 311.138 147.62 309.177 147.62H274.895C272.933 147.62 271.343 149.211 271.343 151.174V160.55C271.343 162.513 272.933 164.104 274.895 164.104Z" fill="#09D8C4"/>
<path d="M233.51 164.104H267.792C269.753 164.104 271.344 162.513 271.344 160.55V151.174C271.344 149.211 269.753 147.62 267.792 147.62H233.51C231.549 147.62 229.958 149.211 229.958 151.174V160.55C229.958 162.513 231.549 164.104 233.51 164.104Z" fill="#09D8C4"/>
<path opacity="0.1" d="M233.51 164.104H267.792C269.753 164.104 271.344 162.513 271.344 160.55V151.174C271.344 149.211 269.753 147.62 267.792 147.62H233.51C231.549 147.62 229.958 149.211 229.958 151.174V160.55C229.958 162.513 231.549 164.104 233.51 164.104Z" fill="black"/>
<path d="M192.125 164.104H226.406C228.368 164.104 229.958 162.513 229.958 160.55V151.174C229.958 149.211 228.368 147.62 226.406 147.62H192.125C190.163 147.62 188.573 149.211 188.573 151.174V160.55C188.573 162.513 190.163 164.104 192.125 164.104Z" fill="#09D8C4"/>
<path d="M150.739 164.104H185.02C186.982 164.104 188.572 162.513 188.572 160.55V151.174C188.572 149.211 186.982 147.62 185.02 147.62H150.739C148.777 147.62 147.187 149.211 147.187 151.174V160.55C147.187 162.513 148.777 164.104 150.739 164.104Z" fill="#09D8C4"/>
<path opacity="0.1" d="M150.739 164.104H185.02C186.982 164.104 188.572 162.513 188.572 160.55V151.174C188.572 149.211 186.982 147.62 185.02 147.62H150.739C148.777 147.62 147.187 149.211 147.187 151.174V160.55C147.187 162.513 148.777 164.104 150.739 164.104Z" fill="black"/>
<path d="M109.354 164.104H143.636C145.597 164.104 147.188 162.513 147.188 160.55V151.174C147.188 149.211 145.597 147.62 143.636 147.62H109.354C107.392 147.62 105.802 149.211 105.802 151.174V160.55C105.802 162.513 107.392 164.104 109.354 164.104Z" fill="#09D8C4"/>
<path d="M67.9683 164.104H102.25C104.212 164.104 105.802 162.513 105.802 160.55V151.174C105.802 149.211 104.212 147.62 102.25 147.62H67.9683C66.0066 147.62 64.4164 149.211 64.4164 151.174V160.55C64.4164 162.513 66.0066 164.104 67.9683 164.104Z" fill="#09D8C4"/>
<path opacity="0.1" d="M67.9683 164.104H102.25C104.212 164.104 105.802 162.513 105.802 160.55V151.174C105.802 149.211 104.212 147.62 102.25 147.62H67.9683C66.0066 147.62 64.4164 149.211 64.4164 151.174V160.55C64.4164 162.513 66.0066 164.104 67.9683 164.104Z" fill="black"/>
<path d="M102.25 131.135H67.9689C66.0072 131.135 64.417 132.727 64.417 134.689V144.065C64.417 146.028 66.0072 147.62 67.9689 147.62H102.25C104.212 147.62 105.802 146.028 105.802 144.065V134.689C105.802 132.727 104.212 131.135 102.25 131.135Z" fill="#09D8C4"/>
<path d="M143.635 131.135H109.354C107.392 131.135 105.802 132.727 105.802 134.689V144.065C105.802 146.028 107.392 147.62 109.354 147.62H143.635C145.597 147.62 147.187 146.028 147.187 144.065V134.689C147.187 132.727 145.597 131.135 143.635 131.135Z" fill="#09D8C4"/>
<path opacity="0.1" d="M143.635 131.135H109.354C107.392 131.135 105.802 132.727 105.802 134.689V144.065C105.802 146.028 107.392 147.62 109.354 147.62H143.635C145.597 147.62 147.187 146.028 147.187 144.065V134.689C147.187 132.727 145.597 131.135 143.635 131.135Z" fill="black"/>
<path d="M185.021 131.135H150.739C148.778 131.135 147.188 132.727 147.188 134.689V144.065C147.188 146.028 148.778 147.62 150.739 147.62H185.021C186.983 147.62 188.573 146.028 188.573 144.065V134.689C188.573 132.727 186.983 131.135 185.021 131.135Z" fill="#09D8C4"/>
<path d="M226.406 131.135H192.124C190.163 131.135 188.572 132.727 188.572 134.689V144.065C188.572 146.028 190.163 147.62 192.124 147.62H226.406C228.367 147.62 229.958 146.028 229.958 144.065V134.689C229.958 132.727 228.367 131.135 226.406 131.135Z" fill="#09D8C4"/>
<path opacity="0.1" d="M226.406 131.135H192.124C190.163 131.135 188.572 132.727 188.572 134.689V144.065C188.572 146.028 190.163 147.62 192.124 147.62H226.406C228.367 147.62 229.958 146.028 229.958 144.065V134.689C229.958 132.727 228.367 131.135 226.406 131.135Z" fill="black"/>
<path d="M267.791 131.135H233.51C231.548 131.135 229.958 132.727 229.958 134.689V144.065C229.958 146.028 231.548 147.62 233.51 147.62H267.791C269.753 147.62 271.343 146.028 271.343 144.065V134.689C271.343 132.727 269.753 131.135 267.791 131.135Z" fill="#09D8C4"/>
<path d="M309.177 131.135H274.896C272.934 131.135 271.344 132.727 271.344 134.689V144.065C271.344 146.028 272.934 147.62 274.896 147.62H309.177C311.139 147.62 312.729 146.028 312.729 144.065V134.689C312.729 132.727 311.139 131.135 309.177 131.135Z" fill="#09D8C4"/>
<path opacity="0.1" d="M309.177 131.135H274.896C272.934 131.135 271.344 132.727 271.344 134.689V144.065C271.344 146.028 272.934 147.62 274.896 147.62H309.177C311.139 147.62 312.729 146.028 312.729 144.065V134.689C312.729 132.727 311.139 131.135 309.177 131.135Z" fill="black"/>
<path d="M274.895 131.135H309.177C311.138 131.135 312.729 129.544 312.729 127.581V118.205C312.729 116.242 311.138 114.651 309.177 114.651H274.895C272.933 114.651 271.343 116.242 271.343 118.205V127.581C271.343 129.544 272.933 131.135 274.895 131.135Z" fill="#09D8C4"/>
<path d="M233.51 131.135H267.792C269.753 131.135 271.344 129.544 271.344 127.581V118.205C271.344 116.242 269.753 114.651 267.792 114.651H233.51C231.549 114.651 229.958 116.242 229.958 118.205V127.581C229.958 129.544 231.549 131.135 233.51 131.135Z" fill="#09D8C4"/>
<path opacity="0.1" d="M233.51 131.135H267.792C269.753 131.135 271.344 129.544 271.344 127.581V118.205C271.344 116.242 269.753 114.651 267.792 114.651H233.51C231.549 114.651 229.958 116.242 229.958 118.205V127.581C229.958 129.544 231.549 131.135 233.51 131.135Z" fill="black"/>
<path d="M192.125 131.135H226.406C228.368 131.135 229.958 129.544 229.958 127.581V118.205C229.958 116.242 228.368 114.651 226.406 114.651H192.125C190.163 114.651 188.573 116.242 188.573 118.205V127.581C188.573 129.544 190.163 131.135 192.125 131.135Z" fill="#09D8C4"/>
<path d="M150.739 131.135H185.02C186.982 131.135 188.572 129.544 188.572 127.581V118.205C188.572 116.242 186.982 114.651 185.02 114.651H150.739C148.777 114.651 147.187 116.242 147.187 118.205V127.581C147.187 129.544 148.777 131.135 150.739 131.135Z" fill="#09D8C4"/>
<path opacity="0.1" d="M150.739 131.135H185.02C186.982 131.135 188.572 129.544 188.572 127.581V118.205C188.572 116.242 186.982 114.651 185.02 114.651H150.739C148.777 114.651 147.187 116.242 147.187 118.205V127.581C147.187 129.544 148.777 131.135 150.739 131.135Z" fill="black"/>
<path d="M109.354 131.135H143.636C145.597 131.135 147.188 129.544 147.188 127.581V118.205C147.188 116.242 145.597 114.651 143.636 114.651H109.354C107.392 114.651 105.802 116.242 105.802 118.205V127.581C105.802 129.544 107.392 131.135 109.354 131.135Z" fill="#09D8C4"/>
<path d="M67.9683 131.135H102.25C104.212 131.135 105.802 129.544 105.802 127.581V118.205C105.802 116.242 104.212 114.651 102.25 114.651H67.9683C66.0066 114.651 64.4164 116.242 64.4164 118.205V127.581C64.4164 129.544 66.0066 131.135 67.9683 131.135Z" fill="#09D8C4"/>
<path opacity="0.1" d="M67.9683 131.135H102.25C104.212 131.135 105.802 129.544 105.802 127.581V118.205C105.802 116.242 104.212 114.651 102.25 114.651H67.9683C66.0066 114.651 64.4164 116.242 64.4164 118.205V127.581C64.4164 129.544 66.0066 131.135 67.9683 131.135Z" fill="black"/>
<path d="M102.25 98.9707H67.9689C66.0072 98.9707 64.417 100.562 64.417 102.525V111.901C64.417 113.864 66.0072 115.455 67.9689 115.455H102.25C104.212 115.455 105.802 113.864 105.802 111.901V102.525C105.802 100.562 104.212 98.9707 102.25 98.9707Z" fill="#09D8C4"/>
<path d="M143.635 98.9707H109.354C107.392 98.9707 105.802 100.562 105.802 102.525V111.901C105.802 113.864 107.392 115.455 109.354 115.455H143.635C145.597 115.455 147.187 113.864 147.187 111.901V102.525C147.187 100.562 145.597 98.9707 143.635 98.9707Z" fill="#09D8C4"/>
<path opacity="0.1" d="M143.635 98.9707H109.354C107.392 98.9707 105.802 100.562 105.802 102.525V111.901C105.802 113.864 107.392 115.455 109.354 115.455H143.635C145.597 115.455 147.187 113.864 147.187 111.901V102.525C147.187 100.562 145.597 98.9707 143.635 98.9707Z" fill="black"/>
<path d="M185.021 98.9707H150.739C148.778 98.9707 147.188 100.562 147.188 102.525V111.901C147.188 113.864 148.778 115.455 150.739 115.455H185.021C186.983 115.455 188.573 113.864 188.573 111.901V102.525C188.573 100.562 186.983 98.9707 185.021 98.9707Z" fill="#09D8C4"/>
<path d="M226.406 98.9707H192.124C190.163 98.9707 188.572 100.562 188.572 102.525V111.901C188.572 113.864 190.163 115.455 192.124 115.455H226.406C228.367 115.455 229.958 113.864 229.958 111.901V102.525C229.958 100.562 228.367 98.9707 226.406 98.9707Z" fill="#09D8C4"/>
<path opacity="0.1" d="M226.406 98.9707H192.124C190.163 98.9707 188.572 100.562 188.572 102.525V111.901C188.572 113.864 190.163 115.455 192.124 115.455H226.406C228.367 115.455 229.958 113.864 229.958 111.901V102.525C229.958 100.562 228.367 98.9707 226.406 98.9707Z" fill="black"/>
<path d="M267.791 98.9707H233.51C231.548 98.9707 229.958 100.562 229.958 102.525V111.901C229.958 113.864 231.548 115.455 233.51 115.455H267.791C269.753 115.455 271.343 113.864 271.343 111.901V102.525C271.343 100.562 269.753 98.9707 267.791 98.9707Z" fill="#09D8C4"/>
<path d="M309.177 98.9707H274.896C272.934 98.9707 271.344 100.562 271.344 102.525V111.901C271.344 113.864 272.934 115.455 274.896 115.455H309.177C311.139 115.455 312.729 113.864 312.729 111.901V102.525C312.729 100.562 311.139 98.9707 309.177 98.9707Z" fill="#09D8C4"/>
<path opacity="0.1" d="M309.177 98.9707H274.896C272.934 98.9707 271.344 100.562 271.344 102.525V111.901C271.344 113.864 272.934 115.455 274.896 115.455H309.177C311.139 115.455 312.729 113.864 312.729 111.901V102.525C312.729 100.562 311.139 98.9707 309.177 98.9707Z" fill="black"/>
<path d="M274.895 98.9707H309.177C311.138 98.9707 312.729 97.3794 312.729 95.4165V86.0405C312.729 84.0776 311.138 82.4863 309.177 82.4863H274.895C272.933 82.4863 271.343 84.0776 271.343 86.0405V95.4165C271.343 97.3794 272.933 98.9707 274.895 98.9707Z" fill="#09D8C4"/>
<path d="M233.51 98.9707H267.792C269.753 98.9707 271.344 97.3794 271.344 95.4165V86.0405C271.344 84.0776 269.753 82.4863 267.792 82.4863H233.51C231.549 82.4863 229.958 84.0776 229.958 86.0405V95.4165C229.958 97.3794 231.549 98.9707 233.51 98.9707Z" fill="#09D8C4"/>
<path opacity="0.1" d="M233.51 98.9707H267.792C269.753 98.9707 271.344 97.3794 271.344 95.4165V86.0405C271.344 84.0776 269.753 82.4863 267.792 82.4863H233.51C231.549 82.4863 229.958 84.0776 229.958 86.0405V95.4165C229.958 97.3794 231.549 98.9707 233.51 98.9707Z" fill="black"/>
<path d="M192.125 98.9707H226.406C228.368 98.9707 229.958 97.3794 229.958 95.4165V86.0405C229.958 84.0776 228.368 82.4863 226.406 82.4863H192.125C190.163 82.4863 188.573 84.0776 188.573 86.0405V95.4165C188.573 97.3794 190.163 98.9707 192.125 98.9707Z" fill="#09D8C4"/>
<path d="M150.739 98.9707H185.02C186.982 98.9707 188.572 97.3794 188.572 95.4165V86.0405C188.572 84.0776 186.982 82.4863 185.02 82.4863H150.739C148.777 82.4863 147.187 84.0776 147.187 86.0405V95.4165C147.187 97.3794 148.777 98.9707 150.739 98.9707Z" fill="#09D8C4"/>
<path opacity="0.1" d="M150.739 98.9707H185.02C186.982 98.9707 188.572 97.3794 188.572 95.4165V86.0405C188.572 84.0776 186.982 82.4863 185.02 82.4863H150.739C148.777 82.4863 147.187 84.0776 147.187 86.0405V95.4165C147.187 97.3794 148.777 98.9707 150.739 98.9707Z" fill="black"/>
<path d="M109.354 98.9707H143.636C145.597 98.9707 147.188 97.3794 147.188 95.4165V86.0405C147.188 84.0776 145.597 82.4863 143.636 82.4863H109.354C107.392 82.4863 105.802 84.0776 105.802 86.0405V95.4165C105.802 97.3794 107.392 98.9707 109.354 98.9707Z" fill="#09D8C4"/>
<path d="M67.9683 98.9707H102.25C104.212 98.9707 105.802 97.3794 105.802 95.4165V86.0405C105.802 84.0776 104.212 82.4863 102.25 82.4863H67.9683C66.0066 82.4863 64.4164 84.0776 64.4164 86.0405V95.4165C64.4164 97.3794 66.0066 98.9707 67.9683 98.9707Z" fill="#09D8C4"/>
<path opacity="0.1" d="M67.9683 98.9707H102.25C104.212 98.9707 105.802 97.3794 105.802 95.4165V86.0405C105.802 84.0776 104.212 82.4863 102.25 82.4863H67.9683C66.0066 82.4863 64.4164 84.0776 64.4164 86.0405V95.4165C64.4164 97.3794 66.0066 98.9707 67.9683 98.9707Z" fill="black"/>
<path d="M102.25 66.002H67.9689C66.0072 66.002 64.417 67.5932 64.417 69.5561V78.9321C64.417 80.8951 66.0072 82.4863 67.9689 82.4863H102.25C104.212 82.4863 105.802 80.8951 105.802 78.9321V69.5561C105.802 67.5932 104.212 66.002 102.25 66.002Z" fill="#09D8C4"/>
<path d="M143.635 66.002H109.354C107.392 66.002 105.802 67.5932 105.802 69.5561V78.9321C105.802 80.8951 107.392 82.4863 109.354 82.4863H143.635C145.597 82.4863 147.187 80.8951 147.187 78.9321V69.5561C147.187 67.5932 145.597 66.002 143.635 66.002Z" fill="#09D8C4"/>
<path opacity="0.1" d="M143.635 66.002H109.354C107.392 66.002 105.802 67.5932 105.802 69.5561V78.9321C105.802 80.8951 107.392 82.4863 109.354 82.4863H143.635C145.597 82.4863 147.187 80.8951 147.187 78.9321V69.5561C147.187 67.5932 145.597 66.002 143.635 66.002Z" fill="black"/>
<path d="M185.021 66.002H150.739C148.778 66.002 147.188 67.5932 147.188 69.5561V78.9321C147.188 80.8951 148.778 82.4863 150.739 82.4863H185.021C186.983 82.4863 188.573 80.8951 188.573 78.9321V69.5561C188.573 67.5932 186.983 66.002 185.021 66.002Z" fill="#09D8C4"/>
<path d="M226.406 66.002H192.124C190.163 66.002 188.572 67.5932 188.572 69.5561V78.9321C188.572 80.8951 190.163 82.4863 192.124 82.4863H226.406C228.367 82.4863 229.958 80.8951 229.958 78.9321V69.5561C229.958 67.5932 228.367 66.002 226.406 66.002Z" fill="#09D8C4"/>
<path opacity="0.1" d="M226.406 66.002H192.124C190.163 66.002 188.572 67.5932 188.572 69.5561V78.9321C188.572 80.8951 190.163 82.4863 192.124 82.4863H226.406C228.367 82.4863 229.958 80.8951 229.958 78.9321V69.5561C229.958 67.5932 228.367 66.002 226.406 66.002Z" fill="black"/>
<path d="M267.791 66.002H233.51C231.548 66.002 229.958 67.5932 229.958 69.5561V78.9321C229.958 80.8951 231.548 82.4863 233.51 82.4863H267.791C269.753 82.4863 271.343 80.8951 271.343 78.9321V69.5561C271.343 67.5932 269.753 66.002 267.791 66.002Z" fill="#09D8C4"/>
<path d="M309.177 66.002H274.896C272.934 66.002 271.344 67.5932 271.344 69.5561V78.9321C271.344 80.8951 272.934 82.4863 274.896 82.4863H309.177C311.139 82.4863 312.729 80.8951 312.729 78.9321V69.5561C312.729 67.5932 311.139 66.002 309.177 66.002Z" fill="#09D8C4"/>
<path opacity="0.1" d="M309.177 66.002H274.896C272.934 66.002 271.344 67.5932 271.344 69.5561V78.9321C271.344 80.8951 272.934 82.4863 274.896 82.4863H309.177C311.139 82.4863 312.729 80.8951 312.729 78.9321V69.5561C312.729 67.5932 311.139 66.002 309.177 66.002Z" fill="black"/>
<path d="M309.177 11.0847H271.681C269.719 11.0847 268.129 12.676 268.129 14.6389V25.2934C268.129 27.2564 269.719 28.8476 271.681 28.8476H309.177C311.138 28.8476 312.729 27.2564 312.729 25.2934V14.6389C312.729 12.676 311.138 11.0847 309.177 11.0847Z" fill="url(#building_blocks_paint0_linear)"/>
<path d="M273.288 28.2085L307.569 28.2085C309.531 28.2085 311.121 26.6172 311.121 24.6543V15.2783C311.121 13.3154 309.531 11.7241 307.569 11.7241L273.288 11.7241C271.326 11.7241 269.736 13.3154 269.736 15.2783V24.6543C269.736 26.6172 271.326 28.2085 273.288 28.2085Z" fill="#09D8C4"/>
<path d="M233.51 66.002H267.792C269.753 66.002 271.344 64.4107 271.344 62.4478V53.0718C271.344 51.1088 269.753 49.5176 267.792 49.5176H233.51C231.549 49.5176 229.958 51.1088 229.958 53.0718V62.4478C229.958 64.4107 231.549 66.002 233.51 66.002Z" fill="#09D8C4"/>
<path opacity="0.1" d="M233.51 66.002H267.792C269.753 66.002 271.344 64.4107 271.344 62.4478V53.0718C271.344 51.1088 269.753 49.5176 267.792 49.5176H233.51C231.549 49.5176 229.958 51.1088 229.958 53.0718V62.4478C229.958 64.4107 231.549 66.002 233.51 66.002Z" fill="black"/>
<path d="M192.125 66.002H226.406C228.368 66.002 229.958 64.4107 229.958 62.4478V53.0718C229.958 51.1088 228.368 49.5176 226.406 49.5176H192.125C190.163 49.5176 188.573 51.1088 188.573 53.0718V62.4478C188.573 64.4107 190.163 66.002 192.125 66.002Z" fill="#09D8C4"/>
<path d="M150.739 66.002H185.02C186.982 66.002 188.572 64.4107 188.572 62.4478V53.0718C188.572 51.1088 186.982 49.5176 185.02 49.5176H150.739C148.777 49.5176 147.187 51.1088 147.187 53.0718V62.4478C147.187 64.4107 148.777 66.002 150.739 66.002Z" fill="#09D8C4"/>
<path opacity="0.1" d="M150.739 66.002H185.02C186.982 66.002 188.572 64.4107 188.572 62.4478V53.0718C188.572 51.1088 186.982 49.5176 185.02 49.5176H150.739C148.777 49.5176 147.187 51.1088 147.187 53.0718V62.4478C147.187 64.4107 148.777 66.002 150.739 66.002Z" fill="black"/>
<path d="M109.354 66.002H143.636C145.597 66.002 147.188 64.4107 147.188 62.4478V53.0718C147.188 51.1088 145.597 49.5176 143.636 49.5176H109.354C107.392 49.5176 105.802 51.1088 105.802 53.0718V62.4478C105.802 64.4107 107.392 66.002 109.354 66.002Z" fill="#09D8C4"/>
<path d="M67.9683 66.002H102.25C104.212 66.002 105.802 64.4107 105.802 62.4478V53.0718C105.802 51.1088 104.212 49.5176 102.25 49.5176H67.9683C66.0066 49.5176 64.4164 51.1088 64.4164 53.0718V62.4478C64.4164 64.4107 66.0066 66.002 67.9683 66.002Z" fill="#09D8C4"/>
<path opacity="0.1" d="M67.9683 66.002H102.25C104.212 66.002 105.802 64.4107 105.802 62.4478V53.0718C105.802 51.1088 104.212 49.5176 102.25 49.5176H67.9683C66.0066 49.5176 64.4164 51.1088 64.4164 53.0718V62.4478C64.4164 64.4107 66.0066 66.002 67.9683 66.002Z" fill="black"/>
<path d="M200.498 261C311.23 261 400.996 240.569 400.996 215.366C400.996 190.164 311.23 169.733 200.498 169.733C89.766 169.733 0 190.164 0 215.366C0 240.569 89.766 261 200.498 261Z" fill="#1E5480"/>
<path d="M45.7854 194.886C45.7854 194.886 49.4016 182.659 45.1104 173.657C43.2915 169.894 42.743 165.641 43.5474 161.539C43.9444 159.594 44.5187 157.69 45.2631 155.85" stroke="#535461" stroke-width="2" stroke-miterlimit="10"/>
<path d="M42.6025 150.165C42.6025 151.664 45.3147 156.011 45.3147 156.011C45.3147 156.011 48.0268 151.664 48.0268 150.165C48.0268 149.445 47.7411 148.755 47.2325 148.246C46.7238 147.737 46.034 147.451 45.3147 147.451C44.5954 147.451 43.9055 147.737 43.3969 148.246C42.8883 148.755 42.6025 149.445 42.6025 150.165Z" fill="#09D8C4"/>
<path d="M38.1183 158.467C38.9219 159.726 43.5707 161.897 43.5707 161.897C43.5707 161.897 43.4863 156.775 42.6707 155.516C42.2777 154.916 41.6634 154.497 40.9621 154.349C40.2608 154.201 39.5295 154.337 38.928 154.727C38.3264 155.116 37.9036 155.729 37.7519 156.43C37.6002 157.131 37.7319 157.863 38.1183 158.467Z" fill="#09D8C4"/>
<path d="M38.3158 172.652C39.6538 173.327 44.7446 172.861 44.7446 172.861C44.7446 172.861 42.0887 168.482 40.7507 167.807C40.1108 167.501 39.3763 167.457 38.7049 167.687C38.0335 167.916 37.4785 168.399 37.1589 169.033C36.8394 169.666 36.7807 170.4 36.9954 171.077C37.2102 171.753 37.6813 172.319 38.3078 172.652H38.3158Z" fill="#09D8C4"/>
<path d="M40.8788 183.35C42.0842 184.243 47.187 184.645 47.187 184.645C47.187 184.645 45.3066 179.881 44.1052 178.988C43.5253 178.607 42.8212 178.462 42.138 178.584C41.4548 178.707 40.8444 179.086 40.4326 179.645C40.0207 180.204 39.8386 180.9 39.9239 181.589C40.0091 182.278 40.3552 182.909 40.8908 183.35H40.8788Z" fill="#09D8C4"/>
<path d="M49.2648 162.186C48.192 163.231 43.1855 164.313 43.1855 164.313C43.1855 164.313 44.411 159.339 45.4838 158.282C45.7392 158.034 46.041 157.838 46.3719 157.706C46.7029 157.575 47.0565 157.509 47.4127 157.514C47.7688 157.519 48.1204 157.595 48.4475 157.736C48.7746 157.877 49.0708 158.081 49.319 158.336C49.5673 158.592 49.7628 158.894 49.8944 159.225C50.0261 159.556 50.0912 159.91 50.0862 160.266C50.0811 160.623 50.006 160.975 49.8651 161.302C49.7241 161.629 49.5202 161.926 49.2648 162.174V162.186Z" fill="#09D8C4"/>
<path d="M52.1056 174.726C50.7676 175.402 45.6768 174.935 45.6768 174.935C45.6768 174.935 48.3327 170.557 49.6706 169.881C50.3083 169.594 51.0324 169.563 51.6917 169.797C52.3511 170.031 52.8947 170.511 53.209 171.136C53.5232 171.761 53.5839 172.484 53.3783 173.153C53.1727 173.822 52.7167 174.386 52.1056 174.726Z" fill="#09D8C4"/>
<path d="M53.1901 187.319C51.9847 188.211 46.8818 188.614 46.8818 188.614C46.8818 188.614 48.7623 183.849 49.9636 182.957C50.5436 182.575 51.2477 182.431 51.9309 182.553C52.6141 182.675 53.2244 183.055 53.6363 183.614C54.0482 184.173 54.2303 184.869 54.145 185.558C54.0598 186.247 53.7137 186.877 53.178 187.319H53.1901Z" fill="#09D8C4"/>
<path d="M239.866 125.595C239.866 125.595 253.081 138.819 245.62 158.439C238.159 178.06 258.409 210.707 258.409 210.707C258.409 210.707 258.192 210.674 257.79 210.602C230.649 205.789 217.165 174.726 232.256 151.656C237.865 143.076 242.474 133.017 239.866 125.595Z" fill="#09D8C4"/>
<path opacity="0.2" d="M239.866 125.595C239.866 125.595 253.081 138.819 245.62 158.439C238.159 178.06 258.409 210.707 258.409 210.707C258.409 210.707 258.192 210.674 257.79 210.602C230.649 205.789 217.165 174.726 232.256 151.656C237.865 143.076 242.474 133.017 239.866 125.595Z" fill="black"/>
<path d="M239.867 125.595C239.867 125.595 247.328 141.802 239.867 155.026C232.405 168.249 238.589 205.355 258.422 210.687" stroke="#535461" stroke-miterlimit="10"/>
<path d="M216.333 179.073C216.333 179.073 231.413 176.66 232.787 190.194C234.161 203.727 261.781 205.588 261.781 205.588L261.262 205.934C238.456 220.915 216.662 215.475 219.941 195.585C221.163 188.191 221.054 180.757 216.333 179.073Z" fill="#09D8C4"/>
<path opacity="0.2" d="M216.333 179.073C216.333 179.073 231.413 176.66 232.787 190.194C234.161 203.727 261.781 205.588 261.781 205.588L261.262 205.934C238.456 220.915 216.662 215.475 219.941 195.585C221.163 188.191 221.054 180.757 216.333 179.073Z" fill="#F5F5F5"/>
<path d="M216.333 179.073C216.333 179.073 228.037 181.642 227.077 192.292C226.117 202.943 244.459 215.708 261.781 205.588" stroke="#535461" stroke-miterlimit="10"/>
<path d="M331.054 210.2C331.054 210.2 308.674 205.721 302.703 199.746C296.733 193.772 269.876 183.322 266.891 190.789C263.905 198.255 226.606 223.641 251.992 228.12C277.378 232.599 311.675 234.09 319.137 231.107C326.598 228.124 331.054 210.2 331.054 210.2Z" fill="#A8A8A8"/>
<path opacity="0.2" d="M251.993 225.345C277.358 229.824 311.676 231.316 319.137 228.333C324.819 226.057 328.78 215.133 330.327 210.047L331.075 210.204C331.075 210.204 326.599 228.12 319.137 231.111C311.676 234.102 277.35 232.603 251.993 228.124C244.672 226.829 242.578 223.793 243.366 219.95C243.957 222.455 246.524 224.38 251.993 225.345Z" fill="black"/>
<path d="M376.338 11.3261C375.939 10.3315 375.303 9.44953 374.485 8.75694C368.479 3.28091 358.767 4.94141 351.31 1.59226C349.59 0.820313 347.83 -0.249163 345.966 0.044339C343.362 0.446397 340.939 3.42162 338.669 2.10287L338.83 2.59741L338.669 2.51298L340.341 7.60303C340.983 9.55703 341.658 11.5673 342.904 13.1957C341.06 14.8049 339.648 16.8512 338.798 19.1474C337.949 21.4436 337.688 23.9163 338.04 26.3393C338.392 28.7624 339.346 31.0584 340.814 33.0173C342.282 34.9762 344.218 36.5354 346.444 37.5523C346.524 37.7212 346.601 37.8941 346.677 38.067L346.89 38.1554C347.384 39.294 347.754 40.483 347.991 41.7016C346.058 41.971 342.687 44.1139 339.376 47.2661L332.755 47.0449C328.472 46.9019 324.327 45.4915 320.845 42.9922L301.012 28.7392C299.6 28.8785 298.269 29.4675 297.215 30.4198C294.756 27.8547 292.667 25.1931 292.844 23.5848C292.844 23.5848 283.627 6.32449 280.275 14.9527C276.924 23.5808 286.56 32.6432 286.56 32.6432L292.671 40.5678C292.43 41.9572 292.277 43.3605 292.213 44.7693C299.755 53.4015 326.145 61.2094 326.145 61.2094L330.259 61.4105L330.283 61.6115C330.03 62.6919 329.906 63.7986 329.914 64.9084C329.914 65.0692 329.914 65.234 329.914 65.4029C329.914 65.5718 329.914 65.624 329.914 65.7326C330.123 79.4991 332.007 121.619 332.007 121.619C332.373 121.454 332.755 121.305 333.14 121.164L332.847 124.907C332.847 124.907 315.252 127.372 302.266 132.305C289.28 137.239 288.862 142.992 288.862 142.992V193.756C285.153 195.662 279.299 198.179 276.294 196.824C273.031 195.368 271.243 196.59 270.918 197.865C270.856 198.117 270.856 198.381 270.918 198.633C270.945 198.746 270.987 198.856 271.042 198.959V198.983C271.102 199.089 271.176 199.186 271.263 199.272C272.521 200.506 299.751 211.189 306.035 209.545C306.229 209.494 306.42 209.429 306.605 209.352C306.666 209.328 306.718 209.295 306.778 209.267C306.838 209.239 307.011 209.159 307.12 209.094C307.228 209.03 307.244 209.01 307.305 208.97C307.365 208.93 307.493 208.845 307.582 208.777C307.67 208.708 307.698 208.672 307.755 208.62C307.811 208.568 307.919 208.479 307.992 208.399C308.064 208.318 308.096 208.278 308.148 208.218C308.201 208.158 308.293 208.057 308.357 207.969C308.422 207.88 308.446 207.836 308.494 207.772C308.542 207.707 308.622 207.587 308.679 207.49C308.735 207.394 308.755 207.354 308.791 207.281C308.827 207.209 308.904 207.076 308.956 206.968C309.008 206.859 309.02 206.827 309.048 206.754C309.076 206.682 309.149 206.525 309.193 206.409C309.237 206.292 309.241 206.268 309.269 206.196C309.297 206.123 309.358 205.942 309.394 205.794C309.394 205.725 309.43 205.657 309.45 205.588C309.486 205.448 309.527 205.311 309.559 205.186C309.559 205.122 309.587 205.058 309.599 204.993C309.631 204.841 309.663 204.688 309.687 204.535C309.687 204.479 309.687 204.419 309.715 204.362C309.743 204.197 309.768 204.028 309.788 203.864V203.719C309.808 203.538 309.828 203.357 309.844 203.176V203.064C309.86 202.868 309.872 202.672 309.88 202.477V202.396C309.88 202.187 309.88 201.978 309.88 201.769V201.729C309.872 199.277 309.603 196.834 309.076 194.439L310.656 151.206C318.884 151.334 327.113 151.031 335.31 150.297L336.21 170.931C336.21 170.931 336.21 184.492 340.819 190.656C344.764 195.931 349.321 219.262 350.55 225.884C348.859 229.101 345.62 233.121 339.979 232.985C339.979 232.985 329.367 232.068 329.966 234.995C329.983 235.072 330.006 235.147 330.034 235.22C330.068 235.304 330.107 235.386 330.151 235.465C330.195 235.542 330.243 235.618 330.3 235.699L330.332 235.747C330.392 235.831 330.46 235.92 330.537 236.012V236.032C330.609 236.117 330.685 236.201 330.77 236.286L330.842 236.358C330.938 236.454 331.035 236.551 331.147 236.651C336.592 241.585 368.43 242.405 368.43 242.405V242.292C368.43 242.26 368.43 242.22 368.43 242.176C368.43 240.748 368.221 233.262 366.317 227.625H366.759C366.759 227.625 362.15 186.117 358.381 181.188C358.381 181.188 357.381 159.3 359.639 145.585L360.041 145.433C370.6 141.484 371.351 131.763 370.263 124.622C372.272 125.265 373.445 125.704 373.445 125.704C373.445 125.704 373.409 125.394 373.34 124.843L373.445 124.883C373.445 124.883 373.244 123.577 372.91 121.542C372.155 115.942 370.692 106.156 369.133 101.536C368.88 100.519 368.639 99.6502 368.418 98.9949C367.519 96.2188 366.901 93.3592 366.574 90.4592C366.147 86.7002 365.931 82.9203 365.927 79.1372C365.961 74.0826 366.348 69.0366 367.084 64.0359C367.723 59.6696 368.29 54.7001 368.25 51.2304C368.294 50.0186 368.209 48.8056 367.996 47.6118C367.438 45.0507 364.967 43.3862 362.399 42.3248C362.235 42.2564 362.066 42.2001 361.897 42.1358C361.961 41.1668 362.042 40.0652 362.146 38.9193C362.454 39.1327 362.802 39.2812 363.168 39.3558C363.535 39.4305 363.913 39.4297 364.28 39.3536C365.385 39.1123 366.176 38.1916 366.879 37.3433C370.592 32.7799 374.405 28.0236 375.831 22.3545C376.408 19.8229 376.677 17.2311 376.635 14.635C376.635 14.493 376.635 14.3509 376.635 14.2088C376.704 13.2379 376.603 12.2625 376.338 11.3261Z" fill="url(#building_blocks_paint1_linear)"/>
<path d="M342.534 33.5719C342.534 33.5719 348.159 42.0151 346.954 46.0357C345.749 50.0562 360.213 47.6439 360.213 47.6439C360.213 47.6439 360.615 31.9636 363.428 28.3451C366.24 24.7266 342.534 33.5719 342.534 33.5719Z" fill="#F7C4A7"/>
<path d="M305.367 38.9996C305.367 38.9996 293.715 29.3502 294.117 25.7316C294.117 25.7316 285.277 8.8452 282.063 17.2884C278.848 25.7316 288.09 34.5769 288.09 34.5769L299.34 49.4531L305.367 38.9996Z" fill="#F7C4A7"/>
<path d="M293.515 190.375C293.515 190.375 282.666 197.21 278.246 195.199C273.826 193.189 272.219 196.405 273.425 197.612C274.63 198.818 300.747 209.271 306.774 207.663C312.801 206.055 309.735 192.883 309.735 192.883L293.515 190.375Z" fill="#535461"/>
<path d="M350.972 219.725C350.972 219.725 348.36 230.781 339.319 230.58C339.319 230.58 325.658 229.374 330.882 234.199C336.105 239.023 366.642 239.828 366.642 239.828C366.642 239.828 366.642 223.343 361.017 219.725C355.391 216.106 350.972 219.725 350.972 219.725Z" fill="#535461"/>
<path d="M334.498 141.725L335.703 169.87C335.703 169.87 335.703 183.137 340.123 189.168C344.543 195.199 349.766 225.354 349.766 225.354H365.035C365.035 225.354 360.615 184.746 356.999 179.921C356.999 179.921 355.392 144.138 361.017 136.097L334.498 141.725Z" fill="#575988"/>
<path opacity="0.1" d="M334.498 141.725L335.703 169.87C335.703 169.87 335.703 183.137 340.123 189.168C344.543 195.199 349.766 225.354 349.766 225.354H365.035C365.035 225.354 360.615 184.746 356.999 179.921C356.999 179.921 355.392 144.138 361.017 136.097L334.498 141.725Z" fill="black"/>
<path d="M366.24 116.396C366.24 116.396 375.481 138.509 358.606 144.942C341.73 151.375 311.193 150.571 311.193 150.571L309.586 197.209C309.586 197.209 290.702 199.622 290.3 193.591V142.53C290.3 142.53 290.702 136.901 303.157 132.076C315.613 127.251 332.489 124.839 332.489 124.839L333.292 114.385L366.24 116.396Z" fill="#575988"/>
<path opacity="0.1" d="M351.435 43.547C354.644 43.1915 357.891 43.6505 360.877 44.8819C363.34 45.9192 365.698 47.5475 366.245 50.0523C366.88 53.0195 366.177 59.6736 365.369 65.3064C364.075 74.1337 363.91 83.0899 364.879 91.9588C365.281 95.6537 365.863 98.8742 366.647 100.31C369.057 104.732 371.468 125.639 371.468 125.639C371.468 125.639 344.949 115.588 331.69 121.619C331.69 121.619 329.882 80.4077 329.681 66.9388C329.524 56.5094 342.74 44.6245 347.159 44.2225C349.747 43.9893 348.859 43.8164 351.435 43.547Z" fill="black"/>
<path d="M351.435 42.7428C354.644 42.3873 357.891 42.8463 360.877 44.0777C363.34 45.115 365.698 46.7433 366.245 49.2481C366.88 52.2153 366.177 58.8694 365.369 64.5022C364.075 73.3295 363.91 82.2857 364.879 91.1546C365.191 93.9898 365.783 96.787 366.647 99.5054C368.455 104.933 371.468 124.835 371.468 124.835C371.468 124.835 344.949 114.784 331.69 120.814C331.69 120.814 329.882 79.6035 329.681 66.1346C329.524 55.7052 342.74 43.8203 347.159 43.4183C349.747 43.1851 348.859 43.0122 351.435 42.7428Z" fill="#E14B5A"/>
<path opacity="0.1" d="M358.606 64.9324L330.079 63.3242C330.079 63.3242 328.262 49.3285 332.381 49.4733L360.615 50.4583C360.615 50.4583 366.642 57.6954 358.606 64.9324Z" fill="black"/>
<path d="M358.606 64.1281L326.06 62.5199C326.06 62.5199 300.747 54.8808 293.515 46.4376C293.515 46.4376 293.916 31.5614 301.952 30.7573L320.962 44.7047C324.284 47.1432 328.263 48.5245 332.381 48.669L360.615 49.6541C360.615 49.6541 366.642 56.8911 358.606 64.1281Z" fill="#E14B5A"/>
<path opacity="0.1" d="M360.012 35.3812C360.491 31.5697 362.218 30.3032 363.428 28.7472C366.24 25.1287 342.534 33.974 342.534 33.974C343.76 35.8576 344.835 37.8351 345.749 39.8882C347.639 40.7596 349.695 41.2109 351.776 41.211C355.255 41.211 357.513 37.4437 360.012 35.3812Z" fill="black"/>
<path d="M351.775 40.8088C359.764 40.8088 366.24 34.3285 366.24 26.3347C366.24 18.3409 359.764 11.8606 351.775 11.8606C343.787 11.8606 337.311 18.3409 337.311 26.3347C337.311 34.3285 343.787 40.8088 351.775 40.8088Z" fill="#F7C4A7"/>
<path opacity="0.1" d="M342.642 16.1908C341.103 14.5062 340.36 12.2627 339.661 10.0876L338.054 5.10605C340.231 6.39264 342.554 3.49782 345.053 3.09576C346.841 2.8103 348.533 3.85566 350.18 4.6075C357.332 7.88026 366.654 6.25594 372.408 11.6154C373.194 12.2969 373.803 13.1592 374.183 14.1282C374.449 15.0414 374.558 15.9931 374.505 16.9426C374.552 19.4803 374.3 22.0147 373.754 24.4933C372.387 30.0377 368.731 34.6935 365.167 39.1563C364.492 40.0047 363.733 40.9053 362.672 41.1425C360.603 41.6049 359.004 39.3694 358.204 37.4074C357.145 34.8075 356.363 32.1026 355.873 29.3381C355.665 28.1681 355.5 26.9619 354.917 25.9286C353.672 23.7213 350.602 21.6306 348.738 19.9179C346.873 18.2051 344.354 18.0604 342.642 16.1908Z" fill="black"/>
<path d="M342.642 15.7887C341.103 14.1041 340.36 11.8606 339.661 9.68545L338.054 4.70395C340.231 5.99054 342.554 3.09572 345.053 2.69366C346.841 2.4082 348.533 3.45356 350.18 4.2054C357.332 7.47816 366.654 5.85384 372.408 11.2133C373.194 11.8948 373.803 12.7571 374.183 13.7261C374.449 14.6393 374.558 15.591 374.505 16.5405C374.552 19.0782 374.3 21.6126 373.754 24.0912C372.387 29.6356 368.731 34.2914 365.167 38.7542C364.492 39.6026 363.733 40.5032 362.672 40.7404C360.603 41.2028 359.004 38.9673 358.204 37.0053C357.145 34.4054 356.363 31.7005 355.873 28.936C355.665 27.766 355.5 26.5598 354.917 25.5265C353.672 23.3192 350.602 21.2285 348.738 19.5158C346.873 17.803 344.354 17.6583 342.642 15.7887Z" fill="#632652"/>
<path d="M355.592 30.5563C356.258 30.5563 356.798 29.3863 356.798 27.943C356.798 26.4996 356.258 25.3296 355.592 25.3296C354.926 25.3296 354.387 26.4996 354.387 27.943C354.387 29.3863 354.926 30.5563 355.592 30.5563Z" fill="#F7C4A7"/>
<path opacity="0.1" d="M362.825 97.7002C362.825 97.7002 362.021 100.113 358.003 99.7105C353.985 99.3084 342.333 98.5043 342.333 99.7105" fill="black"/>
<path opacity="0.5" d="M330.881 233.797C330.158 233.129 329.797 232.591 329.712 232.12C329.608 232.643 329.929 233.326 330.881 234.199C336.105 239.023 366.642 239.828 366.642 239.828C366.642 239.828 366.642 239.687 366.642 239.426C366.445 239.421 336.089 238.605 330.881 233.797Z" fill="white"/>
<path opacity="0.5" d="M306.774 206.859C300.747 208.467 274.63 198.014 273.425 196.807C273.264 196.644 273.149 196.442 273.091 196.22C273.021 196.461 273.016 196.716 273.074 196.96C273.133 197.204 273.253 197.428 273.425 197.612C274.63 198.818 300.747 209.271 306.774 207.663C309.876 206.835 310.567 202.947 310.511 199.365C310.45 202.702 309.643 206.087 306.774 206.859Z" fill="white"/>
<path d="M201.739 202.533C201.899 202.533 202.053 202.469 202.166 202.356C202.279 202.243 202.342 202.089 202.342 201.93C202.342 201.77 202.279 201.616 202.166 201.503C202.053 201.39 201.899 201.326 201.739 201.326C201.58 201.326 201.426 201.39 201.313 201.503C201.2 201.616 201.137 201.77 201.137 201.93C201.137 202.089 201.2 202.243 201.313 202.356C201.426 202.469 201.58 202.533 201.739 202.533Z" fill="#67647E"/>
<path d="M36.7607 191.866C36.7607 191.866 51.7559 191.404 56.2721 188.183C60.7883 184.963 79.3354 181.119 80.4564 186.281C81.5774 191.444 102.993 211.965 86.0495 212.118C69.1056 212.27 46.7173 209.48 42.2051 206.73C37.6929 203.98 36.7607 191.866 36.7607 191.866Z" fill="#A8A8A8"/>
<path opacity="0.2" d="M86.3669 210.305C69.4391 210.441 47.0348 207.667 42.5225 204.917C39.0872 202.822 37.701 195.312 37.263 191.846H36.7607C36.7607 191.846 37.709 203.948 42.2212 206.694C46.7334 209.44 69.1377 212.239 86.0495 212.118C90.9354 212.078 92.6229 210.341 92.5305 207.764C91.8675 209.304 90.0032 210.276 86.3669 210.305Z" fill="black"/>
<path d="M380.167 230.444H414.448C416.41 230.444 418 228.852 418 226.889V217.513C418 215.551 416.41 213.959 414.448 213.959H380.167C378.205 213.959 376.615 215.551 376.615 217.513V226.889C376.615 228.852 378.205 230.444 380.167 230.444Z" fill="#09D8C4"/>
<path opacity="0.1" d="M380.167 230.444H414.448C416.41 230.444 418 228.852 418 226.889V217.513C418 215.551 416.41 213.959 414.448 213.959H380.167C378.205 213.959 376.615 215.551 376.615 217.513V226.889C376.615 228.852 378.205 230.444 380.167 230.444Z" fill="black"/>
<path d="M414.449 198.279H380.167C378.205 198.279 376.615 199.87 376.615 201.833V211.209C376.615 213.172 378.205 214.763 380.167 214.763H414.449C416.41 214.763 418.001 213.172 418.001 211.209V201.833C418.001 199.87 416.41 198.279 414.449 198.279Z" fill="#09D8C4"/>
<path d="M380.167 198.279H414.448C416.41 198.279 418 196.688 418 194.725V185.349C418 183.386 416.41 181.795 414.448 181.795H380.167C378.205 181.795 376.615 183.386 376.615 185.349V194.725C376.615 196.688 378.205 198.279 380.167 198.279Z" fill="#09D8C4"/>
<path opacity="0.1" d="M380.167 198.279H414.448C416.41 198.279 418 196.688 418 194.725V185.349C418 183.386 416.41 181.795 414.448 181.795H380.167C378.205 181.795 376.615 183.386 376.615 185.349V194.725C376.615 196.688 378.205 198.279 380.167 198.279Z" fill="black"/>
<path d="M414.449 165.31H380.167C378.205 165.31 376.615 166.902 376.615 168.864V178.24C376.615 180.203 378.205 181.795 380.167 181.795H414.449C416.41 181.795 418.001 180.203 418.001 178.24V168.864C418.001 166.902 416.41 165.31 414.449 165.31Z" fill="#09D8C4"/>
</g>
<defs>
<linearGradient id="building_blocks_paint0_linear" x1="290.429" y1="28.8476" x2="290.429" y2="11.0847" gradientUnits="userSpaceOnUse">
<stop stop-color="#808080" stop-opacity="0.25"/>
<stop offset="0.54" stop-color="#808080" stop-opacity="0.12"/>
<stop offset="1" stop-color="#808080" stop-opacity="0.1"/>
</linearGradient>
<linearGradient id="building_blocks_paint1_linear" x1="93960.3" y1="176577" x2="93960.3" y2="30403.1" gradientUnits="userSpaceOnUse">
<stop stop-color="#808080" stop-opacity="0.25"/>
<stop offset="0.54" stop-color="#808080" stop-opacity="0.12"/>
<stop offset="1" stop-color="#808080" stop-opacity="0.1"/>
</linearGradient>
<clipPath id="building_blocks_clip0">
<rect width="418" height="261" fill="white"/>
</clipPath>
</defs>
</svg>
