<svg width="451" height="310" viewBox="0 0 451 310" fill="none" xmlns="http://www.w3.org/2000/svg">
  <g opacity="0.6">
    <path opacity="0.6"
          d="M80.1187 130.737L81.2155 80.9038C81.2319 80.1821 81.5127 79.4915 82.0046 78.9629C82.4966 78.4343 83.1655 78.1044 83.8845 78.0357C107.485 75.8032 131.244 75.8032 154.844 78.0357C155.575 78.102 156.255 78.4383 156.751 78.9787C157.247 79.5192 157.524 80.2251 157.528 80.9586V130.784C157.528 131.54 157.236 132.268 156.714 132.815C156.192 133.363 155.479 133.689 154.723 133.725C130.278 134.873 106.323 134.927 82.9266 133.725C82.1617 133.689 81.4409 133.357 80.9168 132.799C80.3927 132.242 80.1064 131.502 80.1187 130.737Z"
          fill="#36334A"/>
    <path opacity="0.6"
          d="M80.1187 130.737L81.2155 80.9038C81.2319 80.1821 81.5127 79.4915 82.0046 78.9629C82.4966 78.4343 83.1655 78.1044 83.8845 78.0357C107.485 75.8032 131.244 75.8032 154.844 78.0357C155.575 78.102 156.255 78.4383 156.751 78.9787C157.247 79.5192 157.524 80.2251 157.528 80.9586V130.784C157.528 131.54 157.236 132.268 156.714 132.815C156.192 133.363 155.479 133.689 154.723 133.725C130.278 134.873 106.323 134.927 82.9266 133.725C82.1617 133.689 81.4409 133.357 80.9168 132.799C80.3927 132.242 80.1064 131.502 80.1187 130.737Z"
          fill="#36334A"/>
    <path opacity="0.2"
          d="M80.1187 130.737L81.2155 80.9038C81.2319 80.1821 81.5127 79.4915 82.0046 78.9629C82.4966 78.4343 83.1655 78.1044 83.8845 78.0357C107.485 75.8032 131.244 75.8032 154.844 78.0357C155.575 78.102 156.255 78.4383 156.751 78.9787C157.247 79.5192 157.524 80.2251 157.528 80.9586V130.784C157.528 131.54 157.236 132.268 156.714 132.815C156.192 133.363 155.479 133.689 154.723 133.725C130.278 134.873 106.323 134.927 82.9266 133.725C82.1617 133.689 81.4409 133.357 80.9168 132.799C80.3927 132.242 80.1064 131.502 80.1187 130.737Z"
          fill="#22306D"/>
    <path opacity="0.6"
          d="M114.443 87.1333H89.0325C88.5781 87.1333 88.2098 87.5014 88.2098 87.9554V92.5225C88.2098 92.9765 88.5781 93.3446 89.0325 93.3446H114.443C114.897 93.3446 115.266 92.9765 115.266 92.5225V87.9554C115.266 87.5014 114.897 87.1333 114.443 87.1333Z"
          fill="#22306D"/>
    <path opacity="0.3"
          d="M149.36 97.9121H89.2152C88.7609 97.9121 88.3926 98.2802 88.3926 98.7342V100.013C88.3926 100.467 88.7609 100.835 89.2152 100.835H149.36C149.814 100.835 150.182 100.467 150.182 100.013V98.7342C150.182 98.2802 149.814 97.9121 149.36 97.9121Z"
          fill="#22306D"/>
    <path opacity="0.3"
          d="M149.36 105.584H89.2152C88.7609 105.584 88.3926 105.953 88.3926 106.407V107.685C88.3926 108.139 88.7609 108.507 89.2152 108.507H149.36C149.814 108.507 150.182 108.139 150.182 107.685V106.407C150.182 105.953 149.814 105.584 149.36 105.584Z"
          fill="#22306D"/>
    <path opacity="0.3"
          d="M128.519 113.257H89.2152C88.7609 113.257 88.3926 113.625 88.3926 114.079V115.358C88.3926 115.812 88.7609 116.18 89.2152 116.18H128.519C128.974 116.18 129.342 115.812 129.342 115.358V114.079C129.342 113.625 128.974 113.257 128.519 113.257Z"
          fill="#22306D"/>
  </g>
  <g opacity="0.6">
    <path opacity="0.6"
          d="M258.907 54.3743L260.003 4.54152C260.02 3.81983 260.301 3.12923 260.793 2.6006C261.285 2.07198 261.953 1.74206 262.673 1.67336C286.273 -0.55909 310.032 -0.55909 333.632 1.67336C334.363 1.73971 335.043 2.07595 335.539 2.61643C336.035 3.15691 336.312 3.86282 336.316 4.59632V54.4218C336.311 55.1749 336.018 55.8977 335.496 56.4413C334.974 56.985 334.264 57.3083 333.511 57.3447C309.066 58.492 285.111 58.5468 261.715 57.3447C260.953 57.3088 260.235 56.9793 259.711 56.4254C259.188 55.8714 258.899 55.1362 258.907 54.3743Z"
          fill="#36334A"/>
    <path opacity="0.6"
          d="M258.907 54.3743L260.003 4.54152C260.02 3.81983 260.301 3.12923 260.793 2.6006C261.285 2.07198 261.953 1.74206 262.673 1.67336C286.273 -0.55909 310.032 -0.55909 333.632 1.67336C334.363 1.73971 335.043 2.07595 335.539 2.61643C336.035 3.15691 336.312 3.86282 336.316 4.59632V54.4218C336.311 55.1749 336.018 55.8977 335.496 56.4413C334.974 56.985 334.264 57.3083 333.511 57.3447C309.066 58.492 285.111 58.5468 261.715 57.3447C260.953 57.3088 260.235 56.9793 259.711 56.4254C259.188 55.8714 258.899 55.1362 258.907 54.3743Z"
          fill="#36334A"/>
    <path opacity="0.2"
          d="M258.907 54.3743L260.003 4.54152C260.02 3.81983 260.301 3.12923 260.793 2.6006C261.285 2.07198 261.953 1.74206 262.673 1.67336C286.273 -0.55909 310.032 -0.55909 333.632 1.67336C334.363 1.73971 335.043 2.07595 335.539 2.61643C336.035 3.15691 336.312 3.86282 336.316 4.59632V54.4218C336.311 55.1749 336.018 55.8977 335.496 56.4413C334.974 56.985 334.264 57.3083 333.511 57.3447C309.066 58.492 285.111 58.5468 261.715 57.3447C260.953 57.3088 260.235 56.9793 259.711 56.4254C259.188 55.8714 258.899 55.1362 258.907 54.3743Z"
          fill="#22306D"/>
    <path opacity="0.6"
          d="M293.231 10.771H267.82C267.366 10.771 266.998 11.1391 266.998 11.5931V16.1602C266.998 16.6142 267.366 16.9823 267.82 16.9823H293.231C293.685 16.9823 294.054 16.6142 294.054 16.1602V11.5931C294.054 11.1391 293.685 10.771 293.231 10.771Z"
          fill="#22306D"/>
    <path opacity="0.3"
          d="M328.148 21.5498H268.003C267.549 21.5498 267.181 21.9179 267.181 22.3719V23.6507C267.181 24.1047 267.549 24.4728 268.003 24.4728H328.148C328.602 24.4728 328.97 24.1047 328.97 23.6507V22.3719C328.97 21.9179 328.602 21.5498 328.148 21.5498Z"
          fill="#22306D"/>
    <path opacity="0.3"
          d="M328.148 29.2222H268.003C267.549 29.2222 267.181 29.5902 267.181 30.0443V31.323C267.181 31.7771 267.549 32.1451 268.003 32.1451H328.148C328.602 32.1451 328.97 31.7771 328.97 31.323V30.0443C328.97 29.5902 328.602 29.2222 328.148 29.2222Z"
          fill="#22306D"/>
    <path opacity="0.3"
          d="M307.307 36.895H268.003C267.549 36.895 267.181 37.2631 267.181 37.7171V38.9959C267.181 39.4499 267.549 39.818 268.003 39.818H307.307C307.762 39.818 308.13 39.4499 308.13 38.9959V37.7171C308.13 37.2631 307.762 36.895 307.307 36.895Z"
          fill="#22306D"/>
  </g>
  <g filter="url(#undraw-social-share)">
    <path
      d="M435 251.188C435 254.655 432.415 258.009 427.574 261.199C424.115 263.479 419.509 265.671 413.867 267.754C397.78 273.706 373.313 278.777 343.237 282.471C340.704 282.78 338.133 283.082 335.522 283.377C303.549 286.943 265.857 289.004 225.5 289.004C109.796 289.004 16 272.072 16 251.188C16 230.303 109.796 213.372 225.5 213.372C341.204 213.372 435 230.3 435 251.188Z"
      fill="#3F3D56"/>
  </g>
  <path opacity="0.1"
        d="M213.8 277.308C256.205 277.308 290.58 270.438 290.58 261.963C290.58 253.488 256.205 246.617 213.8 246.617C171.396 246.617 137.02 253.488 137.02 261.963C137.02 270.438 171.396 277.308 213.8 277.308Z"
        fill="black"/>
  <path opacity="0.1"
        d="M411.6 238.035C411.6 246.511 384.545 253.559 342.133 253.559C299.721 253.559 265.353 246.687 265.353 238.214C265.353 229.741 299.721 222.868 342.133 222.868C384.545 222.868 411.6 229.558 411.6 238.035Z"
        fill="black"/>
  <path opacity="0.1"
        d="M426.477 260.688C423.245 263.136 419.011 265.5 413.867 267.75C397.78 273.702 373.313 278.773 343.237 282.467C340.704 282.777 338.133 283.079 335.522 283.373C327.903 280.984 323.486 278.156 323.486 275.116C323.486 266.639 357.854 259.771 400.266 259.771C409.472 259.771 418.299 260.096 426.477 260.688Z"
        fill="black"/>
  <path
    d="M279.465 70.1509H277.37C276.908 70.1509 276.533 70.5255 276.533 70.9876V100.378C276.533 100.84 276.908 101.215 277.37 101.215H279.465C279.928 101.215 280.303 100.84 280.303 100.378V70.9876C280.303 70.5255 279.928 70.1509 279.465 70.1509Z"
    fill="#3F3D56"/>
  <path
    d="M152.76 45.8174H151.74C151.437 45.8174 151.191 46.0628 151.191 46.3654V55.496C151.191 55.7987 151.437 56.0441 151.74 56.0441H152.76C153.063 56.0441 153.308 55.7987 153.308 55.496V46.3654C153.308 46.0628 153.063 45.8174 152.76 45.8174Z"
    fill="#3F3D56"/>
  <path
    d="M152.881 64.5386H151.733C151.391 64.5386 151.115 64.815 151.115 65.1561V81.7219C151.115 82.0629 151.391 82.3394 151.733 82.3394H152.881C153.222 82.3394 153.499 82.0629 153.499 81.7219V65.1561C153.499 64.815 153.222 64.5386 152.881 64.5386Z"
    fill="#3F3D56"/>
  <path
    d="M152.833 88.5654H151.74C151.415 88.5654 151.151 88.8288 151.151 89.1537V105.931C151.151 106.256 151.415 106.52 151.74 106.52H152.833C153.158 106.52 153.422 106.256 153.422 105.931V89.1537C153.422 88.8288 153.158 88.5654 152.833 88.5654Z"
    fill="#3F3D56"/>
  <path
    d="M265.517 12.0205H165.44C158.233 12.0205 152.391 17.8587 152.391 25.0605V255.24C152.391 262.442 158.233 268.28 165.44 268.28H265.517C272.724 268.28 278.566 262.442 278.566 255.24V25.0605C278.566 17.8587 272.724 12.0205 265.517 12.0205Z"
    fill="#3F3D56"/>
  <path
    d="M219.997 19.6714H204.236C203.723 19.6714 203.307 20.0869 203.307 20.5994V22.3203C203.307 22.8329 203.723 23.2484 204.236 23.2484H219.997C220.51 23.2484 220.926 22.8329 220.926 22.3203V20.5994C220.926 20.0869 220.51 19.6714 219.997 19.6714Z"
    fill="#36334A"/>
  <path
    d="M225.621 23.4897C226.741 23.4897 227.65 22.5818 227.65 21.4619C227.65 20.342 226.741 19.4341 225.621 19.4341C224.5 19.4341 223.591 20.342 223.591 21.4619C223.591 22.5818 224.5 23.4897 225.621 23.4897Z"
    fill="#36334A"/>
  <path
    d="M270.775 28.7108V251.586C270.774 254.242 269.717 256.788 267.838 258.665C265.959 260.543 263.41 261.597 260.753 261.597H170.204C167.546 261.597 164.998 260.543 163.119 258.665C161.239 256.788 160.183 254.242 160.182 251.586V28.7108C160.182 26.0547 161.238 23.5074 163.117 21.6293C164.997 19.7512 167.546 18.696 170.204 18.696H183.754V20.4352C183.756 22.6213 184.626 24.7173 186.173 26.2628C187.72 27.8083 189.818 28.677 192.006 28.6779H238.074C240.262 28.6779 242.361 27.8091 243.909 26.2626C245.456 24.7161 246.326 22.6186 246.326 20.4315V18.6924H260.771C263.427 18.6972 265.972 19.755 267.847 21.6334C269.723 23.5118 270.776 26.0573 270.775 28.7108Z"
    fill="#36334A"/>
  <path d="M174.679 39.9971H163.345V41.4585H174.679V39.9971Z" fill="#3F3D56"/>
  <path d="M174.679 42.5547H163.345V44.0162H174.679V42.5547Z" fill="#3F3D56"/>
  <path d="M174.679 45.1118H163.345V46.5733H174.679V45.1118Z" fill="#3F3D56"/>
  <path d="M174.679 39.9971H163.345V41.4585H174.679V39.9971Z" fill="#3F3D56"/>
  <path d="M174.679 42.5547H163.345V44.0162H174.679V42.5547Z" fill="#3F3D56"/>
  <path d="M174.679 45.1118H163.345V46.5733H174.679V45.1118Z" fill="#3F3D56"/>
  <path
    d="M265.594 43.6578H265.261L265.133 43.5519C265.554 43.0513 265.784 42.4187 265.784 41.7652C265.781 41.2276 265.619 40.7029 265.317 40.2575C265.016 39.8121 264.589 39.466 264.091 39.2629C263.593 39.0598 263.046 39.0089 262.519 39.1166C261.992 39.2244 261.508 39.4859 261.13 39.8681C260.752 40.2503 260.495 40.736 260.393 41.2639C260.291 41.7917 260.348 42.338 260.556 42.8336C260.765 43.3292 261.116 43.7519 261.565 44.0482C262.014 44.3445 262.54 44.5011 263.078 44.4982C263.73 44.4936 264.361 44.2638 264.863 43.8478L264.987 43.9501V44.2863L267.086 46.3908L267.715 45.7587L265.594 43.6578ZM263.078 43.6578C262.704 43.6593 262.337 43.5495 262.024 43.3424C261.712 43.1353 261.468 42.8403 261.323 42.4946C261.179 42.1489 261.14 41.7681 261.213 41.4005C261.285 41.0329 261.465 40.695 261.729 40.4295C261.994 40.1641 262.331 39.9831 262.699 39.9095C263.067 39.8359 263.448 39.873 263.794 40.016C264.141 40.159 264.437 40.4016 264.645 40.713C264.854 41.0244 264.965 41.3906 264.965 41.7652C264.966 42.0136 264.919 42.2597 264.825 42.4895C264.73 42.7193 264.592 42.9282 264.416 43.1041C264.241 43.2801 264.032 43.4196 263.803 43.5146C263.573 43.6097 263.327 43.6583 263.078 43.6578Z"
    fill="#3F3D56"/>
  <path
    d="M29.0161 247.22C30.1129 245.207 28.8698 242.741 27.4476 240.947C26.0253 239.153 24.2996 237.293 24.3361 234.995C24.391 231.707 27.8827 229.763 30.6723 228.02C32.7438 226.728 34.6536 225.193 36.3614 223.449C37.076 222.778 37.6674 221.986 38.109 221.111C38.6867 219.825 38.6721 218.363 38.6355 216.957C38.5112 212.253 38.2784 207.565 37.9372 202.894"
    stroke="#3F3D56" stroke-width="4" stroke-miterlimit="10"/>
  <path
    d="M43.2423 202.638C43.2035 201.779 42.9486 200.944 42.5013 200.209C42.0539 199.475 41.4286 198.865 40.683 198.436L39.535 200.705L39.5715 197.957C39.0224 197.796 38.4504 197.727 37.8787 197.753C36.8688 197.803 35.8964 198.151 35.0841 198.752C34.2718 199.354 33.656 200.183 33.3145 201.134C32.9729 202.085 32.9208 203.115 33.1648 204.096C33.4089 205.077 33.938 205.963 34.6856 206.643C35.4331 207.324 36.3656 207.768 37.3653 207.919C38.365 208.07 39.3872 207.922 40.3029 207.494C41.2186 207.066 41.9868 206.376 42.5106 205.511C43.0343 204.647 43.2903 203.647 43.246 202.638H43.2423Z"
    fill="#57B894"/>
  <path
    d="M34.0908 237.344C33.5526 238.387 32.6721 239.213 31.5969 239.684C30.5218 240.155 29.3173 240.242 28.1854 239.931C27.0535 239.62 26.0629 238.93 25.3796 237.976C24.6963 237.022 24.362 235.863 24.4325 234.692C24.503 233.521 24.9741 232.41 25.7669 231.544C26.5597 230.679 27.626 230.113 28.7871 229.94C29.9481 229.767 31.1334 229.998 32.1443 230.594C33.1552 231.191 33.9302 232.116 34.3394 233.216L31.1329 235.821L34.6465 235.006C34.6498 235.818 34.4593 236.62 34.0908 237.344Z"
    fill="#57B894"/>
  <path
    d="M31.5571 227.388C30.2821 227.478 29.0196 227.088 28.0178 226.295C27.0159 225.501 26.3473 224.362 26.1434 223.102C25.9394 221.841 26.2149 220.549 26.9156 219.481C27.6164 218.413 28.6917 217.645 29.9301 217.329L29.8935 219.441L31.0562 217.143C31.7295 217.11 32.4026 217.21 33.037 217.438C33.6713 217.666 34.2544 218.016 34.7528 218.47C35.2511 218.924 35.655 219.471 35.941 220.081C36.2271 220.691 36.3898 221.351 36.4198 222.024C36.4499 222.616 36.3756 223.208 36.2005 223.774C35.8925 224.781 35.2814 225.668 34.4504 226.315C33.6194 226.961 32.6091 227.336 31.5571 227.388Z"
    fill="#57B894"/>
  <path
    d="M44.0137 219.105C43.2261 219.134 42.4423 218.981 41.7237 218.657C41.005 218.334 40.3708 217.849 39.8705 217.24C39.3702 216.631 39.0172 215.916 38.8393 215.148C38.6613 214.381 38.663 213.583 38.8443 212.816C39.0256 212.05 39.3817 211.336 39.8846 210.729C40.3876 210.123 41.0239 209.64 41.744 209.32C42.464 209 43.2484 208.85 44.0359 208.882C44.8235 208.915 45.5929 209.128 46.2842 209.507L45.3775 211.991L47.2421 210.201C48.2414 211.115 48.837 212.389 48.8984 213.741C48.9227 214.216 48.8796 214.692 48.7704 215.155C48.5144 216.24 47.9117 217.213 47.0535 217.925C46.1953 218.638 45.1283 219.052 44.0137 219.105Z"
    fill="#57B894"/>
  <path opacity="0.1"
        d="M42.5513 204.004C41.3667 204.132 40.215 204.501 39.0267 204.574C37.8385 204.647 36.5332 204.362 35.78 203.441C35.3779 202.944 35.1731 202.312 34.8331 201.771C34.5114 201.267 34.0707 200.849 33.5498 200.555C33.2402 201.201 33.0701 201.906 33.0505 202.623C33.0309 203.339 33.1623 204.052 33.4362 204.715C33.71 205.377 34.1202 205.975 34.6401 206.469C35.16 206.963 35.778 207.342 36.454 207.582C37.1301 207.822 37.8491 207.918 38.5643 207.862C39.2796 207.806 39.9751 207.601 40.6059 207.259C41.2367 206.918 41.7885 206.448 42.2257 205.879C42.6629 205.311 42.9756 204.657 43.1436 203.96C42.9437 203.967 42.7463 203.982 42.5513 204.004Z"
        fill="black"/>
  <path opacity="0.1"
        d="M44.0138 219.105C43.1288 219.15 42.2473 218.964 41.4556 218.567C40.6639 218.169 39.989 217.573 39.4971 216.836C39.0051 216.1 38.7129 215.248 38.6491 214.365C38.5852 213.482 38.7519 212.597 39.1328 211.797C39.5396 212.07 39.8897 212.418 40.1638 212.824C40.5294 213.376 40.7525 214.012 41.1802 214.519C41.981 215.458 43.3447 215.765 44.5842 215.711C45.8236 215.656 47.0192 215.301 48.2404 215.188C48.4122 215.188 48.584 215.162 48.7595 215.159C48.5033 216.242 47.902 217.212 47.046 217.924C46.1901 218.635 45.1259 219.05 44.0138 219.105Z"
        fill="black"/>
  <path opacity="0.1"
        d="M31.5571 227.388C30.6803 227.432 29.8069 227.25 29.0207 226.86C28.2345 226.47 27.562 225.884 27.0678 225.159C26.5736 224.434 26.2743 223.594 26.1986 222.72C26.123 221.846 26.2735 220.967 26.6358 220.168C27.0615 220.446 27.4332 220.799 27.7327 221.209C28.1312 221.772 28.3798 222.419 28.8478 222.937C29.7143 223.902 31.1695 224.242 32.4784 224.209C33.7873 224.176 34.9756 223.873 36.237 223.774C35.927 224.786 35.3103 225.677 34.4721 226.325C33.6339 226.972 32.6154 227.343 31.5571 227.388Z"
        fill="black"/>
  <path opacity="0.1"
        d="M34.0909 237.344C33.5357 238.584 32.5104 239.553 31.2406 240.037C29.9707 240.522 28.5603 240.482 27.3196 239.927C26.0789 239.373 25.1095 238.348 24.6247 237.079C24.14 235.81 24.1795 234.401 24.7347 233.161C25.162 233.435 25.5453 233.773 25.8717 234.162C26.3617 234.757 26.6834 235.433 27.2465 235.989C28.2958 237.019 29.9886 237.45 31.4986 237.483C32.3646 237.486 33.2301 237.44 34.0909 237.344Z"
        fill="black"/>
  <path
    d="M21.2759 244.903C21.2759 244.903 25.3269 244.779 26.5481 243.91C27.7693 243.04 32.7636 242.006 33.0781 243.398C33.3925 244.79 39.1656 250.34 34.5954 250.362C30.0252 250.384 23.9705 249.631 22.7493 248.9C21.5282 248.17 21.2759 244.903 21.2759 244.903Z"
    fill="#656380"/>
  <path opacity="0.2"
        d="M34.6758 249.876C30.1019 249.913 24.0509 249.168 22.8334 248.415C21.9047 247.849 21.5355 245.821 21.4112 244.889H21.2759C21.2759 244.889 21.5318 248.152 22.7384 248.908C23.9449 249.665 30.0105 250.399 34.5844 250.37C35.9043 250.37 36.3577 249.891 36.3321 249.197C36.1603 249.606 35.6594 249.869 34.6758 249.876Z"
        fill="black"/>
  <path
    d="M111.525 228.82C109.792 225.612 111.759 221.681 114.019 218.82C116.278 215.959 119.039 212.974 118.98 209.32C118.896 204.081 113.332 200.986 108.882 198.206C105.584 196.144 102.541 193.7 99.8183 190.924C98.7214 189.809 97.6721 188.618 97.0323 187.197C96.1109 185.147 96.1365 182.813 96.195 180.573C96.3876 173.093 96.7532 165.622 97.2919 158.161"
    stroke="#3F3D56" stroke-width="4" stroke-miterlimit="10"/>
  <path
    d="M88.8534 157.77C88.9163 156.402 89.323 155.071 90.0361 153.901C90.7493 152.731 91.7458 151.76 92.9337 151.076L94.7618 154.697L94.707 150.313C96.3698 149.821 98.1459 149.87 99.7789 150.453C101.412 151.036 102.817 152.123 103.792 153.556C104.767 154.989 105.26 156.695 105.202 158.427C105.143 160.159 104.535 161.827 103.465 163.191C102.396 164.555 100.92 165.544 99.2514 166.016C97.5827 166.487 95.8073 166.416 94.1816 165.813C92.5559 165.21 91.164 164.106 90.2069 162.661C89.2499 161.216 88.7772 159.505 88.8571 157.774L88.8534 157.77Z"
    fill="#57B894"/>
  <path
    d="M103.434 213.08C104.292 214.747 105.697 216.068 107.414 216.822C109.132 217.577 111.056 217.718 112.865 217.223C114.674 216.727 116.258 215.625 117.35 214.102C118.443 212.578 118.977 210.725 118.865 208.854C118.753 206.983 118 205.208 116.733 203.825C115.466 202.443 113.762 201.538 111.907 201.263C110.051 200.987 108.158 201.357 106.543 202.311C104.929 203.266 103.692 204.745 103.039 206.503L108.158 210.657L102.538 209.356C102.536 210.651 102.843 211.928 103.434 213.08Z"
    fill="#57B894"/>
  <path
    d="M107.474 197.212C109.48 197.305 111.45 196.656 113.008 195.391C114.567 194.126 115.605 192.332 115.925 190.351C116.246 188.37 115.826 186.341 114.745 184.65C113.665 182.958 111.999 181.723 110.067 181.18L110.11 184.548L108.26 180.895H108.238C107.161 180.837 106.083 180.992 105.066 181.352C104.049 181.712 103.113 182.27 102.313 182.993C101.512 183.716 100.863 184.591 100.402 185.566C99.9413 186.541 99.6781 187.597 99.6277 188.674C99.5773 189.751 99.7407 190.828 100.108 191.842C100.476 192.855 101.041 193.786 101.77 194.581C102.5 195.376 103.379 196.018 104.358 196.472C105.337 196.925 106.396 197.18 107.474 197.223V197.212Z"
    fill="#57B894"/>
  <path
    d="M87.6213 184.011C88.8867 184.071 90.1487 183.837 91.308 183.326C92.4673 182.816 93.492 182.043 94.3014 181.069C95.1109 180.096 95.6829 178.947 95.9723 177.715C96.2618 176.482 96.2608 175.199 95.9695 173.967C95.6781 172.735 95.1044 171.588 94.2934 170.615C93.4825 169.643 92.4566 168.872 91.2966 168.363C90.1365 167.854 88.8741 167.622 87.6088 167.684C86.3435 167.746 85.1099 168.101 84.0053 168.721L85.4678 172.677L82.4953 169.824C81.3052 170.915 80.465 172.333 80.0805 173.901C79.6959 175.468 79.7843 177.114 80.3345 178.631C80.8846 180.149 81.8719 181.469 83.1719 182.427C84.4719 183.384 86.0264 183.935 87.6395 184.011H87.6213Z"
    fill="#57B894"/>
  <path opacity="0.1"
        d="M89.9503 159.948C91.8405 160.152 93.6759 160.741 95.5699 160.858C97.4638 160.974 99.5441 160.521 100.74 159.049C101.387 158.256 101.709 157.255 102.253 156.389C102.771 155.586 103.478 154.921 104.312 154.453C104.839 155.489 105.138 156.625 105.191 157.786C105.244 158.947 105.048 160.105 104.617 161.185C104.186 162.264 103.53 163.239 102.692 164.045C101.854 164.851 100.854 165.468 99.7578 165.857C98.662 166.246 97.4959 166.397 96.3371 166.3C95.1783 166.203 94.0536 165.86 93.0379 165.294C92.0222 164.729 91.139 163.953 90.447 163.019C89.7551 162.085 89.2704 161.014 89.0253 159.878C89.336 159.889 89.6432 159.911 89.9503 159.948Z"
        fill="black"/>
  <path opacity="0.1"
        d="M87.6212 184.011C89.0305 184.077 90.4329 183.777 91.692 183.141C92.9512 182.504 94.0244 181.554 94.8073 180.381C95.5903 179.208 96.0565 177.853 96.1606 176.446C96.2647 175.04 96.0032 173.631 95.4015 172.356C94.7506 172.791 94.1915 173.35 93.7562 174C93.1749 174.877 92.8203 175.893 92.1366 176.7C90.8642 178.198 88.6851 178.688 86.7108 178.596C84.7364 178.505 82.8352 177.946 80.8608 177.767C80.5866 177.742 80.3124 177.723 80.0345 177.716C80.4416 179.447 81.4026 180.999 82.7717 182.135C84.1408 183.271 85.8434 183.93 87.6212 184.011Z"
        fill="black"/>
  <path opacity="0.1"
        d="M107.474 197.212C108.87 197.277 110.259 196.984 111.509 196.361C112.759 195.737 113.828 194.804 114.615 193.65C115.402 192.497 115.88 191.161 116.003 189.77C116.127 188.38 115.892 186.981 115.321 185.707C114.646 186.149 114.06 186.713 113.591 187.369C112.955 188.264 112.56 189.294 111.814 190.124C110.436 191.658 108.118 192.199 106.027 192.152C104.001 192.104 102.052 191.611 100.038 191.454C100.533 193.062 101.513 194.478 102.844 195.509C104.175 196.54 105.792 197.134 107.474 197.212Z"
        fill="black"/>
  <path opacity="0.1"
        d="M103.434 213.08C104.39 214.943 106.024 216.368 107.999 217.062C109.975 217.756 112.142 217.667 114.054 216.812C115.965 215.957 117.476 214.402 118.274 212.467C119.072 210.532 119.098 208.365 118.344 206.412C117.67 206.854 117.065 207.393 116.549 208.012C115.77 208.959 115.258 210.033 114.355 210.913C112.685 212.554 109.986 213.23 107.584 213.296C106.198 213.303 104.812 213.231 103.434 213.08Z"
        fill="black"/>
  <path
    d="M123.858 225.126C123.858 225.126 117.405 224.929 115.449 223.544C113.492 222.159 105.518 220.508 105.036 222.726C104.553 224.944 95.3395 233.767 102.652 233.826C109.964 233.884 119.584 232.693 121.525 231.509C123.467 230.325 123.858 225.126 123.858 225.126Z"
    fill="#656380"/>
  <path opacity="0.2"
        d="M102.506 233.054C109.792 233.113 119.437 231.918 121.379 230.738C122.841 229.839 123.445 226.609 123.642 225.119H123.858C123.858 225.119 123.448 230.322 121.507 231.502C119.565 232.682 109.92 233.877 102.634 233.818C100.531 233.818 99.8036 233.054 99.8439 231.947C100.136 232.623 100.937 233.04 102.506 233.054Z"
        fill="black"/>
  <path opacity="0.3"
        d="M270.775 150.09V251.594C270.774 254.249 269.717 256.795 267.838 258.673C265.959 260.55 263.41 261.605 260.753 261.605H170.204C167.546 261.605 164.998 260.55 163.119 258.673C161.239 256.795 160.183 254.249 160.182 251.594V150.288C196.905 154.917 234.069 154.851 270.775 150.09Z"
        fill="#22306D"/>
  <path opacity="0.3"
        d="M204.294 130.795C205.102 130.795 205.757 130.141 205.757 129.334C205.757 128.526 205.102 127.872 204.294 127.872C203.486 127.872 202.832 128.526 202.832 129.334C202.832 130.141 203.486 130.795 204.294 130.795Z"
        fill="#22306D"/>
  <path
    d="M210.875 130.795C211.683 130.795 212.338 130.141 212.338 129.334C212.338 128.526 211.683 127.872 210.875 127.872C210.067 127.872 209.413 128.526 209.413 129.334C209.413 130.141 210.067 130.795 210.875 130.795Z"
    fill="#22306D"/>
  <path opacity="0.3"
        d="M217.456 130.795C218.264 130.795 218.919 130.141 218.919 129.334C218.919 128.526 218.264 127.872 217.456 127.872C216.649 127.872 215.994 128.526 215.994 129.334C215.994 130.141 216.649 130.795 217.456 130.795Z"
        fill="#22306D"/>
  <path opacity="0.3"
        d="M224.038 130.795C224.845 130.795 225.5 130.141 225.5 129.334C225.5 128.526 224.845 127.872 224.038 127.872C223.23 127.872 222.575 128.526 222.575 129.334C222.575 130.141 223.23 130.795 224.038 130.795Z"
        fill="#22306D"/>
  <path opacity="0.3"
        d="M177.008 111.007L178.105 61.1738C178.121 60.4522 178.402 59.7616 178.894 59.2329C179.386 58.7043 180.055 58.3744 180.774 58.3057C204.374 56.0732 228.133 56.0732 251.733 58.3057C252.464 58.372 253.144 58.7083 253.64 59.2488C254.137 59.7892 254.413 60.4951 254.417 61.2286V111.054C254.417 111.81 254.125 112.538 253.603 113.085C253.081 113.633 252.368 113.959 251.612 113.995C227.167 115.143 203.212 115.197 179.816 113.995C179.051 113.959 178.33 113.627 177.806 113.069C177.282 112.512 176.996 111.772 177.008 111.007Z"
        fill="#9494A4"/>
  <path opacity="0.3"
        d="M270.775 58.9414V115.442C268.149 115.216 265.534 114.972 262.928 114.711C262.163 114.642 261.456 114.274 260.96 113.687C260.464 113.1 260.219 112.342 260.278 111.577L263.755 61.8534C263.805 61.133 264.119 60.4562 264.636 59.9516C265.153 59.4471 265.837 59.15 266.559 59.1168C267.963 59.0535 269.368 58.995 270.775 58.9414Z"
        fill="#22306D"/>
  <path opacity="0.3"
        d="M160.215 58.9414V115.442C162.84 115.216 165.456 114.972 168.061 114.711C168.827 114.642 169.534 114.274 170.03 113.687C170.526 113.1 170.771 112.342 170.712 111.577L167.235 61.8534C167.185 61.133 166.871 60.4562 166.354 59.9516C165.837 59.4471 165.152 59.15 164.431 59.1168C163.027 59.0535 161.621 58.995 160.215 58.9414Z"
        fill="#22306D"/>
  <path
    d="M211.332 67.4033H185.922C185.467 67.4033 185.099 67.7714 185.099 68.2254V72.7925C185.099 73.2465 185.467 73.6146 185.922 73.6146H211.332C211.787 73.6146 212.155 73.2465 212.155 72.7925V68.2254C212.155 67.7714 211.787 67.4033 211.332 67.4033Z"
    fill="#22306D"/>
  <path opacity="0.3"
        d="M246.249 78.1816H186.105C185.65 78.1816 185.282 78.5497 185.282 79.0037V80.2825C185.282 80.7365 185.65 81.1046 186.105 81.1046H246.249C246.703 81.1046 247.072 80.7365 247.072 80.2825V79.0037C247.072 78.5497 246.703 78.1816 246.249 78.1816Z"
        fill="#22306D"/>
  <path opacity="0.3"
        d="M246.249 85.8545H186.105C185.65 85.8545 185.282 86.2226 185.282 86.6766V87.9554C185.282 88.4094 185.65 88.7775 186.105 88.7775H246.249C246.703 88.7775 247.072 88.4094 247.072 87.9554V86.6766C247.072 86.2226 246.703 85.8545 246.249 85.8545Z"
        fill="#22306D"/>
  <path opacity="0.3"
        d="M225.409 93.5273H186.105C185.65 93.5273 185.282 93.8954 185.282 94.3494V95.6282C185.282 96.0822 185.65 96.4503 186.105 96.4503H225.409C225.863 96.4503 226.231 96.0822 226.231 95.6282V94.3494C226.231 93.8954 225.863 93.5273 225.409 93.5273Z"
        fill="#22306D"/>
  <path
    d="M188.624 193.459C187.995 193.739 187.328 193.922 186.646 194.004C187.364 193.571 187.903 192.894 188.163 192.097C187.485 192.499 186.743 192.782 185.969 192.933C185.448 192.383 184.761 192.019 184.013 191.897C183.264 191.775 182.497 191.903 181.828 192.26C181.16 192.617 180.628 193.185 180.313 193.874C179.999 194.563 179.921 195.337 180.09 196.076C178.718 196.007 177.375 195.651 176.15 195.03C174.925 194.408 173.844 193.536 172.979 192.469C172.675 192.997 172.515 193.596 172.514 194.205C172.514 194.773 172.655 195.333 172.923 195.834C173.192 196.335 173.58 196.762 174.054 197.077C173.503 197.062 172.965 196.914 172.485 196.645V196.689C172.485 197.486 172.76 198.258 173.264 198.875C173.769 199.492 174.472 199.915 175.253 200.073C174.957 200.152 174.652 200.192 174.346 200.193C174.128 200.194 173.909 200.172 173.695 200.127C173.916 200.813 174.345 201.413 174.923 201.843C175.501 202.272 176.2 202.511 176.92 202.524C175.697 203.479 174.187 203.994 172.635 203.986C172.36 203.985 172.085 203.968 171.812 203.935C173.381 204.964 175.215 205.514 177.092 205.517C183.443 205.517 186.916 200.255 186.916 195.696C186.916 195.546 186.916 195.396 186.916 195.25C187.588 194.76 188.166 194.154 188.624 193.459Z"
    fill="white"/>
  <path
    d="M223.186 191.855H211.014C210.814 191.855 210.622 191.935 210.48 192.076C210.338 192.217 210.258 192.408 210.257 192.608V204.786C210.257 204.885 210.277 204.984 210.315 205.075C210.353 205.167 210.409 205.25 210.479 205.321C210.549 205.391 210.633 205.447 210.725 205.485C210.816 205.523 210.915 205.542 211.014 205.542H217.091V200.116H215.456V198.122H217.091V196.66C217.091 194.895 218.316 193.934 219.895 193.934C220.652 193.934 221.464 193.993 221.65 194.015V195.842H220.392C219.537 195.842 219.372 196.247 219.372 196.846V198.118H221.416L221.149 200.113H219.372V205.517H223.178C223.378 205.516 223.57 205.436 223.711 205.294C223.852 205.152 223.932 204.96 223.932 204.76V192.608C223.932 192.41 223.853 192.219 223.713 192.078C223.574 191.938 223.384 191.857 223.186 191.855Z"
    fill="white"/>
  <path
    d="M255.188 192.959C255.943 192.962 256.666 193.262 257.199 193.796C257.733 194.329 258.034 195.051 258.036 195.805V201.497C258.034 202.251 257.733 202.974 257.199 203.507C256.666 204.04 255.943 204.341 255.188 204.344H249.485C248.73 204.341 248.007 204.04 247.474 203.507C246.94 202.974 246.639 202.251 246.636 201.497V195.798C246.639 195.044 246.94 194.321 247.474 193.788C248.007 193.255 248.73 192.954 249.485 192.951H255.188V192.959ZM255.188 191.812H249.485C248.428 191.814 247.415 192.235 246.667 192.982C245.92 193.729 245.499 194.741 245.496 195.798V201.497C245.499 202.554 245.92 203.566 246.667 204.313C247.415 205.06 248.428 205.481 249.485 205.484H255.188C256.245 205.481 257.258 205.06 258.006 204.313C258.753 203.566 259.174 202.554 259.177 201.497V195.798C259.172 194.743 258.75 193.732 258.003 192.987C257.256 192.242 256.244 191.822 255.188 191.819V191.812Z"
    fill="white"/>
  <path
    d="M256.04 195.805C255.871 195.805 255.705 195.755 255.564 195.661C255.424 195.567 255.314 195.433 255.249 195.277C255.185 195.12 255.168 194.948 255.201 194.782C255.235 194.616 255.316 194.464 255.436 194.344C255.556 194.225 255.709 194.144 255.875 194.111C256.042 194.079 256.214 194.096 256.37 194.161C256.526 194.227 256.66 194.337 256.753 194.478C256.847 194.619 256.896 194.785 256.896 194.954C256.896 195.066 256.874 195.177 256.83 195.28C256.787 195.384 256.724 195.478 256.645 195.557C256.565 195.636 256.471 195.699 256.367 195.741C256.263 195.784 256.152 195.806 256.04 195.805ZM252.336 196.382C252.788 196.382 253.229 196.516 253.604 196.767C253.979 197.017 254.272 197.373 254.444 197.79C254.617 198.206 254.662 198.665 254.574 199.107C254.486 199.549 254.269 199.956 253.95 200.274C253.631 200.593 253.224 200.81 252.781 200.898C252.339 200.986 251.88 200.941 251.463 200.769C251.046 200.596 250.69 200.304 250.439 199.929C250.189 199.554 250.055 199.113 250.055 198.662C250.056 198.058 250.297 197.479 250.724 197.051C251.152 196.624 251.732 196.383 252.336 196.382ZM252.336 195.246C251.659 195.246 250.998 195.447 250.435 195.823C249.872 196.199 249.433 196.733 249.174 197.358C248.915 197.983 248.848 198.671 248.98 199.335C249.113 199.998 249.439 200.607 249.918 201.086C250.397 201.564 251.007 201.889 251.671 202.021C252.335 202.152 253.023 202.084 253.649 201.824C254.274 201.565 254.808 201.126 255.184 200.563C255.559 200 255.759 199.339 255.759 198.662C255.76 198.213 255.672 197.767 255.5 197.352C255.329 196.936 255.077 196.559 254.759 196.241C254.441 195.923 254.063 195.67 253.647 195.499C253.232 195.327 252.786 195.238 252.336 195.239V195.246Z"
    fill="white"/>
  <path
    d="M293.673 157.873C297.423 157.873 300.463 154.835 300.463 151.088C300.463 147.34 297.423 144.303 293.673 144.303C289.924 144.303 286.884 147.34 286.884 151.088C286.884 154.835 289.924 157.873 293.673 157.873Z"
    fill="#3F3D56"/>
  <path
    d="M310.24 190.814C320.76 190.814 329.289 179.772 329.289 166.152C329.289 152.531 320.76 141.489 310.24 141.489C299.719 141.489 291.191 152.531 291.191 166.152C291.191 179.772 299.719 190.814 310.24 190.814Z"
    fill="#3F3D56"/>
  <path opacity="0.1"
        d="M310.24 183.364C300.697 183.364 292.792 174.281 291.407 162.429C291.262 163.664 291.19 164.908 291.191 166.152C291.191 179.773 299.717 190.814 310.24 190.814C320.762 190.814 329.285 179.773 329.285 166.152C329.286 164.908 329.214 163.664 329.069 162.429C327.683 174.281 319.779 183.364 310.24 183.364Z"
        fill="black"/>
  <path
    d="M348.999 238.378C348.589 240.059 346.827 241.403 344.871 242.342C340.765 244.319 335.701 244.9 330.787 245.108C329.533 245.182 328.276 245.159 327.025 245.039C324.466 244.732 322.067 243.636 320.576 242.075C320.45 241.994 320.347 241.881 320.277 241.749C320.207 241.617 320.171 241.469 320.174 241.319C320.176 241.17 320.217 241.023 320.292 240.893C320.366 240.763 320.473 240.655 320.601 240.577C323.215 237.706 327.581 235.948 331.979 234.68C335.314 233.716 341.12 231.228 344.776 231.564C348.286 231.889 349.514 236.255 348.999 238.378Z"
    fill="#3F3D56"/>
  <path opacity="0.1"
        d="M348.999 238.378C348.589 240.059 346.827 241.403 344.871 242.342C340.765 244.319 335.701 244.9 330.787 245.108C329.533 245.182 328.276 245.159 327.025 245.039C324.466 244.732 322.067 243.636 320.576 242.075C320.45 241.994 320.347 241.881 320.277 241.749C320.207 241.617 320.171 241.469 320.174 241.319C320.176 241.17 320.217 241.023 320.292 240.893C320.366 240.763 320.473 240.655 320.601 240.577C323.215 237.706 327.581 235.948 331.979 234.68C335.314 233.716 341.12 231.228 344.776 231.564C348.286 231.889 349.514 236.255 348.999 238.378Z"
        fill="black"/>
  <path
    d="M296.796 225.824C296.175 227.04 295.8 228.365 295.692 229.726C295.584 231.086 295.745 232.455 296.167 233.753C297.029 236.357 298.647 238.646 300.814 240.329C306.126 244.586 313.439 245.17 320.25 245.112C326.213 245.056 332.167 244.645 338.081 243.881C340.056 243.625 342.048 243.325 343.873 242.536C346.096 241.575 348.048 239.814 348.842 237.527C349.635 235.24 349.072 232.437 347.193 230.91C345.54 229.569 343.262 229.386 341.138 229.258L328.97 228.535C330.173 227.322 331.771 226.635 333.233 225.751C335.171 224.578 336.462 222.612 337.873 220.84C339.979 218.191 342.469 215.879 344.944 213.573C345.343 215.838 346.772 217.702 348.465 219.266C350.158 220.829 352.103 222.09 353.858 223.581C358.11 227.187 361.17 232.083 365.646 235.415C368.721 234.608 371.597 233.173 374.091 231.202L372.355 228.056C372.209 227.733 371.984 227.451 371.7 227.238C371.207 226.935 370.574 227.092 370 227.004C368.475 226.778 367.806 225.017 367.21 223.592C365.565 219.689 362.413 216.65 359.726 213.387C357.741 210.97 355.98 208.377 354.465 205.641C353.558 204.011 352.732 202.312 351.507 200.891C350.282 199.47 348.56 198.381 346.695 198.377C345.047 198.377 343.526 199.21 342.107 200.051C337.792 202.615 333.641 205.443 329.676 208.52C327.603 210.131 325.537 211.83 323.095 212.821C322.071 213.233 320.989 213.518 320.005 214.026C318.283 214.91 316.974 216.408 315.567 217.742C310.561 222.503 303.688 225.576 296.796 225.824Z"
    fill="#3F3D56"/>
  <path
    d="M322.195 192.038C322.136 193.489 321.827 194.919 321.281 196.265C320.682 197.584 319.625 198.754 318.247 199.188C317.28 199.448 316.266 199.481 315.285 199.283C314.429 199.196 313.605 198.916 312.872 198.465C311.735 197.679 311.165 196.273 310.96 194.917C310.755 193.562 310.843 192.155 310.711 190.781C310.583 189.671 310.371 188.572 310.079 187.493C309.991 187.127 309.9 186.762 309.808 186.419C309.717 186.075 309.636 185.688 309.556 185.348C309.476 185.008 309.413 184.672 309.359 184.332C309.307 184.047 309.267 183.759 309.234 183.47C309.139 182.619 309.125 181.738 308.81 180.938C308.57 180.407 308.272 179.903 307.922 179.436C307.772 179.221 307.625 179.009 307.49 178.782C307.102 178.203 306.921 177.509 306.978 176.813C306.994 176.705 307.02 176.599 307.055 176.495C307.055 176.455 307.084 176.419 307.103 176.378C307.251 176.337 307.387 176.261 307.5 176.156C307.613 176.051 307.698 175.921 307.75 175.775C307.807 175.462 307.779 175.139 307.669 174.84C307.546 174.422 307.377 174.019 307.165 173.638C307.026 173.386 306.554 172.933 306.551 172.644C306.551 172.063 307.677 171.596 308.137 171.369C309.536 170.665 311.097 170.345 312.66 170.441C313.662 170.507 314.751 170.806 315.304 171.654C315.801 172.41 315.735 173.393 315.947 174.27C315.965 174.404 316.02 174.53 316.104 174.635C316.212 174.734 316.347 174.796 316.492 174.815C316.733 174.861 316.979 174.871 317.223 174.844C317.288 174.838 317.353 174.828 317.417 174.815C317.804 174.744 318.17 174.587 318.488 174.354C318.693 174.299 318.898 174.256 319.11 174.219H319.132C319.962 176.835 320.071 179.641 320.751 182.305C321.084 183.631 321.567 184.939 321.636 186.305C321.636 186.364 321.636 186.426 321.636 186.488C321.636 186.927 321.61 187.369 321.636 187.803C321.645 188 321.667 188.195 321.702 188.388C321.778 188.699 321.871 189.005 321.98 189.305C322.013 189.4 322.042 189.499 322.067 189.594C322.093 189.689 322.104 189.736 322.115 189.806C322.246 190.542 322.273 191.294 322.195 192.038Z"
    fill="#FBBEBE"/>
  <path
    d="M310.569 174.924C315.966 174.924 320.342 170.552 320.342 165.158C320.342 159.764 315.966 155.392 310.569 155.392C305.171 155.392 300.796 159.764 300.796 165.158C300.796 170.552 305.171 174.924 310.569 174.924Z"
    fill="#FBBEBE"/>
  <path
    d="M372.614 218.367C372.331 215.703 371.383 213.153 369.858 210.95C370.101 212.455 370.355 213.96 370.618 215.466C370.302 215.557 369.965 215.555 369.65 215.458C369.335 215.361 369.055 215.175 368.845 214.921C368.434 214.407 368.12 213.823 367.916 213.197C366.807 210.443 365.355 207.839 363.595 205.447C357.379 204.929 351.226 202.353 345.752 199.346C340.279 196.339 335.149 192.743 329.76 189.616C328.822 189.049 327.845 188.551 326.835 188.125C325.146 187.449 323.248 187.098 321.647 186.298L321.325 186.13C320.963 185.935 320.62 185.705 320.301 185.443C320.13 185.303 319.966 185.153 319.812 184.994C318.963 184.113 318.441 182.973 317.94 181.863C317.077 179.963 316.773 177.668 315.914 175.768C316.308 175.4 316.751 175.088 317.23 174.84L317.439 174.734C317.779 174.58 318.132 174.458 318.495 174.369C318.7 174.314 318.905 174.27 319.117 174.234H319.139C320.107 174.076 321.099 174.154 322.031 174.46C323.391 174.921 324.539 175.841 325.687 176.707C327.515 178.081 329.383 179.371 331.029 180.942C331.972 181.848 332.835 182.838 333.851 183.66C334.694 184.313 335.584 184.903 336.513 185.425C342.005 188.694 347.499 191.964 352.995 195.235C354.856 196.331 356.717 197.449 358.538 198.622C361.298 200.402 363.964 202.331 366.625 204.26L371.327 207.669C371.842 207.996 372.294 208.413 372.662 208.9C372.988 209.452 373.19 210.068 373.254 210.705C373.646 213.274 373.427 215.899 372.614 218.367Z"
    fill="#FBBEBE"/>
  <path
    d="M324.616 199.382C323.958 202.338 320.96 204.132 319.409 206.719C317.468 209.941 318.258 213.687 318.989 217.373L314.989 220.815C314.258 221.447 313.527 222.079 312.73 222.642C311.575 223.415 310.368 224.107 309.117 224.713L305.578 226.54C304.482 227.155 303.321 227.645 302.116 228.002C299.79 228.597 297.322 228.181 295.026 227.49C294.754 227.422 294.494 227.316 294.251 227.176C294.109 227.09 293.985 226.977 293.886 226.843C293.659 226.437 293.576 225.966 293.652 225.506C293.886 221.641 294.832 217.855 295.772 214.099C296.614 209.837 298.27 205.777 300.649 202.141C301.915 200.036 303.165 197.892 304.839 196.079C305.552 195.297 306.349 194.552 306.774 193.584C307.362 192.243 307.139 190.708 307.253 189.247C307.345 188.15 307.636 187.079 308.112 186.086C308.366 185.552 308.674 185.044 309.029 184.57L309.512 185.692L309.827 186.423L310.232 187.365C310.598 188.26 311.004 189.156 311.388 190.054C311.863 191.151 312.349 192.279 313.143 193.178C313.936 194.077 315.11 194.731 316.305 194.607C317.431 194.483 318.393 193.69 319 192.733C319.555 191.744 319.958 190.677 320.196 189.568C320.522 188.218 320.566 186.815 320.327 185.447C319.929 182.813 318.806 180.12 317.991 177.672C317.661 176.857 317.47 175.992 317.424 175.114C317.425 175.015 317.435 174.916 317.453 174.818C317.453 174.793 317.453 174.767 317.453 174.742C317.793 174.587 318.147 174.465 318.51 174.376C318.715 174.322 318.92 174.278 319.132 174.241C319.841 178.107 320.561 181.98 321.292 185.86C321.292 185.951 321.325 186.043 321.344 186.134C321.446 186.689 321.552 187.23 321.665 187.8C321.779 188.37 321.885 188.805 322.009 189.302C322.053 189.47 322.097 189.638 322.144 189.802C322.269 190.259 322.411 190.712 322.572 191.158C323.545 193.876 325.241 196.587 324.616 199.382Z"
    fill="#FF6584"/>
  <path
    d="M364.278 240.903C364.247 241.473 364.357 242.042 364.6 242.558C365.211 243.676 366.677 243.928 367.949 244.02C375.367 244.629 382.83 244.401 390.197 243.34C390.597 243.31 390.985 243.185 391.327 242.975C392.376 242.244 391.729 240.454 390.596 239.88C389.462 239.306 388.095 239.445 386.841 239.197C385.587 238.948 384.439 238.313 383.327 237.673C380.782 236.212 378.274 234.689 375.803 233.106C374.34 232.16 372.596 231.155 370.94 231.714C366.439 233.259 364.249 236.065 364.278 240.903Z"
    fill="#FF6584"/>
  <path
    d="M309.592 185.144C309.592 185.217 309.571 185.283 309.556 185.352C309.541 185.422 309.516 185.579 309.494 185.692C309.289 186.741 309.037 187.789 308.762 188.827C307.965 191.699 306.901 194.523 305.838 197.307C303.005 204.773 300.169 212.238 297.33 219.704C296.598 221.586 295.9 223.467 295.088 225.309L294.236 227.169C293.238 229.408 292.28 231.721 291.962 234.111C291.754 235.689 291.542 237.304 291.86 238.86C292.178 240.417 293.129 241.948 294.613 242.514C295.344 242.795 296.379 243.175 296.178 243.928C296.072 244.345 295.6 244.546 295.18 244.615C294.622 244.704 294.052 244.669 293.509 244.513C292.966 244.357 292.464 244.084 292.039 243.713C291.246 243.007 290.635 241.915 289.582 241.794C288.851 241.718 288.178 242.16 287.509 242.459C284.778 243.705 281.597 242.825 278.734 241.948C278.961 240.79 280.127 240.022 281.293 239.792C282.46 239.562 283.652 239.723 284.833 239.693C285.211 239.712 285.586 239.615 285.908 239.416C286.195 239.151 286.396 238.806 286.485 238.426C287.246 236.173 287.813 233.859 288.178 231.509C288.544 229.054 288.716 226.562 289.275 224.14C289.699 222.247 290.35 220.413 290.909 218.557C292.057 214.753 292.818 210.844 293.575 206.945C293.923 205.319 294.173 203.673 294.324 202.017C294.419 200.643 294.372 199.262 294.507 197.892C294.725 196.112 295.092 194.353 295.604 192.634C296.108 190.761 296.614 188.886 297.121 187.011C297.871 184.238 298.679 181.359 300.58 179.203C301.24 178.445 302.049 177.83 302.957 177.397C303.864 176.964 304.851 176.722 305.856 176.686C306.233 176.685 306.61 176.726 306.978 176.806L307.161 176.854C307.563 176.957 307.948 177.115 308.305 177.325C308.894 176.96 309.19 177.084 309.581 177.657C309.922 178.267 310.083 178.959 310.046 179.656C310.077 181.496 309.925 183.334 309.592 185.144Z"
    fill="#FBBEBE"/>
  <path
    d="M310.24 187.34L310.214 187.365L310.079 187.497L308.748 188.827L308.094 186.086L305.856 176.696C306.233 176.696 306.61 176.736 306.978 176.817C306.994 176.709 307.02 176.602 307.055 176.499L307.161 176.864L307.922 179.422L309.359 184.318L309.593 185.125L310.24 187.34Z"
    fill="#FF6584"/>
  <path
    d="M314.298 150.759H301.871C299.447 150.759 297.483 152.722 297.483 155.143V159.615C297.483 162.037 299.447 164 301.871 164H314.298C316.721 164 318.685 162.037 318.685 159.615V155.143C318.685 152.722 316.721 150.759 314.298 150.759Z"
    fill="#3F3D56"/>
  <path
    d="M326.141 157.873C329.89 157.873 332.93 154.835 332.93 151.088C332.93 147.34 329.89 144.303 326.141 144.303C322.391 144.303 319.351 147.34 319.351 151.088C319.351 154.835 322.391 157.873 326.141 157.873Z"
    fill="#3F3D56"/>
  <path opacity="0.1"
        d="M325.972 144.303H325.724C327.476 144.373 329.133 145.119 330.347 146.382C331.562 147.646 332.24 149.33 332.24 151.082C332.24 152.835 331.562 154.519 330.347 155.783C329.133 157.046 327.476 157.792 325.724 157.862H325.972C326.877 157.883 327.778 157.723 328.62 157.391C329.462 157.06 330.23 156.563 330.877 155.931C331.525 155.298 332.039 154.543 332.391 153.709C332.742 152.876 332.923 151.98 332.923 151.075C332.923 150.17 332.742 149.275 332.391 148.441C332.039 147.607 331.525 146.852 330.877 146.22C330.23 145.587 329.462 145.091 328.62 144.759C327.778 144.427 326.877 144.267 325.972 144.288V144.303Z"
        fill="black"/>
  <path opacity="0.1"
        d="M293.673 144.303H293.922C292.17 144.373 290.513 145.118 289.298 146.382C288.084 147.646 287.405 149.33 287.405 151.082C287.405 152.834 288.084 154.519 289.298 155.782C290.513 157.046 292.17 157.791 293.922 157.862H293.673C291.9 157.82 290.212 157.087 288.972 155.819C287.732 154.551 287.038 152.848 287.038 151.075C287.038 149.302 287.732 147.599 288.972 146.331C290.212 145.062 291.9 144.329 293.673 144.288V144.303Z"
        fill="black"/>
  <path opacity="0.1"
        d="M316.696 162.677H299.472C298.945 162.675 298.44 162.465 298.068 162.093C297.695 161.72 297.485 161.216 297.483 160.689V162.012C297.485 162.539 297.695 163.043 298.068 163.415C298.44 163.788 298.945 163.998 299.472 164H316.696C317.223 163.998 317.728 163.788 318.101 163.415C318.473 163.043 318.683 162.539 318.685 162.012V160.689C318.683 161.216 318.473 161.72 318.101 162.093C317.728 162.465 317.223 162.675 316.696 162.677Z"
        fill="black"/>
  <path
    d="M335.687 267.75L336.784 217.917C336.8 217.196 337.081 216.505 337.573 215.977C338.065 215.448 338.734 215.118 339.453 215.049C363.053 212.817 386.812 212.817 410.412 215.049C411.143 215.116 411.823 215.452 412.319 215.992C412.816 216.533 413.092 217.239 413.096 217.972V267.798C413.091 268.551 412.798 269.274 412.276 269.817C411.754 270.361 411.044 270.684 410.291 270.721C385.846 271.868 361.891 271.923 338.495 270.721C337.733 270.685 337.015 270.355 336.491 269.801C335.968 269.247 335.679 268.512 335.687 267.75Z"
    fill="#F2F2F2"/>
  <path
    d="M370.011 224.147H344.601C344.146 224.147 343.778 224.515 343.778 224.969V229.536C343.778 229.99 344.146 230.358 344.601 230.358H370.011C370.465 230.358 370.834 229.99 370.834 229.536V224.969C370.834 224.515 370.465 224.147 370.011 224.147Z"
    fill="#22306D"/>
  <path opacity="0.3"
        d="M404.928 234.925H344.783C344.329 234.925 343.961 235.293 343.961 235.747V237.026C343.961 237.48 344.329 237.848 344.783 237.848H404.928C405.382 237.848 405.75 237.48 405.75 237.026V235.747C405.75 235.293 405.382 234.925 404.928 234.925Z"
        fill="#22306D"/>
  <path opacity="0.3"
        d="M404.928 242.598H344.783C344.329 242.598 343.961 242.966 343.961 243.42V244.699C343.961 245.153 344.329 245.521 344.783 245.521H404.928C405.382 245.521 405.75 245.153 405.75 244.699V243.42C405.75 242.966 405.382 242.598 404.928 242.598Z"
        fill="#22306D"/>
  <path opacity="0.3"
        d="M384.087 250.271H344.783C344.329 250.271 343.961 250.639 343.961 251.093V252.372C343.961 252.826 344.329 253.194 344.783 253.194H384.087C384.542 253.194 384.91 252.826 384.91 252.372V251.093C384.91 250.639 384.542 250.271 384.087 250.271Z"
        fill="#22306D"/>
  <path d="M367.339 211.848C367.339 211.848 369.053 216.777 370.629 215.466L369.382 209.021L367.339 211.848Z"
        fill="#FBBEBE"/>
  <defs>
    <filter id="undraw-social-share" x="0" y="201.372" width="451" height="107.632" filterUnits="userSpaceOnUse"
            color-interpolation-filters="sRGB">
      <feFlood flood-opacity="0" result="BackgroundImageFix"/>
      <feColorMatrix in="SourceAlpha" type="matrix" values="0 0 0 0 0 0 0 0 0 0 0 0 0 0 0 0 0 0 127 0"/>
      <feOffset dy="4"/>
      <feGaussianBlur stdDeviation="8"/>
      <feColorMatrix type="matrix" values="0 0 0 0 0 0 0 0 0 0 0 0 0 0 0 0 0 0 0.08 0"/>
      <feBlend mode="normal" in2="BackgroundImageFix" result="effect1_dropShadow"/>
      <feBlend mode="normal" in="SourceGraphic" in2="effect1_dropShadow" result="shape"/>
    </filter>
  </defs>
</svg>

