<svg width="1920" height="547" viewBox="0 0 1920 547" fill="none" xmlns="http://www.w3.org/2000/svg">
<g clip-path="url(#clip0)">
<rect y="471" width="1920" height="76" fill="#09D8C4"/>
<g filter="url(#filter0_d)">
<path d="M0 458H1920V513.431H1730C1552.68 513.431 1522.01 535.51 1317.74 535.51C1113.47 535.51 719.118 507.277 542.5 507.277C401.205 507.277 107.719 532.027 0 539V458Z" fill="#1E5480"/>
</g>
<g filter="url(#filter1_d)">
<path d="M0 458H1920V476.921C1870.75 482.051 1778.34 479.9 1745.01 479.9C1703.1 479.9 1478.66 499 1349.94 499C1221.21 499 676.392 473.267 499.774 473.267C358.479 473.267 107.719 487.049 0 493.94V458Z" fill="#2E3440"/>
</g>
<path d="M1450.45 429.659H1677.94C1689.67 429.659 1920 442.35 1920 458V465.5H4.75933e-06V458C4.75933e-06 445.5 156 438.932 172.648 437.951C189.296 436.97 325.18 429.992 354.095 429.659C678.047 425.926 1344.38 429.659 1450.45 429.659Z" fill="#2E3440"/>
<path d="M1689.84 451.753C1666.53 456.051 1546.88 412.516 1518.49 395.333C1484 374.451 1432.65 304.642 1427.65 289.522H1383.44C1395.23 298.653 1417.93 318.923 1425.32 349.149C1439.55 407.365 1384.36 450.901 1377.55 456.051C1457.16 455.506 1610.24 452.285 1689.84 451.753Z" fill="#2E3440"/>
<path d="M1578.01 425.227V324.394H1593.22V262.305H1615.1V282.748H1634.12V343.772H1641.33V229.869L1645.75 238.028H1687.62V276.12H1694.76V327.548H1714.16L1712.81 185.881H1745.14V366.012L1746.16 440.2H1578.01V425.227Z" fill="#2E3440"/>
<path d="M1781.1 207.256L1749.57 452.138H1848.84L1817.31 207.256V167.647L1799.21 128.038L1781.1 167.647V207.256Z" fill="#2E3440"/>
<path d="M1819.69 197.58H1778.71C1777.87 197.58 1777.2 198.48 1777.2 199.59V207.948C1777.2 209.058 1777.87 209.958 1778.71 209.958H1819.69C1820.53 209.958 1821.2 209.058 1821.2 207.948V199.59C1821.2 198.48 1820.53 197.58 1819.69 197.58Z" fill="#2E3440"/>
<path d="M1799.21 128.038L1777.2 168.366H1821.2L1799.21 128.038Z" fill="#2E3440"/>
<path d="M78.5688 434.29H116.07C117.071 434.29 118.032 434.82 118.74 435.764C119.448 436.707 119.846 437.987 119.846 439.321V445.47C119.846 446.805 119.448 448.084 118.74 449.028C118.032 449.971 117.071 450.501 116.07 450.501H77.6098C76.8653 450.501 76.1513 450.107 75.6249 449.406C75.0985 448.705 74.8027 447.753 74.8027 446.761V439.335C74.8027 438 75.2006 436.721 75.9087 435.777C76.6169 434.834 77.5773 434.304 78.5788 434.304L78.5688 434.29Z" fill="#2E3440"/>
<path d="M188.164 406.953L71.2862 405.928C71.0213 405.928 70.7672 405.788 70.5798 405.538C70.3925 405.288 70.2873 404.95 70.2873 404.597L69.1484 395.36C69.1484 394.641 70.7168 389.69 71.2562 389.69L186.746 388.359C187.285 388.359 192.25 390.302 192.25 391.021L191.251 402.534C192.8 403.372 187.685 407.179 188.164 406.953Z" fill="#2E3440"/>
<path d="M159.654 349.881L93.9524 348.856C93.6428 348.856 93.403 348.271 93.403 347.525L92.7637 338.289C92.7637 337.57 93.6428 332.619 93.9524 332.619L158.885 331.288C159.185 331.288 161.982 333.231 161.982 333.95L161.422 345.449C162.251 346.301 159.384 350.108 159.654 349.881Z" fill="#2E3440"/>
<path d="M149.445 429.086H164.709C165.711 429.086 166.671 429.616 167.379 430.56C168.087 431.503 168.485 432.783 168.485 434.117V445.457C168.485 446.791 168.087 448.071 167.379 449.014C166.671 449.958 165.711 450.488 164.709 450.488H148.476C147.732 450.488 147.018 450.094 146.491 449.393C145.965 448.691 145.669 447.74 145.669 446.748V434.117C145.669 432.783 146.067 431.503 146.775 430.56C147.483 429.616 148.444 429.086 149.445 429.086V429.086Z" fill="#2E3440"/>
<path d="M172.171 405.222H141.972C141.139 405.222 140.464 406.122 140.464 407.232V431.176C140.464 432.286 141.139 433.186 141.972 433.186H172.171C173.004 433.186 173.679 432.286 173.679 431.176V407.232C173.679 406.122 173.004 405.222 172.171 405.222Z" fill="#2E3440"/>
<path d="M144.66 340.378H114.471C114.272 340.378 114.076 340.326 113.892 340.224C113.708 340.122 113.541 339.973 113.401 339.785C113.261 339.597 113.15 339.374 113.075 339.128C113 338.883 112.962 338.62 112.963 338.355L111.564 316.288C111.564 315.17 113.632 312.415 114.471 312.415H144.66C144.859 312.413 145.056 312.464 145.24 312.564C145.424 312.664 145.592 312.812 145.733 312.999C145.874 313.186 145.986 313.408 146.063 313.652C146.139 313.897 146.178 314.16 146.178 314.425V338.382C146.173 338.914 146.011 339.421 145.727 339.795C145.442 340.169 145.059 340.378 144.66 340.378V340.378Z" fill="#2E3440"/>
<path d="M115.748 436H85.5124C85.0921 435.972 84.6972 435.717 84.414 435.291C84.1309 434.865 83.9826 434.303 84.0016 433.727L85.7125 407.99C85.7125 406.744 89.2043 404.554 90.0447 404.554H115.758C116.598 404.554 120 403.308 120 404.554L117.279 433.727C117.288 434.014 117.256 434.301 117.184 434.571C117.112 434.841 117.001 435.089 116.859 435.3C116.717 435.511 116.545 435.682 116.355 435.802C116.164 435.922 115.958 435.989 115.748 436V436Z" fill="#2E3440"/>
<path d="M99.6571 392.844H167.317C169.195 392.844 168.485 391.314 168.485 390.089L166.897 365.613C166.897 364.402 159.075 362.272 157.197 362.272H99.6571C97.779 362.272 94.7422 365.427 94.7422 366.651L96.2606 390.608C96.2606 391.86 97.779 392.844 99.6571 392.844Z" fill="#2E3440"/>
<path d="M108.338 366.225H153.64C154.889 366.225 153.141 364.695 153.141 363.776L153.361 345.795C153.361 344.877 148.116 343.293 146.857 343.293H108.338C107.079 343.293 105.041 345.662 105.041 346.567L106.04 364.575C106.07 365.493 107.079 366.225 108.338 366.225Z" fill="#2E3440"/>
<path d="M1458.95 433.651C1458.95 399.486 1412.64 349.322 1355.51 349.322C1298.38 349.322 1252.06 399.486 1252.06 433.651" fill="#2E3440"/>
<path d="M683.279 277.517H637.017V439.588H683.279V277.517Z" fill="#2E3440"/>
<path d="M684.148 268.467H636.797C636.025 268.467 635.398 269.301 635.398 270.33V278.675C635.398 279.704 636.025 280.539 636.797 280.539H684.148C684.92 280.539 685.546 279.704 685.546 278.675V270.33C685.546 269.301 684.92 268.467 684.148 268.467Z" fill="#2E3440"/>
<path d="M675.138 255.037H645.159C641.126 255.037 637.856 259.393 637.856 264.767C637.856 270.14 641.126 274.496 645.159 274.496H675.138C679.171 274.496 682.44 270.14 682.44 264.767C682.44 259.393 679.171 255.037 675.138 255.037Z" fill="#2E3440"/>
<path d="M660.732 258.045H660.492C660.203 258.045 658.305 257.553 658.305 256.927L659.973 235.432C659.973 234.807 660.203 234.301 660.492 234.301H660.732C661.022 234.301 661.252 234.807 661.252 235.432L662.65 256.635C662.65 257.26 661.022 258.045 660.732 258.045Z" fill="#2E3440"/>
<path d="M1043.01 361.035H1021.19V436.46H1189.37V359.957H1167.53V279.594L1163.9 290.121H1146.89L1129.57 251.271V241.967L1124.72 239.133L1105.28 167.767L1085.84 240.197L1080.98 243.032V252.349L1063.67 291.186H1046.66L1043.01 280.672V361.035Z" fill="#2E3440"/>
<path d="M1189.37 322.916L1180.06 331.195V440.2H1252.06V331.195L1242.75 322.916V223.068L1236.67 193.853L1232.09 189.501V160.287H1225.54V152.873L1216.05 118.867L1206.56 152.873V160.287H1200.02V189.501L1195.43 193.853L1189.37 223.068V322.916Z" fill="#2E3440"/>
<path d="M1022 345H915V441H1022V345Z" fill="#2E3440"/>
<path d="M968.401 305.747H942.728C941.329 305.747 940.32 307.011 940.73 308.236C941.02 308.994 941.269 309.753 941.499 310.498C945.295 323.169 933.198 338.568 928.622 345.449C927.783 346.714 928.762 348.337 930.371 348.337H968.331C969.46 348.337 970.379 347.499 970.379 346.447V307.637C970.449 306.585 969.53 305.747 968.401 305.747Z" fill="#2E3440"/>
<path d="M968.182 305.747H993.855C995.254 305.747 996.263 307.011 995.853 308.236C995.563 308.994 995.314 309.753 995.084 310.498C991.288 323.169 1003.39 338.568 1007.96 345.449C1008.8 346.714 1007.82 348.337 1006.21 348.337H968.252C967.123 348.337 966.204 347.499 966.204 346.447V307.637C966.134 306.585 967.053 305.747 968.182 305.747Z" fill="#2E3440"/>
<path d="M846.638 348.617H691.439V447.8H846.638V348.617Z" fill="#2E3440"/>
<path d="M768.999 392.924C811.834 392.924 846.558 373.087 846.558 348.617C846.558 324.147 811.834 304.309 768.999 304.309C726.164 304.309 691.439 324.147 691.439 348.617C691.439 373.087 726.164 392.924 768.999 392.924Z" fill="#2E3440"/>
<path d="M885.697 452.485V300.596L875.508 290.947H855.948V278.116H848.426V289.363H845.11V282.136H842.402V289.363H840.484V452.485H885.697Z" fill="#2E3440"/>
<path d="M880.713 440.692L891.022 161.658H902.57L915.397 440.692H880.713Z" fill="#2E3440"/>
<path d="M906.166 157.891H887.056C885.787 157.891 884.759 159.262 884.759 160.952V162.057C884.759 163.748 885.787 165.118 887.056 165.118H906.166C907.435 165.118 908.464 163.748 908.464 162.057V160.952C908.464 159.262 907.435 157.891 906.166 157.891Z" fill="#2E3440"/>
<path d="M907.225 151.436H885.987C884.486 151.436 883.27 153.057 883.27 155.056V156.081C883.27 158.08 884.486 159.701 885.987 159.701H907.225C908.725 159.701 909.942 158.08 909.942 156.081V155.056C909.942 153.057 908.725 151.436 907.225 151.436Z" fill="#2E3440"/>
<path d="M908.683 142.505H884.528C883.833 142.505 883.27 143.256 883.27 144.182V153.885C883.27 154.811 883.833 155.562 884.528 155.562H908.683C909.378 155.562 909.942 154.811 909.942 153.885V144.182C909.942 143.256 909.378 142.505 908.683 142.505Z" fill="#2E3440"/>
<path d="M907.125 137.315H886.107V144.315H907.125V137.315Z" fill="#2E3440"/>
<path d="M903.389 130.26H889.833V138.832H903.389V130.26Z" fill="#2E3440"/>
<path d="M899.923 125.975H893.3C892.075 125.975 891.082 127.298 891.082 128.93V131.591C891.082 133.223 892.075 134.546 893.3 134.546H899.923C901.148 134.546 902.141 133.223 902.141 131.591V128.93C902.141 127.298 901.148 125.975 899.923 125.975Z" fill="#2E3440"/>
<path d="M896.607 27.8968L895.168 127.718H898.055L896.607 27.8968Z" fill="#2E3440"/>
<path d="M241.03 265.033H205.507V284.784H241.03V265.033Z" fill="#2E3440"/>
<path d="M234.856 227.713H211.68C208.271 227.713 205.507 231.396 205.507 235.938V239.079C205.507 243.622 208.271 247.305 211.68 247.305H234.856C238.266 247.305 241.03 243.622 241.03 239.079V235.938C241.03 231.396 238.266 227.713 234.856 227.713Z" fill="#2E3440"/>
<path d="M223.577 188.077H222.968C222.389 188.077 221.919 188.703 221.919 189.475V229.057C221.919 229.829 222.389 230.455 222.968 230.455H223.577C224.157 230.455 224.626 229.829 224.626 229.057V189.475C224.626 188.703 224.157 188.077 223.577 188.077Z" fill="#2E3440"/>
<path d="M218.383 198.379V198.525C218.383 199.025 218.687 199.43 219.062 199.43H227.473C227.849 199.43 228.153 199.025 228.153 198.525V198.379C228.153 197.879 227.849 197.474 227.473 197.474H219.062C218.687 197.474 218.383 197.879 218.383 198.379Z" fill="#2E3440"/>
<path d="M218.373 205.939V206.085C218.373 206.585 218.677 206.99 219.052 206.99H227.464C227.839 206.99 228.143 206.585 228.143 206.085V205.939C228.143 205.439 227.839 205.034 227.464 205.034H219.052C218.677 205.034 218.373 205.439 218.373 205.939Z" fill="#2E3440"/>
<path d="M218.383 213.498V213.645C218.383 214.145 218.687 214.55 219.062 214.55H227.473C227.849 214.55 228.153 214.145 228.153 213.645V213.498C228.153 212.999 227.849 212.593 227.473 212.593H219.062C218.687 212.593 218.383 212.999 218.383 213.498Z" fill="#2E3440"/>
<path d="M187.625 281.297V447.8H258.911V281.297H187.625ZM216.795 434.357H211.48V290.148H216.775L216.795 434.357ZM235.056 434.357H229.761V290.148H235.076L235.056 434.357Z" fill="#2E3440"/>
<path d="M251.579 242.553L225.146 238.747C223.898 238.56 222.638 238.56 221.39 238.747L194.958 242.553C194.59 242.553 194.227 242.657 193.893 242.859C193.558 243.06 193.259 243.355 193.017 243.723C192.775 244.091 192.595 244.524 192.488 244.993C192.382 245.461 192.352 245.954 192.4 246.44L194.578 268.72C194.659 269.55 194.964 270.313 195.437 270.864C195.909 271.416 196.517 271.718 197.145 271.714H249.401C250.028 271.718 250.635 271.415 251.106 270.863C251.577 270.311 251.88 269.549 251.958 268.72L254.146 246.44C254.193 245.954 254.161 245.46 254.054 244.992C253.946 244.523 253.765 244.091 253.522 243.723C253.279 243.355 252.98 243.06 252.645 242.859C252.31 242.657 251.946 242.553 251.579 242.553V242.553ZM245.585 261.479H200.961V256.874H245.575L245.585 261.479ZM245.585 254.292H200.961V249.687H245.575L245.585 254.292Z" fill="#2E3440"/>
<path d="M341.595 284.784H263.756V439.787H341.595V284.784Z" fill="#2E3440"/>
<path d="M318.319 268.986H287.031V287.752H318.319V268.986Z" fill="#2E3440"/>
<path d="M402.151 312.202H347.968V442.569H402.151V312.202Z" fill="#2E3440"/>
<path d="M402.151 312.202L370.704 347.832L347.968 312.202L386.518 273.857L402.151 312.202Z" fill="#2E3440"/>
<path d="M258.911 281.297H187.625V436.34H258.911V281.297Z" fill="#2E3440"/>
<path d="M248.701 247.305H199.263V265.033H248.701V247.305Z" fill="#2E3440"/>
<path d="M412.28 377.392V310.844L419.483 290.148L426.845 310.831L437.084 283.081H487.362V232.917L494.305 225.85V240.903L523.744 239.745V227.593H531.056V219.062H537.44L546.43 188.862L555.031 218.822H561.025V227.101L569.247 226.622V239.838H589.725V252.442L609.105 242.939L626.087 251.95V444.539L412.24 442.516L412.28 377.392Z" fill="#2E3440"/>
</g>
<defs>
<filter id="filter0_d" x="-4" y="458" width="1928" height="89" filterUnits="userSpaceOnUse" color-interpolation-filters="sRGB">
<feFlood flood-opacity="0" result="BackgroundImageFix"/>
<feColorMatrix in="SourceAlpha" type="matrix" values="0 0 0 0 0 0 0 0 0 0 0 0 0 0 0 0 0 0 127 0"/>
<feOffset dy="4"/>
<feGaussianBlur stdDeviation="2"/>
<feColorMatrix type="matrix" values="0 0 0 0 0 0 0 0 0 0 0 0 0 0 0 0 0 0 0.25 0"/>
<feBlend mode="normal" in2="BackgroundImageFix" result="effect1_dropShadow"/>
<feBlend mode="normal" in="SourceGraphic" in2="effect1_dropShadow" result="shape"/>
</filter>
<filter id="filter1_d" x="-4" y="458" width="1928" height="49" filterUnits="userSpaceOnUse" color-interpolation-filters="sRGB">
<feFlood flood-opacity="0" result="BackgroundImageFix"/>
<feColorMatrix in="SourceAlpha" type="matrix" values="0 0 0 0 0 0 0 0 0 0 0 0 0 0 0 0 0 0 127 0"/>
<feOffset dy="4"/>
<feGaussianBlur stdDeviation="2"/>
<feColorMatrix type="matrix" values="0 0 0 0 0 0 0 0 0 0 0 0 0 0 0 0 0 0 0.25 0"/>
<feBlend mode="normal" in2="BackgroundImageFix" result="effect1_dropShadow"/>
<feBlend mode="normal" in="SourceGraphic" in2="effect1_dropShadow" result="shape"/>
</filter>
<clipPath id="clip0">
<rect width="1920" height="547" fill="white"/>
</clipPath>
</defs>
</svg>
