<svg width="179" height="48" viewBox="0 0 179 48" fill="none" xmlns="http://www.w3.org/2000/svg">
<path d="M177.642 6.98945H172.057C171.864 7.00413 171.68 7.0764 171.528 7.19715C171.376 7.31791 171.262 7.48176 171.202 7.66811L167.094 24.1403H166.905L159.508 7.06322C159.448 6.89656 159.336 6.75418 159.19 6.65717C159.044 6.56017 158.871 6.51372 158.697 6.52472H157.835C157.668 6.53166 157.506 6.58572 157.368 6.68083C157.23 6.77594 157.121 6.90834 157.052 7.06322L149.626 24.1403H149.438L145.337 7.66811C143.512 9.62571 141.519 11.4131 139.382 13.0088L147.061 40.8117C147.114 41.003 147.225 41.1721 147.379 41.2942C147.533 41.4163 147.721 41.4851 147.916 41.4903H148.684C148.853 41.4808 149.016 41.4268 149.159 41.3337C149.301 41.2406 149.417 41.1116 149.496 40.9592L158.19 21.079H158.327L167.05 40.9961C167.129 41.1485 167.245 41.2775 167.387 41.3706C167.529 41.4637 167.693 41.5177 167.862 41.5272H168.644C168.84 41.5235 169.03 41.4555 169.186 41.3333C169.341 41.211 169.453 41.041 169.506 40.8486L178.526 8.19185C178.592 8.05224 178.618 7.89711 178.603 7.74323C178.588 7.58936 178.532 7.44259 178.441 7.31879C178.35 7.19499 178.228 7.09887 178.087 7.04082C177.946 6.98278 177.792 6.96501 177.642 6.98945Z" fill="#2B353A"/>
<path d="M98.4694 33.9513C98.3487 33.8952 98.218 33.865 98.0854 33.8628H86.7252V7.91147C86.7179 7.66926 86.6202 7.439 86.4519 7.26765C86.2836 7.0963 86.0575 6.99678 85.8196 6.98938H80.1395C79.8993 6.98938 79.669 7.08653 79.4991 7.25945C79.3293 7.43238 79.2339 7.66692 79.2339 7.91147V40.0813C79.2358 40.3246 79.3321 40.5573 79.5017 40.7286C79.6713 40.8999 79.9006 40.9961 80.1395 40.996H90.9273C93.1243 38.3185 95.6604 35.9496 98.4694 33.9513Z" fill="#2B353A"/>
<path fill-rule="evenodd" clip-rule="evenodd" d="M127.929 24C127.929 22.6983 127.676 21.4557 127.216 20.319C128.663 19.4042 130.263 18.3469 131.865 17.191C132.432 16.782 133.007 16.3551 133.583 15.9118C134.849 18.3297 135.566 21.0812 135.566 24C135.566 33.6399 127.751 41.4546 118.111 41.4546C116.915 41.4546 115.746 41.3342 114.617 41.1048C115.203 40.2701 115.739 39.3977 116.221 38.4921C117.015 36.9994 117.655 35.433 118.134 33.8182C123.546 33.8059 127.929 29.4148 127.929 24ZM109.056 27.8009C108.565 26.6318 108.293 25.3476 108.293 24C108.293 18.5776 112.689 14.1818 118.111 14.1818L118.175 14.182C119.068 11.2732 120.4 8.89129 121.85 6.94692C120.646 6.684 119.395 6.54547 118.111 6.54547C108.471 6.54547 100.657 14.3601 100.657 24C100.657 26.9992 101.413 29.8217 102.746 32.2872C103.328 31.8266 103.911 31.3827 104.485 30.9578C106.061 29.7913 107.632 28.7244 109.056 27.8009Z" fill="#2B353A"/>
<circle cx="118.111" cy="24" r="2.16541" fill="#2B353A"/>
<path d="M116.552 27.1221C116.388 26.9019 116.15 26.7504 115.884 26.6962C115.618 26.6419 115.341 26.6887 115.106 26.8276C111.679 28.8595 100.132 35.6619 96.5817 42.2877C93.5811 47.9196 99.8716 47.441 103.48 46.7564C105.062 46.4566 106.551 45.7722 107.818 44.7613C110.43 42.7951 112.587 40.2688 114.135 37.3607C115.683 34.4526 116.585 31.2339 116.776 27.9319C116.8 27.6433 116.72 27.3559 116.552 27.1221Z" fill="#2B353A"/>
<path d="M119.683 20.9161C119.846 21.1375 120.083 21.2904 120.349 21.346C120.616 21.4016 120.893 21.3561 121.129 21.2179C124.556 19.1787 136.378 12.4867 139.928 5.81674C142.929 0.18486 136.645 0.663386 133.037 1.34805C131.455 1.65468 129.968 2.34116 128.699 3.35049C125.366 6.00079 120.131 10.9112 119.473 20.0989C119.446 20.3879 119.521 20.6772 119.683 20.9161Z" fill="#2B353A"/>
<path d="M54.8981 7.9115C54.8971 7.79014 54.9199 7.66979 54.9651 7.55747C55.0102 7.44516 55.0769 7.34311 55.1612 7.25729C55.2455 7.17147 55.3457 7.10359 55.456 7.0576C55.5663 7.01161 55.6845 6.98843 55.8037 6.98941H61.4838C61.7211 6.99854 61.9463 7.09862 62.1142 7.2696C62.2822 7.44059 62.3805 7.66986 62.3894 7.9115V33.8628H73.7351C73.9753 33.8628 74.2056 33.9599 74.3755 34.1329C74.5453 34.3058 74.6407 34.5403 74.6407 34.7849V40.0814C74.6388 40.3246 74.5425 40.5573 74.3729 40.7286C74.2033 40.8999 73.974 40.9961 73.7351 40.9961H55.8037C55.6851 40.997 55.5675 40.9741 55.4577 40.9286C55.3479 40.883 55.248 40.8158 55.1638 40.7308C55.0796 40.6457 55.0128 40.5446 54.9672 40.4331C54.9216 40.3217 54.8981 40.2021 54.8981 40.0814V7.9115Z" fill="#2B353A"/>
<path d="M27.3087 7.9115C27.3087 7.66695 27.4041 7.43241 27.574 7.25948C27.7438 7.08656 27.9742 6.98941 28.2143 6.98941H47.9714C48.091 6.98844 48.2095 7.01157 48.3202 7.05747C48.4309 7.10337 48.5316 7.17114 48.6165 7.25686C48.7014 7.34258 48.7687 7.44456 48.8147 7.55692C48.8606 7.66928 48.8843 7.78978 48.8843 7.9115V13.208C48.8843 13.3297 48.8606 13.4502 48.8147 13.5626C48.7687 13.6749 48.7014 13.7769 48.6165 13.8626C48.5316 13.9483 48.4309 14.0161 48.3202 14.062C48.2095 14.1079 48.091 14.131 47.9714 14.1301H34.7566V20.1568H45.6241C45.8634 20.164 46.0912 20.2631 46.2618 20.4341C46.4324 20.6051 46.5333 20.8354 46.5442 21.0789V26.3754C46.5442 26.6206 46.449 26.8559 46.2794 27.03C46.1097 27.2041 45.8794 27.3029 45.6385 27.3049H34.7711V33.8628H47.9714C48.091 33.8618 48.2095 33.8849 48.3202 33.9308C48.4309 33.9767 48.5316 34.0445 48.6165 34.1302C48.7014 34.2159 48.7687 34.3179 48.8147 34.4303C48.8606 34.5426 48.8843 34.6632 48.8843 34.7849V40.0813C48.8833 40.2024 48.859 40.3221 48.8126 40.4337C48.7662 40.5452 48.6987 40.6463 48.6139 40.7312C48.5292 40.8161 48.4288 40.8833 48.3186 40.9287C48.2083 40.9741 48.0904 40.997 47.9714 40.9961H28.2143C27.9742 40.9961 27.7438 40.8989 27.574 40.726C27.4041 40.5531 27.3087 40.3185 27.3087 40.074V7.9115Z" fill="#2B353A"/>
<path d="M0.777739 7.9115C0.776774 7.79014 0.79954 7.66979 0.84471 7.55747C0.88988 7.44516 0.956551 7.34311 1.04084 7.25729C1.12513 7.17147 1.22535 7.10359 1.33566 7.0576C1.44597 7.01161 1.56417 6.98843 1.68336 6.98941H21.4405C21.6807 6.98941 21.911 7.08656 22.0808 7.25948C22.2507 7.43241 22.3461 7.66695 22.3461 7.9115V13.208C22.3461 13.4525 22.2507 13.6871 22.0808 13.86C21.911 14.0329 21.6807 14.1301 21.4405 14.1301H8.21835V21.1306H19.0858C19.3237 21.138 19.5499 21.2375 19.7182 21.4088C19.8865 21.5802 19.9842 21.8105 19.9915 22.0527V27.3491C19.9842 27.5914 19.8865 27.8216 19.7182 27.993C19.5499 28.1643 19.3237 28.2638 19.0858 28.2712H8.21835V40.074C8.21108 40.3162 8.11334 40.5465 7.94505 40.7178C7.77676 40.8891 7.55061 40.9887 7.31273 40.9961H1.68336C1.56478 40.997 1.44718 40.9741 1.33734 40.9286C1.22751 40.883 1.12762 40.8158 1.04342 40.7308C0.959233 40.6457 0.892411 40.5446 0.846811 40.4331C0.801211 40.3217 0.777736 40.2021 0.777739 40.0814V7.9115Z" fill="#2B353A"/>
</svg>
