<svg width="112.5" height="30" viewBox="0 0 150 40" version="1.1" xmlns="http://www.w3.org/2000/svg"><g transform="translate(0 .8)" fill-rule="nonzero" stroke="none" stroke-width="1" fill="none"><path d="M0 5.83a.77.77 0 01.76-.77h16.58a.76.76 0 01.77.77v4.4a.77.77 0 01-.77.76H6.24v5.8h9.14c.42.01.75.35.76.76v4.4a.79.79 0 01-.76.76H6.25v9.8a.79.79 0 01-.76.76H.76a.76.76 0 01-.76-.76V5.83zm22.27 0a.77.77 0 01.76-.77h16.59a.76.76 0 01.76.77v4.4a.77.77 0 01-.76.76h-11.1v5h9.13c.42 0 .75.34.77.76v4.4a.77.77 0 01-.77.76h-9.13v5.44h11.1a.76.76 0 01.76.77v4.39a.77.77 0 01-.76.76H23.03a.76.76 0 01-.76-.76V5.83zm23.16 0c0-.42.34-.77.76-.77h4.76c.42.02.75.35.76.77v21.52h9.54a.76.76 0 01.76.76v4.4a.77.77 0 01-.76.76H46.19a.76.76 0 01-.76-.76V5.83z" fill="#0A263D"/><path d="M99.85 16.59c.28.38.8.48 1.21.25 2.89-1.7 12.83-7.26 15.81-12.8 2.52-4.68-2.76-4.27-5.8-3.71a8.4 8.4 0 00-3.66 1.66c-2.8 2.2-7.21 6.28-7.76 13.92a1 1 0 00.2.68z" fill="#FFC107"/><path d="M82 27.42a.74.74 0 00-.32-.07h-9.54V5.83a.8.8 0 00-.76-.77h-4.76a.76.76 0 00-.76.77V32.5a.77.77 0 00.76.77h9.05c1.8-2.22 4-4.17 6.33-5.85zM111.55 13a68.41 68.41 0 01-5.65 3.13 8.05 8.05 0 01-7 11.09 19.07 19.07 0 01-2.28 6.34 14.37 14.37 0 0016.3-14.34c0-2.15-.46-4.27-1.37-6.22zm-20.41 9.26a8.09 8.09 0 017.28-11.14 19.99 19.99 0 012.46-6.25A14.4 14.4 0 0084.12 19.2c0 2.07.43 4.11 1.27 6a56.13 56.13 0 015.75-2.96z" fill="#0A263D"/><path d="M97.21 21.75a.93.93 0 00-1.2-.25c-2.9 1.69-12.6 7.31-15.6 12.85-2.51 4.68 2.77 4.28 5.8 3.72a8.4 8.4 0 003.67-1.66 18.8 18.8 0 007.54-13.99 1 1 0 00-.2-.67z" fill="#10A0FF"/><path d="M148.46 5.06h-4.7c-.31 0-.63.28-.71.57l-3.45 13.66h-.16l-6.2-14.19c-.09-.24-.33-.44-.69-.44h-.72c-.3 0-.56.18-.68.44l-6.21 14.19h-.16l-3.44-13.66c-1.38 1.5-3.11 3-5 4.42l6.44 23.06c.1.33.38.56.72.56h.64a.81.81 0 00.68-.44l7.3-16.48h.11l7.34 16.48a.8.8 0 00.68.44h.64c.33 0 .63-.24.72-.56l7.57-27.08c.16-.56-.16-.97-.72-.97z" fill="#0A263D"/><ellipse fill="#0A263D" cx="98.532" cy="19.167" rx="1.822" ry="1.833"/></g></svg>