<?xml version="1.0" encoding="UTF-8" standalone="no"?>
<svg
   xmlns:dc="http://purl.org/dc/elements/1.1/"
   xmlns:cc="http://creativecommons.org/ns#"
   xmlns:rdf="http://www.w3.org/1999/02/22-rdf-syntax-ns#"
   xmlns:svg="http://www.w3.org/2000/svg"
   xmlns="http://www.w3.org/2000/svg"
   xmlns:sodipodi="http://sodipodi.sourceforge.net/DTD/sodipodi-0.dtd"
   xmlns:inkscape="http://www.inkscape.org/namespaces/inkscape"
   version="1.1"
   id="svg2"
   xml:space="preserve"
   width="397.78668"
   height="74.373337"
   viewBox="0 0 397.78668 74.373337"
   sodipodi:docname="Genetec Logo_CMYK_TM.eps"><metadata
     id="metadata8"><rdf:RDF><cc:Work
         rdf:about=""><dc:format>image/svg+xml</dc:format><dc:type
           rdf:resource="http://purl.org/dc/dcmitype/StillImage" /></cc:Work></rdf:RDF></metadata><defs
     id="defs6" /><sodipodi:namedview
     pagecolor="#ffffff"
     bordercolor="#666666"
     borderopacity="1"
     objecttolerance="10"
     gridtolerance="10"
     guidetolerance="10"
     inkscape:pageopacity="0"
     inkscape:pageshadow="2"
     inkscape:window-width="640"
     inkscape:window-height="480"
     id="namedview4" /><g
     id="g10"
     inkscape:groupmode="layer"
     inkscape:label="ink_ext_XXXXXX"
     transform="matrix(1.3333333,0,0,-1.3333333,0,74.373333)"><g
       id="g12"
       transform="scale(0.1)"><path
         d="m 2173.41,336.824 c 46.87,17.844 92.93,3.242 123.23,-30.961 l -192.35,-75.644 c -2.34,46.125 21.42,88.445 69.12,106.605 z M 1477.4,230.508 c -2.22,46.012 21.54,88.195 69.15,106.316 46.77,17.805 92.73,3.313 123.03,-30.734 z m -839.869,1.105 c -1.801,45.582 21.969,87.239 69.196,105.211 46.386,17.656 91.968,3.539 122.265,-29.91 z M 2772.14,200.316 c -5.34,-37.089 -28.19,-68.914 -67.46,-83.843 -62.33,-23.7152 -123.71,11.172 -148.6,73.535 -8.56,21.441 -11.68,43.336 -9.57,63.808 l -229.45,-90.238 c -11.48,-20.5 -30.15,-37.195 -55.72,-46.937 -49.39,-18.7894 -97.85,-1.578 -127.92,36.629 l 479.96,188.996 c 15.46,5.961 28.97,7.472 40.43,7.515 42.84,0.141 81.39,-25.945 102.93,-67.109 l 107.37,42.234 c -36.58,75.778 -114.16,128.051 -203.94,128.051 -108.84,0 -199.72,-76.953 -221.42,-179.34 -21.77,102.301 -112.6,179.168 -221.38,179.168 -73.72,0 -139.18,-35.258 -180.51,-89.812 v 77.972 h -98.59 V 557.762 L 1811.58,505.965 V 273.672 c -18.95,98.621 -110.61,179.113 -221.07,179.113 -115.18,0 -210.19,-86.043 -224.45,-197.355 v 26.246 c 0,101.781 -58.31,173.898 -157.8,173.898 -75.82,0 -102.61,-38.113 -117.18,-61.972 V 441.02 H 971.809 V 274.848 C 949.605,376.59 859.07,452.785 750.688,452.785 c -111.579,0 -204.231,-80.754 -222.887,-186.996 -0.258,37.981 -8.594,74.031 -23.293,106.59 l -245.391,-96.316 30.113,-76.571 118.516,46.621 c -1.637,-54.508 -32.168,-103.168 -89.336,-124.925 -80.414,-30.6177 -158.98,12.738 -190.312,91.21 -31.3324,78.45 -3.575,162.293 76.851,192.903 53.199,20.25 105.574,8.105 144.02,-25.137 l 121.605,47.824 C 422.223,488.824 347.652,527.875 263.914,527.875 118.16,527.875 0.00390625,409.699 0.00390625,263.93 0.00390625,118.164 118.16,0 263.914,0 395.309,0 504.238,96.043 524.43,221.758 526.906,98.8672 627.215,0 750.688,0 859.07,0 949.605,76.1914 971.809,177.93 V 15.8672 H 1099.5 c 0,0 -0.31,241.0388 0,247.2378 l -248.172,-97.73 c -11.39,-21.305 -30.359,-38.711 -56.676,-48.734 -49.851,-18.9691 -98.761,-1.246 -128.777,37.718 0,0 471.045,185.149 472.385,185.68 12.34,4.938 24.08,6.875 34.01,6.875 66.63,0 66.63,-69.059 66.63,-98.941 V 15.8672 h 127.16 V 197.344 C 1380.32,86.0391 1475.33,0 1590.51,0 c 108.32,0 198.81,76.0977 221.07,177.758 V 15.8672 h 126.69 V 261.434 l -247.88,-97.489 c -11.46,-20.664 -30.18,-37.515 -55.91,-47.304 -49.49,-18.8285 -98.04,-1.508 -128.12,36.847 l 529.52,208.227 C 2007.69,323.957 1991,277.121 1991,226.391 1991,101.355 2092.35,0 2217.37,0 c 108.84,0 199.71,76.8242 221.42,179.219 21.77,-102.3049 112.6,-179.054937 221.38,-179.054937 109.87,0 201.43,78.285137 222.01,182.136937 l -110.04,18.015"
         style="fill:#1c549e;fill-opacity:1;fill-rule:nonzero;stroke:none"
         id="path14" /><path
         d="m 2893.08,502.332 h -17.79 v 7.027 h 43.09 v -7.027 h -17.8 V 454.09 h -7.5 v 48.242"
         style="fill:#1c549e;fill-opacity:1;fill-rule:nonzero;stroke:none"
         id="path16" /><path
         d="m 2925.78,509.359 h 11.16 l 17.57,-41.839 h 0.31 l 17.4,41.839 h 11.17 V 454.09 h -7.49 v 45.437 h -0.17 l -18.64,-45.437 h -5 l -18.66,45.437 h -0.15 V 454.09 h -7.5 v 55.269"
         style="fill:#1c549e;fill-opacity:1;fill-rule:nonzero;stroke:none"
         id="path18" /></g></g></svg>
