<svg width="313" height="53" viewBox="0 0 313 53" fill="none"
    xmlns="http://www.w3.org/2000/svg">
    <g clip-path="url(#clip0)">
        <path d="M15.0709 52.2286H-7.62939e-06V0.974873H26.0651L55.9683 39.2391V0.974873H71.0393V52.2286H45.5024L15.0709 13.311V52.2286ZM143.147 36.3791C143.147 43.5037 141.887 45.9608 139.801 48.3161C136.605 51.8217 131.953 52.8781 122.989 52.8781H97.2569C88.2934 52.8781 83.6336 51.8217 80.441 48.3161C78.3556 45.9608 77.0958 43.5037 77.0958 36.3791V16.621C77.0958 9.50021 78.3556 7.04707 80.441 4.68784C83.6375 1.17832 88.2934 0.121948 97.2569 0.121948H122.989C131.953 0.121948 136.605 1.17832 139.801 4.68784C141.887 7.04707 143.147 9.50021 143.147 16.621V36.3791ZM122.356 39.8925C125.799 39.8925 127.011 39.6891 127.837 38.9379C128.608 38.2375 128.948 37.3337 128.948 34.3211V18.6789C128.948 15.6663 128.608 14.7703 127.837 14.0661C127.011 13.311 125.799 13.1114 122.356 13.1114H97.8868C94.4438 13.1114 93.231 13.311 92.4093 14.0661C91.6347 14.7703 91.2943 15.6663 91.2943 18.6789V34.3211C91.2943 37.3337 91.6347 38.2375 92.4093 38.9379C93.231 39.6891 94.4438 39.8925 97.8868 39.8925H122.356ZM165.049 0.974873V52.2286H149.301V0.974873H165.049ZM191.654 0.974873H212.445L184.384 24.9468L216.033 52.2286H193.786L165.049 25.4984L191.654 0.974873ZM218.936 0.974873H234.687V52.2286H218.936V0.974873ZM294.733 52.2286L290.073 43.3003H259.598L254.993 52.2247H237.594L265.51 0.974873H285.088L313 52.2286H294.733ZM265.072 32.1692H284.654L274.861 13.6122L265.072 32.1692Z" fill="#1C4598"/>
    </g>
    <defs>
        <clipPath id="clip0">
            <rect width="313" height="53" fill="white"/>
        </clipPath>
    </defs>
</svg>
