<svg width="892" height="534" viewBox="0 0 892 534" fill="none" xmlns="http://www.w3.org/2000/svg">
<path d="M251.404 194.03C251.404 205.005 252.59 213.904 254.667 220.43C257.04 226.956 260.006 234.075 264.159 241.787C265.642 244.16 266.235 246.533 266.235 248.609C266.235 251.576 264.455 254.542 260.599 257.508L241.912 269.966C239.242 271.746 236.573 272.636 234.2 272.636C231.233 272.636 228.267 271.153 225.301 268.483C221.148 264.034 217.589 259.288 214.622 254.542C211.656 249.499 208.69 243.863 205.427 237.041C182.29 264.331 153.221 277.975 118.219 277.975C93.3023 277.975 73.4283 270.856 58.8937 256.618C44.359 242.38 36.9434 223.396 36.9434 199.666C36.9434 174.453 45.8421 153.986 63.9363 138.561C82.0305 123.137 106.057 115.424 136.61 115.424C146.695 115.424 157.077 116.314 168.052 117.797C179.027 119.28 190.299 121.653 202.164 124.323V102.669C202.164 80.1259 197.418 64.4047 188.223 55.2093C178.731 46.0139 162.713 41.5645 139.873 41.5645C129.491 41.5645 118.812 42.751 107.837 45.4206C96.8618 48.0903 86.1833 51.3532 75.8014 55.5059C71.0553 57.5823 67.4958 58.7688 65.4194 59.362C63.3431 59.9553 61.8599 60.2519 60.6734 60.2519C56.5207 60.2519 54.4443 57.2857 54.4443 51.0565V36.5219C54.4443 31.7758 55.0375 28.2163 56.5207 26.1399C58.0038 24.0636 60.6734 21.9872 64.8262 19.9108C75.2081 14.5715 87.6664 10.1222 102.201 6.56264C116.736 2.7065 132.16 0.926748 148.475 0.926748C183.773 0.926748 209.58 8.93564 226.191 24.9534C242.505 40.9712 250.811 65.2946 250.811 97.9234V194.03H251.404ZM130.974 239.117C140.762 239.117 150.848 237.338 161.526 233.778C172.205 230.219 181.697 223.693 189.706 214.794C194.452 209.158 198.011 202.929 199.791 195.81C201.571 188.691 202.757 180.089 202.757 170.004V157.545C194.155 155.469 184.96 153.689 175.468 152.503C165.976 151.316 156.78 150.723 147.585 150.723C127.711 150.723 113.176 154.579 103.388 162.588C93.5989 170.597 88.8529 181.869 88.8529 196.7C88.8529 210.641 92.4124 221.023 99.828 228.142C106.947 235.558 117.329 239.117 130.974 239.117V239.117ZM369.164 271.153C363.825 271.153 360.266 270.263 357.893 268.187C355.52 266.407 353.443 262.254 351.663 256.618L281.956 27.3265C280.177 21.3939 279.287 17.5378 279.287 15.4614C279.287 10.7154 281.66 8.04577 286.406 8.04577H315.475C321.111 8.04577 324.967 8.93565 327.043 11.012C329.416 12.7918 331.196 16.9445 332.976 22.5804L382.809 218.947L429.083 22.5804C430.566 16.6479 432.346 12.7918 434.719 11.012C437.092 9.23227 441.244 8.04577 446.584 8.04577H470.314C475.95 8.04577 479.806 8.93565 482.179 11.012C484.552 12.7918 486.628 16.9445 487.815 22.5804L534.682 221.32L585.998 22.5804C587.778 16.6479 589.854 12.7918 591.93 11.012C594.303 9.23227 598.16 8.04577 603.499 8.04577H631.085C635.831 8.04577 638.501 10.4188 638.501 15.4614C638.501 16.9445 638.204 18.4277 637.907 20.2074C637.611 21.9872 637.017 24.3602 635.831 27.6231L564.344 256.915C562.564 262.847 560.488 266.704 558.115 268.483C555.742 270.263 551.886 271.45 546.843 271.45H521.333C515.697 271.45 511.841 270.56 509.468 268.483C507.095 266.407 505.019 262.551 503.832 256.618L457.855 65.2946L412.175 256.322C410.692 262.254 408.912 266.11 406.539 268.187C404.166 270.263 400.013 271.153 394.674 271.153H369.164ZM750.329 279.162C734.904 279.162 719.479 277.382 704.648 273.823C689.817 270.263 678.248 266.407 670.536 261.958C665.79 259.288 662.527 256.322 661.341 253.652C660.154 250.982 659.561 248.016 659.561 245.346V230.219C659.561 223.989 661.934 221.023 666.383 221.023C668.163 221.023 669.943 221.32 671.723 221.913C673.502 222.506 676.172 223.693 679.138 224.879C689.224 229.329 700.199 232.888 711.767 235.261C723.632 237.634 735.201 238.821 747.066 238.821C765.753 238.821 780.288 235.558 790.373 229.032C800.458 222.506 805.798 213.014 805.798 200.853C805.798 192.547 803.128 185.725 797.789 180.089C792.449 174.453 782.364 169.41 767.83 164.664L724.819 151.316C703.165 144.494 687.147 134.408 677.359 121.06C667.57 108.009 662.527 93.474 662.527 78.0495C662.527 65.5912 665.197 54.616 670.536 45.124C675.875 35.632 682.994 27.3265 691.893 20.8007C700.792 13.9783 710.877 8.93565 722.742 5.37614C734.607 1.81663 747.066 0.333496 760.117 0.333496C766.643 0.333496 773.465 0.630122 779.991 1.52C786.814 2.40988 793.043 3.59638 799.272 4.78288C805.204 6.26601 810.84 7.74914 816.179 9.5289C821.519 11.3087 825.672 13.0884 828.638 14.8682C832.791 17.2412 835.757 19.6142 837.537 22.2838C839.316 24.6568 840.206 27.9197 840.206 32.0725V46.0139C840.206 52.243 837.833 55.5059 833.384 55.5059C831.011 55.5059 827.155 54.3194 822.112 51.9464C805.204 44.2341 786.22 40.378 765.16 40.378C748.252 40.378 734.904 43.0476 725.709 48.6835C716.513 54.3194 711.767 62.9216 711.767 75.0832C711.767 83.3887 714.733 90.5078 720.666 96.1437C726.599 101.78 737.574 107.415 753.295 112.458L795.416 125.806C816.773 132.629 832.197 142.121 841.393 154.282C850.588 166.444 855.037 180.385 855.037 195.81C855.037 208.565 852.368 220.133 847.325 230.219C841.986 240.304 834.867 249.203 825.672 256.322C816.476 263.737 805.501 269.077 792.746 272.933C779.398 277.085 765.457 279.162 750.329 279.162V279.162Z" fill="#252F3E"/>
<path fill-rule="evenodd" clip-rule="evenodd" d="M806.391 423.322C708.801 495.402 567.013 533.667 445.1 533.667C274.244 533.667 120.295 470.486 4.01751 365.48C-5.17789 357.174 3.12764 345.903 14.1028 352.428C139.872 425.398 295.007 469.596 455.482 469.596C563.751 469.596 682.698 447.052 792.153 400.778C808.467 393.363 822.408 411.457 806.391 423.322V423.322Z" fill="#FF9900"/>
<path fill-rule="evenodd" clip-rule="evenodd" d="M847.028 377.048C834.57 361.031 764.566 369.336 732.827 373.192C723.335 374.379 721.852 366.073 730.454 359.844C786.22 320.689 877.877 331.961 888.556 345.013C899.234 358.361 885.589 450.018 833.383 493.919C825.374 500.741 817.662 497.182 821.221 488.283C833.086 458.917 859.486 392.77 847.028 377.048V377.048Z" fill="#FF9900"/>
</svg>
