<svg width="307" height="307" viewBox="0 0 307 307" fill="none" xmlns="http://www.w3.org/2000/svg">
<path d="M160.728 306.533L152.506 303.811C152.506 303.811 153.554 262.198 138.546 259.284C128.65 247.817 140.07 -230.535 176.022 257.645C176.022 257.645 163.716 263.824 161.387 274.316C159.059 284.816 160.728 306.533 160.728 306.533" fill="url(#paint0_linear)"/>
<path d="M165.16 266.35C165.16 266.35 236.605 219.294 219.867 121.57C203.748 50.5713 165.691 27.2309 161.601 18.3203C157.099 12.014 152.564 0.836728 152.564 0.836728L155.603 198.66C155.603 198.66 149.317 259.063 165.16 266.35" fill="url(#paint1_linear)"/>
<path d="M148.322 268.979C148.322 268.979 81.3045 223.261 85.1602 142.595C89.0173 61.9268 136.351 22.2642 145.57 15.0687C151.53 8.71581 151.777 6.26793 152.238 7.08493e-05C156.415 8.97376 155.721 134.035 156.163 148.653C157.881 205.555 153.012 258.238 148.322 268.979" fill="url(#paint2_linear)"/>
<defs>
<linearGradient id="paint0_linear" x1="106.341" y1="156.334" x2="200.801" y2="188.369" gradientUnits="userSpaceOnUse">
<stop stop-color="#929669"/>
<stop offset="0.231" stop-color="#929669"/>
<stop offset="1" stop-color="#FDFCF1"/>
</linearGradient>
<linearGradient id="paint1_linear" x1="140.965" y1="2.69734" x2="182.783" y2="263.523" gradientUnits="userSpaceOnUse">
<stop stop-color="#45AA3A"/>
<stop offset="1" stop-color="#3D9439"/>
</linearGradient>
<linearGradient id="paint2_linear" x1="78.1171" y1="150.886" x2="190.204" y2="113.373" gradientUnits="userSpaceOnUse">
<stop stop-color="#41A83B"/>
<stop offset="1" stop-color="#5EBC44"/>
</linearGradient>
</defs>
</svg>
