<svg width="694" height="800" viewBox="0 0 694 800" fill="none" xmlns="http://www.w3.org/2000/svg">
<path d="M590.858 641.625C590.858 662.767 582.202 675.056 565.271 681.594C499.468 706.947 421.549 719.999 347.448 719.999C273.309 719.999 195.39 706.935 129.599 681.594C112.669 675.056 104 662.767 104 641.625V80H590.858V641.625Z" fill="#005DAA"/>
<path d="M234.571 422.262C167.155 380.175 144.917 361.545 142.996 333.939C142.676 328.348 143.957 318.879 146.309 312.132L139.955 307.921C134.882 316.023 131.644 326.674 131.644 336.438C131.644 352.396 136.729 364.464 142.996 374.105C152.465 388.684 162.427 397.857 186.98 416.278C213.429 436.115 231.48 459.276 241.873 483.534H245.628V456.013C281.349 476.306 312.872 495.367 328.374 529.475H332.117C326.047 494.136 306.05 466.886 234.571 422.262V422.262ZM545.089 529.524H540.484C540.484 504.38 517.421 497.497 493.275 497.497H417.769C420.207 509.909 421.328 524.426 419.468 538.143H415.701C408.719 481.601 376.778 453.625 332.105 423.617V449.376H328.35C316.467 422.804 290.4 397.907 265.724 380.225C259.161 375.546 252.327 370.694 245.591 365.904V393.622H241.836C231.369 366.113 212.37 345.587 185.268 321.12C155.975 294.77 144.191 278.996 137.32 260.859C133.158 249.875 132.001 240.997 131.841 228.943C131.582 207.382 142.504 187.902 156.073 180.637V191.079C149.35 199.982 145.865 211.298 145.841 222.761C145.804 233.363 148.34 245.135 153.611 255.158C170.098 286.532 225.631 325.048 260.872 348.727C370.523 422.262 392.416 435.093 410.615 474.114C412.647 478.461 414.666 484.297 416.353 491.106C432.188 488.656 489.655 479.889 500.232 478.214C502.288 477.882 506.512 477.377 508.703 477.229C518.616 470.974 526.324 462.995 533.084 453.046L491.095 449.783C488.916 454.597 486.786 458.661 484.902 461.899H481.454C482.611 457.639 483.609 453.428 484.483 449.278L473.721 448.515V446.2L485.357 444.759C487.574 432.877 488.645 421.622 488.854 411.119L435.894 408.102C435.636 413.545 435.587 418.655 435.771 423.42H432.397C431.24 418.125 430.353 412.88 429.689 407.77L418.089 407.08V403.558L429.122 402.955C427.571 388.93 427.472 375.866 428.026 364.624L397.083 363.232C398.523 365.966 400.038 368.687 401.097 371.704C407.795 390.383 406.195 412.252 404.003 422.336H400.247C399.693 410.688 395.79 396.392 392.059 387.699C383.501 367.517 364.305 349.663 332.093 328.976V354.761H328.337C317.637 320.899 290.966 302.047 251.329 281.693C218.625 264.91 208.467 244.679 210.314 213.379L221.371 219.929C224.191 249.186 246.675 266.104 270.23 265.932C284.095 265.809 297.086 263.962 309.621 261.475C327.746 257.793 344.517 254.702 358.517 259.64V242.364H347.509C343.569 245.75 335.59 249.678 323.855 249.888C310.963 250.109 286.558 242.684 286.558 215.41C286.558 191.719 306.592 187.927 322.907 187.927C331.674 187.927 346.204 187.619 351.129 187.36C354.762 187.114 357.495 186.572 359.281 184.799C361.128 182.989 361.682 181.118 362.1 178.692C362.618 175.749 362.618 172.757 362.618 167.671V150.359H286.977V180.342L258.348 169.444V162.266H272.041V150.359H221.026V125.486H203.64C194.356 125.486 183.631 132.012 182.855 144.633C182.153 156.737 187.595 166.945 200.069 166.945H202.298V181.438H200.069C178.213 181.438 161.762 165.036 161.762 143.266C161.762 120.56 181.082 103.272 204.465 103.272H241.356V128.158H384.868V164.938C384.868 171.144 384.511 179.455 383.92 184.701C383.476 188.542 382.134 195.426 374.894 200.967C370.498 204.291 363.898 205.633 353.21 205.683C349.701 205.695 339.53 205.535 327.34 204.772C310.988 203.725 306.333 210.054 305.668 215.915C305.533 217.146 305.533 218.341 305.693 219.486C313.352 213.576 324.188 209.377 336.476 213.268C358.123 220.077 364.317 220.668 375.596 211.815L376.741 214.339C375.51 216.223 373.355 218.932 370.19 221.333H380.644V277.999L413.201 258.47H504.615C504.615 258.47 543.23 278.652 549.571 281.976C555.186 284.931 557.39 288.502 558.252 293.736C559.003 298.107 557.846 303.648 555.716 307.194C554.374 309.41 543.87 326.612 538.342 335.798C553.869 352.606 564.347 376.124 564.347 402.315C564.347 426.055 555.568 456.666 527.038 479.421C539.598 483.534 547.638 490.38 553.955 499.381L545.089 529.524ZM341.291 224.387C328.448 221.567 321.282 223.155 313.906 230.186C317.526 231.91 322.045 232.846 327.032 232.514C334.26 231.996 338.717 227.687 341.291 224.387ZM333.891 306.037L370.067 284.353C362.95 280.843 355.094 278.59 345.785 278.479C333.312 278.258 312.268 283.971 302.11 285.559C306.653 288.65 322.784 298.969 333.891 306.037V306.037ZM495.356 308.339L500.367 301.271L492.61 290.94L493.903 288.638L515.71 300.397L510.944 314.828C514.478 316.528 517.717 318.645 522.014 321.502L536.125 298.328L499.591 279.243H418.902L353.395 318.645C365.684 327.191 377.037 336.426 385.077 345.735C402.611 320.185 433.456 303.919 464.006 303.919C473.992 303.931 485.616 305.002 495.356 308.339V308.339ZM488.793 399.803C488.349 387.748 486.859 376.838 484.828 367.222L442.063 365.289C439.145 378.304 437.2 390.999 436.313 402.598L488.793 399.803ZM503.175 368.071C504.541 379.116 504.714 389.447 503.987 398.99L546.358 396.774C545.295 387.36 542.616 378.2 538.44 369.697L503.175 368.071ZM481.602 354.206C477.169 338.901 471.886 328.275 469.104 323.275C467.316 323.171 465.526 323.121 463.735 323.128C460.743 323.128 457.751 323.509 454.857 323.817C450.584 334.517 447.1 345.316 444.268 356.275L481.602 354.206ZM493.349 328.521C496.513 337.029 498.89 345.23 500.626 353.148L526.508 351.731C517.533 341.384 506.143 333.412 493.349 328.521V328.521ZM540.989 437.802C544.018 430.426 545.951 423.346 546.53 414.382L502.497 411.882C500.49 424.22 497.215 434.945 493.693 443.725L540.989 437.802ZM432.397 330.257C417.658 336.857 407.488 345.833 398.4 358.713L428.543 357.137C429.627 343.752 431.388 334.85 432.397 330.257Z" fill="#FFD200"/>
<path d="M376.482 594.563C388.771 592.568 400.493 583.013 400.493 568.57C400.493 555.554 394.952 541.258 356.633 541.258H291.938V542.305C293.896 542.908 297.011 544.497 299.043 546.467C303.427 550.789 304.892 557.18 305.064 565.7V662.52H358.664C388.143 662.52 409.482 651.303 409.482 625.506C409.494 604.561 393.179 595.659 376.482 594.563V594.563ZM348.9 552.796C362.617 552.796 371.914 555.788 371.914 570.416C371.914 586.03 359.465 590.327 345.243 590.327H332.991V552.796H348.9ZM350.291 651.069H332.991V601.545H349.503C372.185 601.545 380.878 608.329 380.878 625.309C380.865 643.669 369.5 651.069 350.291 651.069ZM244.236 662.496H279.169L234.57 605.497C252.437 600.707 265.822 590.918 265.822 573.15C265.822 552.304 253.324 541.246 220.693 541.246H153.191V542.293C155.691 543.155 158.462 544.768 160.296 546.553C165.012 551.22 166.428 558.337 166.428 567.942V662.496H194.441V608.773H204.661L244.236 662.496ZM194.453 552.796H213.305C229.029 552.796 237.23 557.401 237.23 574.074C237.23 588.973 226.517 597.814 209.291 597.814H194.453V552.796ZM522.777 557.882C530.251 562.093 532.541 567.671 532.603 567.72C532.948 568.126 533.761 567.991 533.761 567.991L539.856 547.243C539.856 547.243 528.909 539.375 502.854 539.375C463.427 539.375 433.911 559.236 433.911 602.702C433.911 651.672 469.066 664.392 500.083 664.392C528.909 664.392 540.262 655.206 540.262 655.206V640.997C540.262 640.997 530.054 650.503 508.198 650.503C490.184 650.503 463.661 642.253 463.131 602.013C462.589 564.814 478.806 552.71 500.502 552.71C512.618 552.71 518.664 555.554 522.777 557.882" fill="white"/>
</svg>
