<?xml version="1.0" encoding="UTF-8"?>
<svg width="31px" height="36px" viewBox="0 0 31 36" version="1.1" xmlns="http://www.w3.org/2000/svg" xmlns:xlink="http://www.w3.org/1999/xlink">
    <title>Logo</title>
    <g id="Page-1" stroke="none" stroke-width="1" fill="none" fill-rule="evenodd">
        <g id="Platform" transform="translate(-182.000000, -16.000000)" fill="#252138">
            <g id="Logo" transform="translate(182.000000, 16.000000)">
                <path d="M15.4979113,33.1632573 L2.44338607,25.5815278 L2.44338607,19.8325842 C5.77491149,23.5695791 10.455093,25.6908816 15.4967078,25.6908816 C20.5383227,25.6908816 25.220911,23.5687721 28.5528376,19.8317772 L28.5528376,25.5815278 L15.4979113,33.1632573 Z M19.3268589,13.256829 C22.2520225,14.0202881 24.8859533,15.6509107 26.9109431,18.0002018 C24.8859533,20.3486858 22.2520225,21.9793084 19.3268589,22.742364 C20.6967757,21.6205795 21.5756887,19.9120776 21.5756887,18.0002018 C21.5756887,16.0875189 20.6967757,14.379017 19.3268589,13.256829 L19.3268589,13.256829 Z M11.6689636,22.742364 C8.74420122,21.9793084 6.10866576,20.3494928 4.0840771,18.0002018 C6.10866576,15.6509107 8.74420122,14.0198845 11.6689636,13.256829 C10.2978434,14.379017 9.41893039,16.0875189 9.41893039,18.0002018 C9.41893039,19.9120776 10.2978434,21.620983 11.6689636,22.742364 L11.6689636,22.742364 Z M15.4979113,21.6572998 C13.4921765,21.6572998 11.861113,20.0169927 11.861113,18.0002018 C11.861113,15.9830073 13.4921765,14.3414897 15.4979113,14.3414897 C17.5024426,14.3414897 19.1335061,15.9830073 19.1335061,18.0002018 C19.1335061,20.0169927 17.5024426,21.6572998 15.4979113,21.6572998 L15.4979113,21.6572998 Z M15.4979113,2.8367427 L28.5516342,10.4188757 L28.5528376,16.1678193 C25.2197076,12.4304209 20.5383227,10.3079079 15.4967078,10.3079079 C10.455093,10.3079079 5.77491149,12.4304209 2.44338607,16.1678193 L2.44218263,10.4188757 L15.4979113,2.8367427 Z M30.9946191,18.9896318 L30.017024,18.0066581 L30.0230412,18.0002018 L30.017024,17.9925349 L30.9946191,17.0099647 L30.9934157,8.99969736 L15.4979113,0 L9.44843566e-15,8.99969736 L0.00120344085,17.0099647 L0.977595117,17.9925349 L0.97197906,18.0002018 L0.977595117,18.0066581 L0.00120344085,18.9896318 L0.00120344085,27.0007062 L15.4979113,36 L30.9946191,27.0007062 L30.9946191,18.9896318 Z" id="Fill-1"/>
            </g>
        </g>
    </g>
</svg>