<svg width="398" height="75" viewBox="0 0 398 75" fill="none"
    xmlns="http://www.w3.org/2000/svg">
    <path d="M289.788 29.4634C296.037 27.0842 302.179 29.0312 306.219 33.5916L280.572 43.6774C280.26 37.5274 283.428 31.8848 289.788 29.4634ZM196.987 43.6389C196.691 37.504 199.859 31.8796 206.207 29.4634C212.443 27.0894 218.571 29.0217 222.611 33.5613L196.987 43.6389ZM85.004 43.4916C84.7639 37.414 87.9332 31.8597 94.2301 29.4634C100.415 27.1093 106.493 28.9916 110.532 33.4514L85.004 43.4916ZM369.619 47.6645C368.907 52.6097 365.86 56.853 360.624 58.8436C352.313 62.0056 344.129 57.354 340.811 49.0389C339.669 46.1801 339.253 43.2608 339.535 40.5312L308.941 52.5629C307.411 55.2962 304.921 57.5222 301.512 58.8212C294.927 61.3264 288.465 59.0316 284.456 53.9373L348.451 28.7378C350.512 27.943 352.313 27.7416 353.841 27.7358C359.553 27.717 364.693 31.1952 367.565 36.6837L381.881 31.0525C377.004 20.9488 366.66 13.979 354.689 13.979C340.177 13.979 328.06 24.2394 325.167 37.891C322.264 24.2509 310.153 14.002 295.649 14.002C285.82 14.002 277.092 18.703 271.581 25.9769V15.5806H258.436V0.00501728L241.544 6.91129V37.8837C239.017 24.7342 226.796 14.002 212.068 14.002C196.711 14.002 184.043 25.4744 182.141 40.316V36.8165C182.141 23.2457 174.367 13.6301 161.101 13.6301C150.992 13.6301 147.42 18.7118 145.477 21.893V15.5706H129.574V37.7269C126.614 24.1613 114.543 14.002 100.092 14.002C85.2144 14.002 72.8608 24.7692 70.3733 38.9348C70.3389 33.8706 69.2275 29.064 67.2676 24.7228L34.5488 37.5649L38.5639 47.7744L54.366 41.5582C54.1477 48.826 50.0769 55.314 42.4545 58.2149C31.7327 62.2972 21.2572 56.5165 17.0796 46.0536C12.902 35.5936 16.6029 24.4145 27.3264 20.3332C34.4196 17.6332 41.4029 19.2525 46.5291 23.6848L62.7431 17.3082C56.2963 9.19675 46.3535 3.98995 35.1884 3.98995C15.7545 3.98995 0.000391006 19.7468 0.000391006 39.1826C0.000391006 58.6181 15.7545 74.3733 35.1884 74.3733C52.7077 74.3733 67.2316 61.5676 69.9239 44.8056C70.254 61.191 83.6285 74.3733 100.092 74.3733C114.543 74.3733 126.614 64.2144 129.574 50.6493V72.2577H146.6C146.6 72.2577 146.559 40.1192 146.6 39.2926L113.51 52.3233C111.992 55.164 109.462 57.4848 105.953 58.8212C99.3067 61.3504 92.7853 58.9873 88.7832 53.7921C88.7832 53.7921 151.589 29.1056 151.768 29.0348C153.413 28.3764 154.979 28.1181 156.303 28.1181C165.187 28.1181 165.187 37.326 165.187 41.3102V72.2577H182.141V48.0608C184.043 62.9014 196.711 74.3733 212.068 74.3733C226.511 74.3733 238.576 64.2269 241.544 50.6722V72.2577H258.436V39.5154L225.385 52.514C223.857 55.2692 221.361 57.516 217.931 58.8212C211.332 61.3316 204.859 59.0222 200.848 53.9082L271.451 26.1446C267.692 31.179 265.467 37.4238 265.467 44.1878C265.467 60.8593 278.98 74.3733 295.649 74.3733C310.161 74.3733 322.277 64.1301 325.172 50.4774C328.075 64.1181 340.185 74.3514 354.689 74.3514C369.339 74.3514 381.547 63.9134 384.291 50.0665L369.619 47.6645" fill="#1C549E"/>
    <path d="M385.744 7.39574H383.372V6.4588H389.117V7.39574H386.744V13.828H385.744V7.39574Z" fill="#1C549E"/>
    <path d="M390.104 6.4588H391.592L393.935 12.0373H393.976L396.296 6.4588H397.785V13.828H396.787V7.76973H396.764L394.279 13.828H393.612L391.124 7.76973H391.104V13.828H390.104V6.4588" fill="#1C549E"/>
</svg>
