<svg width="924" height="138" viewBox="0 0 924 138" fill="none" xmlns="http://www.w3.org/2000/svg">
<path d="M894.596 88.5887L894.394 89.8399L894.169 88.5887L873.824 30.1693H862.19L888.719 105.565V106.17C887.13 113.393 882.606 122.246 878.49 125.027C874.873 127.488 870.936 127.802 867.906 127.802C866.447 127.802 863.352 127.286 862.065 126.978V136.062C863.702 136.465 867.586 137.195 869.999 137.195C875.656 137.195 880.358 135.783 884.367 132.872C889.164 129.385 894.536 120.342 897.086 112.557L923.538 30.1634H911.922L894.596 88.5887ZM854.196 70.3549V63.1859C854.196 50.7217 850.959 41.5425 844.822 35.8855C839.592 31.0706 832.197 28.7403 822.467 28.7403C817.403 28.7403 812.813 29.6534 808.816 31.4442C804.897 33.2112 801.28 35.8381 798.57 39.2655C793.192 46.0075 790.215 55.9991 790.215 68.1135C790.215 81.5917 794.028 91.8916 801.055 98.7345C808.455 105.963 817.954 107.493 824.506 107.493C841.519 107.493 849.856 98.183 853.349 89.7628L843.808 85.191C841.507 90.3143 836.312 98.0822 824.506 98.0822C817.753 98.0822 812.107 95.396 808.2 90.3024C804.411 85.3808 802.407 78.4845 802.395 70.3549H854.196ZM842.616 60.9563H802.709C803.747 45.4027 810.109 38.1507 822.763 38.1507C836.348 38.1507 842.574 45.3909 842.616 60.9563V60.9563ZM162.71 40.1786C156.822 32.6598 148.425 28.675 138.416 28.675C128.413 28.675 120.01 32.6598 114.104 40.1727C108.613 47.1816 105.601 57.0842 105.601 68.0483C105.601 79.0123 108.613 88.903 114.104 95.9179C120.01 103.455 128.413 107.421 138.416 107.421C148.425 107.421 156.822 103.449 162.716 95.9179C168.207 88.8971 171.237 79.0123 171.237 68.0483C171.237 57.0842 168.201 47.1816 162.71 40.1786V40.1786ZM138.416 98.0288C125.667 98.0288 118.048 86.8158 118.048 68.0542C118.048 49.2867 125.661 38.0795 138.416 38.0795C151.171 38.0795 158.761 49.2867 158.761 68.0542C158.755 86.8158 151.165 98.0288 138.416 98.0288ZM197.749 63.2748C200.672 47.6679 208.849 40.2913 222.986 40.2913V29.1968C210.954 29.1968 203.904 33.8991 197.743 44.9343L197.636 45.0707L197.749 44.1041V30.365H185.872V106.218H197.749V63.2748ZM488.304 27.8567C488.358 22.8165 490 18.8495 493.178 16.1218C496.41 13.3349 501.041 11.9355 506.977 11.9355C513.215 11.9355 518.735 13.7262 522.975 17.1121C526.859 20.2015 529.705 24.6843 530.998 29.8432L542.063 28.4853C537.224 11.9473 525.335 1.86091 507.261 1.86091C498.331 1.86091 490.237 4.64787 484.497 9.69404C478.929 14.6157 475.84 21.3756 475.84 28.7225C475.84 36.8165 479.155 43.1732 485.98 48.1482C491.998 52.5362 499.909 55.335 507.57 58.0389C520.888 62.7768 533.483 67.2359 533.483 79.3265C533.483 84.6989 531.662 89.2054 528.211 92.3541C524.404 95.8171 518.807 97.5663 511.578 97.5663C498.901 97.5663 489.692 90.4685 484.509 76.8124L473.219 79.8484C475.656 85.3926 479.801 93.4452 485.837 98.8293C492.467 104.771 500.703 107.647 511.003 107.647C523.23 107.647 532.492 104.445 538.558 98.1356C544.862 91.5773 546.178 83.1986 546.178 77.3342C546.178 68.9199 542.685 62.332 535.516 57.2028C529.237 52.7081 521.054 49.9093 513.156 47.1994C500.312 42.8055 488.174 38.6606 488.304 27.8567V27.8567ZM564.963 39.5264H553.566V30.1219H564.963V5.30606H576.841V30.1278H589.601V39.5264H576.841V91.3638C576.841 94.8268 577.653 98.0229 585.617 98.0229C586.933 98.0229 588.285 97.9755 589.601 97.8984V106.247C589.601 106.247 585.107 107.427 581.721 107.427C576.372 107.427 572.328 106.568 569.618 104.753C567.104 103.034 564.963 100.282 564.963 95.6036V39.5264V39.5264ZM769.633 91.3638C769.633 94.8268 770.736 98.0229 778.694 98.0229C780.01 98.0229 781.344 97.9755 782.684 97.8984V106.247C782.684 106.247 778.184 107.427 774.798 107.427C769.449 107.427 765.399 106.568 762.701 104.753C760.181 103.034 757.762 100.282 757.762 95.6036V0.80542H769.645L769.633 91.3638ZM395.795 49.9152C399.839 45.5984 408.816 38.3227 417.059 38.3227C425.307 38.3227 428.977 42.3904 428.977 51.4807V106.247H440.855V51.1901C440.855 34.7767 429.149 28.93 418.073 28.93C410.34 28.93 402.454 32.9978 395.795 40.5344V30.3887H383.918V106.247H395.795V49.9152ZM352.253 96.8548C352.567 101.047 354.068 103.478 357.37 105.222C360.483 106.888 365.619 106.502 367.813 105.969V97.9102C365.168 97.7857 363.431 96.5523 363.431 93.291V56.6395L363.389 51.8068C363.389 44.2346 360.377 38.1151 354.69 34.1126C350.006 30.786 343.525 28.9656 336.498 28.9656C319.657 28.9656 311.623 38.969 308.231 45.2189L317.807 50.2117C319.142 46.6302 323.838 38.3642 336.64 38.3642C346.738 38.3642 351.838 42.8589 351.838 51.706L351.85 54.4337C351.85 54.4337 351.879 55.2223 351.642 55.5188C351.269 55.9932 350.278 56.3549 347.705 56.6217C333.557 58.199 324.164 60.5887 317.25 65.03C309.749 69.8509 305.029 76.5752 305.029 85.8314C305.029 92.4075 308.231 98.0051 312.417 102.002C316.307 105.684 321.691 107.552 327.556 107.724C340.038 108.103 348.268 102.962 352.253 96.8548V96.8548ZM352.182 84.1652C351.63 90.8005 339.279 98.8708 329.151 98.3016C323.571 97.9933 318.074 93.5697 317.505 86.1931C316.58 73.8712 325.973 68.659 346.649 66.3879C348.084 66.2575 350.794 65.7535 352.182 64.9529V84.1652ZM648.376 96.8548C648.691 101.047 650.197 103.478 653.5 105.222C656.613 106.888 661.748 106.502 663.936 105.969V97.9102C661.297 97.7857 659.56 96.5523 659.56 93.291V56.6395L659.507 51.8068C659.507 44.2346 656.506 38.1151 650.82 34.1126C646.123 30.786 639.654 28.9656 632.627 28.9656C615.787 28.9656 607.752 38.969 604.354 45.2189L613.937 50.2117C615.265 46.6302 619.967 38.3642 632.77 38.3642C642.868 38.3642 647.967 42.8589 647.967 51.706L647.979 54.4337C647.979 54.4337 648.009 55.2223 647.772 55.5188C647.398 55.9932 646.408 56.3549 643.834 56.6217C629.686 58.199 620.299 60.5887 613.379 65.03C605.878 69.8509 601.164 76.5752 601.164 85.8314C601.164 92.4075 604.36 98.0051 608.553 102.002C612.443 105.684 617.821 107.552 623.685 107.724C636.155 108.103 644.398 102.962 648.376 96.8548V96.8548ZM648.305 84.1652C647.76 90.8005 635.402 98.8708 625.274 98.3016C619.7 97.9933 614.198 93.5697 613.634 86.1931C612.703 73.8712 622.102 68.659 642.779 66.3879C644.214 66.2575 646.924 65.7535 648.305 64.9529V84.1652ZM45.3553 85.9382L20.2015 3.27218H0.461548V106.218H12.3387V12.0659L12.5937 12.4158L40.8072 106.218H50.0339L78.2474 12.4158L78.5083 12.0659V106.218H90.3855V3.27218H70.6159L45.4917 85.9382L45.4206 86.371L45.3553 85.9382ZM691.912 49.9152C695.951 45.5984 704.934 38.3227 713.182 38.3227C721.413 38.3227 725.095 42.3904 725.095 51.4807V106.247H736.972V51.1901C736.972 34.7767 725.273 28.93 714.184 28.93C706.452 28.93 698.566 32.9978 691.906 40.5344H691.912H691.906L691.912 30.3887H680.041V106.247H691.912V49.9152ZM281.476 30.3116L278.944 38.3167C274.586 32.6479 268.905 28.8648 259.88 28.8648C246.497 28.8648 227.557 37.8839 227.557 68.1372C227.557 97.5189 246.497 107.41 259.305 107.41C266.77 107.41 273.566 103.318 278.221 97.3588L278.808 97.0682V111.483C278.808 121.599 270.115 127.772 260.758 127.772C251.667 127.772 243.597 126.047 237.033 122.975V133.245C242.565 135.617 251.567 137.147 259.305 137.147C280.344 137.147 290.365 125.531 290.365 108.75V30.3116H281.476ZM278.802 84.1652C275.724 92.9056 267.008 98.0051 260.752 98.0051C248.531 98.0051 240.004 90.3854 240.004 67.5502C240.004 48.3498 247.665 38.2693 260.752 38.2693C267.446 38.2693 273.252 41.1808 278.802 48.0652V84.1652Z" fill="black"/>
</svg>
