<?xml version="1.0" encoding="utf-8"?>
<!-- Generator: Adobe Illustrator 19.2.1, SVG Export Plug-In . SVG Version: 6.00 Build 0)  -->
<svg version="1.1" id="layer" xmlns="http://www.w3.org/2000/svg" xmlns:xlink="http://www.w3.org/1999/xlink" x="0px" y="0px"
	 viewBox="0 0 652 652" style="enable-background:new 0 0 652 652;" xml:space="preserve">
<style type="text/css">
	.st0{fill:#FFCC00;}
	.st1{fill:#E30C00;}
</style>
<g>
	<path d="M84.9,239.3c-45.2,0-63.9,15.1-63.9,15.1v67.9c0,37.5,49.9,76.4,63.9,80.4c14-4,63.9-43,63.9-80.4v-67.9
		C149.2,254.4,130.4,239.3,84.9,239.3z"/>
	<g>
		<path class="st0" d="M85.3,346.6"/>
		<g>
			<g>
				<path class="st0" d="M77.2,323.1c0.4,0.4,0.4,0.7,0.4,1.5c0,1.1-1.1,2.2-2.2,2.2c-1.1,0-2.2-1.1-2.2-2.2c0-0.7,0.4-1.1,0.7-1.5
					c-1.8-0.4-3.7-1.1-3.7-1.1c0.4,1.1,1.5,6.2,4.8,6.6c4,0.4,5.1-3.3,5.1-3.3S79.4,323.8,77.2,323.1z"/>
				<path class="st0" d="M96.3,322.7c0.7,0.4,0.7,1.1,0.7,1.8c0,1.1-1.1,2.2-2.2,2.2c-1.1,0-2.2-1.1-2.2-2.2c0-0.4,0.4-1.1,0.4-1.5
					c-2.2,0.7-2.6,1.8-2.6,1.8s1.1,3.7,5.1,3.3c3.3-0.4,4-5.1,4.8-6.6C99.9,321.6,98.1,322.3,96.3,322.7z"/>
			</g>
			<path class="st0" d="M100.3,311.3c-1.5-1.1-2.9,0.4-1.8,1.8c1.1,1.1,1.8,1.8,1.5,2.9c-0.7,1.1-6.6,0.7-14.7,3.7
				c-7.7-2.9-14-2.6-14.7-3.7c-0.4-0.7,0.4-1.8,1.5-2.9c1.5-1.5-0.4-2.9-1.8-1.8c-1.1,0.7-3.3,3.7-2.6,5.5c1.1,2.9,8.1,2.2,17.3,5.9
				l0,0l0,0l0,0l0,0c9.2-3.7,16.2-2.9,17.3-5.9C103.3,315,101.4,312.4,100.3,311.3z"/>
		</g>
		<path class="st0" d="M91.9,350.2c-1.1-0.4-3.3-1.8-4-4c-0.4-1.8,0.4-3.3,1.1-3.7s1.8,0.4,1.5,1.5c-0.4,0.7-1.1,1.1-1.5,1.5
			c-0.4,0.4,0,1.1,0.7,0.7c1.5-0.4,2.2-1.8,2.2-2.9c0-1.8-1.8-2.2-2.9-1.8c-1.5,0.4-2.9,1.8-2.2,4.8c0.7,2.6,2.9,4,4.4,4.8
			c-1.1,0.4-3.3,0.7-5.5,1.1c-2.2,0-4.8-0.4-5.5-1.1c1.1-0.7,3.7-1.8,4.4-4.8c0.7-2.9-0.4-4.4-2.2-4.8c-1.1-0.4-2.9,0.4-2.9,1.8
			c0,1.1,0.7,2.6,2.2,2.9c0.7,0,1.1-0.4,0.7-0.7c-0.4-0.4-1.1-0.7-1.5-1.5c-0.4-1.1,0.4-1.5,1.5-1.5c0.7,0.4,1.8,1.5,1.1,3.7
			s-2.6,3.3-4,4c-1.1,0.4-1.1,1.5-0.4,1.8c2.2,1.1,5.1,1.5,7,1.5l0,0l0,0l0,0l0,0c1.8,0,5.1-0.4,7-1.5C93,351.7,93,350.6,91.9,350.2
			z"/>
		<g>
			<g>
				<path class="st0" d="M85.3,260.6c0.7,0,1.1-0.4,1.8-0.7l0,0c0,0,0,0,0.4-0.4c0.7-0.7,1.8-2.2,2.2-2.9v-0.4
					c0-0.4-0.7-0.7-0.7-0.7c-0.4-0.4-6.6-0.4-7,0l0,0l0,0c-0.4,0.4-0.7,0.7-0.7,1.1c0.4,0.7,1.8,2.6,2.2,2.9
					C83.8,260.3,84.5,260.6,85.3,260.6z"/>
			</g>
			<g>
				<path class="st0" d="M80.5,263.6c0-0.4,0-1.1,0-1.8l0,0v-0.4c-0.4-0.7-1.8-2.2-2.2-2.9h-0.4c-0.4,0-0.7,0.4-1.1,0.4
					c-0.4,0.4-2.2,5.9-2.2,6.6l0,0l0,0c0,0.4,0.4,1.1,1.1,0.7c0.7,0,2.9-0.7,3.7-1.1C79.8,264.7,80.5,264,80.5,263.6z"/>
			</g>
			<g>
				<path class="st0" d="M82,268.7c-0.4-0.4-1.1-0.4-1.8-0.4l0,0h-0.4c-0.7,0-2.9,0.7-3.7,1.1l-0.4,0.4c0,0.4,0,0.7,0,1.1
					c0.4,0.4,5.1,3.7,5.9,4l0,0l0,0c0.4,0,1.1,0,1.1-0.7s0-2.9,0-3.7C83.1,269.8,82.7,269.1,82,268.7z"/>
			</g>
			<g>
				<path class="st0" d="M87.5,268.7c-0.4,0.4-0.7,0.7-1.1,1.5l0,0v0.4c0,0.7,0,2.9,0,3.7c0,0,0,0.4,0.4,0.4
					c0.4,0.4,0.7,0.4,1.1,0.4c0.7,0,5.5-3.7,5.9-4l0,0l0,0c0-0.4,0.4-1.1-0.4-1.1c-0.7-0.4-2.9-1.1-3.7-1.1
					C88.9,268.4,88.2,268.7,87.5,268.7z"/>
			</g>
			<g>
				<path class="st0" d="M89.3,264c0.4,0.4,0.7,1.1,1.1,1.5l0,0c0,0,0,0,0.4,0c0.7,0.4,2.9,1.1,3.7,1.1h0.4c0.4-0.4,0.4-0.7,0.4-0.7
					c0-0.7-1.8-5.9-2.2-6.6l0,0l0,0c-0.4-0.4-1.1-0.4-1.5-0.4c-0.7,0.4-1.8,2.2-2.2,2.9C89.3,262.5,89.3,263.2,89.3,264z"/>
			</g>
		</g>
		<path class="st0" d="M88.6,264.3c0-0.4-0.4-0.4-0.7-0.7c0-0.4,0-0.4,0-0.7c0-0.4-0.4-1.1-0.7-1.1c-0.7-0.4-1.8-0.4-2.2,0
			c-0.7-0.4-1.5-0.4-2.2,0c-0.4,0.4-0.7,0.7-0.7,1.1c0,0.4,0,0.7,0,1.1l-0.4,0.4c-0.4,0.4-0.4,1.1,0,1.5c0.4,0.7,1.1,1.5,1.8,1.5
			l0,0c0.4,0.7,1.1,1.1,1.8,1.1s1.5-0.7,1.8-1.5c0.7,0,1.5-0.7,1.5-1.1C88.9,265.4,88.9,265.1,88.6,264.3z M83.4,266.5
			c-0.4,0-0.7,0-0.7-0.4c0-0.4,0-0.7,0.4-0.7c0.4,0,0.7,0,0.7,0.4C84.2,266.2,83.8,266.5,83.4,266.5z M83.8,264.3
			c-0.4,0.4-0.7,0-1.1,0c-0.4-0.4,0-0.7,0-0.7c0.4-0.4,0.7,0,1.1,0C84.2,263.6,84.2,264,83.8,264.3z M85.3,267.6
			c-0.4,0-0.7-0.4-0.7-0.7s0.4-0.7,0.7-0.7c0.4,0,0.7,0.4,0.7,0.7S85.6,267.6,85.3,267.6z M85.3,264c-0.4-0.4-0.4-0.7,0-0.7
			c0.4-0.4,0.7-0.4,1.1,0c0.4,0.4,0.4,0.7,0,0.7C86,264,85.6,264,85.3,264z M86.7,265.8c-0.4,0-0.4-0.4-0.4-0.7
			c0-0.4,0.4-0.4,0.7-0.4c0.4,0,0.4,0.4,0.4,0.7C87.5,265.8,87.1,265.8,86.7,265.8z"/>
		<g>
			<path class="st0" d="M49.6,257.7c-1.8-1.8-2.9-2.2-3.3-2.2c-0.4,0-0.7,0-1.5,0.7l-0.4,0.4c-0.7,1.1-1.8,2.2-4,2.2
				c-0.7,0-1.5-0.4-2.2-0.7v15.1c0.7,1.1,1.5,1.8,2.2,1.8c0.4,0,1.1-0.4,1.8-1.1c2.2-2.2,4.8-2.6,7.3-1.1V257.7z"/>
			<path class="st0" d="M61.4,259.2c-1.8,0-2.9-1.1-4-2.2l-0.4-0.4c-0.7-0.7-1.1-0.7-1.5-0.7c-0.4,0-1.5,0.4-3.3,2.2v15.1
				c1.1-0.7,2.2-0.7,2.9-0.7c1.5,0,2.9,0.7,4.4,2.2c0.7,1.1,1.5,1.1,1.8,1.1c0.7,0,1.5-0.7,2.2-1.8v-15.4
				C62.9,258.8,62.1,259.2,61.4,259.2"/>
		</g>
		<g>
			<path class="st0" d="M120.5,272.8c2.6-1.5,5.1-1.1,7.3,1.1c0.7,1.1,1.5,1.1,1.8,1.1c0.7,0,1.5-0.7,2.2-1.8v-14.7
				c-0.7,0.4-1.5,0.7-2.2,0.7c-1.8,0-2.9-1.1-4-2.2l-0.4-0.4c-0.7-0.7-1.1-0.7-1.5-0.7c-0.4,0-1.5,0.4-3.3,2.2V272.8z"/>
			<path class="st0" d="M108.8,259.2c-0.7,0-1.5-0.4-2.2-0.7v14.7c0.7,1.1,1.5,1.8,2.2,1.8c0.4,0,1.1-0.4,1.8-1.1
				c1.5-1.5,2.6-2.2,4.4-2.2c1.1,0,2.2,0.4,2.9,0.7v-15.1c-1.8-1.8-2.9-2.2-3.3-2.2c-0.4,0-0.7,0-1.5,0.7l-0.4,0.4
				C111.7,257.7,110.6,259.2,108.8,259.2"/>
		</g>
		<g>
			<g>
				<path class="st0" d="M70.2,303.2c-4.8-1.5-14.3-6.2-18.4-17.6c-1.1-2.9-2.6-2.6-2.2,0.7c0.7,8.1,5.9,18,16.5,22.4
					C70.9,310.6,73.5,304.3,70.2,303.2z"/>
			</g>
			<g>
				<path class="st0" d="M100.3,303.2c4.8-1.5,14.3-6.2,18.4-17.6c1.1-2.9,2.6-2.6,2.2,0.7c-0.7,8.1-5.9,18-16.5,22.4
					C99.6,310.6,97,304.3,100.3,303.2z"/>
			</g>
		</g>
		<path class="st0" d="M97.4,301c0.7,0,1.5-0.4,2.6-0.7c2.9-1.1,8.1-3.7,12.1-8.8c-9.2-1.8-18.4-2.6-26.4-2.6
			c-8.4,0-17.6,1.1-26.8,2.9c4,5.5,9.5,8.1,12.5,8.8c0.7,0.4,1.8,0.4,2.2,0.7c1.5,0.4,2.6,0.4,4.4-0.7c1.5-1.5,1.8-2.2,8.1-2.2
			c5.9,0,6.2,0.7,7.7,2.2C94.8,301.4,95.9,301,97.4,301z"/>
		<g>
			<path class="st0" d="M128.2,315.4l-13.2,22C120.1,335.2,127.5,329.3,128.2,315.4z"/>
			<path class="st0" d="M55.1,337.4l-13.2-22C42.7,329.3,50,335.2,55.1,337.4z"/>
			<path class="st0" d="M122,293.7c-1.8,5.1-5.1,10.3-10.3,14c4,1.5,9.5,1.5,13.2-1.1c-1.1,2.9-5.1,7.3-7.7,9.9
				c-0.4-0.4-1.1-0.7-1.5-1.1c-1.1-1.1-2.2,0-1.5,0.7c0.4,0.4,1.1,1.5,1.5,1.5c-0.7,0.7-1.5,1.5-1.5,1.5c-0.7-0.4-1.1-0.7-1.5-1.1
				c-1.1-1.1-2.2,0-1.5,0.7c0.4,0.4,1.1,1.5,1.5,1.8c-0.7,0.4-1.5,1.1-2.2,1.5c-1.5-1.8-2.9-3.7-5.1-2.6c-2.2,1.1,0,2.9,0,5.1
				c0,9.5-5.9,13.2-7.3,17.3c-1.5,4-2.9,11.4-4,13.2c-1.1,1.8-6.2,4-8.4,2.2c-2.2,1.8-7.3-0.4-8.4-2.2c-1.1-1.8-2.6-9.2-4-13.2
				c-1.5-4-7.3-7.7-7.3-17.3c0-2.2,2.2-4,0-5.1c-2.2-1.1-3.7,0.7-5.1,2.6c-0.7-0.4-1.5-1.1-2.2-1.5c0.4-0.4,1.1-1.5,1.5-1.8
				c0.7-1.1-0.4-2.2-1.5-0.7c-0.4,0.4-1.1,1.1-1.5,1.1c0,0-0.7-0.7-1.5-1.5c0.4-0.4,1.1-1.5,1.5-1.5c0.7-1.1-0.4-2.2-1.5-0.7
				c-0.4,0.4-0.7,0.7-1.5,1.1c-2.9-2.6-6.6-6.6-7.7-9.9c3.7,2.6,8.4,2.2,12.9,0.7c-5.1-4-8.4-8.8-10.3-14c-8.1,2.2-15.8,5.1-22,8.4
				V322c0,32.7,47,70.5,58.8,73.8c12.1-3.3,58.8-41.1,58.8-73.8v-20.6C137.8,298.8,130.1,295.9,122,293.7z M124.9,354.3
				c-2.6,2.2-4.4,3.3-6.2,4.8c-3.7,2.6-4.8,3.7-4.8,5.5l0.7,7.7l-4.8-2.2c-3.7-1.5-5.5-3.7-5.5-7.3c-0.4-5.5,2.9-11,9.2-15.4
				c1.5-1.1,2.9-1.5,3.7-2.2c1.1-0.4,1.8-1.1,2.2-1.5c0.4-0.7-1.1-1.5-4.4-2.9c-0.4,0-1.1-0.4-1.5-0.7l-28.3,46.6L57,340
				c-0.7,0.4-1.1,0.4-1.5,0.7c-3.3,1.5-4.4,2.6-4.4,2.9s1.1,0.7,2.2,1.5c1.1,0.4,2.2,1.1,3.7,2.2c6.2,4,9.5,9.9,9.2,15.4
				c-0.4,3.7-2.2,5.9-5.5,7.3l-5.1,2.2l0.7-7.7c0-1.8-1.1-2.9-4.8-5.5c-1.5-1.1-3.7-2.6-6.2-4.8c-15.8-12.9-16.5-28.6-11.8-35.6
				c1.5-2.2,5.9-7,5.9-7l-0.7-1.1c-1.5,0-2.9-1.5-2.9-2.9c0-1.8,1.5-3.3,3.3-3.3c1.8,0,3.3,1.5,3.3,3.3c0,0.4,0,0.7,0,1.1l0,0
				l43,71.6l43-71.6l0,0c0-0.4,0-0.7,0-1.1c0-1.8,1.5-3.3,3.3-3.3s3.3,1.5,3.3,3.3c0,1.5-1.1,2.9-2.9,2.9l-0.7,1.1
				c0,0,4.4,4.8,5.9,7C141.1,325.6,140.7,341.4,124.9,354.3z"/>
		</g>
	</g>
	<g>
		<path class="st1" d="M84.9,244.1c-43.3,0-58.8,13.2-58.8,13.2v38.9c5.9-2.9,12.9-5.5,20.6-7.3c0-0.7-0.4-1.5-0.4-2.2
			c-0.4-2.2,0.4-3.7,1.1-4.8c0.7-0.7,1.8-1.1,2.6-1.1c1.1,0,3.3,0.4,4.4,4c0.4,0.7,0.7,1.5,1.1,2.2c9.9-1.8,20.2-2.9,29.4-2.9
			s19.5,1.1,29.4,2.9c0.4-0.7,0.7-1.5,0.7-2.2c1.1-3.3,3.3-4,4.4-4c1.1,0,1.8,0.4,2.6,1.1c1.1,1.1,1.5,2.6,1.1,4.8
			c0,0.7-0.4,1.5-0.4,2.2c7.3,1.8,14.7,4.4,20.6,7.3v-38.9C144,257.3,128.6,244.1,84.9,244.1z M67.3,278.3l-5.9-0.7H61l-7.7-1.1v1.5
			h-2.2h-2.2v-1.5l-14,2.9v-21.7l1.1-0.4V254l2.2,1.5c1.5,1.1,2.2,1.5,2.6,1.5c0.7,0,1.1-0.4,1.8-1.5c0-0.4,0.4-0.4,0.4-0.7
			c1.1-1.1,1.8-1.5,3.3-1.5c1.5,0,2.9,0.7,4.8,2.2c1.8-1.5,3.3-2.2,4.8-2.2c1.1,0,2.2,0.4,3.3,1.5c0,0.4,0.4,0.4,0.4,0.7
			c0.7,0.7,1.1,1.5,1.8,1.5c0.4,0,1.5-0.4,2.6-1.5l1.8-1.5v3.3l1.1,0.4v20.6H67.3z M98.5,269.1c-0.4,0.7-1.1,1.1-2.2,1.1
			c0,0.7,0,1.1-0.4,1.5c-0.7,0.7-7,5.5-8.1,5.5h-0.4c-0.4,0-0.7,0-1.1,0c-0.4,1.1-0.7,1.8-1.5,1.8s-1.1-0.7-1.5-1.5
			c-0.4,0-0.7,0.4-1.1,0.4H82c-1.1-0.4-7.3-4.8-8.1-5.5c0-0.4-0.4-0.7-0.4-1.1c-1.1,0-1.8-0.4-2.2-1.1c-0.4-0.7,0.4-1.5,1.1-1.8
			c-0.4-0.4-0.7-1.1-0.7-1.5c0-1.1,2.6-8.4,2.9-9.2c0-0.4,0.7-0.4,1.1-0.7c-0.4-0.7-0.4-1.8,0.4-2.2c0.4-0.4,1.5-0.4,2.2,0.4
			c0.4-0.4,0.7-1.1,1.1-1.1c0.7-0.4,3.3-0.4,4.4-0.4c1.8,0,4.8,0,5.5,0.4c0.4,0,0.7,0.4,1.1,1.1c0.7-0.7,1.8-0.7,2.2-0.4
			c0.4,0.4,0.7,1.1,0.4,2.2c0.7,0,1.1,0.4,1.5,0.7c0.7,0.7,2.9,8.1,2.9,9.2c0,0.4-0.4,0.7-0.7,1.5C98.1,267.6,98.8,268.4,98.5,269.1
			z M135.2,279l-14-2.9v1.5H119h-2.2v-1.5l-7.7,1.1h-0.4l-5.9,0.7v-20.6l1.1-0.4v-3.3l1.8,1.5c1.5,1.1,2.2,1.5,2.6,1.5
			c0.7,0,1.1-0.4,1.8-1.5c0-0.4,0.4-0.4,0.4-0.7c1.1-1.1,1.8-1.5,3.3-1.5c1.5,0,2.9,0.7,4.8,2.2c1.8-1.5,3.3-2.2,4.8-2.2
			c1.1,0,2.2,0.4,3.3,1.5c0,0.4,0.4,0.4,0.4,0.7c0.7,0.7,1.1,1.5,1.8,1.5c0.4,0,1.5-0.4,2.6-1.5l2.2-1.5v3.3l1.1,0.4V279H135.2z"/>
		<g>
			<path class="st1" d="M118.7,339.2c1.8,1.1,4,2.6,4,4.8s-1.8,3.3-4,4.4c-1.1,0.4-2.2,1.1-3.3,1.8c-1.8,1.1-8.1,5.9-7.7,12.1
				c0.4,2.2,1.1,3.3,3.3,4.4l-0.4-2.9c0-2.9,2.6-5.1,6.2-7.7c1.5-1.1,3.7-2.6,5.9-4.4c13.6-11,15.1-25,11-31.2
				c-0.4-0.7-1.5-1.8-2.2-2.9C130.4,329.7,124.2,335.9,118.7,339.2z"/>
		</g>
		<g>
			<path class="st1" d="M38.6,317.6c-0.7,1.1-1.5,2.2-2.2,2.9c-4,6.2-2.6,20.2,11,31.2c2.6,1.8,4.4,3.3,5.9,4.4
				c3.7,2.6,6.2,4.8,6.2,7.7l-0.4,2.9c2.2-1.1,2.9-2.2,3.3-4.4c0.7-6.2-5.5-11-7.7-12.1c-1.5-0.7-2.6-1.5-3.3-1.8
				c-1.8-1.1-4-1.8-4-4.4c0-2.2,1.8-3.7,4-4.8C46.3,335.9,39.7,329.7,38.6,317.6z"/>
		</g>
	</g>
	<g>
		<path d="M178.9,275v-20.2h7.7V275c0,5.9,2.9,8.8,7.3,8.8c4.8,0,7.3-2.9,7.3-8.4v-20.6h7.7V275c0,10.6-5.9,16.2-15.1,16.2
			C184.8,290.8,178.9,285.2,178.9,275z"/>
		<path d="M220,254.4h7l16.2,22v-22h7.7V290h-6.6l-16.9-22.8V290h-7.7v-35.6H220z"/>
		<path d="M262.2,254.4h7.7V290h-7.7V254.4z"/>
		<path d="M278.8,254.4h8.4l9.2,25l9.2-25h8.1l-14,36h-6.6L278.8,254.4z"/>
		<path d="M321.7,254.4h26.1v7h-18.7v7.3h16.5v7h-16.5v7.3h18.7v7h-26.4v-35.6H321.7z"/>
		<path d="M359.9,254.4h15.8c4.4,0,7.7,1.1,10.3,3.7c1.8,1.8,2.9,4.8,2.9,8.1l0,0c0,5.9-2.9,9.5-7.3,11L390,290h-8.8l-7.3-11.4l0,0
			H368V290h-7.7v-35.6H359.9z M375.3,272c3.7,0,5.9-2.2,5.9-5.1l0,0c0-3.3-2.2-5.1-5.9-5.1h-7.7V272H375.3z"/>
		<path d="M398.5,284.9l4.4-5.5c3.3,2.6,6.2,4.4,10.3,4.4c3.3,0,5.1-1.1,5.1-3.3l0,0c0-1.8-1.1-2.9-7-4.4c-7-1.8-11.4-3.7-11.4-11
			l0,0c0-6.6,5.1-10.6,12.1-10.6c5.1,0,9.5,1.5,12.9,4.4l-4,5.9c-2.9-2.2-6.2-3.7-9.2-3.7s-4.4,1.5-4.4,2.9l0,0
			c0,2.2,1.5,2.9,7.3,4.8c7,1.8,11,4.4,11,10.6l0,0c0,7-5.1,11-12.9,11C407.7,290.8,402.5,288.9,398.5,284.9z"/>
		<path d="M436.7,254.4h7.7V290h-7.7V254.4z"/>
		<path d="M464.2,261.7h-10.6v-7.3h28.6v7.3h-10.6V290h-7.3V261.7z"/>
		<path d="M502,276.1l-13.2-21.7h8.8l8.4,14.3l8.4-14.3h8.8l-13.2,21.3V290h-7.7v-14H502z"/>
		<path d="M547.2,272.4L547.2,272.4c0-10.3,7.7-18.4,18.4-18.4s18.4,8.1,18.4,18.4l0,0c0,10.3-7.7,18.4-18.4,18.4
			C554.9,290.8,547.2,282.7,547.2,272.4z M576.2,272.4L576.2,272.4c0-6.2-4.4-11.4-10.6-11.4c-6.2,0-10.3,5.1-10.3,11l0,0
			c0,6.2,4.4,11.4,10.6,11.4C571.8,283.4,576.2,278.6,576.2,272.4z"/>
		<path d="M592.4,254.4h26.4v7h-18.7v7.7h16.5v7h-16.5v14h-7.7V254.4z"/>
		<g>
			<g>
				<path d="M207.9,304.3c-19.1,0-33.4,14.7-33.4,34.5v0.4c0,9.2,3.3,18,9.2,24.2c6.2,6.2,14.3,9.9,23.5,9.9
					c10.6,0,18.4-3.3,26.1-11.8l-7-7.3c-5.5,5.1-10.6,8.4-18.7,8.4c-12.1,0-21.7-10.6-21.7-24.2v-0.4c0-13.6,9.2-23.9,21.7-23.9
					c6.6,0,12.1,2.6,18.4,8.1l7-8.4C227.7,309.5,220.8,304.3,207.9,304.3z"/>
			</g>
			<g>
				<path d="M292.7,371.9h12.1l-28.3-66.8h-11.4l-28.3,66.8h11.8l6.6-16.2h31.2L292.7,371.9z M282.4,346.2h-23.1l11.8-27.9
					L282.4,346.2z"/>
			</g>
			<g>
				<path d="M482.9,371.9h12.1l-28.3-66.8h-11.4l-28.3,66.8h11.8l6.6-16.2h31.2L482.9,371.9z M472.3,346.2h-23.1l11.8-27.9
					L472.3,346.2z"/>
			</g>
			<g>
				<path d="M311.8,371.9h45.9v-10.3h-34.1v-56.2h-11.8V371.9z"/>
			</g>
			<g>
				<path d="M393,304.3c-18.7,0-33.8,15.1-33.8,34.5v0.4c0,20.2,14.3,34.1,34.1,34.1c12.5,0,21.3-5.5,27.9-10.3v-27.9h-26.8v9.5
					h15.1v12.9l0,0c-4.4,3.3-9.9,5.1-15.8,5.1c-13.2,0-22.4-9.9-22.4-24.2v-0.4c0-13.2,9.5-23.9,21.3-23.9c8.4,0,13.2,2.9,18.4,7
					l7-8.4C410.2,306.9,402.9,304.3,393,304.3z"/>
			</g>
			<g>
				<path d="M544.6,371.9h12.9l-17.6-25.3h0.4c9.9-2.9,16.5-9.9,16.5-20.2V326c0-5.5-2.9-10.6-6.6-14.3c-4.4-4.4-10.6-6.6-18.7-6.6
					H502v66.5h11.8V348h14.7L544.6,371.9z M531,338.9h-16.9v-23.1H531c8.8,0,13.6,4,13.6,11.4v0.4
					C544.6,334.5,539.5,338.9,531,338.9z"/>
			</g>
			<g>
				<path d="M582.8,371.9h12.5v-25.7l25.7-40.8h-12.9l-18.7,30.1l-18.4-30.1h-13.2l25,40.8L582.8,371.9L582.8,371.9z"/>
			</g>
		</g>
	</g>
</g>
</svg>
