<svg width="600" height="164" viewBox="0 0 600 164" fill="none"
    xmlns="http://www.w3.org/2000/svg">
    <path d="M63.9 0.300049C18.7 0.300049 0 15.4 0 15.4V83.3C0 120.8 49.9 159.7 63.9 163.7C77.9 159.7 127.8 120.7 127.8 83.3V15.4C128.2 15.4 109.4 0.300049 63.9 0.300049Z" fill="black"/>
    <path d="M56.2 84.1001C56.6 84.5001 56.6 84.8001 56.6 85.6001C56.6 86.7001 55.5 87.8001 54.4 87.8001C53.3 87.8001 52.2 86.7001 52.2 85.6001C52.2 84.9001 52.6 84.5001 52.9 84.1001C51.1 83.7001 49.2 83.0001 49.2 83.0001C49.6 84.1001 50.7 89.2001 54 89.6001C58 90.0001 59.1 86.3001 59.1 86.3001C59.1 86.3001 58.4 84.8001 56.2 84.1001Z" fill="#FFCC00"/>
    <path d="M75.3 83.7001C76 84.1001 76 84.8001 76 85.5001C76 86.6001 74.9 87.7001 73.8 87.7001C72.7 87.7001 71.6 86.6001 71.6 85.5001C71.6 85.1001 72 84.4001 72 84.0001C69.8 84.7001 69.4 85.8001 69.4 85.8001C69.4 85.8001 70.5 89.5001 74.5 89.1001C77.8 88.7001 78.5 84.0001 79.3 82.5001C78.9 82.6001 77.1 83.3001 75.3 83.7001Z" fill="#FFCC00"/>
    <path d="M79.3 72.3001C77.8 71.2001 76.4 72.7001 77.5 74.1001C78.6 75.2001 79.3 75.9001 79 77.0001C78.3 78.1001 72.4 77.7001 64.3 80.7001C56.6 77.8001 50.3 78.1001 49.6 77.0001C49.2 76.3001 50 75.2001 51.1 74.1001C52.6 72.6001 50.7 71.2001 49.3 72.3001C48.2 73.0001 46 76.0001 46.7 77.8001C47.8 80.7001 54.8 80.0001 64 83.7001C73.2 80.0001 80.2 80.8001 81.3 77.8001C82.3 76.0001 80.4 73.4001 79.3 72.3001Z" fill="#FFCC00"/>
    <path d="M70.9 111.2C69.8 110.8 67.6 109.4 66.9 107.2C66.5 105.4 67.3 103.9 68 103.5C68.7 103.1 69.8 103.9 69.5 105C69.1 105.7 68.4 106.1 68 106.5C67.6 106.9 68 107.6 68.7 107.2C70.2 106.8 70.9 105.4 70.9 104.3C70.9 102.5 69.1 102.1 68 102.5C66.5 102.9 65.1 104.3 65.8 107.3C66.5 109.9 68.7 111.3 70.2 112.1C69.1 112.5 66.9 112.8 64.7 113.2C62.5 113.2 59.9 112.8 59.2 112.1C60.3 111.4 62.9 110.3 63.6 107.3C64.3 104.4 63.2 102.9 61.4 102.5C60.3 102.1 58.5 102.9 58.5 104.3C58.5 105.4 59.2 106.9 60.7 107.2C61.4 107.2 61.8 106.8 61.4 106.5C61 106.1 60.3 105.8 59.9 105C59.5 103.9 60.3 103.5 61.4 103.5C62.1 103.9 63.2 105 62.5 107.2C61.8 109.4 59.9 110.5 58.5 111.2C57.4 111.6 57.4 112.7 58.1 113C60.3 114.1 63.2 114.5 65.1 114.5C66.9 114.5 70.2 114.1 72.1 113C72 112.7 72 111.6 70.9 111.2Z" fill="#FFCC00"/>
    <path d="M64.3 21.6001C65 21.6001 65.4 21.2001 66.1 20.9001C66.1 20.9001 66.1 20.9001 66.5 20.5001C67.2 19.8001 68.3 18.3001 68.7 17.6001V17.2001C68.7 16.8001 68 16.5001 68 16.5001C67.6 16.1001 61.4 16.1001 61 16.5001C60.6 16.9001 60.3 17.2001 60.3 17.6001C60.7 18.3001 62.1 20.2001 62.5 20.5001C62.8 21.3001 63.5 21.6001 64.3 21.6001Z" fill="#FFCC00"/>
    <path d="M59.5 24.6001C59.5 24.2001 59.5 23.5001 59.5 22.8001V22.4001C59.1 21.7001 57.7 20.2001 57.3 19.5001H56.9C56.5 19.5001 56.2 19.9001 55.8 19.9001C55.4 20.3001 53.6 25.8001 53.6 26.5001C53.6 26.9001 54 27.6001 54.7 27.2001C55.4 27.2001 57.6 26.5001 58.4 26.1001C58.8 25.7001 59.5 25.0001 59.5 24.6001Z" fill="#FFCC00"/>
    <path d="M61 29.7001C60.6 29.3001 59.9 29.3 59.2 29.3H58.8C58.1 29.3 55.9 30.0001 55.1 30.4001L54.7 30.8C54.7 31.2 54.7 31.5001 54.7 31.9001C55.1 32.3001 59.8 35.6001 60.6 35.9001C61 35.9001 61.7 35.9001 61.7 35.2001C61.7 34.5001 61.7 32.3001 61.7 31.5001C62.1 30.8001 61.7 30.1001 61 29.7001Z" fill="#FFCC00"/>
    <path d="M66.5 29.7001C66.1 30.1001 65.8 30.4001 65.4 31.2001V31.6001C65.4 32.3001 65.4 34.5001 65.4 35.3001C65.4 35.3001 65.4 35.7001 65.8 35.7001C66.2 36.1001 66.5 36.1001 66.9 36.1001C67.6 36.1001 72.4 32.4001 72.8 32.1001C72.8 31.7001 73.2 31.0001 72.4 31.0001C71.7 30.6001 69.5 29.9001 68.7 29.9001C67.9 29.4001 67.2 29.7001 66.5 29.7001Z" fill="#FFCC00"/>
    <path d="M68.3 25C68.7 25.4 69 26.1 69.4 26.5C69.4 26.5 69.4 26.5 69.8 26.5C70.5 26.9 72.7 27.6 73.5 27.6H73.9C74.3 27.2 74.3 26.9 74.3 26.9C74.3 26.2 72.5 21 72.1 20.3C71.7 19.9 71 19.9 70.6 19.9C69.9 20.3 68.8 22.1 68.4 22.8C68.3 23.5 68.3 24.2 68.3 25Z" fill="#FFCC00"/>
    <path d="M67.6 25.3001C67.6 24.9001 67.2 24.9001 66.9 24.6001C66.9 24.2001 66.9 24.2001 66.9 23.9001C66.9 23.5001 66.5 22.8001 66.2 22.8001C65.5 22.4001 64.4 22.4001 64 22.8001C63.3 22.4001 62.5 22.4001 61.8 22.8001C61.4 23.2001 61.1 23.5001 61.1 23.9001C61.1 24.3001 61.1 24.6001 61.1 25.0001L60.7 25.4001C60.3 25.8001 60.3 26.5001 60.7 26.9001C61.1 27.6001 61.8 28.4001 62.5 28.4001C62.9 29.1001 63.6 29.5001 64.3 29.5001C65 29.5001 65.8 28.8001 66.1 28.0001C66.8 28.0001 67.6 27.3001 67.6 26.9001C67.9 26.4001 67.9 26.1001 67.6 25.3001ZM62.4 27.5001C62 27.5001 61.7 27.5001 61.7 27.1001C61.7 26.7001 61.7 26.4001 62.1 26.4001C62.5 26.4001 62.8 26.4001 62.8 26.8001C63.2 27.2001 62.8 27.5001 62.4 27.5001ZM62.8 25.3001C62.4 25.7001 62.1 25.3001 61.7 25.3001C61.3 24.9001 61.7 24.6001 61.7 24.6001C62.1 24.2001 62.4 24.6001 62.8 24.6001C63.2 24.6001 63.2 25.0001 62.8 25.3001ZM64.3 28.6001C63.9 28.6001 63.6 28.2001 63.6 27.9001C63.6 27.6001 64 27.2001 64.3 27.2001C64.7 27.2001 65 27.6001 65 27.9001C65 28.2001 64.6 28.6001 64.3 28.6001ZM64.3 25.0001C63.9 24.6001 63.9 24.3001 64.3 24.3001C64.7 23.9001 65 23.9001 65.4 24.3001C65.8 24.7001 65.8 25.0001 65.4 25.0001C65 25.0001 64.6 25.0001 64.3 25.0001ZM65.7 26.8001C65.3 26.8001 65.3 26.4001 65.3 26.1001C65.3 25.7001 65.7 25.7001 66 25.7001C66.4 25.7001 66.4 26.1001 66.4 26.4001C66.5 26.8001 66.1 26.8001 65.7 26.8001Z" fill="#FFCC00"/>
    <path d="M28.6 18.7001C26.8 16.9001 25.7 16.5001 25.3 16.5001C24.9 16.5001 24.6 16.5001 23.8 17.2001L23.4 17.6001C22.7 18.7001 21.6 19.8001 19.4 19.8001C18.7 19.8001 17.9 19.4001 17.2 19.1001V34.2001C17.9 35.3001 18.7 36.0001 19.4 36.0001C19.8 36.0001 20.5 35.6001 21.2 34.9001C23.4 32.7001 26 32.3001 28.5 33.8001V18.7001H28.6Z" fill="#FFCC00"/>
    <path d="M40.4 20.2002C38.6 20.2002 37.5 19.1002 36.4 18.0002L36 17.6002C35.3 16.9002 34.9 16.9001 34.5 16.9001C34.1 16.9001 33 17.3002 31.2 19.1002V34.2002C32.3 33.5002 33.4 33.5002 34.1 33.5002C35.6 33.5002 37 34.2002 38.5 35.7002C39.2 36.8002 40 36.8001 40.3 36.8001C41 36.8001 41.8 36.1002 42.5 35.0002V19.6002C41.9 19.8002 41.1 20.2002 40.4 20.2002Z" fill="#FFCC00"/>
    <path d="M99.5 33.8001C102.1 32.3001 104.6 32.7001 106.8 34.9001C107.5 36.0001 108.3 36.0002 108.6 36.0002C109.3 36.0002 110.1 35.3002 110.8 34.2002V19.5002C110.1 19.9002 109.3 20.2002 108.6 20.2002C106.8 20.2002 105.7 19.1002 104.6 18.0002L104.2 17.6002C103.5 16.9002 103.1 16.9001 102.7 16.9001C102.3 16.9001 101.2 17.3002 99.4 19.1002V33.8001H99.5Z" fill="#FFCC00"/>
    <path d="M87.8 20.2001C87.1 20.2001 86.3 19.8001 85.6 19.5001V34.2001C86.3 35.3001 87.1 36.0001 87.8 36.0001C88.2 36.0001 88.9 35.6001 89.6 34.9001C91.1 33.4001 92.2 32.7001 94 32.7001C95.1 32.7001 96.2 33.1001 96.9 33.4001V18.3001C95.1 16.5001 94 16.1001 93.6 16.1001C93.2 16.1001 92.9 16.1001 92.1 16.8001L91.7 17.2001C90.7 18.7001 89.6 20.2001 87.8 20.2001Z" fill="#FFCC00"/>
    <path d="M49.2 64.2001C44.4 62.7001 34.9 58.0001 30.8 46.6001C29.7 43.7001 28.2 44.0001 28.6 47.3001C29.3 55.4001 34.5 65.3001 45.1 69.7001C49.9 71.6001 52.5 65.3001 49.2 64.2001Z" fill="#FFCC00"/>
    <path d="M79.3 64.2001C84.1 62.7001 93.6 58.0001 97.7 46.6001C98.8 43.7001 100.3 44.0001 99.9 47.3001C99.2 55.4001 94 65.3001 83.4 69.7001C78.6 71.6001 76 65.3001 79.3 64.2001Z" fill="#FFCC00"/>
    <path d="M76.4 62.0002C77.1 62.0002 77.9 61.6001 79 61.3001C81.9 60.2001 87.1 57.6002 91.1 52.5002C81.9 50.7002 72.7 49.9001 64.7 49.9001C56.3 49.9001 47.1 51.0001 37.9 52.8001C41.9 58.3001 47.4 60.9002 50.4 61.6002C51.1 62.0002 52.2 62.0001 52.6 62.3001C54.1 62.7001 55.2 62.7002 57 61.6002C58.5 60.1002 58.8 59.4001 65.1 59.4001C71 59.4001 71.3 60.1002 72.8 61.6002C73.8 62.4002 74.9 62.0002 76.4 62.0002Z" fill="#FFCC00"/>
    <path d="M107.2 76.4L94 98.4C99.1 96.2 106.5 90.3 107.2 76.4Z" fill="#FFCC00"/>
    <path d="M34.1 98.4L20.9 76.4C21.7 90.3 29 96.2 34.1 98.4Z" fill="#FFCC00"/>
    <path d="M101 54.7001C99.2 59.8001 95.9 65.0001 90.7 68.7001C94.7 70.2001 100.2 70.2001 103.9 67.6001C102.8 70.5001 98.8 74.9001 96.2 77.5001C95.8 77.1001 95.1 76.8001 94.7 76.4001C93.6 75.3001 92.5 76.4001 93.2 77.1001C93.6 77.5001 94.3 78.6001 94.7 78.6001C94 79.3001 93.2 80.1001 93.2 80.1001C92.5 79.7001 92.1 79.4001 91.7 79.0001C90.6 77.9001 89.5 79.0001 90.2 79.7001C90.6 80.1001 91.3 81.2001 91.7 81.5001C91 81.9001 90.2 82.6001 89.5 83.0001C88 81.2001 86.6 79.3001 84.4 80.4001C82.2 81.5001 84.4 83.3001 84.4 85.5001C84.4 95.0001 78.5 98.7 77.1 102.8C75.6 106.8 74.2 114.2 73.1 116C72 117.8 66.9 120 64.7 118.2C62.5 120 57.4 117.8 56.3 116C55.2 114.2 53.7 106.8 52.3 102.8C50.8 98.8 45 95.1001 45 85.5001C45 83.3001 47.2 81.5001 45 80.4001C42.8 79.3001 41.3 81.1001 39.9 83.0001C39.2 82.6001 38.4 81.9001 37.7 81.5001C38.1 81.1001 38.8 80.0001 39.2 79.7001C39.9 78.6001 38.8 77.5001 37.7 79.0001C37.3 79.4001 36.6 80.1001 36.2 80.1001C36.2 80.1001 35.5 79.4001 34.7 78.6001C35.1 78.2001 35.8 77.1001 36.2 77.1001C36.9 76.0001 35.8 74.9001 34.7 76.4001C34.3 76.8001 34 77.1001 33.2 77.5001C30.3 74.9001 26.6 70.9001 25.5 67.6001C29.2 70.2001 33.9 69.8 38.4 68.3C33.3 64.3 30 59.5 28.1 54.3C20 56.5 12.3 59.4001 6.1 62.7001V83.0001C6.1 115.7 53.1 153.5 64.9 156.8C77 153.5 123.7 115.7 123.7 83.0001V62.4001C116.8 59.8001 109.1 56.9001 101 54.7001ZM103.9 115.3C101.3 117.5 99.5 118.6 97.7 120.1C94 122.7 92.9 123.8 92.9 125.6L93.6 133.3L88.8 131.1C85.1 129.6 83.3 127.4 83.3 123.8C82.9 118.3 86.2 112.8 92.5 108.4C94 107.3 95.4 106.9 96.2 106.2C97.3 105.8 98 105.1 98.4 104.7C98.8 104 97.3 103.2 94 101.8C93.6 101.8 92.9 101.4 92.5 101.1L64.2 147.7L36 101C35.3 101.4 34.9 101.4 34.5 101.7C31.2 103.2 30.1 104.3 30.1 104.6C30.1 104.9 31.2 105.3 32.3 106.1C33.4 106.5 34.5 107.2 36 108.3C42.2 112.3 45.5 118.2 45.2 123.7C44.8 127.4 43 129.6 39.7 131L34.6 133.2L35.3 125.5C35.3 123.7 34.2 122.6 30.5 120C29 118.9 26.8 117.4 24.3 115.2C8.5 102.3 7.8 86.6001 12.5 79.6001C14 77.4001 18.4 72.6001 18.4 72.6001L17.7 71.5001C16.2 71.5001 14.8 70.0001 14.8 68.6001C14.8 66.8001 16.3 65.3 18.1 65.3C19.9 65.3 21.4 66.8001 21.4 68.6001C21.4 69.0001 21.4 69.3001 21.4 69.7001L64.4 141.3L107.4 69.7001C107.4 69.3001 107.4 69.0001 107.4 68.6001C107.4 66.8001 108.9 65.3 110.7 65.3C112.5 65.3 114 66.8001 114 68.6001C114 70.1001 112.9 71.5001 111.1 71.5001L110.4 72.6001C110.4 72.6001 114.8 77.4001 116.3 79.6001C120.1 86.6001 119.7 102.4 103.9 115.3Z" fill="#FFCC00"/>
    <path d="M63.9 5.1001C20.6 5.1001 5.1 18.3001 5.1 18.3001V57.2001C11 54.3001 18 51.7001 25.7 49.9001C25.7 49.2001 25.3 48.4001 25.3 47.7001C24.9 45.5001 25.7 44.0001 26.4 42.9001C27.1 42.2001 28.2 41.8001 29 41.8001C30.1 41.8001 32.3 42.2001 33.4 45.8001C33.8 46.5001 34.1 47.3001 34.5 48.0001C44.4 46.2001 54.7 45.1001 63.9 45.1001C73.1 45.1001 83.4 46.2001 93.3 48.0001C93.7 47.3001 94 46.5001 94 45.8001C95.1 42.5001 97.3 41.8001 98.4 41.8001C99.5 41.8001 100.2 42.2001 101 42.9001C102.1 44.0001 102.5 45.5001 102.1 47.7001C102.1 48.4001 101.7 49.2001 101.7 49.9001C109 51.7001 116.4 54.3001 122.3 57.2001V18.3001C123 18.3001 107.6 5.1001 63.9 5.1001ZM46.3 39.3001L40.4 38.6001H40L32.3 37.5001V39.0001H30.1H27.9V37.5001L13.9 40.4001V18.7001L15 18.3001V15.0001L17.2 16.5001C18.7 17.6001 19.4 18.0001 19.8 18.0001C20.5 18.0001 20.9 17.6001 21.6 16.5001C21.6 16.1001 22 16.1001 22 15.8001C23.1 14.7001 23.8 14.3001 25.3 14.3001C26.8 14.3001 28.2 15.0001 30.1 16.5001C31.9 15.0001 33.4 14.3001 34.9 14.3001C36 14.3001 37.1 14.7001 38.2 15.8001C38.2 16.2001 38.6 16.2001 38.6 16.5001C39.3 17.2001 39.7 18.0001 40.4 18.0001C40.8 18.0001 41.9 17.6001 43 16.5001L44.8 15.0001V18.3001L45.9 18.7001V39.3001H46.3ZM77.5 30.1001C77.1 30.8001 76.4 31.2001 75.3 31.2001C75.3 31.9001 75.3 32.3001 74.9 32.7001C74.2 33.4001 67.9 38.2001 66.8 38.2001H66.4C66 38.2001 65.7 38.2001 65.3 38.2001C64.9 39.3001 64.6 40.0001 63.8 40.0001C63 40.0001 62.7 39.3001 62.3 38.5001C61.9 38.5001 61.6 38.9001 61.2 38.9001H61C59.9 38.5001 53.7 34.1001 52.9 33.4001C52.9 33.0001 52.5 32.7001 52.5 32.3001C51.4 32.3001 50.7 31.9001 50.3 31.2001C49.9 30.5001 50.7 29.7001 51.4 29.4001C51 29.0001 50.7 28.3001 50.7 27.9001C50.7 26.8001 53.3 19.5001 53.6 18.7001C53.6 18.3001 54.3 18.3001 54.7 18.0001C54.3 17.3001 54.3 16.2001 55.1 15.8001C55.5 15.4001 56.6 15.4001 57.3 16.2001C57.7 15.8001 58 15.1001 58.4 15.1001C59.1 14.7001 61.7 14.7001 62.8 14.7001C64.6 14.7001 67.6 14.7001 68.3 15.1001C68.7 15.1001 69 15.5001 69.4 16.2001C70.1 15.5001 71.2 15.5001 71.6 15.8001C72 16.2001 72.3 16.9001 72 18.0001C72.7 18.0001 73.1 18.4001 73.5 18.7001C74.2 19.4001 76.4 26.8001 76.4 27.9001C76.4 28.3001 76 28.6001 75.7 29.4001C77.1 28.6001 77.8 29.4001 77.5 30.1001ZM114.2 40.0001L100.2 37.1001V38.6001H98H95.8V37.1001L88.1 38.2001H87.7L81.8 38.9001V18.3001L82.9 17.9001V14.6001L84.7 16.1001C86.2 17.2001 86.9 17.6001 87.3 17.6001C88 17.6001 88.4 17.2001 89.1 16.1001C89.1 15.7001 89.5 15.7001 89.5 15.4001C90.6 14.3001 91.3 13.9001 92.8 13.9001C94.3 13.9001 95.7 14.6001 97.6 16.1001C99.4 14.6001 100.9 13.9001 102.4 13.9001C103.5 13.9001 104.6 14.3001 105.7 15.4001C105.7 15.8001 106.1 15.8001 106.1 16.1001C106.8 16.8001 107.2 17.6001 107.9 17.6001C108.3 17.6001 109.4 17.2001 110.5 16.1001L112.7 14.6001V17.9001L113.8 18.3001V40.0001H114.2Z" fill="#E30C00"/>
    <path d="M97.7 100.2C99.5 101.3 101.7 102.8 101.7 105C101.7 107.2 99.9 108.3 97.7 109.4C96.6 109.8 95.5 110.5 94.4 111.2C92.6 112.3 86.3 117.1 86.7 123.3C87.1 125.5 87.8 126.6 90 127.7L89.6 124.8C89.6 121.9 92.2 119.7 95.8 117.1C97.3 116 99.5 114.5 101.7 112.7C115.3 101.7 116.8 87.7001 112.7 81.5001C112.3 80.8001 111.2 79.7001 110.5 78.6001C109.4 90.7001 103.2 96.9001 97.7 100.2Z" fill="#E30C00"/>
    <path d="M17.6 78.6001C16.9 79.7001 16.1 80.8001 15.4 81.5001C11.4 87.7001 12.8 101.7 26.4 112.7C29 114.5 30.8 116 32.3 117.1C36 119.7 38.5 121.9 38.5 124.8L38.1 127.7C40.3 126.6 41 125.5 41.4 123.3C42.1 117.1 35.9 112.3 33.7 111.2C32.2 110.5 31.1 109.7 30.4 109.4C28.6 108.3 26.4 107.6 26.4 105C26.4 102.8 28.2 101.3 30.4 100.2C25.3 96.9001 18.7 90.7001 17.6 78.6001Z" fill="#E30C00"/>
    <path d="M157.9 36V15.8H165.6V36C165.6 41.9 168.5 44.8 172.9 44.8C177.7 44.8 180.2 41.9 180.2 36.4V15.8H187.9V36C187.9 46.6 182 52.2001 172.8 52.2001C163.8 51.8001 157.9 46.2 157.9 36Z" fill="black"/>
    <path d="M199 15.4H206L222.2 37.4V15.4H229.9V51H223.3L206.4 28.2V51H198.7V15.4H199Z" fill="black"/>
    <path d="M241.2 15.4H248.9V51H241.2V15.4Z" fill="black"/>
    <path d="M257.8 15.4H266.2L275.4 40.4L284.6 15.4H292.7L278.7 51.4H272.1L257.8 15.4Z" fill="black"/>
    <path d="M300.7 15.4H326.8V22.4H308.1V29.7H324.6V36.7H308.1V44H326.8V51H300.4V15.4H300.7Z" fill="black"/>
    <path d="M338.9 15.4H354.7C359.1 15.4 362.4 16.5 365 19.1C366.8 20.9 367.9 23.9 367.9 27.2C367.9 33.1 365 36.7 360.6 38.2L369 51H360.2L352.9 39.6H347V51H339.3V15.4H338.9ZM354.3 33C358 33 360.2 30.8 360.2 27.9C360.2 24.6 358 22.8 354.3 22.8H346.6V33H354.3Z" fill="black"/>
    <path d="M377.5 45.9L381.9 40.4C385.2 43 388.1 44.8 392.2 44.8C395.5 44.8 397.3 43.7 397.3 41.5C397.3 39.7 396.2 38.6 390.3 37.1C383.3 35.3 378.9 33.4 378.9 26.1C378.9 19.5 384 15.5 391 15.5C396.1 15.5 400.5 17 403.9 19.9L399.9 25.8C397 23.6 393.7 22.1 390.7 22.1C387.7 22.1 386.3 23.6 386.3 25C386.3 27.2 387.8 27.9 393.6 29.8C400.6 31.6 404.6 34.2 404.6 40.4C404.6 47.4 399.5 51.4 391.7 51.4C386.7 51.8 381.5 49.9 377.5 45.9Z" fill="black"/>
    <path d="M415.7 15.4H423.4V51H415.7V15.4Z" fill="black"/>
    <path d="M443.2 22.7H432.6V15.4H461.2V22.7H450.6V51H443.3V22.7H443.2Z" fill="black"/>
    <path d="M481 37.1L467.8 15.4H476.6L485 29.7L493.4 15.4H502.2L489 36.7V51H481.3V37H481V37.1Z" fill="black"/>
    <path d="M526.2 33.4C526.2 23.1 533.9 15 544.6 15C555.3 15 563 23.1 563 33.4C563 43.7 555.3 51.8 544.6 51.8C533.9 51.8 526.2 43.7 526.2 33.4ZM555.2 33.4C555.2 27.2 550.8 22 544.6 22C538.4 22 534.3 27.1 534.3 33C534.3 39.2 538.7 44.4 544.9 44.4C550.8 44.4 555.2 39.6 555.2 33.4Z" fill="black"/>
    <path d="M571.4 15.4H597.8V22.4H579.1V30.1H595.6V37.1H579.1V51.1H571.4V15.4V15.4Z" fill="black"/>
    <path d="M186.9 65.3C167.8 65.3 153.5 80 153.5 99.8V100.2C153.5 109.4 156.8 118.2 162.7 124.4C168.9 130.6 177 134.3 186.2 134.3C196.8 134.3 204.6 131 212.3 122.5L205.3 115.2C199.8 120.3 194.7 123.6 186.6 123.6C174.5 123.6 164.9 113 164.9 99.4001V99.0001C164.9 85.4001 174.1 75.1001 186.6 75.1001C193.2 75.1001 198.7 77.7001 205 83.2001L212 74.8C206.7 70.5 199.8 65.3 186.9 65.3Z" fill="black"/>
    <path d="M271.7 132.9H283.8L255.5 66.1001H244.1L215.8 132.9H227.6L234.2 116.7H265.4L271.7 132.9ZM261.4 107.2H238.3L250.1 79.3001L261.4 107.2Z" fill="black"/>
    <path d="M461.9 132.9H474L445.7 66.1001H434.3L406 132.9H417.8L424.4 116.7H455.6L461.9 132.9ZM451.3 107.2H428.2L440 79.3001L451.3 107.2Z" fill="black"/>
    <path d="M290.8 132.9H336.7V122.6H302.6V66.4H290.8V132.9V132.9Z" fill="black"/>
    <path d="M372 65.3C353.3 65.3 338.2 80.4 338.2 99.8V100.2C338.2 120.4 352.5 134.3 372.3 134.3C384.8 134.3 393.6 128.8 400.2 124V96.1001H373.4V105.6H388.5V118.5C384.1 121.8 378.6 123.6 372.7 123.6C359.5 123.6 350.3 113.7 350.3 99.4001V99.0001C350.3 85.8001 359.8 75.1001 371.6 75.1001C380 75.1001 384.8 78.0001 390 82.1001L397 73.7001C389.2 67.9001 381.9 65.3 372 65.3Z" fill="black"/>
    <path d="M523.6 132.9H536.5L518.9 107.6H519.3C529.2 104.7 535.8 97.7001 535.8 87.4001V87.0001C535.8 81.5001 532.9 76.4001 529.2 72.7001C524.8 68.3001 518.6 66.1001 510.5 66.1001H481V132.6H492.8V109H507.5L523.6 132.9ZM510 99.9001H493.1V76.8001H510C518.8 76.8001 523.6 80.8001 523.6 88.2001V88.6001C523.6 95.5001 518.5 99.9001 510 99.9001Z" fill="black"/>
    <path d="M561.8 132.9H574.3V107.2L600 66.4H587.1L568.4 96.5L550 66.4H536.8L561.8 107.2V132.9Z" fill="black"/>
</svg>
