<svg width="397" height="99" viewBox="0 0 397 99" fill="none"
    xmlns="http://www.w3.org/2000/svg">
    <path d="M6.922 74.783C7.62803 75.9122 8.38308 77.0099 9.185 78.073C16.043 86.966 24.807 93.14 34.64 97.23C35.648 97.66 37.057 98.01 38.048 98.372C39.018 98.019 40.374 97.676 41.376 97.259L42.041 97.037C42.673 96.743 43.253 96.447 43.861 96.15C47.0039 94.7094 50.0289 93.0242 52.908 91.11C53.018 91.035 53.123 90.96 53.234 90.882C54.0341 90.3467 54.822 89.7932 55.597 89.222C59.825 86.104 63.475 82.535 66.917 78.076C67.8482 76.829 68.7173 75.5368 69.521 74.204L70.316 72.854C70.362 72.774 70.396 72.689 70.44 72.614C70.9643 71.6539 71.4514 70.6738 71.9 69.676C72.16 69.102 72.417 68.526 72.648 67.939C74.88 62.402 75.976 56.419 75.924 50.106C75.924 50.106 75.896 16.813 75.784 5.09604C75.052 4.88604 74.272 4.69804 73.511 4.50204C72.253 4.13204 70.601 3.75404 68.711 3.38004C60.962 1.75804 52.35 0.738038 44.46 0.280038L44.417 0.272038C44.417 0.272038 40.233 -0.0239615 36.627 0.0170385L36.634 3.8474e-05C25.157 -0.0499615 11.057 2.00404 0.315004 5.09004C0.202004 16.81 0.175004 50.102 0.175004 50.102C0.106004 58.33 1.97 65.992 5.78 72.85C5.783 72.852 6.357 73.904 6.922 74.783Z" fill="white"/>
    <path d="M152.898 21.263H150.422C150.102 9.12303 145.22 3.51303 133.912 3.51303C117.648 3.51303 115.417 17.63 115.417 31.415C115.417 43.055 116.739 59.405 132.507 59.405C143.98 59.405 150.024 51.507 150.337 39.755H152.813V56.1C145.385 60.146 138.943 61.963 132.257 61.963C114.341 61.963 104.517 49.165 104.517 31.415C104.517 13.83 115.497 0.952026 133.413 0.952026C139.935 0.952026 146.867 2.93203 152.896 5.73903V21.262H152.898V21.263ZM171.635 37.113C175.02 36.289 177.578 35.543 180.717 34.47V31.002C180.717 25.307 179.724 21.592 174.277 21.592C170.152 21.592 167.627 22.828 167.627 28.278C167.627 31.498 166.391 33.002 163.5 33.002C161.357 33.002 159.417 31.992 159.417 29.515C159.417 21.591 167.427 19.525 174.027 19.525C186.663 19.525 189.137 24.728 189.137 31.58V52.55C189.137 58.826 191.035 58.91 195.659 58.91V60.97H189.384C184.76 60.97 181.54 60.56 180.219 55.607C177.001 60.557 172.953 61.963 167.506 61.963C158.921 61.963 156.196 57.503 156.196 49.989C156.196 43.139 159.742 39.916 166.679 38.266L171.634 37.112L171.635 37.113ZM172.13 39.341C167.178 40.829 165.61 42.644 165.61 49.911C165.61 54.947 166.517 59.405 170.974 59.405C178.157 59.405 180.714 50.323 180.714 44.708V36.78L172.13 39.34V39.341Z" fill="black"/>
    <path d="M201.51 22.5831H194.41V20.5201H209.93V30.0131H210.096C211.828 25.2231 215.378 19.5281 221.652 19.5281C226.522 19.5281 229.167 22.6631 229.167 27.4541C229.167 30.7591 227.847 32.9841 224.874 32.9841C222.646 32.9841 220.748 31.3341 220.748 28.7761C220.748 27.6201 221.158 25.6361 221.158 24.5661C221.158 23.4091 220.33 22.5001 219.091 22.5001C214.799 22.5001 209.929 31.9101 209.929 40.8281V58.9131H216.786V60.9731H194.526V58.9131H201.508V22.5831H201.512H201.51Z" fill="black"/>
    <path d="M226.74 1.94607H242.26V58.9131H249.36V60.9731H226.743V58.9131H233.839V4.01007H226.742V1.94507" fill="black"/>
    <path d="M256.852 38.187V38.847C256.852 50.404 258.42 59.407 269.067 59.407C276.577 59.407 280.377 54.783 282.527 48.837L284.339 49.497C280.789 59.077 275.175 61.967 266.092 61.967C253.708 61.967 247.436 52.389 247.436 40.747C247.436 29.604 254.616 19.53 266.671 19.53C277.238 19.53 284.419 27.124 284.419 38.19H256.851V38.187H256.852ZM274.515 35.627C274.515 29.683 274.185 21.593 265.77 21.593C258.665 21.593 256.852 30.509 256.852 35.626H274.515V35.627ZM284.524 20.52H290.222V9.54004H298.642V20.52H307.804V22.583H298.641V51.313C298.641 56.187 299.631 58.496 303.016 58.496C306.153 58.496 307.479 56.186 308.794 53.541L310.692 54.371L309.954 55.858C308.302 58.828 305.491 61.471 299.552 61.471C290.962 61.471 290.224 56.601 290.224 51.316V22.583H284.526V20.52H284.524Z" fill="black"/>
    <path d="M329.028 19.5281C343.72 19.5281 348.263 32.4081 348.263 40.7461C348.263 49.0861 343.72 61.9661 329.028 61.9661C314.328 61.9661 309.788 49.0861 309.788 40.7461C309.788 32.4061 314.33 19.5281 329.028 19.5281V19.5281ZM329.028 59.9021C338.768 59.9021 338.85 49.4121 338.85 40.7461C338.85 32.0781 338.77 21.5931 329.028 21.5931C319.285 21.5931 319.202 32.0761 319.202 40.7461C319.202 49.4161 319.285 59.9021 329.028 59.9021Z" fill="black"/>
    <path d="M355.298 58.9131V22.5831H348.202V20.5201H363.722V28.2781H363.887C366.443 22.6631 371.397 19.5281 378.17 19.5281C386.26 19.5281 390.3 22.9151 390.3 31.1701V58.9131H396.826V60.9731H375.36V58.9131H381.88V31.5831C381.88 27.0411 381.057 22.5001 375.278 22.5001C367.598 22.5001 363.722 29.7651 363.722 37.4401V58.9131H370.242V60.9731H348.202V58.9131H355.298ZM128.798 90.0261C128.798 94.3021 125.926 97.4741 120.411 97.4741C114.866 97.4741 111.997 94.3021 111.997 90.0261V78.8981H116.387V89.8741C116.387 92.0981 118.077 93.7891 120.412 93.7891C122.719 93.7891 124.409 92.0991 124.409 89.8731V78.8981H128.799V90.0261H128.798ZM145.513 78.8981H151.478L159.95 91.4881H160.007V78.8981H164.397V97.0101H158.657L149.959 84.1151H149.903V97.0101H145.513V78.9001V78.8981ZM181.2 78.8981H185.587V97.0101H181.2V78.8981ZM200.14 78.8981H205.146L210.072 90.7701H210.126L215.136 78.8981H219.841L211.623 97.0111H208.103L200.14 78.8981ZM232.917 78.8981H246.459V82.5831H237.312V85.9591H245.952V89.6421H237.312V93.3271H246.966V97.0071H232.916V78.9001L232.917 78.8981ZM263.426 78.8981H271.141C275.223 78.8981 278.653 80.1761 278.653 84.4001C278.653 86.9301 277.163 88.9001 274.349 89.3631L279.414 97.0111H274.154L269.984 89.7731H267.818V97.0131H263.428V78.8971L263.426 78.8981ZM267.816 86.3961H270.404C272.004 86.3961 274.089 86.3461 274.089 84.3741C274.089 82.5571 272.284 82.2761 270.684 82.2761H267.814V86.3961H267.816ZM305.443 83.3221C304.739 82.5071 303.333 82.1241 302.263 82.1241C301.028 82.1241 299.303 82.6341 299.303 83.9871C299.303 87.2871 308.485 85.1631 308.485 91.5111C308.485 95.5531 304.909 97.4731 300.8 97.4731C298.24 97.4731 295.99 96.7811 294.104 95.1971L297.23 92.0711C298.126 93.1491 299.59 93.7861 301.057 93.7861C302.491 93.7861 304.091 93.1761 304.091 91.8921C304.091 88.5691 294.751 90.3621 294.751 84.3241C294.751 80.4611 298.441 78.4391 302.351 78.4391C304.601 78.4391 306.766 78.9741 308.458 80.3291L305.444 83.3241L305.443 83.3221ZM324.774 78.8981H329.167V97.0101H324.774V78.8981ZM349.54 82.4301H343.857V78.8981H359.617V82.4301H353.933V97.0101H349.541V82.4301H349.54ZM379.117 89.2871L371.633 78.8971H377.093L381.313 85.6771L385.789 78.8971H390.997L383.507 89.2871V97.0111H379.117V89.2881" fill="black"/>
    <path d="M38.048 98.37L42.038 97.037C52.938 91.98 60.285 86.665 66.913 78.074C73.191 69.748 75.607 61.252 75.923 50.102C75.923 50.1 75.773 14.102 75.707 5.33C71.847 3.122 48.6 -0.00200116 38.043 0.0899988" fill="white"/>
    <path d="M63.107 50.4151L62.154 50.1021L61.948 49.1071L60.311 48.4671C55.851 46.9171 51.279 45.6671 46.561 45.2171C43.518 44.9271 40.441 45.1541 38.103 46.6591C35.775 45.1531 32.699 44.9271 29.658 45.2161C24.936 45.6661 20.355 46.9161 15.89 48.4661L14.25 49.1061L14.04 50.1011L13.085 50.4141L7.74001 72.7281C10.752 72.1721 16.957 71.2721 20.396 70.9151C24.674 70.4351 28.316 70.2571 33.148 70.4171C33.126 70.6131 33.07 70.7701 33.191 70.9651C33.751 71.5001 34.879 71.4501 35.779 71.5301C36.716 71.5701 37.131 71.5801 38.051 71.5901C38.973 71.5981 39.391 71.5671 40.325 71.5301C41.227 71.4501 42.355 71.5001 42.915 70.9651C43.035 70.7701 42.981 70.6131 42.96 70.4171C47.79 70.2571 51.435 70.4351 55.71 70.9151C59.146 71.2721 65.346 72.1721 68.36 72.7281L63.107 50.4151V50.4151ZM37.454 67.2101C34.967 65.8761 31.864 65.6801 28.844 65.8501C22.387 66.2601 16.584 67.6851 10.504 69.7521L15.157 49.5721C19.824 47.7961 24.727 46.3851 29.802 45.9571C33.124 45.7521 35.985 46.1741 37.628 47.3541L37.454 67.2091V67.2101ZM47.28 65.8501C44.26 65.6801 41.157 65.8761 38.663 67.2101L38.573 47.3541C40.22 46.1741 43.083 45.7541 46.403 45.9571C51.476 46.3851 56.376 47.7971 61.037 49.5721L65.604 69.7521C59.537 67.6851 53.737 66.2621 47.28 65.8501V65.8501Z" fill="black"/>
    <path d="M39.496 0.0540385L44.796 10.709L44.811 10.745C44.831 10.79 44.903 10.935 45.091 11.265C45.271 11.197 45.441 11.127 45.611 11.058L54.491 6.00804C54.491 6.00804 50.661 24.813 50.286 26.646C51.984 24.863 58.858 17.628 58.858 17.628C58.858 17.628 61.781 23.188 62.466 24.488L63.408 24.331L62.94 24.409L73.474 21.514L70.122 33.336C70.122 33.336 70.076 33.414 70.059 33.438H70.066C70.066 33.438 70.026 33.558 70.023 33.576L70.056 33.531L69.656 34.737C69.606 34.887 69.49 35.264 69.458 35.36L74.85 38.143L63.64 48.077C63.69 48.312 63.748 48.593 63.763 48.657L64.687 48.96L70.307 72.85C74.121 66 75.984 58.33 75.917 50.104C75.917 50.104 75.887 16.81 75.777 5.09404C65.048 2.00604 50.967 0.392038 39.496 0.0530385V0.0540385ZM38.048 98.37C39.041 98.01 40.448 97.657 41.458 97.228C51.293 93.138 60.058 86.965 66.913 78.074C67.7132 77.0103 68.4672 75.9126 69.173 74.784L68.017 74.57C64.92 74 58.727 73.113 55.5 72.774C55.146 72.734 54.8 72.702 54.46 72.664C54.387 72.659 54.317 72.65 54.248 72.646C53.902 72.606 53.561 72.574 53.224 72.543H53.211C52.864 72.513 52.521 72.485 52.181 72.459C52.153 72.459 52.125 72.453 52.099 72.453C51.749 72.423 51.403 72.403 51.059 72.383C48.8005 72.2432 46.5372 72.1998 44.275 72.253L44.21 72.321C43.254 73.229 41.928 73.306 40.96 73.361L40.42 73.401L39.872 73.427L38.035 73.467L35.702 73.407L35.139 73.364C34.171 73.31 32.842 73.232 31.889 72.321C31.889 72.321 31.853 72.286 31.827 72.258C29.9008 72.2122 27.9736 72.2342 26.049 72.324L24.742 72.4C24.736 72.4 24.727 72.405 24.719 72.405C24.506 72.418 24.295 72.431 24.079 72.448C24.066 72.448 24.051 72.452 24.036 72.452C23.826 72.47 23.623 72.487 23.41 72.502C23.378 72.502 23.346 72.507 23.31 72.512C23.12 72.528 22.928 72.542 22.733 72.557C22.67 72.564 22.607 72.569 22.546 72.577C22.376 72.595 22.209 72.607 22.036 72.623C21.928 72.633 21.816 72.645 21.709 72.658L21.323 72.698C21.083 72.724 20.836 72.752 20.588 72.774C17.368 73.114 11.172 74 8.078 74.57L6.92 74.78C7.62602 75.9098 8.38107 77.0082 9.183 78.072C16.041 86.962 24.805 93.137 34.637 97.226C35.645 97.656 37.054 98.006 38.045 98.368L38.048 98.37ZM36.633 3.8474e-05C25.157 -0.0499615 11.057 2.00404 0.315004 5.09004C0.202004 16.81 0.175004 50.102 0.175004 50.102C0.106004 58.33 1.97 65.992 5.78 72.85L11.5 48.96C11.5 48.96 12.304 48.698 12.426 48.657C12.436 48.604 12.486 48.372 12.533 48.154L1.243 38.146C1.243 38.146 5.998 35.693 6.635 35.363C6.605 35.267 6.475 34.865 6.411 34.659L6.108 33.739L6.078 33.699L2.625 21.512L13.16 24.41L12.704 24.333C12.796 24.35 13.522 24.467 13.634 24.489C14.317 23.186 17.241 17.627 17.241 17.627C17.241 17.627 24.111 24.853 25.811 26.645L21.606 6.01004C21.606 6.01004 30.251 10.922 30.488 11.06C30.658 11.128 30.828 11.198 31.005 11.265C31.2 10.92 31.268 10.785 31.283 10.755L31.3 10.713L36.01 1.24304L36.63 3.8474e-05" fill="black"/>
    <path d="M8.99 35.7351C8.952 36.2951 8.428 36.9301 8.128 37.1521L5.235 38.6421L14.609 46.9541L15.236 46.7111L15.269 46.6991C20.664 44.8251 25.179 43.7591 29.475 43.3531C33.008 43.0161 35.84 43.4011 38.099 44.5181C40.364 43.4011 43.201 43.0161 46.732 43.3531C51.025 43.7631 55.534 44.8251 60.922 46.6991L60.952 46.7121L61.512 46.9321L70.858 38.6451L67.965 37.1551C67.665 36.9301 67.139 36.2951 67.102 35.7371C67.094 35.5721 67.072 35.5891 67.057 35.6371C67.057 35.6221 67.06 35.6091 67.062 35.5911C67.117 35.2611 67.062 35.3291 67.364 34.4341C67.34 34.4581 67.914 32.7311 67.93 32.7181L70.182 24.7781L63.538 26.6051C63.176 26.6291 62.841 26.7551 62.483 26.8081C61.859 26.8941 61.357 26.9781 60.987 26.5711L58.321 21.4991L50.736 29.4791L50.133 30.0751C48.857 31.0421 47.053 29.9991 47.843 27.2401L51.259 10.4601L46.605 13.1071C45.978 13.3671 45.435 13.5801 44.575 13.8521C44.291 13.9421 44.005 13.7591 43.815 13.5781C43.485 13.0351 42.923 12.1111 42.732 11.6881L38.042 2.25806L33.349 11.6881C33.159 12.1111 32.602 13.0381 32.271 13.5781C32.081 13.7581 31.795 13.9411 31.511 13.8521C30.8225 13.6371 30.1451 13.3885 29.481 13.1071L24.828 10.4591L28.243 27.2361C29.03 29.9961 27.228 31.0381 25.953 30.0711L25.353 29.4751L17.771 21.4921L15.106 26.5641C14.733 26.9741 14.231 26.8881 13.611 26.8011C13.253 26.7511 12.921 26.6231 12.557 26.5991L5.91 24.7731L8.16 32.7131C8.175 32.7271 8.75 34.4531 8.725 34.4291C9.025 35.3251 8.971 35.2561 9.025 35.5861L9.032 35.6231C9.017 35.5831 8.997 35.5771 8.988 35.7331L8.99 35.7351ZM43.75 13.5051C43.56 13.3051 43.51 13.1591 43.75 13.5051V13.5051ZM32.35 13.5051C32.59 13.1611 32.54 13.3051 32.35 13.5051V13.5051Z" fill="#AA1F23"/>
    <path d="M34.9 52.285C32.246 51.159 29.167 51.507 26.365 51.991C23.055 52.566 21.517 52.984 17.872 54.205L18.076 53.297C18.076 53.297 22.666 51.507 28.87 50.779C28.87 50.779 32.435 50.331 34.9 51.423V52.286V52.285ZM34.9 56.296C32.246 55.174 29.167 55.52 26.365 56.002C23.055 56.58 20.683 56.946 16.928 58.192L17.133 57.285C17.133 57.285 22.667 55.52 28.87 54.795C28.87 54.795 32.435 54.341 34.9 55.437V56.297V56.296ZM34.9 60.37C32.246 59.243 29.167 59.59 26.365 60.072C23.055 60.646 19.691 61.532 15.889 62.807L16.092 61.897C16.092 61.897 22.666 59.589 28.869 58.863C28.869 58.863 32.434 58.413 34.899 59.503V60.37H34.9ZM41.102 52.285C43.757 51.159 46.835 51.507 49.637 51.991C52.947 52.566 54.485 52.984 58.133 54.205L57.928 53.297C57.928 53.297 53.338 51.507 47.135 50.779C47.135 50.779 43.57 50.331 41.105 51.423V52.286H41.1L41.102 52.285ZM41.102 56.296C43.757 55.174 46.835 55.52 49.637 56.002C52.947 56.58 55.32 56.946 59.077 58.192L58.87 57.287C58.87 57.287 53.335 55.522 47.135 54.797C47.135 54.797 43.57 54.343 41.105 55.439V56.295H41.1L41.102 56.296ZM41.102 60.37C43.757 59.243 46.835 59.59 49.637 60.072C52.947 60.646 56.313 61.532 60.113 62.807L59.911 61.897C59.911 61.897 53.338 59.589 47.136 58.863C47.136 58.863 43.571 58.413 41.106 59.503V60.37H41.1H41.102Z" fill="black"/>
</svg>
