<svg width="321" height="86" viewBox="0 0 321 86" fill="none"
    xmlns="http://www.w3.org/2000/svg">
    <path d="M120.57 76.6374C120.399 75.2562 120.284 73.5203 120.284 70.6921C118.029 74.614 114.277 76.9333 110.008 76.9333C106.312 76.9333 103.482 75.1416 102.329 72.0801C101.753 70.5202 101.521 68.1546 101.521 63.1297V53.6062C101.521 50.6025 101.29 49.3942 100.656 48.8734C100.305 48.527 99.7896 48.4062 98.688 48.3552C97.9407 48.3552 97.9407 48.3552 97.6489 48.3552V47.0833L106.597 46.5088C106.312 51.8724 106.256 53.2614 106.256 57.2448V62.2666C106.256 68.0958 106.368 69.6562 107.063 71.6754C107.755 73.8109 109.372 74.9062 111.737 74.9062C114.912 74.9062 117.742 72.8281 119.245 69.3068C120.107 67.3473 120.284 66.074 120.284 62.4968V53.6062C120.284 50.5464 120.107 49.4489 119.415 48.9317C119.066 48.5844 118.49 48.4062 117.451 48.3552H116.411V47.0833L125.361 46.5088C125.188 50.8353 125.075 54.6442 125.075 57.2448V68.1546C125.075 73.9307 125.596 74.9671 128.592 74.9671H128.998V76.2338L120.57 76.6374" fill="#231F20"/>
    <path d="M147.701 69.1364C150.009 73.2395 153.649 75.4281 158.268 75.4281C162.887 75.4281 166.524 73.2395 168.831 69.1364C170.908 65.3823 171.947 60.876 171.947 55.2849C171.947 49.6817 170.908 45.1765 168.831 41.4255C166.524 37.2729 162.887 35.1349 158.268 35.1349C153.649 35.1349 150.009 37.3292 147.701 41.4255C145.624 45.2353 144.588 49.7927 144.588 55.2849C144.588 60.7615 145.624 65.2667 147.701 69.1364V69.1364ZM143.548 40.1599C147.008 35.8249 152.032 33.5792 158.268 33.5792C164.56 33.5792 169.467 35.7692 172.984 40.1599C176.16 44.1948 177.78 49.2156 177.78 55.2849C177.78 61.3432 176.16 66.4229 172.984 70.3448C169.407 74.7927 164.56 76.9828 158.268 76.9828C152.032 76.9828 146.953 74.6755 143.548 70.3448C140.372 66.3083 138.752 61.2859 138.752 55.2849C138.752 49.2156 140.313 44.252 143.548 40.1599" fill="#231F20"/>
    <path d="M190.887 68.041C190.887 71.441 191.053 72.9473 191.636 73.7536C192.215 74.5609 193.135 74.9671 194.461 74.9671C195.729 74.9671 196.827 74.6755 198.095 73.9307L198.62 75.4281C196.715 76.4135 194.868 76.8708 192.787 76.8708C189.959 76.8708 187.823 75.889 186.839 74.0437C186.203 72.8864 186.036 71.6182 186.036 67.3473V48.6426H182.401V47.3145C185.803 47.0218 187.535 44.7754 188.399 39.351L191.053 38.5932C190.944 41.0781 190.887 43.2729 190.887 47.0833H197.813V48.6426H190.887V68.041" fill="#231F20"/>
    <path d="M209.919 68.041C209.919 71.441 210.085 72.9473 210.664 73.7536C211.245 74.5609 212.165 74.9671 213.496 74.9671C214.764 74.9671 215.863 74.6755 217.131 73.9307L217.649 75.4281C215.748 76.4135 213.901 76.8708 211.823 76.8708C208.991 76.8708 206.852 75.889 205.876 74.0437C205.237 72.8864 205.065 71.6182 205.065 67.3473V48.6426H201.431V47.3145C204.835 47.0218 206.565 44.7754 207.431 39.351L210.085 38.5932C209.975 41.0781 209.919 43.2729 209.919 47.0833H216.847V48.6426H209.919V68.041" fill="#231F20"/>
    <path d="M240.108 60.1312C234.971 60.5896 232.717 61.0557 230.408 62.2057C227.872 63.4265 226.541 65.7328 226.541 68.7901C226.541 72.4265 228.501 74.9062 231.392 74.9062C234.336 74.9062 237.337 73.1765 238.783 70.6921C239.704 69.0801 240.108 66.6546 240.108 62.8432V60.1312ZM248.481 76.1223C246.227 76.4682 243.685 76.6963 242.532 76.6963C240.803 76.6963 240.341 75.7729 240.108 71.9082C239.185 72.9473 238.435 73.5781 237.281 74.389C234.743 76.2338 232.717 76.8708 229.776 76.8708C227.237 76.8708 225.327 76.2911 223.887 75.0843C222.327 73.6963 221.347 71.3864 221.347 68.9645C221.347 64.403 224.236 61.4568 229.835 60.1896C232.836 59.5 235.893 59.0896 240.108 58.8016V55.1666C240.108 52.5088 239.875 51.126 239.304 49.9166C238.545 48.4062 236.933 47.6634 234.568 47.6634C230.761 47.6634 228.792 49.3942 228.564 52.9724C228.501 54.1858 228.388 54.5869 227.928 54.9369C227.521 55.2286 226.773 55.3926 225.905 55.3926C223.947 55.3926 223.077 54.8744 223.077 53.6666C223.077 51.5817 224.579 49.5062 227.003 48.1234C229.196 46.9098 232.025 46.277 235.432 46.277C239.124 46.277 241.783 47.139 243.171 48.8145C244.324 50.251 244.844 52.1625 244.844 55.3396C244.844 55.5114 244.844 55.5114 244.727 61.1702L244.671 66.6546L244.613 69.3068C244.613 71.7338 244.897 73.8109 245.247 74.2781C245.595 74.7354 246.283 74.9062 248.481 74.9062V76.1223" fill="#231F20"/>
    <path d="M262.909 76.4682H259.909L252.752 52.5088C251.771 49.2156 251.077 48.5271 248.251 48.3552V47.0833H261.063V48.3552C258.293 48.4645 257.195 49.0464 257.195 50.4907C257.195 50.9505 257.369 51.8197 257.717 53.0271L262.909 71.1573L270.535 47.8369H272.899L280.232 71.1573L285.252 54.1859C285.717 52.7416 285.945 51.6401 285.945 50.8353C285.945 49.8511 285.368 49.1036 284.327 48.7563C283.636 48.5271 283.229 48.4645 281.728 48.3552V47.0833H293.045V48.3552C289.871 48.5271 288.776 49.626 287.389 54.0672L280.403 76.4682H277.46L270.247 54.2979L262.909 76.4682" fill="#231F20"/>
    <path d="M312.153 60.1312C307.019 60.5896 304.763 61.0557 302.457 62.2057C299.913 63.4265 298.585 65.7328 298.585 68.7901C298.585 72.4265 300.549 74.9062 303.439 74.9062C306.381 74.9062 309.385 73.1765 310.825 70.6921C311.751 69.0801 312.153 66.6546 312.153 62.8432V60.1312ZM320.524 76.1223C318.272 76.4682 315.737 76.6963 314.577 76.6963C312.848 76.6963 312.381 75.7729 312.153 71.9082C311.231 72.9473 310.48 73.5781 309.329 74.389C306.783 76.2338 304.763 76.8708 301.821 76.8708C299.284 76.8708 297.375 76.2911 295.932 75.0843C294.371 73.6963 293.393 71.3864 293.393 68.9645C293.393 64.403 296.28 61.4568 301.879 60.1896C304.879 59.5 307.939 59.0896 312.153 58.8016V55.1666C312.153 52.5088 311.923 51.126 311.344 49.9166C310.596 48.4062 308.98 47.6634 306.615 47.6634C302.8 47.6634 300.84 49.3942 300.607 52.9724C300.549 54.1858 300.436 54.5869 299.972 54.9369C299.575 55.2286 298.82 55.3926 297.949 55.3926C295.992 55.3926 295.127 54.8744 295.127 53.6666C295.127 51.5817 296.628 49.5062 299.051 48.1234C301.243 46.9098 304.073 46.277 307.477 46.277C311.172 46.277 313.831 47.139 315.217 48.8145C316.367 50.251 316.889 52.1625 316.889 55.3396C316.889 55.5114 316.889 55.5114 316.772 61.1702L316.719 66.6546L316.656 69.3068C316.656 71.7338 316.945 73.8109 317.297 74.2781C317.639 74.7354 318.332 74.9062 320.524 74.9062V76.1223" fill="#231F20"/>
    <path d="M19.3656 13.8369H20.5469L21.1115 12.8005C25.076 5.50107 32.1136 3.9724 37.3193 3.9724C42.5235 3.9724 49.5604 5.50107 53.5265 12.8005L54.0912 13.8369C54.0912 13.8369 59.3172 13.8369 61.6224 13.8369C61.6224 15.2208 61.6224 18.6859 61.6224 18.6859C61.6224 18.6859 68.2479 18.6859 70.6661 18.6859C70.6661 22.3083 70.6661 78.0958 70.6661 81.7224C67.0235 81.7224 7.61511 81.7224 3.97292 81.7224C3.97292 78.0958 3.97292 22.3083 3.97292 18.6859C6.39115 18.6859 13.0151 18.6859 13.0151 18.6859C13.0151 18.6859 13.0151 15.2208 13.0151 13.8369C15.3193 13.8369 19.3656 13.8369 19.3656 13.8369ZM18.2792 9.8656C16.636 9.8656 9.04323 9.8656 9.04323 9.8656C9.04323 9.8656 9.04323 13.3292 9.04323 14.712C6.62448 14.712 0 14.712 0 14.712L0 85.6937H74.6401V14.712C74.6401 14.712 68.0136 14.712 65.5943 14.712C65.5943 13.3292 65.5943 9.8656 65.5943 9.8656C65.5943 9.8656 58.0005 9.8656 56.3584 9.8656C52.4251 3.514 45.7369 -3.03028e-06 37.3193 -3.03028e-06C28.9005 -3.03028e-06 22.2115 3.514 18.2792 9.8656" fill="#231F20"/>
    <path d="M8.10989 71.0853H66.5235V73.2703H8.10989V71.0853" fill="#231F20"/>
    <path d="M6.39844 74.9062H68.2432V77.0906H6.39844V74.9062" fill="#231F20"/>
    <path d="M36.6473 23.1468L7.43959 33.6479L8.7823 37.3839C8.7823 37.3839 36.0364 27.588 37.3193 27.1276C38.6016 27.588 65.8547 37.3839 65.8547 37.3839L67.1984 33.6479L37.3193 22.9047L36.6473 23.1468" fill="#231F20"/>
    <path d="M57.4131 64.9396H51.1708L50.6292 42.6989C50.7948 42.7839 50.9792 42.8353 51.1765 42.8353C51.8604 42.8353 52.4183 42.2823 52.4183 41.5984C52.4183 41.264 52.2823 40.9593 52.0651 40.738H56.5229C56.3073 40.9593 56.1735 41.264 56.1735 41.5984C56.1735 42.2823 56.7287 42.8353 57.4084 42.8353C57.6047 42.8353 57.7891 42.7849 57.9552 42.7025L57.4131 64.9396ZM46.0927 64.9396H39.8563L39.314 42.7145C39.474 42.7901 39.6511 42.8353 39.8391 42.8353C40.5213 42.8353 41.0755 42.2823 41.0755 41.5984C41.0755 41.264 40.9407 40.9593 40.7245 40.738H45.188C44.9713 40.9593 44.8364 41.264 44.8364 41.5984C44.8364 42.2823 45.3932 42.8353 46.0708 42.8353C46.276 42.8353 46.4661 42.7807 46.636 42.6937L46.0927 64.9396ZM34.7855 64.9396H28.5251L27.9839 42.6973C28.1527 42.7839 28.3407 42.8353 28.5421 42.8353C29.2219 42.8353 29.7771 42.2823 29.7771 41.5984C29.7771 41.264 29.6427 40.9593 29.4271 40.738H33.8885C33.6724 40.9593 33.5375 41.264 33.5375 41.5984C33.5375 42.2823 34.0917 42.8353 34.7751 42.8353C34.9745 42.8353 35.1593 42.7839 35.3276 42.6973L34.7855 64.9396ZM23.4541 64.9396H17.2021L16.6599 42.6948C16.8297 42.7823 17.0183 42.8353 17.2203 42.8353C17.9027 42.8353 18.4573 42.2823 18.4573 41.5984C18.4573 41.264 18.3224 40.9593 18.1063 40.738H22.5421C22.326 40.9593 22.1901 41.264 22.1901 41.5984C22.1901 42.2823 22.7489 42.8353 23.4303 42.8353C23.6333 42.8353 23.8213 42.7823 23.9921 42.6937L23.4541 64.9396ZM62.4844 64.9396L61.9391 42.6833C62.1115 42.7771 62.3052 42.8353 62.5145 42.8353C63.1989 42.8353 63.7541 42.2823 63.7541 41.5984C63.7541 41.264 63.6193 40.9593 63.4031 40.738H64.4016V38.5505H10.2375V40.738H11.2266C11.0099 40.9593 10.8745 41.264 10.8745 41.5984C10.8745 42.2823 11.4292 42.8353 12.1193 42.8353C12.3177 42.8353 12.5026 42.7839 12.6698 42.6973L12.1344 64.9396H10.0802V68.5801H64.5459V64.9396H62.4844" fill="#231F20"/>
</svg>
