<?xml version="1.0" encoding="UTF-8" standalone="no"?>
<svg
   xmlns:dc="http://purl.org/dc/elements/1.1/"
   xmlns:cc="http://creativecommons.org/ns#"
   xmlns:rdf="http://www.w3.org/1999/02/22-rdf-syntax-ns#"
   xmlns:svg="http://www.w3.org/2000/svg"
   xmlns="http://www.w3.org/2000/svg"
   xmlns:sodipodi="http://sodipodi.sourceforge.net/DTD/sodipodi-0.dtd"
   xmlns:inkscape="http://www.inkscape.org/namespaces/inkscape"
   version="1.1"
   id="svg2"
   xml:space="preserve"
   width="320.51999"
   height="85.693336"
   viewBox="0 0 320.51999 85.693336"
   sodipodi:docname="uottawa_hor_black.eps"><metadata
     id="metadata8"><rdf:RDF><cc:Work
         rdf:about=""><dc:format>image/svg+xml</dc:format><dc:type
           rdf:resource="http://purl.org/dc/dcmitype/StillImage" /></cc:Work></rdf:RDF></metadata><defs
     id="defs6" /><sodipodi:namedview
     pagecolor="#ffffff"
     bordercolor="#666666"
     borderopacity="1"
     objecttolerance="10"
     gridtolerance="10"
     guidetolerance="10"
     inkscape:pageopacity="0"
     inkscape:pageshadow="2"
     inkscape:window-width="640"
     inkscape:window-height="480"
     id="namedview4" /><g
     id="g10"
     inkscape:groupmode="layer"
     inkscape:label="ink_ext_XXXXXX"
     transform="matrix(1.3333333,0,0,-1.3333333,0,85.693333)"><g
       id="g12"
       transform="scale(0.1)"><path
         d="m 904.273,67.9219 c -1.281,10.3594 -2.14,23.3789 -2.14,44.5901 -16.914,-29.4143 -45.059,-46.8089 -77.07,-46.8089 -27.723,0 -48.946,13.4375 -57.598,36.3989 -4.317,11.699 -6.055,29.441 -6.055,67.128 v 71.426 c 0,22.528 -1.738,31.59 -6.492,35.496 -2.629,2.598 -6.496,3.504 -14.758,3.887 -5.605,0 -5.605,0 -7.793,0 v 9.539 l 67.11,4.309 c -2.137,-40.227 -2.559,-50.645 -2.559,-80.52 v -37.664 c 0,-43.719 0.84,-55.422 6.055,-70.566 5.187,-16.0159 17.316,-24.2307 35.058,-24.2307 23.809,0 45.032,15.5859 56.309,41.9957 6.465,14.696 7.793,24.246 7.793,51.075 v 66.679 c 0,22.949 -1.328,31.18 -6.524,35.059 -2.617,2.605 -6.933,3.941 -14.726,4.324 h -7.801 v 9.539 l 67.129,4.309 c -1.301,-32.449 -2.148,-61.016 -2.148,-80.52 v -81.824 c 0,-43.3203 3.906,-51.0938 26.375,-51.0938 h 3.046 v -9.5 l -63.211,-3.0273"
         style="fill:#231f20;fill-opacity:1;fill-rule:nonzero;stroke:none"
         id="path14" /><path
         d="m 1107.76,124.18 c 17.31,-30.7737 44.61,-47.1878 79.25,-47.1878 34.64,0 61.92,16.4141 79.22,47.1878 15.58,28.156 23.37,61.953 23.37,103.886 0,42.024 -7.79,75.813 -23.37,103.946 -17.3,31.144 -44.58,47.179 -79.22,47.179 -34.64,0 -61.94,-16.457 -79.25,-47.179 -15.58,-28.574 -23.35,-62.754 -23.35,-103.946 0,-41.074 7.77,-74.863 23.35,-103.886 z m -31.15,217.324 c 25.95,32.512 63.63,49.355 110.4,49.355 47.19,0 83.99,-16.425 110.37,-49.355 23.82,-30.262 35.97,-67.918 35.97,-113.438 0,-45.437 -12.15,-83.535 -35.97,-112.949 -26.83,-33.3592 -63.18,-49.785 -110.37,-49.785 -46.77,0 -84.86,17.3047 -110.4,49.785 -23.82,30.274 -35.97,67.942 -35.97,112.949 0,45.52 11.71,82.747 35.97,113.438"
         style="fill:#231f20;fill-opacity:1;fill-rule:nonzero;stroke:none"
         id="path16" /><path
         d="m 1431.65,132.395 c 0,-25.5 1.25,-36.7973 5.62,-42.8442 4.34,-6.0547 11.24,-9.1016 21.19,-9.1016 9.51,0 17.74,2.1875 27.25,7.7735 l 3.94,-11.2305 c -14.29,-7.3906 -28.14,-10.8203 -43.75,-10.8203 -21.21,0 -37.23,7.3633 -44.61,21.2031 -4.77,8.6797 -6.02,18.191 -6.02,50.223 v 140.285 h -27.26 v 9.961 c 25.51,2.195 38.5,19.043 44.98,59.726 l 19.91,5.684 c -0.82,-18.637 -1.25,-35.098 -1.25,-63.676 h 51.95 v -11.695 h -51.95 V 132.395"
         style="fill:#231f20;fill-opacity:1;fill-rule:nonzero;stroke:none"
         id="path18" /><path
         d="m 1574.39,132.395 c 0,-25.5 1.25,-36.7973 5.59,-42.8442 4.36,-6.0547 11.26,-9.1016 21.24,-9.1016 9.51,0 17.75,2.1875 27.26,7.7735 l 3.89,-11.2305 c -14.26,-7.3906 -28.11,-10.8203 -43.7,-10.8203 -21.24,0 -37.28,7.3633 -44.6,21.2031 -4.79,8.6797 -6.08,18.191 -6.08,50.223 v 140.285 h -27.26 v 9.961 c 25.53,2.195 38.51,19.043 45,59.726 l 19.91,5.684 c -0.83,-18.637 -1.25,-35.098 -1.25,-63.676 h 51.96 v -11.695 h -51.96 V 132.395"
         style="fill:#231f20;fill-opacity:1;fill-rule:nonzero;stroke:none"
         id="path20" /><path
         d="m 1800.81,191.719 c -38.53,-3.438 -55.43,-6.934 -72.75,-15.559 -19.02,-9.156 -29,-26.453 -29,-49.383 0,-27.2731 14.7,-45.8707 36.38,-45.8707 22.08,0 44.59,12.9726 55.43,31.6057 6.91,12.09 9.94,30.281 9.94,58.867 z m 62.8,-119.9338 c -16.91,-2.5938 -35.97,-4.3047 -44.62,-4.3047 -12.97,0 -16.43,6.9258 -18.18,35.9105 -6.92,-7.7933 -12.55,-12.5238 -21.2,-18.6058 -19.04,-13.836 -34.23,-18.6133 -56.29,-18.6133 -19.04,0 -33.37,4.3476 -44.17,13.3984 -11.7,10.4102 -19.05,27.7347 -19.05,45.8987 0,34.211 21.67,56.308 63.66,65.812 22.51,5.172 45.44,8.25 77.05,10.41 v 27.262 c 0,19.934 -1.75,30.305 -6.03,39.375 -5.69,11.328 -17.78,16.899 -35.52,16.899 -28.55,0 -43.32,-12.981 -45.03,-39.817 -0.47,-9.101 -1.32,-12.109 -4.77,-14.734 -3.05,-2.188 -8.66,-3.418 -15.17,-3.418 -14.69,0 -21.21,3.887 -21.21,12.945 0,15.637 11.26,31.203 29.44,41.574 16.45,9.102 37.67,13.848 63.22,13.848 27.69,0 47.63,-6.465 58.04,-19.031 8.65,-10.774 12.55,-25.11 12.55,-48.938 0,-1.289 0,-1.289 -0.88,-43.73 l -0.42,-41.133 -0.43,-19.891 c 0,-18.203 2.13,-33.7809 4.75,-37.2848 2.61,-3.4297 7.77,-4.7109 24.26,-4.7109 v -9.1211"
         style="fill:#231f20;fill-opacity:1;fill-rule:nonzero;stroke:none"
         id="path22" /><path
         d="m 1971.82,69.1914 h -22.5 l -53.68,179.6956 c -7.36,24.699 -12.56,29.863 -33.76,31.152 v 9.539 h 96.09 v -9.539 c -20.77,-0.82 -29.01,-5.184 -29.01,-16.016 0,-3.449 1.31,-9.968 3.92,-19.023 l 38.94,-135.977 57.19,174.903 h 17.73 l 55,-174.903 37.65,127.286 c 3.49,10.832 5.2,19.093 5.2,25.129 0,7.382 -4.33,12.988 -12.14,15.593 -5.18,1.719 -8.23,2.188 -19.49,3.008 v 9.539 h 84.88 v -9.539 c -23.81,-1.289 -32.02,-9.531 -42.42,-42.84 l -52.4,-168.0076 h -22.07 l -54.1,166.2776 -55.03,-166.2776"
         style="fill:#231f20;fill-opacity:1;fill-rule:nonzero;stroke:none"
         id="path24" /><path
         d="m 2341.15,191.719 c -38.51,-3.438 -55.43,-6.934 -72.72,-15.559 -19.08,-9.156 -29.04,-26.453 -29.04,-49.383 0,-27.2731 14.73,-45.8707 36.4,-45.8707 22.07,0 44.6,12.9726 55.4,31.6057 6.94,12.09 9.96,30.281 9.96,58.867 z m 62.78,-119.9338 c -16.89,-2.5938 -35.9,-4.3047 -44.6,-4.3047 -12.97,0 -16.47,6.9258 -18.18,35.9105 -6.92,-7.7933 -12.55,-12.5238 -21.18,-18.6058 -19.1,-13.836 -34.25,-18.6133 -56.31,-18.6133 -19.03,0 -33.35,4.3476 -44.17,13.3984 -11.71,10.4102 -19.04,27.7347 -19.04,45.8987 0,34.211 21.65,56.308 63.64,65.812 22.5,5.172 45.45,8.25 77.06,10.41 v 27.262 c 0,19.934 -1.73,30.305 -6.07,39.375 -5.61,11.328 -17.73,16.899 -35.47,16.899 -28.61,0 -43.31,-12.981 -45.06,-39.817 -0.43,-9.101 -1.28,-12.109 -4.76,-14.734 -2.98,-2.188 -8.64,-3.418 -15.17,-3.418 -14.68,0 -21.17,3.887 -21.17,12.945 0,15.637 11.26,31.203 29.43,41.574 16.44,9.102 37.67,13.848 63.2,13.848 27.71,0 47.65,-6.465 58.05,-19.031 8.62,-10.774 12.54,-25.11 12.54,-48.938 0,-1.289 0,-1.289 -0.88,-43.73 l -0.4,-41.133 -0.47,-19.891 c 0,-18.203 2.17,-33.7809 4.81,-37.2848 2.56,-3.4297 7.76,-4.7109 24.2,-4.7109 v -9.1211"
         style="fill:#231f20;fill-opacity:1;fill-rule:nonzero;stroke:none"
         id="path26" /><path
         d="m 145.242,538.926 h 8.86 l 4.234,7.773 c 29.734,54.746 82.516,66.211 121.559,66.211 39.031,0 91.808,-11.465 121.554,-66.211 l 4.235,-7.773 c 0,0 39.195,0 56.484,0 0,-10.379 0,-36.367 0,-36.367 0,0 49.691,0 67.828,0 0,-27.168 0,-445.5746 0,-472.7738 -27.32,0 -472.8827,0 -500.1991,0 0,27.1992 0,445.6058 0,472.7738 18.1367,0 67.8164,0 67.8164,0 0,0 0,25.988 0,36.367 17.2817,0 47.6287,0 47.6287,0 z m -8.148,29.785 c -12.324,0 -69.2698,0 -69.2698,0 0,0 0,-25.977 0,-36.348 -18.1406,0 -67.8242,0 -67.8242,0 L 0,0 h 559.801 v 532.363 c 0,0 -49.699,0 -67.844,0 0,10.371 0,36.348 0,36.348 0,0 -56.953,0 -69.269,0 -29.5,47.637 -79.661,73.992 -142.793,73.992 -63.141,0 -113.309,-26.355 -142.801,-73.992"
         style="fill:#231f20;fill-opacity:1;fill-rule:nonzero;stroke:none"
         id="path28" /><path
         d="M 60.8242,109.563 H 498.926 V 93.1758 H 60.8242 v 16.3872 0"
         style="fill:#231f20;fill-opacity:1;fill-rule:nonzero;stroke:none"
         id="path30" /><path
         d="M 47.9883,80.9063 H 511.824 V 64.5234 H 47.9883 v 16.3829 0"
         style="fill:#231f20;fill-opacity:1;fill-rule:nonzero;stroke:none"
         id="path32" /><path
         d="M 274.855,469.102 55.7969,390.344 65.8672,362.324 c 0,0 204.4058,73.469 214.0278,76.922 9.617,-3.453 214.015,-76.922 214.015,-76.922 l 10.078,28.02 -224.093,80.574 -5.04,-1.816"
         style="fill:#231f20;fill-opacity:1;fill-rule:nonzero;stroke:none"
         id="path34" /><path
         d="m 430.598,155.656 h -46.817 l -4.062,166.805 c 1.242,-0.637 2.625,-1.023 4.105,-1.023 5.129,0 9.313,4.148 9.313,9.277 0,2.508 -1.02,4.793 -2.649,6.453 h 33.434 c -1.617,-1.66 -2.621,-3.945 -2.621,-6.453 0,-5.129 4.164,-9.277 9.262,-9.277 1.472,0 2.855,0.378 4.101,0.996 z m -84.903,0 h -46.773 l -4.067,166.688 c 1.2,-0.567 2.528,-0.906 3.938,-0.906 5.117,0 9.273,4.148 9.273,9.277 0,2.508 -1.011,4.793 -2.632,6.453 h 33.476 c -1.625,-1.66 -2.637,-3.945 -2.637,-6.453 0,-5.129 4.176,-9.277 9.258,-9.277 1.539,0 2.965,0.41 4.239,1.062 z m -84.804,0 h -46.953 l -4.059,166.817 c 1.266,-0.649 2.676,-1.035 4.187,-1.035 5.098,0 9.262,4.148 9.262,9.277 0,2.508 -1.008,4.793 -2.625,6.453 h 33.461 c -1.621,-1.66 -2.633,-3.945 -2.633,-6.453 0,-5.129 4.157,-9.277 9.282,-9.277 1.496,0 2.882,0.386 4.144,1.035 z m -84.985,0 h -46.89 l -4.067,166.836 c 1.274,-0.656 2.688,-1.054 4.203,-1.054 5.118,0 9.278,4.148 9.278,9.277 0,2.508 -1.012,4.793 -2.633,6.453 h 33.269 c -1.621,-1.66 -2.64,-3.945 -2.64,-6.453 0,-5.129 4.191,-9.277 9.301,-9.277 1.523,0 2.933,0.398 4.214,1.062 z m 292.727,0 -4.09,166.922 c 1.293,-0.703 2.746,-1.14 4.316,-1.14 5.133,0 9.297,4.148 9.297,9.277 0,2.508 -1.011,4.793 -2.633,6.453 h 7.489 v 16.406 H 76.7813 v -16.406 h 7.4179 c -1.625,-1.66 -2.6406,-3.945 -2.6406,-6.453 0,-5.129 4.1602,-9.277 9.3359,-9.277 1.4883,0 2.875,0.386 4.1289,1.035 L 91.0078,155.656 H 75.6016 V 128.352 H 484.094 v 27.304 h -15.461"
         style="fill:#231f20;fill-opacity:1;fill-rule:nonzero;stroke:none"
         id="path36" /></g></g></svg>
