<?xml version="1.0" encoding="UTF-8" standalone="no"?>
<svg
   xmlns:dc="http://purl.org/dc/elements/1.1/"
   xmlns:cc="http://creativecommons.org/ns#"
   xmlns:rdf="http://www.w3.org/1999/02/22-rdf-syntax-ns#"
   xmlns:svg="http://www.w3.org/2000/svg"
   xmlns="http://www.w3.org/2000/svg"
   xmlns:sodipodi="http://sodipodi.sourceforge.net/DTD/sodipodi-0.dtd"
   xmlns:inkscape="http://www.inkscape.org/namespaces/inkscape"
   version="1.1"
   id="svg2"
   xml:space="preserve"
   width="672"
   height="267.33334"
   viewBox="0 0 672 267.33334"
   sodipodi:docname="university-of-waterloo-seeklogo.com.eps"><metadata
     id="metadata8"><rdf:RDF><cc:Work
         rdf:about=""><dc:format>image/svg+xml</dc:format><dc:type
           rdf:resource="http://purl.org/dc/dcmitype/StillImage" /></cc:Work></rdf:RDF></metadata><defs
     id="defs6" /><sodipodi:namedview
     pagecolor="#ffffff"
     bordercolor="#666666"
     borderopacity="1"
     objecttolerance="10"
     gridtolerance="10"
     guidetolerance="10"
     inkscape:pageopacity="0"
     inkscape:pageshadow="2"
     inkscape:window-width="640"
     inkscape:window-height="480"
     id="namedview4" /><g
     id="g10"
     inkscape:groupmode="layer"
     inkscape:label="ink_ext_XXXXXX"
     transform="matrix(1.3333333,0,0,-1.3333333,0,267.33333)"><g
       id="g12"
       transform="scale(0.1)"><path
         d="m 1534.98,1157.59 h 78.72 l 69.03,-224.738 74.88,225.698 h 62.86 l 74.83,-225.698 69.09,224.738 h 76.74 L 1927.19,823.289 h -63.79 l -75.25,217.141 -75.37,-217.141 h -63.85 l -113.95,334.301"
         style="fill:#231f20;fill-opacity:1;fill-rule:nonzero;stroke:none"
         id="path14" /><path
         d="m 2157.35,1157.65 h 67.72 l 142.89,-334.361 h -76.67 l -30.5,74.512 h -141.06 l -30.53,-74.512 h -74.85 z M 2234.59,962.281 2190.31,1069.9 2146,962.281 Z"
         style="fill:#231f20;fill-opacity:1;fill-rule:nonzero;stroke:none"
         id="path16" /><path
         d="m 2447.99,1087.93 h -101.51 v 67.31 h 276.46 v -67.31 H 2521.49 V 823.289 h -73.5 v 264.641"
         style="fill:#231f20;fill-opacity:1;fill-rule:nonzero;stroke:none"
         id="path18" /><path
         d="m 2678.76,1155.24 h 251.66 v -64.87 h -178.74 v -67.39 H 2909 V 957.941 H 2751.68 V 888.27 h 181.07 v -64.981 h -253.99 v 331.951"
         style="fill:#231f20;fill-opacity:1;fill-rule:nonzero;stroke:none"
         id="path20" /><path
         d="m 3011.72,1155.24 h 152.58 c 42.36,0 75.23,-11.83 97.17,-33.69 18.58,-18.48 28.61,-44.5 28.61,-75.78 v -1.01 c 0,-53.6 -29.06,-87.291 -71.47,-102.94 l 81.42,-118.531 h -85.8 l -71.47,106.242 h -57.6 V 823.289 h -73.44 z m 147.75,-161.252 c 35.8,0 56.29,18.982 56.29,46.942 v 0.96 c 0,31.31 -22,47.43 -57.72,47.43 h -72.88 v -95.332 h 74.31"
         style="fill:#231f20;fill-opacity:1;fill-rule:nonzero;stroke:none"
         id="path22" /><path
         d="m 3371.06,1155.24 h 73.37 V 889.672 h 156.2 v -66.383 h -229.57 v 331.951"
         style="fill:#231f20;fill-opacity:1;fill-rule:nonzero;stroke:none"
         id="path24" /><path
         d="m 3611.91,988.328 v 0.992 c 0,94.28 74.83,171.67 177.86,171.67 102.89,0 176.81,-76.4 176.81,-170.771 v -0.899 c 0,-94.441 -74.86,-171.718 -177.78,-171.718 -102.91,0 -176.89,76.359 -176.89,170.726 m 277.88,0 v 0.992 c 0,56.8 -41.9,104.31 -100.99,104.31 -59.12,0 -100.1,-46.5 -100.1,-103.411 v -0.899 c 0,-56.922 41.93,-104.41 101.07,-104.41 59.04,0 100.02,46.449 100.02,103.418"
         style="fill:#231f20;fill-opacity:1;fill-rule:nonzero;stroke:none"
         id="path26" /><path
         d="m 3987.15,988.328 v 0.992 c 0,94.28 74.8,171.67 177.72,171.67 103.01,0 176.87,-76.4 176.87,-170.771 v -0.899 c 0,-94.441 -74.83,-171.718 -177.78,-171.718 -102.94,0 -176.81,76.359 -176.81,170.726 m 277.89,0 v 0.992 c 0,56.8 -41.94,104.31 -101.08,104.31 -59.04,0 -100.06,-46.5 -100.06,-103.411 v -0.899 c 0,-56.922 41.95,-104.41 100.97,-104.41 59.12,0 100.17,46.449 100.17,103.418"
         style="fill:#231f20;fill-opacity:1;fill-rule:nonzero;stroke:none"
         id="path28" /><path
         d="m 1721.22,1323.22 v 87.4 h 33.82 v -86.52 c 0,-24.9 12.52,-37.8 33.15,-37.8 20.64,0 33.16,12.45 33.16,36.7 v 87.62 h 33.83 v -86.29 c 0,-46.33 -26.14,-69.06 -67.42,-69.06 -41.29,0 -66.54,22.95 -66.54,67.95"
         style="fill:#231f20;fill-opacity:1;fill-rule:nonzero;stroke:none"
         id="path30" /><path
         d="m 1945.1,1410.62 h 31.19 l 72.03,-94.18 v 94.18 h 33.38 v -152.95 h -28.78 l -74.44,97.23 v -97.23 h -33.38 v 152.95"
         style="fill:#231f20;fill-opacity:1;fill-rule:nonzero;stroke:none"
         id="path32" /><path
         d="m 2177.85,1410.62 h 33.83 v -152.95 h -33.83 v 152.95"
         style="fill:#231f20;fill-opacity:1;fill-rule:nonzero;stroke:none"
         id="path34" /><path
         d="M 2294.69,1410.62 H 2332 l 40.21,-107.71 40.19,107.71 h 36.43 l -62.12,-154.03 h -29.87 l -62.15,154.03"
         style="fill:#231f20;fill-opacity:1;fill-rule:nonzero;stroke:none"
         id="path36" /><path
         d="m 2530.27,1410.62 h 115.97 v -29.94 h -82.34 v -31.02 h 72.45 v -29.93 h -72.45 v -32.14 h 83.41 v -29.92 h -117.04 v 152.95"
         style="fill:#231f20;fill-opacity:1;fill-rule:nonzero;stroke:none"
         id="path38" /><path
         d="m 2803.25,1336.34 c 16.45,0 25.91,8.73 25.91,21.63 v 0.43 c 0,14.43 -10.11,21.86 -26.58,21.86 h -33.59 v -43.92 z m -68.07,74.28 h 70.27 c 19.55,0 34.7,-5.45 44.78,-15.53 8.57,-8.49 13.18,-20.52 13.18,-34.94 v -0.44 c 0,-24.69 -13.41,-40.19 -32.94,-47.41 l 37.56,-54.63 h -39.54 l -32.91,48.96 h -26.59 v -48.96 h -33.81 v 152.95"
         style="fill:#231f20;fill-opacity:1;fill-rule:nonzero;stroke:none"
         id="path40" /><path
         d="m 2941.14,1279.96 19.98,23.81 c 13.84,-11.35 28.32,-18.57 45.89,-18.57 13.84,0 22.18,5.47 22.18,14.43 v 0.43 c 0,8.53 -5.27,12.9 -30.95,19.46 -30.96,7.86 -50.96,16.38 -50.96,46.75 v 0.44 c 0,27.74 22.42,46.11 53.8,46.11 22.4,0 41.52,-7 57.08,-19.46 l -17.56,-25.35 c -13.59,9.39 -26.99,15.08 -39.95,15.08 -12.95,0 -19.78,-5.89 -19.78,-13.33 v -0.43 c 0,-10.06 6.61,-13.32 33.19,-20.1 31.17,-8.08 48.73,-19.23 48.73,-45.89 v -0.43 c 0,-30.37 -23.27,-47.43 -56.44,-47.43 -23.26,0 -46.78,8.1 -65.21,24.48"
         style="fill:#231f20;fill-opacity:1;fill-rule:nonzero;stroke:none"
         id="path42" /><path
         d="m 3151.52,1410.62 h 33.8 v -152.95 h -33.8 v 152.95"
         style="fill:#231f20;fill-opacity:1;fill-rule:nonzero;stroke:none"
         id="path44" /><path
         d="m 3317.28,1379.59 h -46.77 v 31.03 h 127.37 v -31.03 h -46.8 v -121.92 h -33.8 v 121.92"
         style="fill:#231f20;fill-opacity:1;fill-rule:nonzero;stroke:none"
         id="path46" /><path
         d="m 3524.79,1317.98 -59.06,92.64 h 39.51 l 36.69,-61.39 37.32,61.39 h 38.43 l -59.07,-91.98 v -60.97 h -33.82 v 60.31"
         style="fill:#231f20;fill-opacity:1;fill-rule:nonzero;stroke:none"
         id="path48" /><path
         d="m 3937.84,1333.71 v 0.43 c 0,26.23 -19.32,48.06 -46.55,48.06 -27.23,0 -46.11,-21.38 -46.11,-47.61 v -0.45 c 0,-26.19 19.31,-48.07 46.56,-48.07 27.22,0 46.1,21.43 46.1,47.64 z m -128.02,0 v 0.43 c 0,43.49 34.5,79.11 81.92,79.11 47.44,0 81.47,-35.19 81.47,-78.66 v -0.45 c 0,-43.47 -34.48,-79.09 -81.92,-79.09 -47.43,0 -81.47,35.17 -81.47,78.66"
         style="fill:#231f20;fill-opacity:1;fill-rule:nonzero;stroke:none"
         id="path50" /><path
         d="m 4045.84,1410.62 h 117.05 v -30.58 h -83.25 v -32.56 H 4153 v -30.59 h -73.36 v -59.22 h -33.8 v 152.95"
         style="fill:#231f20;fill-opacity:1;fill-rule:nonzero;stroke:none"
         id="path52" /><path
         d="m 1066.11,568.91 -8.99,4.172 C 957.348,619.02 876.836,685.762 824.238,766.059 698.113,958.609 693.953,1157.52 689.551,1368.1 c -0.348,15.96 -0.672,31.94 -1.071,47.99 l -0.527,21.78 h 755.897 l -0.53,-21.8 c -0.4,-16.11 -0.75,-32.21 -1.06,-48.28 -4.45,-210.45 -8.63,-409.29 -134.72,-601.731 -52.47,-80.18 -132.85,-146.887 -232.44,-192.977 l -8.99,-4.172"
         style="fill:#ffffff;fill-opacity:1;fill-rule:nonzero;stroke:none"
         id="path54" /><path
         d="M 1064.38,1178.57 768.215,946.59 c -47.602,146.7 -46.277,300.07 -50.11,456.25 h 690.975 c -3.82,-156.57 -2.04,-309.32 -49.98,-456.36 l -294.72,232.09"
         style="fill:#fcce28;fill-opacity:1;fill-rule:nonzero;stroke:none"
         id="path56" /><path
         d="m 1304.2,821.379 c -7.3,-12.899 -15.1,-25.719 -23.48,-38.52 -52.67,-80.48 -130.91,-140.039 -216.95,-179.828 -86.391,39.789 -164.606,99.348 -217.305,179.828 -8.207,12.5 -22.988,37.621 -22.988,37.621 l 240.903,191.31 239.82,-190.411"
         style="fill:#fcce28;fill-opacity:1;fill-rule:nonzero;stroke:none"
         id="path58" /><path
         d="m 861.625,1285.07 c -34.992,7.39 -66.141,33.29 -58.629,66.14 0.074,0.31 -1.34,8.48 -4.359,9.61 -0.242,0.09 -0.739,1.01 -1.25,1.15 -1.332,0.35 -2.442,0.92 -3.563,1.74 -0.39,0.29 -2.027,0.82 -2.027,1.4 -0.625,-1.34 -0.496,-2.59 -1.438,-3.79 -0.32,-0.44 -0.828,-1.12 -1.32,-1.38 -0.637,-0.33 -0.68,-0.91 -1.168,-1.34 -2.621,-2.63 -1.223,-6.59 -0.816,-9.61 0.117,-0.76 0.445,-1.69 -0.489,-1.85 -1.121,-0.2 -0.218,0.3 -1.511,1.09 -0.309,0.19 -0.758,0.67 -1.086,0.83 -0.547,0.26 -2.735,0.57 -3.09,1.09 -0.399,0.57 -0.231,0.75 -0.75,1.23 -1.227,1.08 -1.336,3.23 -2.219,5.46 -0.152,0.4 -0.512,2.34 -0.512,2.77 0,2.22 -5.71,5.8 -3.492,3.97 0.758,-0.63 -0.133,0.9 -3.176,1.65 -1.921,0.49 -4.167,0.38 -6.328,0.12 -0.457,-0.08 -0.871,-0.45 -1.187,-0.68 -2.235,-1.72 -4.293,-3.77 -7.18,-3.89 0.485,0.31 0.738,-0.28 0.953,-0.53 1.379,-1.77 0.379,-3.95 1.192,-5.9 0.82,-1.91 2.218,-3.38 3.851,-4.69 1.598,-1.24 4.371,0.39 5.598,-1.77 0,0.07 2.605,-0.6 0.043,-3.16 -4.707,-4.71 -9.938,-0.91 -13.832,-9.66 5.894,2.52 6.558,-6.42 9.066,-6.75 11.278,-1.54 19.864,-3.52 26.059,-14.9 3.777,-6.94 -6.777,-7.27 2.773,-8.89 4.848,-0.83 8.09,-3.26 10.543,-6.68 2.574,-3.6 2.93,-8.4 5.672,-11.76 2.008,-2.4 2.766,-2.88 5.168,-4.88 1.094,-0.91 4.559,-1.81 5.859,-2.13 1.297,-0.35 2.079,-1 3.325,-1.45 1.316,-0.48 2.707,-0.95 3.816,-1.85 0.942,-0.78 3.332,-1.6 3.879,-2.68 0.98,-1.91 0.199,-3.86 1.234,-5.78 0.321,-0.53 1.801,-0.06 2.426,-0.25 0.586,-0.22 1.922,-0.3 2.281,-0.22 2.289,0.52 2.848,0.67 4.555,0.87 2.606,0.3 2.309,-0.52 5.68,-0.35 0.719,0 1.008,-0.52 1.976,-0.52 0.657,0 1.793,-0.7 1.981,-0.11 1.015,3.2 2.695,6.28 4.597,9.39 1.875,3.1 1.723,3.4 4.114,6.66 -0.285,-0.1 3.074,2.25 2.781,2.28"
         style="fill:#c41b31;fill-opacity:1;fill-rule:nonzero;stroke:none"
         id="path60" /><path
         d="m 774.313,1281.02 c 10.242,-5.5 8.863,-19.05 18.093,-23.43 16.438,-7.79 36.055,-13.14 53.532,-4.61 -3.887,-12.09 0.41,-22.2 -1.29,-23.56 -5.488,-4.38 -22.168,0.83 -32.851,5.04 -7.363,2.91 -13.328,-7.96 -21.449,-7.01 0.41,0.94 1.332,3.74 0.781,5.46 -1.274,3.94 -2.301,5.07 -8.879,4.31 -4.242,-0.47 -2.484,-3.95 -8.836,-7.06 -2.512,1.5 -7.887,3.16 -8.672,-1.59 -0.363,-2.21 -4.836,7.72 -3.937,9.36 4.16,7.44 5.011,9.18 4.718,10.78 -0.5,2.44 -9.507,5.75 -10.679,3.68 -2.801,-4.87 -11.071,15.77 13.344,14.46 -6.571,4.2 -5.809,4.92 -4.282,9.92 0.196,0.69 -2.265,3.27 -3.941,1.49 -0.551,1.92 0.754,4.02 2.281,4.2 4.02,0.56 7.953,0.78 12.067,-1.44"
         style="fill:#c41b31;fill-opacity:1;fill-rule:nonzero;stroke:none"
         id="path62" /><path
         d="m 822.891,1331.09 c 14.82,-3.4 36.972,15.62 49.839,-6.81 -9.5,3.45 -37.585,-11.51 -49.839,6.81"
         style="fill:#c41b31;fill-opacity:1;fill-rule:nonzero;stroke:none"
         id="path64" /><path
         d="m 946.813,1298.47 c -0.29,-19.22 -20.286,-39.96 -4.071,-58.25 -6.625,0.1 -14.48,2.37 -19.09,6.1 -2.574,2.09 -2.007,-9.15 -1.664,-11.46 0.309,-1.97 -12.32,11.84 -17.05,8.46 -13.379,-9.57 -19.192,-13.52 -39.075,-14.25 -5.527,-0.19 -8.406,-4.62 -9.972,-9.43 -4.512,9.16 -1.161,30.02 1.429,39.28 7.035,25.41 32.676,32.95 53.25,45.09 14.762,8.74 21.078,25.81 20.332,42.47 10.461,-13.03 16.145,-31.67 15.911,-48.01"
         style="fill:#c41b31;fill-opacity:1;fill-rule:nonzero;stroke:none"
         id="path66" /><path
         d="m 852.672,1082.13 c 2.508,-0.57 0.644,-2.63 -0.336,-3.25 -2.055,-1.36 -3.457,-3.02 -4.758,-5.04 -0.984,-1.52 -1.676,-3.15 -1.305,-5.02 0.258,-1.37 0.731,-2.59 1.243,-3.84 0.332,-0.77 1.043,-1.21 1.629,-1.85 0.242,-0.24 1.136,-1.38 1.16,-1.46 -0.559,1.93 2.195,3.88 2.836,3.52 12.742,-7.36 13.48,7.54 21.117,12.61 3.242,2.16 10.562,-0.34 8.668,-6.94 7.609,4.04 9.851,14.23 15.785,20.61 13.105,14.14 31.465,23.55 48.894,31.2 -6.304,6.68 -15.585,12.27 -20.296,19.88 -2.321,3.79 -5.102,11.2 0.046,9.83 21.422,-5.57 33.446,7.44 35.825,24.23 31.722,-4.07 39.98,25.77 44.27,48.33 2.06,10.94 8.09,11.89 1.51,30.54 -2.74,7.8 14.08,10.36 11.22,23.82 -0.8,3.72 -5.42,7.46 -8.16,7.9 2.6,-7.25 -9.61,-9.09 -10.95,-12.05 -2.062,-4.65 -5.078,-8.38 -5.488,-13.25 -10.344,14.23 -1.961,31.38 7.738,44.71 14.17,19.41 43.54,9.21 55.9,-3.31 0.23,6.29 -4.66,14.27 -8.69,18.12 11.56,1.49 24.1,-5.54 39.87,2.79 9.11,4.82 18.31,8.94 22.58,19.63 -19.37,-2.64 -45.6,12.19 -63.05,15.22 -32.52,5.61 -54.348,-16.47 -65.989,-42.79 -11.586,-26.29 -4.156,-45.92 8.418,-65.57 3.161,-4.96 -11.168,-1.7 -16.816,-4.61 -5.508,-2.83 -7.754,-9.59 -6.504,-15.57 6.941,7.41 25.32,2.86 26.973,-9.83 2.269,-17.12 -15.067,-42.02 -31.824,-34.56 -17.926,8.01 -28.083,26.83 -34.047,48.01 -15.313,-13.14 -43.657,-2.29 -56.821,-15.12 -12.515,-12.2 19.512,-20.47 31.977,-26.21 4.601,-2.15 9.195,-6.82 8.437,-12.59 -19.531,11.42 -43.05,-1.52 -41.902,-22.29 0.883,-15.53 19.961,-25.18 35.859,-26.49 6.618,-0.53 10.606,-7.87 2.551,-12.87 -14.121,-8.79 -29.855,-18.59 -45.07,-2.71 -2.539,2.65 -11.652,0.99 -13.457,-3.83 -0.879,-2.35 -1.168,-5.94 -0.793,-8.32 0.816,1.44 1.781,3.49 3.07,3.32 1.496,-0.2 3.328,-1.76 3.121,-2.87 -1.312,-7.78 -11.586,-2.74 -14.769,-8.8 -0.074,-0.14 -0.239,-0.26 -0.317,-0.4 -0.195,-0.49 -0.468,-0.92 -0.695,-1.37 -2.086,-4.12 -4.945,-6.71 0.184,-9.91 -0.133,0.75 2.539,-3.29 2.484,-3.99 0.254,3.73 4.152,3.67 4.152,3.67 l 2.258,-0.23 2.262,-1"
         style="fill:#c41b31;fill-opacity:1;fill-rule:nonzero;stroke:none"
         id="path68" /><path
         d="m 786.566,1155.23 c -2.023,0.65 -4.117,-0.14 -6.105,-1.03 -1.273,-0.56 -2.805,0.03 -3.586,-1.25 -0.469,-0.79 -0.754,-1.65 -0.496,-2.53 0.125,-0.47 0.332,-1.36 0.73,-1.63 -2.675,0.21 -5.191,2.01 -7.238,3.84 -0.668,0.6 -1.07,1.26 -1.711,1.92 -0.41,0.43 -0.363,1.21 -0.637,1.79 -0.289,0.63 -0.16,1.33 -0.175,1.98 -0.067,1.83 -0.114,3.71 0.715,5.41 0.378,0.78 0.765,1.58 1.332,2.24 0.445,0.58 0.882,1.01 1.371,1.48 1.375,1.3 2.894,2.31 4.707,2.85 2.64,0.79 5.527,0.56 8.05,-0.56 2.012,-0.86 4.403,-0.76 6.516,-1.33 1.133,-0.32 3.242,2.93 1.715,3.3 -6.664,1.61 -6.633,3.4 -9.125,10.1 -1.164,1.32 -2.691,-0.18 -3.348,-0.88 -0.027,12.86 15.293,13.71 21.711,8.62 9.481,-7.6 2.352,-22.44 14.012,-26.55 6.066,-2.14 12.492,-3.8 18.766,-1.16 11.257,4.78 0.031,16.03 3.656,25.56 7.347,19.21 23.629,20.21 43.023,1.7 -17.344,-5.72 -25.453,-28.57 -15.957,-43.62 -15.297,5.98 -34.586,-4.09 -45.336,-10.91 9.989,9.96 -4.051,18 -7.59,16.23 l -4.265,-2.95 c -2.043,-2.58 -2.199,-5.24 -4.719,-7.7 -1.414,-1.36 -2.215,-1.64 -4.059,-2.11 -2.543,-0.66 -4.113,-0.45 -6.375,1.04 -0.41,0.25 -1.789,-0.33 -2.043,-0.67 -1.222,-1.5 -0.042,-2.22 -0.066,-2.79 -0.25,0.18 -1.836,1.47 -2.066,1.64 -1.446,1.08 -3.102,2.03 -4.004,3.5 -0.903,1.48 -1.52,5.21 -0.492,7.24 1,2.02 3.039,2.65 4.394,4.03 1.289,1.29 -0.25,3.26 -1.793,3.49"
         style="fill:#c41b31;fill-opacity:1;fill-rule:nonzero;stroke:none"
         id="path70" /><path
         d="m 1158.91,1324.9 c 1.37,-0.88 -0.11,-3.36 -1.69,-3.81 -1.86,-0.51 -4.47,0.27 -6.1,-0.36 -7.3,-2.67 -7.31,-20.52 -6.32,-18.45 1.1,2.27 6.49,0.79 9.97,0.11 5.63,-1.14 9.89,10.24 13.59,9.92 8.76,-0.79 16.96,-11.63 20.29,-18.75 0.61,-1.31 -3.67,-1.36 -3.95,-5.74 11.94,1.12 22.02,-6.59 30.65,-13.65 4.2,7.27 8.44,11.76 13.21,16.51 -17.95,17.38 -53.64,22.75 -48.13,54.43 0.73,4.07 -3.89,7.65 -5.93,9.65 -2.34,2.21 -7.62,2.33 -10.86,3.1 3.41,-7.02 -2.74,-7.71 -1.86,-18.85 0,-0.35 -1.01,-0.13 -1.4,0.04 -2.14,0.91 -3.97,2.24 -6.02,3.5 -1.84,1.16 -3.57,0.84 -5.62,0.55 -1.24,-0.17 -2.36,-0.74 -3.41,-1.48 -1.7,-1.21 -2.57,-2.77 -3.74,-4.49 -0.24,-0.3 -0.47,-0.67 -0.74,-0.94 -0.38,-0.4 -1.14,-1.6 -1.2,-2.2 0.94,0.09 3.83,-0.13 4.33,-0.9 0.82,-1.3 0.85,-2.78 1.84,-4.02 1.24,-1.57 2.27,-1.61 4.06,-2.36 2.79,-1.17 5.29,-1.69 8.34,-1.43"
         style="fill:#c41b31;fill-opacity:1;fill-rule:nonzero;stroke:none"
         id="path72" /><path
         d="m 1205.32,1337.66 c 11.21,0.83 22.32,9.39 34.71,-5.09 -2.3,1.1 -4.95,1.47 -6.35,0.36 -13.71,-11.01 -30.37,-7.29 -39.14,6.33 3.58,0.57 7.89,-1.82 10.78,-1.6"
         style="fill:#c41b31;fill-opacity:1;fill-rule:nonzero;stroke:none"
         id="path74" /><path
         d="m 1253.81,1297.19 c 18.41,9.27 37.03,16.72 44.61,39.45 1.48,4.43 4.89,-6.6 5.1,-7.23 9.74,-27.74 -9.67,-55.31 -5.68,-83.61 -6.49,3.94 -13.78,6.66 -20.89,6.87 -25.29,0.72 -31.28,-14.57 -32.72,-13.14 -6.93,6.97 -26.84,12.97 -25.39,11.64 -11.81,10.87 22.28,39.59 34.97,46.02"
         style="fill:#c41b31;fill-opacity:1;fill-rule:nonzero;stroke:none"
         id="path76" /><path
         d="m 1203.46,1112.57 c 2.54,-3.86 -0.83,2.21 2.05,-4.4 13.33,5.56 27.12,11.92 41.87,5.96 -6.54,29.83 15.35,37.08 17.08,41.55 2.78,7.15 -11.85,21.39 -22.87,17.42 -14.06,-5.01 -8.21,-22.65 -10.85,-35.02 -1.46,-6.83 -9.97,-11.85 -17.04,-9.41 -11.63,3.98 -16.3,14.76 -19.18,26.87 -1.93,8.05 -17.68,9.03 -21.09,2.43 -9.68,-18.72 5.75,2.18 4.75,-12.04 -0.16,-2.41 -11.3,-0.59 -13.8,-9.02 -1.69,-5.74 3.77,-9.58 10.66,-11.6 1.26,-0.37 -1.33,2.85 0.4,3.55 1.25,0.49 6.3,-2.2 5.7,-2.54 -6.63,-4.04 -8.32,-13.39 3.52,-17.46 0.09,-0.02 -0.86,3.36 0.04,4.03 9.26,6.87 18.91,-0.55 18.93,-0.32"
         style="fill:#c41b31;fill-opacity:1;fill-rule:nonzero;stroke:none"
         id="path78" /><path
         d="m 1002.98,923.93 c 11.08,-5.098 14.67,0.379 29.24,2.73 2.04,0.34 10.24,-4.988 12.62,-7.691 -14.6,-2.297 -32.37,-14.957 -41.86,4.961"
         style="fill:#c41b31;fill-opacity:1;fill-rule:nonzero;stroke:none"
         id="path80" /><path
         d="m 997.043,912.32 c -0.676,0.758 -1.633,1.059 -2.535,1.41 -0.903,0.43 -1.875,0.75 -2.922,0.879 -0.258,0.051 -2.098,0.473 -2.383,0.582 -0.062,-0.652 0.785,-2.339 0.305,-2.769 -1.164,-1.082 -1.578,-0.82 -2.516,-2.223 -0.344,-0.558 -0.715,-1.09 -0.847,-1.719 -0.27,-1.261 -0.832,-2.718 -0.977,-4.16 -0.051,-0.738 0.254,-2.468 0.418,-3.121 0.102,-0.367 0.879,-1.929 1.098,-2.359 0,0 1.769,-1.891 1.675,-1.801 2.051,-2.09 0.371,-0.859 2.903,-3.367 1.293,-1.211 -0.594,-3.32 -1.836,-2.961 -8.571,2.461 -9.77,12.359 -17.574,15.391 -5.696,2.187 -13.864,-2.223 -14.727,-10.832 1.918,0.562 3.91,-0.168 4.285,-1.75 2.098,-8.688 14.875,-3.52 15.176,-9.61 0.23,-3.988 -9.555,0.692 -13.422,-1.871 -5.117,-3.391 -5.809,-13.16 -1.309,-18.848 4.661,4.391 10.45,-2.043 14.961,1.149 3.168,2.269 4.289,5.441 7.52,6.859 9.824,4.313 12.707,-4.679 10.535,-13.73 5.309,2.453 17.789,5.011 20.649,5.812 5.17,1.379 5.4,13.258 11.74,17.641 -8.99,0.027 -20.1,3.91 -22.59,12.637 -0.24,0.921 0.39,1.992 0.48,3.05 0.22,3.332 -0.09,6.551 -1.36,9.602 -0.12,0.32 -0.45,0.73 -0.69,1.121 -0.35,0.469 -0.65,0.988 -1,1.488 -0.89,1.231 -2.205,1.809 -3.491,2.602 -0.566,0.367 -1.265,0.476 -1.679,1.047"
         style="fill:#c41b31;fill-opacity:1;fill-rule:nonzero;stroke:none"
         id="path82" /><path
         d="m 931.051,850.77 c 3.929,-7.598 -15.438,4.582 -22.699,-6.668 -2.313,-3.622 -1.067,-11.762 -1.067,-16.352 4.438,4.012 8.871,-3.629 17.18,3.691 0.922,-0.832 1.914,-1.339 0.652,-2.621 -3.07,-3.07 -4.789,-6.922 -3.164,-10.609 1.016,-2.43 7.91,-7.27 7.969,-6.852 0.703,4.95 9.211,0 10.539,9.75 0.57,4.02 1.746,10.692 7.605,8.27 5.332,-2.199 6.438,-8.199 5.192,-14.18 8.504,2.77 23.461,11.449 32.387,5.031 11.996,-8.609 31.705,-12.191 45.735,-16.511 -9.31,6.429 -12.27,23.23 -10.72,34.172 -22.105,-4.321 -45.305,-3.59 -65.801,5.839 -5.601,2.59 -4.847,9.04 -6.539,14.348 -1.918,5.973 -9.472,11.492 -16.328,10.973 -3.679,-0.27 -12.523,-7.969 -10.847,-8.352 -0.579,0.133 -0.559,-1.117 -0.852,-1.679 1.664,1.039 3.773,0 4.527,-1.79 0.535,-1.242 1.059,-2.609 2.118,-3.621 1.25,-1.218 3.417,-1.507 4.113,-2.839"
         style="fill:#c41b31;fill-opacity:1;fill-rule:nonzero;stroke:none"
         id="path84" /><path
         d="m 984.027,730.578 c 4.293,5.242 7.864,2.442 9.739,2.402 4.48,-0.14 4.172,-6.429 3.718,-10.46 17.576,8.48 34.316,20.539 54.936,16.109 -12,12.512 -7.74,39.34 9.23,42.66 0.04,0 -10.95,1.781 -12.11,2.512 -14.76,9.32 -32.82,18.219 -42.74,-1.301 -4.94,-9.719 4.13,-17.551 10.91,-25.539 1.22,-1.473 -0.76,-2.34 -2.34,-2.75 -16.14,-4.129 -45.89,-6.539 -47.218,17.5 -0.144,2.43 -6.39,4.43 -10.414,4.32 -11.953,-0.359 -11.761,-15.543 -10.398,-14.48 2.609,1.969 10.613,1.269 9.648,-4.813 -0.894,-5.668 -12.043,2.992 -16.484,-2.718 -3.727,-4.758 -3.609,-12.579 -0.969,-17.829 -0.531,1.911 1.715,3.34 2.926,3.508 12.398,2.09 13.098,-2.199 9.426,-14.148 -0.285,-0.903 3.664,-8.461 6.273,-9.153 -0.207,0.09 -0.164,1.75 0.195,2.313 0.344,0.57 0.958,1 1.583,1.219 1.347,0.422 2.718,0.359 4.082,0.718 0.644,0.211 1.132,0.602 1.742,0.981 0.976,0.59 1.636,1.453 2.34,2.34 2.89,3.601 5.421,8.222 10.281,8.691 2.242,0.219 3.668,-0.789 5.597,-2.019"
         style="fill:#c41b31;fill-opacity:1;fill-rule:nonzero;stroke:none"
         id="path86" /><path
         d="m 1112.3,674.82 c 11.32,11.211 19.51,26.129 31.63,37.051 -13.28,7.789 -29.76,15.918 -31.5,33.399 -0.13,1.179 1.84,2.492 2.31,2.269 18.47,-10.32 43.38,-11.141 56.71,7.633 10.74,15.187 15.4,39.828 36.38,41.238 -6.98,13.34 0.87,28.738 12.34,35.762 -3.88,1.469 -8.85,4.617 -13.2,3.828 -5.29,-0.91 -7.56,-8.051 -13.59,-9.16 9.49,31.84 -8.87,76.289 -44.1,75.531 -6.6,-0.16 -15.15,-5.441 -17.32,-12.641 -2.03,-6.761 -3.08,-15.281 1.82,-21.082 11.55,-13.757 19.87,-28.738 16.23,-46.878 8.23,7.05 15.81,17.441 15.52,28.531 -0.05,2.769 5.01,0.789 5.79,1.929 9.62,14.04 -6.12,22.731 -14.48,31.571 -2.31,2.39 3.57,6.097 4.32,5.84 30.22,-8.993 33.08,-46.02 20.13,-70.09 -3.44,4.281 -16.24,2.879 -20.56,4.328 14.13,-7.09 10.47,-8.098 9.87,-10.438 -1.06,-4.23 -13.74,-2.39 -16.21,-5.492 -4.23,-5.41 -7.42,-7.777 -7.75,-25.668 5.86,6.289 13.55,15.828 21.87,11.571 17.79,-9.082 -0.88,-39.68 -17.65,-44.75 -14.33,-4.313 -27.6,0.226 -36.47,12.636 -12.83,17.961 -3.52,39.723 -12.63,57.934 -7.6,-1.871 -5.86,-11.723 -9.82,-9.973 -13.97,6.449 -21.91,21.313 -32.03,33.762 -4.18,-1.492 -6.05,-5.371 -10.09,-5.172 -5.98,0.262 -17.26,2.09 -19.67,-0.898 -2.78,-3.481 -4.83,-28.731 19.86,-37.891 16.76,-6.219 30.04,-11.77 40.59,-24.789 -7.07,-0.551 -9.53,2.828 -15.32,3.051 -5.69,0.207 -9.29,-1.981 -13.59,-4.18 -4.1,-2.113 -8.93,-10.141 -8.11,-16.531 3.87,-30.59 39.95,-31.012 56.55,-50.352 2.86,-3.277 -4.35,-16.57 -11.14,-21.961 -5.79,-4.59 -19.68,6.942 -17.43,16.711 1.83,7.77 -17.11,13.02 -23.75,4.082 2.64,0.309 3.3,-1.441 3.05,-2.633 -1.17,-7.226 7.81,-7.5 7.51,-11.16 -0.41,-5.039 -4.8,2.133 -8.26,2.782 -7.65,1.519 -15.24,-1.141 -19.72,-7.25 -1.34,-1.801 -4.35,-4.75 -3.03,-7.879 5.86,2.828 8.91,-6.219 14.35,-3.411 3.3,1.68 6.03,4.602 10.02,3.59 1.59,-0.429 3.24,-2.57 1.79,-3.48 -10.64,-6.809 -19.17,-16.352 -11.46,-27.199 0.2,2.539 2.21,4.328 3.83,4.781 3.11,0.879 7.22,-1.242 10.25,-0.274 4.95,1.684 2.39,6.563 4.29,10.063 2.95,5.539 13.02,14.668 18.67,8 1.05,-1.191 0.23,-5.66 -2.82,-5.699 3.13,0.039 5.92,-2.992 8.58,-2.43 0.75,0.129 1.55,0.129 2.23,0.488 0.6,0.289 1.28,0.43 1.73,0.899 1.25,1.242 2.69,2.582 2.89,4.562 2.28,-0.191 5.17,-0.429 6.66,1.528 1.45,1.929 3.26,3.429 4.85,4.91"
         style="fill:#c41b31;fill-opacity:1;fill-rule:nonzero;stroke:none"
         id="path88" /><path
         d="m 1060.81,895.961 c 19.79,5.527 41.78,15.75 46.52,37.629 6,-3.602 7.89,-11.77 7.96,-16.75 0.43,-27.43 -11.61,-51.121 -5.76,-79.828 0.64,-3.242 6.61,-13.453 3.9,-12.242 -3.3,1.48 -10.26,7.98 -14.1,4.949 -4.78,-3.739 -4.47,-9.637 -6.78,-8.27 -8.69,5.281 -17.89,13.063 -22.12,23.102 -1.64,3.801 -0.95,11.91 -2.03,10.758 -6.59,-7.18 -20.13,-8.707 -30.16,-10.227 2.29,2.047 4.34,10.207 3.97,11.898 -7.88,3.93 -19.21,-9.492 -19.02,-7.781 0.42,4.34 0.89,5.672 1.31,6.86 5.87,17.179 16.94,34.582 36.31,39.902"
         style="fill:#c41b31;fill-opacity:1;fill-rule:nonzero;stroke:none"
         id="path90" /><path
         d="m 899.703,1352.26 c 0.832,0.37 1.258,0.95 1.152,1.06 -7.171,10.02 -15.816,9.02 -19.464,0.09 -2.481,-6.03 11.961,-4.09 18.312,-1.15 m 14.031,10.65 c 5.133,0.13 8.926,3.3 12.188,6.73 -0.254,-2.87 3.98,-6.95 2.406,-10.01 -1.957,-3.84 -6.91,-6.14 -7.879,-9.72 -2.031,-7.32 3.875,-14.46 -0.433,-21.71 -12.707,-21.39 -40.438,-14.32 -59.387,-19.06 1.309,2.31 -0.32,5.74 -1.742,6.7 8.41,-1.08 19.586,0.76 21.84,7.08 2.769,7.78 4.152,13.54 0.48,19.97 -6.078,10.61 -18.691,5.66 -28.164,1.97 -1.496,6.58 4.711,10.59 8.281,11.49 10.043,2.63 19.141,6.95 28.5,10.42 8.141,3.05 15.563,-4.08 23.91,-3.86"
         style="fill:#c41b31;fill-opacity:1;fill-rule:nonzero;stroke:none"
         id="path92" /><path
         d="m 1267.27,1356.07 c 0.8,0.47 -0.63,-0.61 0.03,0.06 -7.84,3.91 -18.05,9.02 -21.63,-1.41 -2.63,-7.63 14.81,-2.28 21.6,1.35 m 12.57,-33.48 c -2.71,-2.32 -7.24,-2.26 -10.31,-4.33 -1.88,-1.31 -3.57,-2.69 -5.52,-3.86 -0.91,-0.56 -3.64,-1.77 -4.63,-2.02 -2.76,-0.7 -2.16,-0.38 -4.71,-0.7 -1.53,-0.23 -2.24,-0.3 -3.77,-0.3 -1.52,0 -6.2,-0.13 -7.7,-0.09 -3.61,0.07 -4.22,-0.16 -7.83,0.39 -2.07,0.32 -4.06,0.87 -6.02,1.54 -1.3,0.43 -2.7,0.68 -4.08,0.71 0.16,1.44 0.33,3 1.48,3.94 1.5,1.29 1.79,0.13 3.99,0.33 0.1,0.02 3.11,-0.25 3.22,-0.25 0.51,0.01 1.12,0.03 1.64,0.11 0.96,0.14 1.75,0.32 2.6,0.73 1.08,0.51 2.26,0.84 3.24,1.62 0.34,0.29 0.73,0.56 1.08,0.89 0.72,0.69 1.7,1.04 2.35,1.84 2.06,2.5 3.61,4.93 3.82,8.15 0.21,2.38 0.39,4.84 -0.05,7.28 -0.07,0.39 -0.13,0.78 -0.16,1.13 -0.16,1.9 -1.09,3.68 -2.02,5.43 -5.5,10.43 -18.7,0.22 -27.73,0.69 0,1.99 -0.19,5.65 0.82,6.95 6.45,8.28 16.43,4.21 21.59,8.01 17.4,12.82 22.02,3.57 40.21,-1.43 5.46,-1.5 13.26,1.92 18.43,4.11 1.26,0.54 1.24,-7.64 0.61,-9.3 -2.18,-5.74 -8.13,-5.45 -10.23,-10.59 -3.06,-7.54 -3.53,-18.16 -11.56,-21.97"
         style="fill:#c41b31;fill-opacity:1;fill-rule:nonzero;stroke:none"
         id="path94" /><path
         d="m 1061.89,937.828 c 3.1,-1.137 12.33,3.902 15.67,5.774 0.81,0.449 1.38,1.238 2.02,1.886 0.05,0.09 -0.06,0.293 -0.19,0.313 -2.65,0.551 -5.04,0.75 -7.63,1.019 -1.94,0.239 -3.39,1.559 -5.33,1.918 -0.5,0.121 -0.97,0.043 -1.51,-0.148 -0.74,-0.281 -0.99,-0.828 -1.6,-1.102 -0.93,-0.429 -2.26,-0.429 -3.1,-1.199 -0.86,-0.777 -1.6,-1.508 -1.86,-2.617 -0.36,-1.274 -0.07,-3.141 0.82,-4.242 0.7,-0.879 1.74,-1.258 2.71,-1.602 m 23.91,14 c 8.05,-1.887 16.83,-2.156 22.05,4.863 2.55,-10.859 -7.44,-12.23 -9.3,-17.531 -2.8,-8.078 -2.62,-16.16 -10.48,-20.328 -15.66,-8.293 -35.24,-18.254 -53.2,-19.703 0.14,2.172 -1.38,6.18 1.51,6.332 6.28,0.277 11.18,4.937 12.6,8.629 1.97,5.148 -0.27,17.66 -4.96,20.101 -5.41,2.848 -10.15,-1.519 -15.13,-3.703 -2.08,5.481 6.5,14.563 19.96,13.774 -0.35,0.019 6.67,7.629 6.34,7.398 8.79,6.012 18.43,2.981 30.61,0.168"
         style="fill:#c41b31;fill-opacity:1;fill-rule:nonzero;stroke:none"
         id="path96" /><path
         d="m 1329.98,1027.71 c -0.27,2.65 6.35,10.48 6.52,16.26 0.63,19.61 12.5,28.87 12.85,49.82 0.07,5.46 -22.68,10.6 -23.67,22.39 -0.47,5.84 -2.41,14.28 3.47,14.16 7.54,-0.14 14.96,1.2 20.29,5.89 23.81,20.84 3.71,49.33 0.83,74.49 -0.63,5.51 9.63,17.39 9.33,21.3 -1.65,21.34 -5.62,40.79 2.01,61.75 -5.98,-5.32 -7.78,-14.13 -12.8,-18.62 -2.44,-2.26 -3.64,2.72 -3.47,3.5 3.01,18.44 10.39,34.57 18.97,52.11 10.14,20.76 5.07,37.63 -13.71,43.83 -17.23,5.71 -33.85,-10.24 -35.71,-26.62 -1.73,-15.02 2.97,-33.05 6.55,-45.34 1.03,-3.61 0.41,-7.71 1.18,-10.84 3.07,12.42 3.42,25.4 3.22,38.54 -0.05,3.21 2.51,7.51 5.81,8.46 11.19,3.22 16.98,-4.83 16.24,-11.08 -2.47,-19.69 -6.46,-34.76 -11.2,-54.32 -5.4,-22.33 2.65,-44.47 5.01,-66.17 -8.61,5.03 -17.97,5.28 -21.3,-8.06 -1.8,-7.09 4.63,-14.55 6.61,-20.82 0.2,8.53 8.29,20.17 16.15,14.98 9.64,-6.39 9.99,-37.02 7.86,-41.08 -4.69,-8.86 -12.38,-15.21 -23.06,-12.07 -6.03,1.76 -3.58,10.63 -7.19,14.38 -19.19,19.74 -27.93,43.36 -29.56,70.64 -0.27,3.99 1.82,14.46 1.24,14.69 -25.09,10.29 -36.65,0.04 -47.06,-14.69 -1.8,4.45 -11.38,10.69 -12.14,9.3 -4.77,-8.79 -3.4,-24.75 3.74,-30.92 19.35,-16.66 38.52,-27.82 49.39,-51.63 -11.59,-1.49 -22.93,-4.85 -27.39,-16.92 -4.65,-12.61 -3.06,-30.13 10.32,-35.26 10.91,-4.18 29.64,0.49 33.74,-0.03 11.59,-1.51 24.55,-11.44 22.74,-22.36 -0.1,-0.56 -4.97,-26.02 -16.05,-19.69 -6.01,3.41 -2.64,17.37 -11.77,19.56 -12.32,2.96 -15.34,-14.15 -13.78,-12.67 3.92,3.71 6.65,-2.44 14.27,-6.61 -25.79,5.56 -17.78,-17.96 -16.84,-15.37 1.32,3.66 5.99,-0.16 15.24,0.47 0.33,0 -2.02,-1.92 -2.15,-2.13 -1.44,-2.35 -2.16,-3.51 -3.21,-6 -0.51,-1.16 -0.45,-2.45 -0.28,-3.68 0.11,-1.27 0.57,-2.36 1.25,-3.45 0.13,-0.24 0.37,-0.45 0.64,-0.59 0.12,-0.04 0.49,-0.62 0.56,-0.62 0.56,-0.06 -0.51,1.8 0.99,1.91 0.35,0.05 1.44,0.2 1.73,0.09 0.68,-0.25 1.56,-0.68 2.28,-0.88 0.66,-0.17 1.36,-0.29 2.1,-0.42 1.75,-0.22 2.37,-0.29 3.92,0.25 1.29,0.45 2.59,0.73 3.82,1.59 -1.65,-1.14 1.83,1.66 1.68,1.35 1.59,3.42 2.59,2.44 2.94,3.03 2.74,5.2 5.12,5.7 11.18,4.96 0.58,-0.06 1.7,-1.29 2.06,-1.83 0.44,-0.64 1.69,-3.91 1.46,-2.7 0.44,-2.41 1.93,-3.92 2.15,-6.23"
         style="fill:#c41b31;fill-opacity:1;fill-rule:nonzero;stroke:none"
         id="path98" /><path
         d="m 1144.04,1263.88 c -1.56,1 -2.08,3.38 -3.16,4.36 -0.33,0.35 -0.61,0.76 -0.96,1.13 -0.53,0.55 -0.78,1.31 -1,2.07 -1.06,3.65 -0.51,7.99 2.81,10.43 0.14,0.12 0.1,0.31 0.16,0.45 0.17,0.34 0.69,0.51 0.78,0.78 0.09,0.31 0.64,0.31 0.46,0.74 0.23,-0.11 0.24,0.22 0.33,0.3 0.67,0.84 0.7,2.38 -0.58,2.79 1.07,-0.09 2.15,-0.06 3.22,-0.3 0.42,-0.09 0.85,-0.21 1.25,-0.25 4.07,-0.52 9.19,-2.36 10.29,-6.43 l 1.43,-1.63 c 4.24,-9.81 2.79,-33.92 26.38,-39.71 12.28,-3.03 24.64,-6.82 37.24,-6.59 -3.04,-12.22 -3,-27.73 6.73,-36.57 -14.16,7.67 -23.6,6.05 -35.9,17.65 -5.5,5.18 -18.3,12.23 -24.48,11.19 -2.55,-0.43 3.53,8.14 -2.15,9.85 -3.72,1.1 -13.65,0.86 -15.36,-1.68 -8.16,-12.22 -16.74,-12.15 -19.62,-14.61 3.31,2.8 -13.36,16.33 7.34,23.66 1.98,0.73 2.71,5.2 0.28,6.34 -4.06,1.86 -7.44,-0.92 -11.44,-3.24 -4.58,-2.72 -5.64,7.2 -12.84,3.54 -1.49,21.19 17.49,23.02 28.79,9.8 0.79,-1 3.96,0.2 2.64,1.32 l -2.64,4.61"
         style="fill:#c41b31;fill-opacity:1;fill-rule:nonzero;stroke:none"
         id="path100" /><path
         d="m 1401.33,1356.11 c -2.92,-139.2 -5.78,-273.01 -46.87,-402.2 L 1064.3,1183.13 772.934,953.238 c -41.317,129.462 -44.164,263.552 -47.09,403.062 -0.274,13.25 -0.555,26.55 -0.864,39.86 h 677.24 c -0.32,-13.37 -0.61,-26.73 -0.89,-40.05 z M 1275.08,786.488 c -47.62,-72.75 -120.65,-133.59 -211.33,-176.097 -90.797,42.398 -163.945,103.238 -211.66,176.097 -7.988,12.203 -15.418,24.434 -22.402,36.731 l 234.592,185.041 233.51,-184.479 c -7.07,-12.492 -14.6,-24.902 -22.71,-37.293 z m -488.006,126.66 277.206,218.642 276.04,-218.06 c -6.95,-18.011 -14.71,-35.89 -23.42,-53.699 L 1064.3,1059.59 810.574,859.398 c -8.734,17.832 -16.531,35.743 -23.5,53.75 z m -75.847,496.362 0.164,-6.84 c 0.386,-15.58 0.711,-31.13 1.031,-46.64 4.234,-202.28 8.23,-393.331 128.414,-576.839 49.59,-75.722 125.707,-138.742 220.114,-182.23 l 2.82,-1.313 2.83,1.313 c 94.26,43.621 170.25,106.641 219.73,182.23 120.16,183.438 124.18,374.419 128.42,576.649 0.33,15.56 0.66,31.19 1.04,46.83 l 0.17,6.84 H 711.227"
         style="fill:#231f20;fill-opacity:1;fill-rule:nonzero;stroke:none"
         id="path102" /></g></g></svg>
