<svg width="488" height="117" viewBox="0 0 488 117" fill="none"
    xmlns="http://www.w3.org/2000/svg">
    <path d="M113.664 37.9879H124.16L133.364 67.953L143.348 37.8599H151.729L161.707 67.953L170.919 37.9879H181.151L165.959 82.5614H157.453L147.42 53.6093L137.371 82.5614H128.857L113.664 37.9879" fill="#231F20"/>
    <path d="M196.647 37.9799H205.676L224.728 82.5614H214.505L210.439 72.6265H191.631L187.56 82.5614H177.58L196.647 37.9799ZM206.945 64.0291L201.041 49.6799L195.133 64.0291H206.945Z" fill="#231F20"/>
    <path d="M235.399 47.2759H221.864V38.3013H258.725V47.2759H245.199V82.5614H235.399V47.2759Z" fill="#231F20"/>
    <path d="M266.168 38.3013H299.723V46.9506H275.891V55.9359H296.867V64.6078H275.891V73.8973H300.033V82.5614H266.168V38.3013Z" fill="#231F20"/>
    <path d="M310.563 38.3013H330.907C336.555 38.3013 340.937 39.8786 343.863 42.7933C346.34 45.2573 347.677 48.7266 347.677 52.8973V53.0319C347.677 60.1786 343.803 64.6707 338.148 66.7573L349.004 82.5614H337.564L328.035 68.3958H320.355V82.5614H310.563V38.3013ZM330.263 59.8015C335.036 59.8015 337.768 57.2706 337.768 53.5426V53.4146C337.768 49.2399 334.835 47.0906 330.072 47.0906H320.355V59.8015H330.263" fill="#231F20"/>
    <path d="M358.475 38.3013H368.257V73.7103H389.084V82.5614H358.475V38.3013" fill="#231F20"/>
    <path d="M390.588 60.5562V60.424C390.588 47.8533 400.565 37.5346 414.303 37.5346C428.021 37.5346 437.877 47.7213 437.877 60.3041V60.424C437.877 73.0161 427.896 83.3197 414.173 83.3197C400.452 83.3197 390.588 73.1385 390.588 60.5562V60.5562ZM427.639 60.5562V60.424C427.639 52.8506 422.052 46.516 414.173 46.516C406.291 46.516 400.827 52.716 400.827 60.3041V60.424C400.827 68.0136 406.417 74.3453 414.303 74.3453C422.175 74.3453 427.639 68.1521 427.639 60.5562" fill="#231F20"/>
    <path d="M440.62 60.5562V60.424C440.62 47.8533 450.593 37.5346 464.316 37.5346C478.051 37.5346 487.899 47.7213 487.899 60.3041V60.424C487.899 73.0161 477.921 83.3197 464.195 83.3197C450.469 83.3197 440.62 73.1385 440.62 60.5562V60.5562ZM477.672 60.5562V60.424C477.672 52.8506 472.08 46.516 464.195 46.516C456.323 46.516 450.853 52.716 450.853 60.3041V60.424C450.853 68.0136 456.447 74.3453 464.316 74.3453C472.199 74.3453 477.672 68.1521 477.672 60.5562Z" fill="#231F20"/>
    <path d="M138.496 15.904V4.25066H143.005V15.7867C143.005 19.1067 144.675 20.8267 147.425 20.8267C150.177 20.8267 151.847 19.1667 151.847 15.9333V4.25066H156.357V15.756C156.357 21.9333 152.872 24.964 147.368 24.964C141.863 24.964 138.496 21.904 138.496 15.904" fill="#231F20"/>
    <path d="M168.347 4.25066H172.505L182.109 16.808V4.25066H186.56V24.644H182.723L172.797 11.68V24.644H168.347V4.25066Z" fill="#231F20"/>
    <path d="M199.38 4.25066H203.891V24.644H199.38V4.25066Z" fill="#231F20"/>
    <path d="M214.959 4.25063H219.933L225.295 18.612L230.653 4.25063H235.511L227.228 24.788H223.245L214.959 4.25063Z" fill="#231F20"/>
    <path d="M246.369 4.25066H261.832V8.24265H250.853V12.3787H260.513V16.3693H250.853V20.6547H261.975V24.644H246.369V4.25066" fill="#231F20"/>
    <path d="M282.767 14.1547C284.96 14.1547 286.221 12.9907 286.221 11.2707V11.2133C286.221 9.28932 284.873 8.29865 282.677 8.29865H278.199V14.1547H282.767ZM273.691 4.25066H283.06C285.667 4.25066 287.687 4.97733 289.031 6.32133C290.173 7.45333 290.788 9.05732 290.788 10.98V11.0387C290.788 14.3307 289 16.3973 286.396 17.36L291.404 24.644H286.132L281.744 18.116H278.199V24.644H273.691V4.25066" fill="#231F20"/>
    <path d="M301.152 21.672L303.816 18.4973C305.661 20.0106 307.592 20.9733 309.935 20.9733C311.78 20.9733 312.892 20.244 312.892 19.0493V18.992C312.892 17.8546 312.189 17.272 308.765 16.3973C304.637 15.3493 301.971 14.2133 301.971 10.164V10.1053C301.971 6.40664 304.96 3.95731 309.144 3.95731C312.131 3.95731 314.68 4.89064 316.755 6.55197L314.413 9.93197C312.601 8.67997 310.815 7.92131 309.087 7.92131C307.36 7.92131 306.449 8.70664 306.449 9.69864V9.75598C306.449 11.0973 307.331 11.532 310.875 12.436C315.031 13.5133 317.372 15 317.372 18.5546V18.612C317.372 22.6613 314.269 24.936 309.847 24.936C306.745 24.936 303.609 23.856 301.152 21.672Z" fill="#231F20"/>
    <path d="M329.203 4.25066H333.709V24.644H329.203V4.25066Z" fill="#231F20"/>
    <path d="M351.304 8.38799H345.068V4.25066H362.051V8.38799H355.811V24.644H351.304V8.38799" fill="#231F20"/>
    <path d="M378.972 16.6027L371.097 4.25066H376.365L381.257 12.436L386.233 4.25066H391.357L383.481 16.5147V24.644H378.972V16.6027Z" fill="#231F20"/>
    <path d="M434.045 14.5053V14.448C434.045 10.9506 431.469 8.03997 427.839 8.03997C424.208 8.03997 421.691 10.8906 421.691 14.388V14.448C421.691 17.94 424.265 20.8573 427.899 20.8573C431.528 20.8573 434.045 18 434.045 14.5053V14.5053ZM416.976 14.5053V14.448C416.976 8.64929 421.576 3.89996 427.899 3.89996C434.224 3.89996 438.761 8.59196 438.761 14.388V14.448C438.761 20.244 434.164 24.9933 427.839 24.9933C421.515 24.9933 416.976 20.304 416.976 14.5053Z" fill="#231F20"/>
    <path d="M448.445 4.25066H464.052V8.32798H452.952V12.6693H462.733V16.748H452.952V24.644H448.445V4.25066" fill="#231F20"/>
    <path d="M51.148 116.479L49.9493 115.922C36.6464 109.797 25.9115 100.898 18.8984 90.1921C2.08173 64.5188 1.52707 37.9973 0.940136 9.91998C0.893736 7.79198 0.85053 5.66131 0.79733 3.52131L0.727066 0.617308H101.513L101.443 3.52398C101.389 5.67198 101.343 7.81864 101.301 9.9613C100.708 38.0213 100.151 64.5333 83.3387 90.1921C76.3427 100.883 65.6253 109.777 52.3467 115.922L51.148 116.479Z" fill="white"/>
    <path d="M50.9173 35.1907L11.4287 66.1213C5.08174 46.5613 5.2584 26.112 4.74733 5.28799H96.8773C96.368 26.164 96.6053 46.5307 90.2133 66.136L50.9173 35.1907" fill="#FCCE28"/>
    <path d="M82.8933 82.8161C81.92 84.536 80.88 86.2453 79.7627 87.9521C72.74 98.6828 62.308 106.624 50.836 111.929C39.3172 106.624 28.8885 98.6828 21.862 87.9521C20.7677 86.2855 18.7969 82.936 18.7969 82.936L50.9173 57.428L82.8933 82.8161" fill="#FCCE28"/>
    <path d="M23.8833 20.9907C19.2177 20.0053 15.0645 16.552 16.0661 12.172C16.076 12.1307 15.8875 11.0413 15.4849 10.8907C15.4527 10.8787 15.3864 10.756 15.3183 10.7373C15.1407 10.6907 14.9927 10.6147 14.8432 10.5053C14.7912 10.4667 14.5729 10.396 14.5729 10.3187C14.4896 10.4973 14.5068 10.664 14.3812 10.824C14.3385 10.8827 14.2708 10.9733 14.2052 11.008C14.1203 11.052 14.1145 11.1293 14.0495 11.1867C13.7 11.5373 13.8864 12.0653 13.9407 12.468C13.9563 12.5693 14 12.6933 13.8755 12.7147C13.726 12.7413 13.8464 12.6747 13.674 12.5693C13.6328 12.544 13.5729 12.48 13.5292 12.4587C13.4563 12.424 13.1645 12.3827 13.1172 12.3133C13.064 12.2373 13.0864 12.2133 13.0172 12.1493C12.8536 12.0053 12.8391 11.7187 12.7213 11.4213C12.7011 11.368 12.6531 11.1093 12.6531 11.052C12.6531 10.756 11.8917 10.2787 12.1875 10.5227C12.2885 10.6067 12.1697 10.4027 11.764 10.3027C11.5079 10.2373 11.2084 10.252 10.9203 10.2867C10.8593 10.2973 10.8041 10.3467 10.762 10.3773C10.464 10.6067 10.1896 10.88 9.80466 10.896C9.86933 10.8547 9.90306 10.9333 9.93173 10.9667C10.1156 11.2027 9.98226 11.4933 10.0907 11.7533C10.2 12.008 10.3864 12.204 10.6041 12.3787C10.8172 12.544 11.1869 12.3267 11.3505 12.6147C11.3505 12.6053 11.6979 12.6947 11.3563 13.036C10.7287 13.664 10.0312 13.1573 9.512 14.324C10.2979 13.988 10.3864 15.18 10.7208 15.224C12.2245 15.4293 13.3693 15.6933 14.1953 17.2107C14.6989 18.136 13.2917 18.18 14.5651 18.396C15.2115 18.5067 15.6437 18.8307 15.9708 19.2867C16.314 19.7667 16.3615 20.4067 16.7271 20.8547C16.9948 21.1747 17.0959 21.2387 17.4161 21.5053C17.562 21.6267 18.024 21.7467 18.1973 21.7893C18.3703 21.836 18.4745 21.9227 18.6407 21.9827C18.8161 22.0467 19.0016 22.1093 19.1495 22.2293C19.2751 22.3333 19.5937 22.4427 19.6667 22.5867C19.7973 22.8413 19.6932 23.1013 19.8312 23.3573C19.874 23.428 20.0713 23.3653 20.1547 23.3907C20.2328 23.42 20.4109 23.4307 20.4588 23.42C20.764 23.3507 20.8385 23.3307 21.0661 23.304C21.4136 23.264 21.374 23.3733 21.8235 23.3507C21.9193 23.3507 21.9579 23.42 22.0869 23.42C22.1745 23.42 22.326 23.5133 22.3511 23.4347C22.4864 23.008 22.7104 22.5973 22.964 22.1827C23.214 21.7693 23.1937 21.7293 23.5125 21.2947C23.4745 21.308 23.9224 20.9947 23.8833 20.9907" fill="#C41B31"/>
    <path d="M12.2417 21.5306C13.6073 22.2639 13.4235 24.0706 14.6541 24.6546C16.8459 25.6933 19.4615 26.4066 21.7917 25.2693C21.2735 26.8813 21.8464 28.2293 21.6197 28.4106C20.888 28.9946 18.664 28.2999 17.2396 27.7386C16.2579 27.3506 15.4625 28.7999 14.3797 28.6733C14.4344 28.5479 14.5573 28.1746 14.4839 27.9453C14.314 27.4199 14.1771 27.2693 13.3 27.3706C12.7344 27.4333 12.9688 27.8973 12.1219 28.3119C11.7869 28.1119 11.0703 27.8906 10.9656 28.5239C10.9172 28.8186 10.3208 27.4946 10.4407 27.2759C10.9953 26.2839 11.1088 26.0519 11.0697 25.8386C11.0031 25.5133 9.80213 25.0719 9.64586 25.3479C9.27239 25.9973 8.16973 23.2453 11.4251 23.4199C10.5489 22.8599 10.6505 22.7639 10.8541 22.0973C10.8803 22.0053 10.5521 21.6613 10.3287 21.8986C10.2552 21.6426 10.4292 21.3626 10.6328 21.3386C11.1688 21.2639 11.6932 21.2346 12.2417 21.5306" fill="#C41B31"/>
    <path d="M18.7188 14.8547C20.6948 15.308 23.6484 12.772 25.364 15.7627C24.0973 15.3027 20.3527 17.2973 18.7188 14.8547" fill="#C41B31"/>
    <path d="M35.2417 19.2039C35.2031 21.7666 32.5369 24.5319 34.6989 26.9706C33.8156 26.9573 32.7683 26.6546 32.1536 26.1573C31.8104 25.8786 31.886 27.3773 31.9317 27.6853C31.9729 27.9479 30.2891 26.1066 29.6584 26.5573C27.8745 27.8333 27.0995 28.3599 24.4484 28.4573C23.7115 28.4826 23.3276 29.0733 23.1188 29.7146C22.5172 28.4933 22.964 25.7119 23.3093 24.4773C24.2473 21.0893 27.6661 20.0839 30.4093 18.4653C32.3776 17.2999 33.2197 15.0239 33.1203 12.8026C34.5151 14.5399 35.2729 17.0253 35.2417 19.2039" fill="#C41B31"/>
    <path d="M22.6896 48.0493C23.024 48.1253 22.7755 48.4 22.6448 48.4826C22.3708 48.664 22.1839 48.8853 22.0104 49.1546C21.8792 49.3573 21.7869 49.5746 21.8364 49.824C21.8708 50.0066 21.9339 50.1693 22.0021 50.336C22.0464 50.4386 22.1412 50.4973 22.2193 50.5826C22.2516 50.6146 22.3708 50.7666 22.374 50.7773C22.2995 50.5199 22.6667 50.26 22.7521 50.308C24.4511 51.2893 24.5495 49.3026 25.5677 48.6266C26 48.3386 26.976 48.672 26.7235 49.552C27.738 49.0133 28.0369 47.6546 28.8281 46.804C30.5755 44.9186 33.0235 43.6639 35.3473 42.6439C34.5068 41.7533 33.2693 41.0079 32.6412 39.9933C32.3317 39.4879 31.9609 38.5 32.6473 38.6826C35.5036 39.4253 37.1068 37.6906 37.424 35.452C41.6536 35.9946 42.7547 32.016 43.3267 29.008C43.6013 27.5493 44.4053 27.4226 43.528 24.936C43.1627 23.896 45.4053 23.5546 45.024 21.76C44.9173 21.264 44.3013 20.7653 43.936 20.7066C44.2827 21.6733 42.6547 21.9186 42.476 22.3133C42.2011 22.9333 41.7989 23.4306 41.7443 24.08C40.3651 22.1826 41.4828 19.896 42.776 18.1186C44.6653 15.5306 48.5813 16.8906 50.2293 18.56C50.26 17.7213 49.608 16.6573 49.0707 16.144C50.612 15.9453 52.284 16.8826 54.3867 15.772C55.6013 15.1293 56.828 14.58 57.3973 13.1546C54.8147 13.5066 51.3173 11.5293 48.9907 11.1253C44.6547 10.3773 41.7443 13.3213 40.1921 16.8306C38.6473 20.336 39.638 22.9533 41.3145 25.5733C41.736 26.2346 39.8255 25.8 39.0724 26.188C38.338 26.5653 38.0385 27.4666 38.2052 28.264C39.1307 27.276 41.5812 27.8826 41.8016 29.5746C42.1041 31.8573 39.7927 35.1773 37.5584 34.1826C35.1683 33.1146 33.814 30.6053 33.0188 27.7813C30.9771 29.5333 27.1979 28.0866 25.4427 29.7973C23.774 31.424 28.0443 32.5266 29.7063 33.2919C30.3197 33.5786 30.9323 34.2013 30.8312 34.9706C28.2271 33.448 25.0912 35.1733 25.2443 37.9426C25.362 40.0133 27.9057 41.3 30.0255 41.4746C30.9079 41.5453 31.4396 42.524 30.3656 43.1906C28.4828 44.3626 26.3849 45.6693 24.3563 43.552C24.0177 43.1986 22.8027 43.42 22.562 44.0626C22.4448 44.376 22.4063 44.8546 22.4563 45.172C22.5651 44.98 22.6937 44.7066 22.8656 44.7293C23.0651 44.756 23.3093 44.964 23.2817 45.112C23.1068 46.1493 21.7369 45.4773 21.3125 46.2853C21.3027 46.304 21.2807 46.32 21.2703 46.3386C21.2443 46.404 21.2079 46.4613 21.1776 46.5213C20.8995 47.0706 20.5183 47.4159 21.2021 47.8426C21.1844 47.7426 21.5407 48.2813 21.5333 48.3746C21.5672 47.8773 22.0869 47.8853 22.0869 47.8853L22.388 47.916L22.6896 48.0493" fill="#C41B31"/>
    <path d="M13.8755 38.3026C13.6057 38.216 13.3265 38.3213 13.0615 38.44C12.8917 38.5146 12.6875 38.436 12.5833 38.6066C12.5208 38.712 12.4828 38.8266 12.5172 38.944C12.5339 39.0066 12.5615 39.1253 12.6145 39.1613C12.2579 39.1333 11.9224 38.8933 11.6495 38.6493C11.5604 38.5693 11.5068 38.4813 11.4213 38.3933C11.3667 38.336 11.3729 38.232 11.3364 38.1546C11.2979 38.0706 11.3151 37.9773 11.3131 37.8906C11.3041 37.6466 11.2979 37.396 11.4084 37.1693C11.4588 37.0653 11.5104 36.9586 11.586 36.8706C11.6453 36.7933 11.7036 36.736 11.7688 36.6733C11.9521 36.5 12.1547 36.3653 12.3964 36.2933C12.7484 36.188 13.1333 36.2186 13.4697 36.368C13.738 36.4826 14.0568 36.4693 14.3385 36.5453C14.4896 36.588 14.7708 36.1546 14.5672 36.1053C13.6787 35.8906 13.6828 35.652 13.3505 34.7586C13.1953 34.5826 12.9917 34.7826 12.9041 34.876C12.9005 33.1613 14.9432 33.048 15.7989 33.7266C17.0631 34.74 16.1125 36.7186 17.6672 37.2666C18.476 37.552 19.3328 37.7733 20.1693 37.4213C21.6703 36.784 20.1735 35.284 20.6568 34.0133C21.6364 31.452 23.8073 31.3186 26.3932 33.7866C24.0807 34.5493 22.9995 37.596 24.2656 39.6026C22.226 38.8053 19.6541 40.148 18.2208 41.0573C19.5527 39.7293 17.6807 38.6573 17.2088 38.8933L16.6401 39.2866C16.3677 39.6306 16.3469 39.9853 16.0109 40.3133C15.8224 40.4946 15.7156 40.532 15.4697 40.5946C15.1307 40.6826 14.9213 40.6546 14.6197 40.456C14.5651 40.4226 14.3812 40.5 14.3473 40.5453C14.1844 40.7453 14.3417 40.8413 14.3385 40.9173C14.3052 40.8933 14.0937 40.7213 14.0631 40.6986C13.8703 40.5546 13.6495 40.428 13.5292 40.232C13.4088 40.0346 13.3265 39.5373 13.4636 39.2666C13.5969 38.9973 13.8688 38.9133 14.0495 38.7293C14.2213 38.5573 14.0161 38.2946 13.8104 38.264" fill="#C41B31"/>
    <path d="M63.5213 15.68C63.704 15.7973 63.5067 16.128 63.296 16.188C63.048 16.256 62.7 16.152 62.4827 16.236C61.5093 16.592 61.508 18.972 61.64 18.696C61.7867 18.3933 62.5053 18.5906 62.9693 18.6813C63.72 18.8333 64.288 17.316 64.7813 17.3586C65.9493 17.464 67.0427 18.9093 67.4867 19.8586C67.568 20.0333 66.9973 20.04 66.96 20.624C68.552 20.4746 69.896 21.5026 71.0467 22.444C71.6067 21.4746 72.172 20.876 72.808 20.2426C70.4147 17.9253 65.656 17.2093 66.3907 12.9853C66.488 12.4426 65.872 11.9653 65.6 11.6986C65.288 11.404 64.584 11.388 64.152 11.2853C64.6067 12.2213 63.7867 12.3133 63.904 13.7986C63.904 13.8453 63.7693 13.816 63.7173 13.7933C63.432 13.672 63.188 13.4946 62.9147 13.3266C62.6693 13.172 62.4387 13.2146 62.1653 13.2533C62 13.276 61.8507 13.352 61.7107 13.4506C61.484 13.612 61.368 13.82 61.212 14.0493C61.18 14.0893 61.1493 14.1387 61.1133 14.1747C61.0627 14.228 60.9613 14.388 60.9533 14.468C61.0787 14.456 61.464 14.4853 61.5307 14.588C61.64 14.7613 61.644 14.9586 61.776 15.124C61.9413 15.3333 62.0787 15.3386 62.3173 15.4386C62.6893 15.5946 63.0227 15.664 63.4293 15.6293" fill="#C41B31"/>
    <path d="M69.7093 13.9786C71.204 13.8679 72.6853 12.7266 74.3373 14.6573C74.0307 14.5106 73.6773 14.4613 73.4907 14.6093C71.6627 16.0773 69.4413 15.5813 68.272 13.7653C68.7493 13.6893 69.324 14.0079 69.7093 13.9786Z" fill="#C41B31"/>
    <path d="M76.1747 19.3746C78.6293 18.1386 81.112 17.1453 82.1227 14.1146C82.32 13.5239 82.7747 14.9946 82.8027 15.0786C84.1013 18.7773 81.5133 22.4533 82.0453 26.2266C81.18 25.7013 80.208 25.3386 79.26 25.3106C75.888 25.2146 75.0893 27.2533 74.8973 27.0626C73.9733 26.1333 71.3187 25.3333 71.512 25.5106C69.9373 24.0613 74.4827 20.2319 76.1747 19.3746" fill="#C41B31"/>
    <path d="M69.4613 43.9906C69.8 44.5053 69.3507 43.6959 69.7347 44.5773C71.512 43.8359 73.3507 42.9879 75.3173 43.7826C74.4453 39.8053 77.364 38.8386 77.5946 38.2426C77.9653 37.2893 76.0146 35.3906 74.5453 35.9199C72.6706 36.5879 73.4507 38.9399 73.0987 40.5893C72.904 41.4999 71.7693 42.1693 70.8266 41.8439C69.276 41.3133 68.6533 39.8759 68.2693 38.2613C68.012 37.1879 65.912 37.0573 65.4573 37.9373C64.1667 40.4333 66.224 37.6466 66.0907 39.5426C66.0693 39.8639 64.584 39.6213 64.2507 40.7453C64.0253 41.5106 64.7533 42.0226 65.672 42.2919C65.84 42.3413 65.4946 41.9119 65.7253 41.8186C65.892 41.7533 66.5653 42.112 66.4853 42.1573C65.6013 42.696 65.376 43.9426 66.9547 44.4853C66.9667 44.4879 66.84 44.0373 66.96 43.9479C68.1946 43.0319 69.4813 44.0213 69.484 43.9906" fill="#C41B31"/>
    <path d="M42.7307 69.1426C44.208 69.8224 44.6867 69.0921 46.6293 68.7786C46.9013 68.7333 47.9946 69.4437 48.312 69.8041C46.3653 70.1104 43.996 71.7984 42.7307 69.1426" fill="#C41B31"/>
    <path d="M41.9391 70.6906C41.8489 70.5896 41.7213 70.5494 41.6011 70.5026C41.4807 70.4453 41.3511 70.4026 41.2115 70.3854C41.1771 70.3786 40.9317 70.3224 40.8937 70.3078C40.8855 70.3948 40.9984 70.6197 40.9344 70.677C40.7792 70.8213 40.724 70.7864 40.5989 70.9734C40.5531 71.0478 40.5036 71.1188 40.486 71.2026C40.45 71.3708 40.3751 71.565 40.3557 71.7573C40.3489 71.8557 40.3896 72.0864 40.4115 72.1734C40.4251 72.2224 40.5287 72.4306 40.5579 72.488C40.5579 72.488 40.7937 72.7401 40.7812 72.7281C41.0547 73.0068 40.8307 72.8426 41.1683 73.177C41.3407 73.3385 41.0891 73.6197 40.9235 73.5718C39.7807 73.2437 39.6208 71.924 38.5803 71.5197C37.8208 71.2281 36.7317 71.8161 36.6167 72.964C36.8724 72.889 37.138 72.9864 37.188 73.1973C37.4677 74.3557 39.1713 73.6666 39.2115 74.4786C39.2421 75.0104 37.9375 74.3864 37.4219 74.7281C36.7396 75.1802 36.6473 76.4828 37.2473 77.2412C37.8688 76.6557 38.6407 77.5136 39.2421 77.088C39.6645 76.7854 39.814 76.3625 40.2448 76.1734C41.5547 75.5984 41.9391 76.7973 41.6495 78.0041C42.3573 77.677 44.0213 77.336 44.4027 77.2292C45.092 77.0453 45.1227 75.4614 45.968 74.877C44.7693 74.8734 43.288 74.3557 42.956 73.1921C42.924 73.0693 43.008 72.9265 43.02 72.7854C43.0493 72.3412 43.008 71.912 42.8387 71.5052C42.8227 71.4625 42.7787 71.4078 42.7467 71.3557C42.7 71.2932 42.66 71.224 42.6133 71.1573C42.4947 70.9932 42.3193 70.9161 42.1479 70.8104C42.0724 70.7614 41.9792 70.7469 41.924 70.6708" fill="#C41B31"/>
    <path d="M33.1401 78.8973C33.664 79.9104 31.0817 78.2864 30.1136 79.7864C29.8052 80.2693 29.9713 81.3546 29.9713 81.9666C30.5631 81.4317 31.1541 82.4505 32.262 81.4745C32.3849 81.5854 32.5172 81.653 32.3489 81.824C31.9396 82.2333 31.7104 82.7469 31.9271 83.2385C32.0625 83.5625 32.9817 84.2078 32.9896 84.1521C33.0833 83.4921 34.2177 84.1521 34.3948 82.8521C34.4708 82.3161 34.6276 81.4265 35.4088 81.7494C36.1197 82.0426 36.2672 82.8426 36.1011 83.6401C37.2349 83.2708 39.2292 82.1136 40.4193 82.9693C42.0188 84.1172 44.6467 84.5948 46.5173 85.1708C45.276 84.3136 44.8813 82.0734 45.088 80.6145C42.1407 81.1906 39.0473 81.0932 36.3145 79.836C35.5677 79.4906 35.6683 78.6306 35.4427 77.9229C35.1869 77.1265 34.1797 76.3906 33.2656 76.4598C32.7751 76.4958 31.5959 77.5224 31.8193 77.5734C31.7421 77.5557 31.7448 77.7224 31.7057 77.7973C31.9276 77.6588 32.2088 77.7973 32.3093 78.036C32.3807 78.2016 32.4505 78.3838 32.5917 78.5188C32.7584 78.6812 33.0473 78.7197 33.1401 78.8973" fill="#C41B31"/>
    <path d="M40.2036 94.9229C40.776 94.224 41.2521 94.5973 41.5021 94.6027C42.0995 94.6213 42.0584 95.4599 41.9979 95.9973C44.3413 94.8667 46.5733 93.2588 49.3227 93.8495C47.7227 92.1812 48.2907 88.6041 50.5533 88.1615C50.5587 88.1615 49.0933 87.924 48.9387 87.8265C46.9707 86.5839 44.5627 85.3973 43.24 88C42.5813 89.2959 43.7907 90.3401 44.6947 91.4052C44.8573 91.6016 44.5933 91.7172 44.3827 91.7719C42.2307 92.3224 38.264 92.6437 38.0869 89.4385C38.0677 89.1145 37.2349 88.8479 36.6984 88.8625C35.1047 88.9104 35.1303 90.9349 35.312 90.7932C35.6599 90.5307 36.7271 90.624 36.5984 91.4349C36.4792 92.1907 34.9927 91.036 34.4005 91.7973C33.9036 92.4317 33.9193 93.4745 34.2713 94.1745C34.2005 93.9197 34.5 93.7292 34.6615 93.7068C36.3145 93.4281 36.4079 94 35.9183 95.5932C35.8803 95.7136 36.4068 96.7213 36.7547 96.8136C36.7271 96.8016 36.7328 96.5803 36.7807 96.5052C36.8265 96.4292 36.9084 96.3719 36.9917 96.3427C37.1713 96.2864 37.3541 96.2948 37.536 96.2469C37.6219 96.2188 37.6869 96.1667 37.7683 96.1161C37.8984 96.0375 37.9864 95.9224 38.0803 95.8041C38.4656 95.324 38.8031 94.7079 39.4511 94.6453C39.75 94.6161 39.9401 94.7505 40.1973 94.9145" fill="#C41B31"/>
    <path d="M57.3067 102.357C58.816 100.863 59.908 98.8734 61.524 97.4172C59.7533 96.3786 57.556 95.2948 57.324 92.964C57.3067 92.8068 57.5693 92.6317 57.632 92.6614C60.0947 94.0374 63.416 94.1469 65.1933 91.6437C66.6253 89.6188 67.2467 86.3333 70.044 86.1453C69.1133 84.3666 70.16 82.3136 71.6893 81.377C71.172 81.1812 70.5093 80.7614 69.9293 80.8666C69.224 80.988 68.9213 81.9401 68.1173 82.088C69.3827 77.8426 66.9347 71.9161 62.2373 72.0172C61.3573 72.0385 60.2173 72.7426 59.928 73.7026C59.6573 74.6041 59.5173 75.7401 60.1707 76.5136C61.7107 78.3478 62.82 80.3453 62.3347 82.764C63.432 81.824 64.4427 80.4385 64.404 78.9598C64.3973 78.5906 65.072 78.8546 65.176 78.7026C66.4587 76.8306 64.36 75.6718 63.2453 74.4932C62.9373 74.1745 63.7213 73.6802 63.8213 73.7145C67.8507 74.9136 68.232 79.8505 66.5053 83.0598C66.0467 82.489 64.34 82.676 63.764 82.4828C65.648 83.4281 65.16 83.5625 65.08 83.8745C64.9387 84.4385 63.248 84.1932 62.9187 84.6068C62.3547 85.3281 61.9293 85.6437 61.8853 88.0292C62.6667 87.1906 63.692 85.9188 64.8013 86.4864C67.1733 87.6973 64.684 91.777 62.448 92.453C60.5373 93.0281 58.768 92.4229 57.5853 90.7682C55.8747 88.3734 57.116 85.4718 55.9013 83.0437C54.888 83.2932 55.12 84.6068 54.592 84.3734C52.7293 83.5136 51.6707 81.5317 50.3213 79.8718C49.764 80.0708 49.5147 80.588 48.976 80.5614C48.1787 80.5265 46.6747 80.2828 46.3533 80.6812C45.9827 81.1453 45.7093 84.512 49.0013 85.7333C51.236 86.5625 53.0067 87.3026 54.4133 89.0385C53.4707 89.112 53.1427 88.6614 52.3707 88.6317C51.612 88.6041 51.132 88.8958 50.5587 89.189C50.012 89.4708 49.368 90.5412 49.4773 91.3932C49.9933 95.4718 54.804 95.5281 57.0173 98.1068C57.3987 98.5437 56.4373 100.316 55.532 101.035C54.76 101.647 52.908 100.109 53.208 98.8068C53.452 97.7708 50.9267 97.0708 50.0413 98.2625C50.3933 98.2213 50.4813 98.4546 50.448 98.6136C50.292 99.577 51.4893 99.6136 51.4493 100.102C51.3947 100.773 50.8093 99.8172 50.348 99.7306C49.328 99.5281 48.316 99.8828 47.7187 100.697C47.54 100.937 47.1387 101.331 47.3147 101.748C48.096 101.371 48.5027 102.577 49.228 102.203C49.668 101.979 50.032 101.589 50.564 101.724C50.776 101.781 50.996 102.067 50.8027 102.188C49.384 103.096 48.2467 104.368 49.2747 105.815C49.3013 105.476 49.5693 105.237 49.7853 105.177C50.2 105.06 50.748 105.343 51.152 105.214C51.812 104.989 51.4707 104.339 51.724 103.872C52.1173 103.133 53.46 101.916 54.2133 102.805C54.3533 102.964 54.244 103.56 53.8373 103.565C54.2547 103.56 54.6267 103.964 54.9813 103.889C55.0813 103.872 55.188 103.872 55.2787 103.824C55.3587 103.785 55.4493 103.767 55.5093 103.704C55.676 103.539 55.868 103.36 55.8947 103.096C56.1987 103.121 56.584 103.153 56.7827 102.892C56.976 102.635 57.2173 102.435 57.4293 102.237" fill="#C41B31"/>
    <path d="M50.4413 72.8718C53.08 72.1349 56.012 70.7718 56.644 67.8546C57.444 68.3349 57.696 69.4239 57.7053 70.0879C57.7627 73.7453 56.1573 76.9041 56.9373 80.7317C57.0227 81.1639 57.8187 82.5254 57.4573 82.3639C57.0173 82.1666 56.0893 81.2999 55.5773 81.7041C54.94 82.2026 54.9813 82.989 54.6733 82.8067C53.5147 82.1026 52.288 81.065 51.724 79.7265C51.5053 79.2197 51.5973 78.1385 51.4533 78.2921C50.5747 79.2494 48.7693 79.453 47.432 79.6557C47.7373 79.3827 48.0107 78.2947 47.9613 78.0693C46.9107 77.5453 45.4 79.3349 45.4253 79.1067C45.4813 78.5281 45.544 78.3505 45.6 78.1921C46.3827 75.9015 47.8587 73.5811 50.4413 72.8718" fill="#C41B31"/>
    <path d="M28.9604 12.032C29.0713 11.9826 29.1281 11.9053 29.114 11.8907C28.1579 10.5547 27.0052 10.688 26.5188 11.8786C26.188 12.6826 28.1136 12.424 28.9604 12.032V12.032ZM30.8312 10.612C31.5156 10.5946 32.0213 10.172 32.4563 9.71464C32.4224 10.0973 32.9869 10.6413 32.7771 11.0493C32.5161 11.5613 31.8557 11.868 31.7265 12.3453C31.4557 13.3213 32.2432 14.2733 31.6688 15.24C29.9745 18.092 26.2771 17.1493 23.7505 17.7813C23.9251 17.4733 23.7079 17.016 23.5183 16.888C24.6396 17.032 26.1297 16.7866 26.4303 15.944C26.7995 14.9066 26.9839 14.1386 26.4943 13.2813C25.6839 11.8666 24.0021 12.5266 22.7391 13.0186C22.5396 12.1413 23.3672 11.6066 23.8432 11.4866C25.1823 11.136 26.3953 10.56 27.6432 10.0973C28.7287 9.69064 29.7183 10.6413 30.8312 10.612" fill="#C41B31"/>
    <path d="M77.9693 11.524C78.076 11.4613 77.8853 11.6053 77.9733 11.516C76.928 10.9947 75.5667 10.3133 75.0893 11.704C74.7387 12.7213 77.064 12.008 77.9693 11.524V11.524ZM79.6453 15.988C79.284 16.2973 78.68 16.2893 78.2707 16.5653C78.02 16.74 77.7947 16.924 77.5347 17.08C77.4133 17.1546 77.0493 17.316 76.9173 17.3493C76.5493 17.4427 76.6293 17.4 76.2893 17.4426C76.0853 17.4733 75.9907 17.4827 75.7867 17.4827C75.584 17.4827 74.96 17.5 74.76 17.4946C74.2787 17.4853 74.1973 17.516 73.716 17.4426C73.44 17.4 73.1747 17.3267 72.9133 17.2373C72.74 17.18 72.5533 17.1466 72.3693 17.1426C72.3907 16.9506 72.4133 16.7427 72.5667 16.6173C72.7667 16.4453 72.8053 16.6 73.0987 16.5733C73.112 16.5707 73.5133 16.6067 73.528 16.6067C73.596 16.6053 73.6773 16.6026 73.7467 16.592C73.8747 16.5733 73.98 16.5493 74.0933 16.4946C74.2373 16.4266 74.3947 16.3826 74.5253 16.2786C74.5707 16.24 74.6227 16.204 74.6693 16.16C74.7653 16.068 74.896 16.0213 74.9827 15.9147C75.2573 15.5813 75.464 15.2573 75.492 14.828C75.52 14.5106 75.544 14.1827 75.4853 13.8573C75.476 13.8053 75.468 13.7533 75.464 13.7067C75.4427 13.4533 75.3187 13.216 75.1947 12.9827C74.4613 11.592 72.7013 12.9533 71.4973 12.8907C71.4973 12.6253 71.472 12.1373 71.6067 11.964C72.4667 10.86 73.7973 11.4026 74.4853 10.896C76.8053 9.18665 77.4213 10.42 79.8467 11.0867C80.5747 11.2867 81.6147 10.8307 82.304 10.5387C82.472 10.4667 82.4693 11.5573 82.3853 11.7786C82.0947 12.544 81.3013 12.5053 81.0213 13.1907C80.6133 14.196 80.5507 15.612 79.48 16.12" fill="#C41B31"/>
    <path d="M50.5853 67.2896C50.9987 67.4412 52.2293 66.7693 52.6747 66.5197C52.7827 66.4599 52.8587 66.3547 52.944 66.2683C52.9507 66.2563 52.936 66.2292 52.9187 66.2265C52.5653 66.1531 52.2467 66.1265 51.9013 66.0907C51.6427 66.0588 51.4493 65.8828 51.1907 65.8349C51.124 65.8188 51.0613 65.8292 50.9893 65.8547C50.8907 65.8921 50.8573 65.9651 50.776 66.0016C50.652 66.0588 50.4747 66.0588 50.3627 66.1615C50.248 66.2651 50.1493 66.3625 50.1147 66.5104C50.0667 66.6803 50.1053 66.9292 50.224 67.076C50.3173 67.1932 50.456 67.2437 50.5853 67.2896V67.2896ZM53.7733 65.4229C54.8467 65.6745 56.0173 65.7104 56.7133 64.7745C57.0533 66.2224 55.7213 66.4052 55.4733 67.112C55.1 68.1891 55.124 69.2667 54.076 69.8224C51.988 70.9281 49.3773 72.2563 46.9827 72.4495C47.0013 72.1599 46.7987 71.6255 47.184 71.6052C48.0213 71.5683 48.6747 70.9469 48.864 70.4547C49.1267 69.7683 48.828 68.1 48.2027 67.7745C47.4813 67.3948 46.8493 67.9771 46.1853 68.2683C45.908 67.5375 47.052 66.3265 48.8467 66.4317C48.8 66.4292 49.736 65.4145 49.692 65.4453C50.864 64.6437 52.1493 65.0479 53.7733 65.4229" fill="#C41B31"/>
    <path d="M86.3307 55.3053C86.2947 54.952 87.1773 53.908 87.2 53.1373C87.284 50.5226 88.8667 49.288 88.9133 46.4946C88.9227 45.7666 85.8893 45.0813 85.7573 43.5093C85.6947 42.7306 85.436 41.6053 86.22 41.6213C87.2253 41.64 88.2147 41.4613 88.9253 40.836C92.1 38.0573 89.42 34.2586 89.036 30.904C88.952 30.1693 90.32 28.5853 90.28 28.064C90.06 25.2186 89.5307 22.6253 90.548 19.8306C89.7507 20.54 89.5107 21.7146 88.8413 22.3133C88.516 22.6146 88.356 21.9506 88.3787 21.8466C88.78 19.388 89.764 17.2373 90.908 14.8986C92.26 12.1306 91.584 9.88131 89.08 9.05464C86.7827 8.29331 84.5667 10.42 84.3187 12.604C84.088 14.6066 84.7147 17.0106 85.192 18.6493C85.3293 19.1306 85.2467 19.6773 85.3493 20.0946C85.7587 18.4386 85.8053 16.708 85.7787 14.956C85.772 14.528 86.1133 13.9546 86.5533 13.828C88.0453 13.3986 88.8173 14.472 88.7187 15.3053C88.3893 17.9306 87.8573 19.94 87.2253 22.548C86.5053 25.5253 87.5787 28.4773 87.8933 31.3706C86.7453 30.7 85.4973 30.6666 85.0533 32.4453C84.8133 33.3906 85.6707 34.3853 85.9347 35.2213C85.9613 34.084 87.04 32.532 88.088 33.224C89.3733 34.076 89.42 38.16 89.136 38.7013C88.5107 39.8826 87.4853 40.7293 86.0613 40.3106C85.2573 40.076 85.584 38.8933 85.1027 38.3933C82.544 35.7613 81.3787 32.612 81.1613 28.9746C81.1253 28.4426 81.404 27.0466 81.3267 27.016C77.9813 25.644 76.44 27.0106 75.052 28.9746C74.812 28.3813 73.5347 27.5493 73.4333 27.7346C72.7973 28.9066 72.98 31.0346 73.932 31.8573C76.512 34.0786 79.068 35.5666 80.5173 38.7413C78.972 38.94 77.46 39.388 76.8653 40.9973C76.2453 42.6786 76.4573 45.0146 78.2413 45.6986C79.696 46.256 82.1933 45.6333 82.74 45.7026C84.2853 45.904 86.0133 47.228 85.772 48.684C85.7587 48.7586 85.1093 52.1533 83.632 51.3093C82.8307 50.8546 83.28 48.9933 82.0627 48.7013C80.42 48.3066 80.0173 50.588 80.2253 50.3906C80.748 49.896 81.112 50.716 82.128 51.272C78.6893 50.5306 79.7573 53.6666 79.8827 53.3213C80.0587 52.8333 80.6813 53.3426 81.9147 53.2586C81.9587 53.2586 81.6453 53.5146 81.628 53.5426C81.436 53.856 81.34 54.0106 81.2 54.3426C81.132 54.4973 81.14 54.6693 81.1627 54.8333C81.1773 55.0026 81.2387 55.148 81.3293 55.2933C81.3467 55.3253 81.3787 55.3533 81.4147 55.372C81.4307 55.3773 81.48 55.4546 81.4893 55.4546C81.564 55.4626 81.4213 55.2146 81.6213 55.2C81.668 55.1933 81.8133 55.1733 81.852 55.188C81.9427 55.2213 82.06 55.2786 82.156 55.3053C82.244 55.328 82.3373 55.344 82.436 55.3613C82.6693 55.3906 82.752 55.4 82.9587 55.328C83.1307 55.268 83.304 55.2306 83.468 55.116C83.248 55.268 83.712 54.8946 83.692 54.936C83.904 54.48 84.0373 54.6106 84.084 54.532C84.4493 53.8386 84.7667 53.772 85.5747 53.8706C85.652 53.8786 85.8013 54.0426 85.8493 54.1146C85.908 54.2 86.0747 54.636 86.044 54.4746C86.1027 54.796 86.3013 54.9973 86.3307 55.3053" fill="#C41B31"/>
    <path d="M61.5387 23.8159C61.3307 23.6826 61.2613 23.3653 61.1173 23.2346C61.0733 23.1879 61.036 23.1333 60.9893 23.0839C60.9187 23.0106 60.8853 22.9093 60.856 22.8079C60.7147 22.3213 60.788 21.7426 61.2307 21.4173C61.2493 21.4013 61.244 21.3759 61.252 21.3573C61.2747 21.3119 61.344 21.2893 61.356 21.2533C61.368 21.2119 61.4413 21.2119 61.4173 21.1546C61.448 21.1693 61.4493 21.1253 61.4613 21.1146C61.5507 21.0026 61.5547 20.7973 61.384 20.7426C61.5267 20.7546 61.6707 20.7506 61.8133 20.7826C61.8693 20.7946 61.9267 20.8106 61.98 20.8159C62.5227 20.8853 63.2053 21.1306 63.352 21.6733L63.5427 21.8906C64.108 23.1986 63.9147 26.4133 67.06 27.1853C68.6973 27.5893 70.3453 28.0946 72.0253 28.0639C71.62 29.6933 71.6253 31.7613 72.9227 32.9399C71.0347 31.9173 69.776 32.1333 68.136 30.5866C67.4027 29.8959 65.696 28.9559 64.872 29.0946C64.532 29.1519 65.3427 28.0093 64.5853 27.7813C64.0893 27.6346 62.7653 27.6666 62.5373 28.0053C61.4493 29.6346 60.3053 29.6253 59.9213 29.9533C60.3627 29.5799 58.14 27.7759 60.9 26.7986C61.164 26.7013 61.2613 26.1053 60.9373 25.9533C60.396 25.7053 59.9453 26.0759 59.412 26.3853C58.8013 26.7479 58.66 25.4253 57.7 25.9133C57.5013 23.0879 60.032 22.8439 61.5387 24.6066C61.644 24.7399 62.0667 24.5799 61.8907 24.4306L61.5387 23.8159" fill="#C41B31"/>
    <path d="M95.844 11.5187C95.4547 30.0786 95.0733 47.92 89.5947 65.1453L50.9067 34.5826L12.0579 65.2349C6.54893 47.9733 6.16933 30.0946 5.7792 11.4933C5.74266 9.72664 5.70519 7.95331 5.66399 6.17864H95.9627C95.92 7.96131 95.8813 9.74265 95.844 11.5187V11.5187ZM79.0107 87.4682C72.6613 97.1682 62.924 105.28 50.8333 110.948C38.7271 105.295 28.974 97.1828 22.612 87.4682C21.5469 85.8412 20.5563 84.2104 19.6251 82.5708L50.904 57.8986L82.0387 82.4958C81.096 84.1614 80.092 85.8161 79.0107 87.4682V87.4682ZM13.9432 70.5802L50.904 41.428L87.7093 70.5026C86.7827 72.9041 85.748 75.288 84.5867 77.6625L50.9067 51.0547L17.0765 77.7469C15.912 75.3693 14.8724 72.9812 13.9432 70.5802ZM3.83026 4.39865L3.85213 5.31064C3.90359 7.38798 3.94693 9.46131 3.9896 11.5293C4.55413 38.5 5.08693 63.9734 21.1115 88.4412C27.7235 98.5374 37.8724 106.94 50.46 112.739L50.836 112.914L51.2133 112.739C63.7813 106.922 73.9133 98.5197 80.5107 88.4412C96.532 63.9828 97.068 38.5187 97.6333 11.5547C97.6773 9.47999 97.7213 7.39598 97.772 5.31064L97.7947 4.39865H3.83026" fill="#231F20"/>
</svg>
